<svg width="205" height="48" viewBox="0 0 205 48" fill="none" xmlns="http://www.w3.org/2000/svg">
<path fill-rule="evenodd" clip-rule="evenodd" d="M30.9839 27.9146C30.3735 28.3005 29.6548 28.3483 29.1084 28.0401C28.4144 27.6483 28.0328 26.7306 28.0328 25.4544V21.636C28.0328 19.7921 27.3038 18.48 26.0848 18.1257C24.0189 17.5239 22.4652 20.0516 21.8813 21.0009L18.2379 26.9082V19.6879C18.197 18.0267 17.6574 17.033 16.633 16.7334C15.9552 16.5354 14.9411 16.6148 13.956 18.1223L5.79329 31.2294C4.7005 29.1548 4.13083 26.8448 4.13378 24.5C4.13378 16.6045 10.4611 10.1816 18.2379 10.1816C26.0148 10.1816 32.3412 16.6045 32.3412 24.5C32.3412 24.5137 32.3446 24.5256 32.3455 24.5384C32.3455 24.5521 32.3429 24.564 32.3438 24.5777C32.4172 26.1066 31.9221 27.3222 30.9839 27.9146ZM35.475 24.5009V24.4607L35.4741 24.4215C35.4306 14.8059 27.7161 7 18.2371 7C8.73329 7 1 14.8502 1 24.5C1 34.1489 8.73329 42 18.2379 42C22.5993 42 26.7617 40.3422 29.957 37.333C30.5921 36.7355 30.6296 35.729 30.0406 35.0854C29.902 34.9325 29.7342 34.8088 29.5472 34.7216C29.3601 34.6344 29.1576 34.5853 28.9514 34.5774C28.7451 34.5694 28.5394 34.6027 28.3462 34.6753C28.153 34.7479 27.9762 34.8582 27.8262 35C25.2363 37.4525 21.8048 38.8191 18.2379 38.8184C14.0738 38.8184 10.3271 36.9754 7.74305 34.0524L15.1041 22.2327V27.6816C15.1041 30.2989 16.1191 31.1449 16.9702 31.3924C17.8222 31.64 19.124 31.471 20.4907 29.2515L24.5396 22.6877C24.6694 22.476 24.7889 22.2933 24.8982 22.1354V25.4544C24.8982 27.901 25.8782 29.8576 27.5863 30.8213C29.1263 31.6904 31.0624 31.6118 32.64 30.6165C34.5522 29.4085 35.5826 27.183 35.475 24.5009ZM59.4739 18.5218C59.8879 18.7737 60.2465 19.3337 60.2465 19.8382C60.2465 20.65 59.5567 21.3218 58.7842 21.3218C58.5912 21.3218 58.3983 21.2663 58.2327 21.21C57.3218 20.5382 56.1634 20.09 54.9495 20.09C52.0812 20.09 50.0948 22.4418 50.0948 25.3537C50.0948 28.2663 52.0812 30.59 54.9495 30.59C56.3837 30.59 57.6531 30.0018 58.6185 29.1063C58.868 28.927 59.1667 28.8292 59.4739 28.8263C60.2465 28.8263 60.8534 29.4418 60.8534 30.2263C60.8534 30.73 60.5495 31.1782 60.1637 31.43C58.7842 32.6063 56.9087 33.39 54.9777 33.39C50.5643 33.39 46.9772 29.75 46.9772 25.27C46.9772 20.79 50.5634 17.15 54.9777 17.15C56.6329 17.15 58.2045 17.6537 59.4739 18.5218ZM67.5444 21.91C70.551 21.91 73.0889 24.4582 73.0889 27.5937C73.0889 30.73 70.551 33.39 67.5444 33.39C64.3995 33.39 61.7788 30.73 61.7788 27.5937C61.7788 24.4582 64.3995 21.91 67.5444 21.91ZM67.5162 30.59C68.8411 30.59 69.9713 29.33 69.9713 27.6218C69.9713 25.9145 68.8411 24.85 67.5162 24.85C66.0821 24.85 64.8955 25.8863 64.8955 27.6218C64.8955 29.33 66.0821 30.59 67.5162 30.59ZM74.9798 31.6537V23.6463C74.9798 22.7782 75.6695 22.05 76.5249 22.05C77.3802 22.05 78.0973 22.7782 78.0973 23.6463V31.6537C78.0973 32.5218 77.3802 33.25 76.5249 33.25C75.6695 33.25 74.9798 32.5218 74.9798 31.6537ZM74.7322 19.0263C74.7322 17.99 75.5312 17.15 76.5249 17.15C77.545 17.15 78.3731 17.99 78.3731 19.0263C78.3731 20.0337 77.545 20.8463 76.5249 20.8463C75.5312 20.8463 74.7322 20.0337 74.7322 19.0263ZM84.0712 27.3137V31.6537C84.0712 32.5218 83.3542 33.25 82.4979 33.25C81.6434 33.25 80.9528 32.5218 80.9528 31.6537V23.2818C80.9528 22.61 81.5051 22.05 82.1676 22.05C82.8292 22.05 83.3542 22.61 83.3542 23.2818C84.6227 22.1063 85.7256 21.91 86.7739 21.91C89.8915 21.91 91.271 24.2618 91.271 26.9218V31.6537C91.271 32.5218 90.5539 33.25 89.6985 33.25C88.8432 33.25 88.1534 32.5218 88.1534 31.6537V27.3137C88.1534 25.9418 87.9878 24.7937 86.0295 24.7937C84.65 24.7937 84.0712 25.9418 84.0712 27.3137ZM101.41 28.9663C101.051 28.9663 100.804 28.7982 100.61 28.5737L96.9683 24.6263V31.6537C96.9683 32.5218 96.2512 33.25 95.3959 33.25C94.5405 33.25 93.8507 32.5218 93.8507 31.6537V17.739C93.8953 17.6218 93.975 17.5212 94.0789 17.4509C94.1828 17.3806 94.3058 17.3441 94.4312 17.3463C94.7061 17.3463 94.9264 17.5709 95.0928 17.739L100.886 24.2627C101.051 24.459 101.272 24.5709 101.383 24.5709C101.493 24.5709 101.713 24.459 101.879 24.2635L107.672 17.739C107.838 17.5709 108.058 17.3463 108.334 17.3463C108.61 17.3463 108.831 17.5145 108.914 17.739V31.6537C108.914 32.5218 108.224 33.25 107.368 33.25C106.513 33.25 105.796 32.5218 105.796 31.6537V24.6263L102.155 28.5737C101.961 28.7982 101.713 28.9663 101.41 28.9663ZM116.404 30.59C117.811 30.59 118.997 29.33 118.997 27.6218C118.997 25.9145 117.784 24.7937 116.404 24.7937C115.025 24.7937 113.921 25.9418 113.921 27.6218C113.921 29.2737 115.025 30.59 116.404 30.59ZM119.715 32.0182L119.659 31.6537C119.052 32.8573 117.121 33.39 115.879 33.39C112.955 33.39 110.804 30.73 110.804 27.5937C110.804 24.4582 113.01 21.91 116.045 21.91C116.569 21.91 118.307 22.05 119.659 23.6463L119.714 23.2818C119.714 22.61 120.238 22.05 120.901 22.05C121.562 22.05 122.114 22.61 122.114 23.2818V32.0182C122.114 32.69 121.562 33.25 120.9 33.25C120.238 33.25 119.713 32.69 119.713 32.0182H119.715ZM130.764 24.7937H130.433C128.474 24.9063 128.088 26.0263 128.088 27.3137V31.6537C128.088 32.5218 127.371 33.25 126.516 33.25C125.661 33.25 124.971 32.5218 124.971 31.6537V23.2818C124.971 22.61 125.522 22.05 126.185 22.05C126.847 22.05 127.371 22.61 127.371 23.2818C128.53 22.19 129.468 21.9663 130.433 21.91H130.736C131.482 21.91 132.171 22.5537 132.171 23.3663C132.171 24.1218 131.509 24.7937 130.764 24.7937ZM142.779 30.9263C142.917 31.15 143 31.4018 143 31.6818C143 32.4937 142.255 33.25 141.455 33.25C140.904 33.25 140.434 32.83 140.076 32.3818L136.49 28.21V31.6537C136.49 32.5218 135.772 33.25 134.917 33.25C134.061 33.25 133.372 32.5218 133.372 31.6537V18.9427C133.372 18.0737 134.061 17.3463 134.917 17.3463C135.772 17.3463 136.489 18.0737 136.489 18.9427V26.8663L140.076 22.89C140.434 22.47 140.875 22.05 141.428 22.05C142.2 22.05 142.917 22.7782 142.917 23.59C142.917 23.8418 142.862 24.0937 142.724 24.3182L139.883 27.4255L142.779 30.9263ZM148.891 24.85C148.036 24.85 146.656 25.2982 146.656 26.6137H151.153C151.153 25.27 149.718 24.85 148.89 24.85H148.891ZM152.973 28.6018H146.656C146.656 30.4782 148.449 30.7582 149.249 30.7582C149.829 30.7582 150.657 30.6463 151.291 30.3655C151.484 30.2263 151.815 30.1137 152.091 30.1137C152.781 30.1137 153.359 30.7027 153.359 31.4027C153.359 31.8782 153.056 32.2982 152.67 32.5218C151.705 33.2218 150.463 33.39 149.277 33.39C146.132 33.39 143.511 31.6827 143.511 27.7337C143.511 24.6263 145.111 21.91 148.836 21.91C151.842 21.91 154.132 23.87 154.187 27.37C154.187 28.0418 153.636 28.6018 152.973 28.6018ZM161.651 33.39H160.796C158.422 33.39 157.044 32.3537 157.044 28.63V24.7937H156.244C155.499 24.7937 154.837 24.1218 154.837 23.3663C154.837 22.5537 155.499 21.91 156.244 21.91H157.044V18.9418C157.044 18.0737 157.733 17.3455 158.589 17.3455C159.443 17.3455 160.161 18.0737 160.161 18.9418V21.91H161.457C162.202 21.91 162.865 22.5537 162.865 23.3663C162.865 24.1218 162.202 24.7937 161.457 24.7937H160.161V28.0137C160.161 30.1418 160.271 30.59 161.21 30.59H161.651C162.395 30.59 163.03 31.2063 163.03 31.99C163.03 32.7463 162.395 33.39 161.651 33.39ZM176.755 18.5218C177.169 18.7737 177.528 19.3337 177.528 19.8382C177.528 20.65 176.838 21.3218 176.066 21.3218C175.873 21.3218 175.679 21.2663 175.514 21.21C174.603 20.5382 173.445 20.09 172.231 20.09C169.363 20.09 167.376 22.4418 167.376 25.3537C167.376 28.2663 169.362 30.59 172.231 30.59C173.665 30.59 174.935 30.0018 175.9 29.1063C176.15 28.927 176.448 28.8292 176.755 28.8263C177.528 28.8263 178.134 29.4418 178.134 30.2263C178.134 30.73 177.831 31.1782 177.445 31.43C176.066 32.6063 174.189 33.39 172.258 33.39C167.845 33.39 164.259 29.75 164.259 25.27C164.259 20.79 167.844 17.15 172.258 17.15C173.915 17.15 175.486 17.6537 176.755 18.5218ZM184.66 30.59C186.067 30.59 187.253 29.33 187.253 27.6218C187.253 25.9145 186.039 24.7937 184.66 24.7937C183.281 24.7937 182.177 25.9418 182.177 27.6218C182.177 29.2737 183.281 30.59 184.66 30.59H184.66ZM187.97 32.0182L187.915 31.6537C187.308 32.8573 185.377 33.39 184.135 33.39C181.212 33.39 179.06 30.73 179.06 27.5937C179.06 24.4582 181.267 21.91 184.301 21.91C184.825 21.91 186.563 22.05 187.915 23.6463L187.97 23.2818C187.97 22.61 188.494 22.05 189.157 22.05C189.818 22.05 190.37 22.61 190.37 23.2818V32.0182C190.37 32.69 189.818 33.25 189.157 33.25C188.494 33.25 187.97 32.69 187.97 32.0182ZM198.937 30.59C200.316 30.59 201.419 29.2737 201.419 27.6218C201.419 25.9418 200.316 24.7937 198.937 24.7937C197.557 24.7937 196.344 25.9137 196.344 27.6218C196.344 29.33 197.53 30.59 198.937 30.59ZM196.344 32.4663V36.4418C196.344 37.31 195.626 38.0382 194.771 38.0382C193.917 38.0382 193.226 37.31 193.226 36.4418V23.2818C193.226 22.61 193.778 22.05 194.441 22.05C195.102 22.05 195.627 22.61 195.627 23.3937C196.785 22.19 198.22 21.91 199.296 21.91C202.33 21.91 204.537 24.4582 204.537 27.5937C204.537 30.73 202.386 33.39 199.461 33.39C198.551 33.39 197.199 33.11 196.344 32.4663Z" fill="white"/>
</svg>
