<svg width="210" height="72" viewBox="0 0 210 72" fill="none" xmlns="http://www.w3.org/2000/svg">
<g clip-path="url(#clip0_2601_6047)">
<path d="M67.9254 24.7441C60.8958 24.7441 55.0381 27.7264 55.0381 36.7239C55.0381 43.8519 58.977 48.3407 68.1069 48.3407C78.8533 48.3407 79.5422 41.2617 79.5422 41.2617H74.3351C74.3351 41.2617 73.2186 45.0735 67.7893 45.0735C63.3673 45.0735 60.1868 42.0863 60.1868 37.8992H80.0867V35.2718C80.0867 31.1296 77.4571 24.7441 67.9254 24.7441ZM67.7439 28.1021C71.9532 28.1021 74.8229 30.6808 74.8229 34.5458H60.3019C60.3019 30.4427 64.0475 28.1021 67.7439 28.1021Z" fill="white"/>
<path d="M80.0774 16.0332V43.8238C80.0774 45.4013 79.9648 47.6163 79.9648 47.6163H84.9313C84.9313 47.6163 85.1096 46.0254 85.1096 44.5716C85.1096 44.5716 87.5634 48.4104 94.2354 48.4104C101.261 48.4104 106.034 43.5326 106.034 36.544C106.034 30.0427 101.65 24.8138 94.2467 24.8138C87.314 24.8138 85.1598 28.5575 85.1598 28.5575V16.0332H80.0774ZM92.9648 28.2512C97.7359 28.2512 100.77 31.7922 100.77 36.544C100.77 41.6395 97.2657 44.973 92.9988 44.973C87.9066 44.973 85.1598 40.997 85.1598 36.5894C85.1598 32.4824 87.6246 28.2512 92.9648 28.2512Z" fill="white"/>
<path d="M118.379 24.7441C107.804 24.7441 107.125 30.5348 107.125 31.4601H112.389C112.389 31.4601 112.665 28.0794 118.016 28.0794C121.493 28.0794 124.187 29.6709 124.187 32.7307V33.8197H118.016C109.823 33.8197 105.492 36.2165 105.492 41.0802C105.492 45.8668 109.494 48.4711 114.902 48.4711C122.273 48.4711 124.647 44.3985 124.647 44.3985C124.647 46.0184 124.772 47.6146 124.772 47.6146H129.451C129.451 47.6146 129.27 45.636 129.27 44.3701V33.4283C129.27 26.254 123.483 24.7441 118.379 24.7441ZM124.187 37.0869V38.539C124.187 40.433 123.019 45.1415 116.139 45.1415C112.371 45.1415 110.756 43.2612 110.756 41.0802C110.756 37.1125 116.195 37.0869 124.187 37.0869Z" fill="white"/>
<path d="M126.436 25.6543H132.357L140.856 42.6808L149.335 25.6543H154.7L139.255 55.9668H133.628L138.085 47.5167L126.436 25.6543Z" fill="white"/>
</g>
<defs>
<clipPath id="clip0_2601_6047">
<rect width="99.7306" height="40" fill="white" transform="translate(55 16)"/>
</clipPath>
</defs>
</svg>
