<svg width="210" height="72" viewBox="0 0 210 72" fill="none" xmlns="http://www.w3.org/2000/svg">
<g clip-path="url(#clip0_2601_7773)">
<path d="M77.3611 35.6589C77.3102 34.4028 77.5085 33.149 77.9446 31.9699C78.3807 30.7908 79.0459 29.7097 79.902 28.7891C80.758 27.8684 81.7879 27.1264 82.9322 26.6058C84.0765 26.0852 85.3125 25.7963 86.569 25.7559H86.9594C91.8157 25.7559 94.6819 28.6125 95.5294 31.9548L92.5108 32.9641C92.2396 31.7186 91.5297 30.6122 90.5106 29.8465C89.4915 29.0809 88.2312 28.7071 86.9594 28.7934C83.8171 28.7934 80.6653 31.0882 80.6653 35.716C80.6653 40.3438 83.741 42.5529 86.9975 42.5529C88.2756 42.5878 89.5284 42.193 90.5556 41.4317C91.5827 40.6704 92.3249 39.5866 92.6632 38.3536L95.6246 39.3058C95.1134 41.1867 93.9764 42.837 92.4011 43.9847C90.8258 45.1324 88.9064 45.7089 86.9594 45.619C84.4582 45.6649 82.0412 44.7157 80.2395 42.9802C78.4379 41.2446 77.3991 38.8647 77.3516 36.3635C77.3421 36.135 77.3516 35.8969 77.3611 35.6589Z" fill="#EFEFEF"/>
<path d="M101.499 45.1776H98.376V25.6953H101.499V33.313C101.953 32.7752 102.523 32.3481 103.166 32.0643C103.81 31.7804 104.51 31.6474 105.213 31.6752C108.441 31.6752 109.974 33.9891 109.974 36.8743V45.1776H106.965V37.4266C107.055 36.7658 106.882 36.0961 106.483 35.5618C106.084 35.0274 105.491 34.6712 104.832 34.5699C104.645 34.5508 104.457 34.5508 104.27 34.5699C103.548 34.5699 102.855 34.8569 102.344 35.3676C101.834 35.8783 101.547 36.571 101.547 37.2933C101.542 37.3725 101.542 37.452 101.547 37.5313L101.499 45.1776Z" fill="#EFEFEF"/>
<path d="M116.983 37.675L120.335 37.1512C121.097 37.056 121.287 36.6656 121.287 36.199C121.287 35.0945 120.544 34.2089 118.811 34.2089C118.157 34.156 117.508 34.3632 117.005 34.7857C116.503 35.2082 116.187 35.8118 116.126 36.4657V36.6085L113.27 35.9705C113.508 33.7042 115.564 31.6855 118.783 31.6855C122.82 31.6855 124.353 33.9709 124.353 36.6371V43.1407C124.35 43.8454 124.404 44.5492 124.515 45.2451H121.659C121.556 44.6927 121.514 44.1307 121.535 43.5692C121.101 44.2365 120.5 44.7784 119.792 45.141C119.083 45.5036 118.292 45.6741 117.497 45.6355C116.412 45.7251 115.335 45.3804 114.503 44.6771C113.671 43.9738 113.152 42.9692 113.06 41.8837C113.06 41.8171 113.06 41.7504 113.06 41.6933C113.012 39.2842 114.736 37.9892 116.983 37.675ZM121.306 39.7794V39.1795L117.888 39.6937C117.424 39.7084 116.983 39.9019 116.659 40.2337C116.334 40.5655 116.15 41.01 116.145 41.4743C116.149 41.7044 116.198 41.9314 116.291 42.1421C116.383 42.3529 116.516 42.5431 116.683 42.7018C116.85 42.8604 117.046 42.9843 117.261 43.0662C117.476 43.1481 117.705 43.1864 117.935 43.1788H118.078C118.468 43.2195 118.862 43.1828 119.237 43.0707C119.613 42.9586 119.963 42.7733 120.266 42.5254C120.57 42.2776 120.821 41.9722 121.006 41.6267C121.191 41.2813 121.306 40.9026 121.344 40.5126C121.358 40.2671 121.342 40.021 121.297 39.7794H121.306Z" fill="#EFEFEF"/>
<path d="M129.665 25.4331C129.934 25.4293 130.2 25.4786 130.45 25.5781C130.699 25.6777 130.926 25.8255 131.118 26.013C131.31 26.2006 131.463 26.4243 131.568 26.6712C131.674 26.9181 131.729 27.1834 131.732 27.4518C131.732 27.8536 131.613 28.2464 131.39 28.5809C131.168 28.9153 130.851 29.1765 130.48 29.3315C130.11 29.4866 129.701 29.5286 129.307 29.4522C128.912 29.3759 128.549 29.1846 128.263 28.9025C127.977 28.6204 127.781 28.2599 127.699 27.8666C127.617 27.4732 127.653 27.0644 127.803 26.6916C127.953 26.3188 128.21 25.9986 128.541 25.7713C128.873 25.544 129.264 25.4197 129.665 25.4141V25.4331ZM128.142 45.2391V32.0796H131.265V45.182L128.142 45.2391Z" fill="#EFEFEF"/>
<path d="M138.379 45.187H135.266V32.0846H138.303V33.8271C138.699 33.158 139.268 32.6077 139.95 32.2341C140.632 31.8605 141.402 31.6773 142.179 31.7037C145.378 31.7037 146.94 34.0175 146.94 36.9027V45.187H143.826V37.436C143.826 35.8267 143.093 34.5222 141.131 34.5222C140.769 34.5247 140.41 34.5986 140.076 34.7397C139.742 34.8808 139.439 35.0863 139.184 35.3445C138.93 35.6027 138.728 35.9085 138.592 36.2445C138.455 36.5805 138.386 36.94 138.389 37.3027C138.389 37.4074 138.389 37.5122 138.389 37.6169L138.379 45.187Z" fill="#EFEFEF"/>
<path d="M150.71 45.1776V25.6953H153.833V45.1776H150.71Z" fill="#EFEFEF"/>
<path d="M159.404 25.4317C159.806 25.4298 160.2 25.5474 160.535 25.7695C160.87 25.9916 161.131 26.3083 161.286 26.6793C161.441 27.0503 161.482 27.4589 161.404 27.8532C161.326 28.2475 161.132 28.6098 160.848 28.894C160.564 29.1782 160.202 29.3716 159.807 29.4496C159.413 29.5275 159.004 29.4865 158.633 29.3319C158.262 29.1772 157.946 28.9157 157.724 28.5807C157.501 28.2457 157.384 27.8523 157.386 27.4504C157.391 26.9165 157.605 26.4059 157.983 26.0284C158.36 25.6509 158.871 25.4366 159.404 25.4317ZM157.871 45.2377V32.0781H160.966V45.1806L157.871 45.2377Z" fill="#EFEFEF"/>
<path d="M168.126 45.1868H165.002V32.0844H168.04V33.8269C168.437 33.1585 169.006 32.6088 169.687 32.2353C170.369 31.8618 171.139 31.6781 171.916 31.7035C175.115 31.7035 176.677 34.0174 176.677 36.9026V45.1868H173.553V37.4358C173.643 36.7751 173.47 36.1053 173.071 35.571C172.672 35.0366 172.079 34.6804 171.42 34.5792C171.23 34.5601 171.039 34.5601 170.849 34.5792C170.122 34.5867 169.427 34.8809 168.915 35.398C168.403 35.9151 168.116 36.6131 168.116 37.3406C168.106 37.4515 168.106 37.563 168.116 37.6739L168.126 45.1868Z" fill="#EFEFEF"/>
<path d="M187.332 37.6075L192.827 45.2252H189.018L185.209 39.8262L183.6 41.5211V45.1776H180.505V25.6953H183.6V37.3694L188.627 32.0751H192.769L187.332 37.6075Z" fill="#EFEFEF"/>
<path d="M40.3863 20.4227L53.8887 28.1737V43.7519L40.4244 51.5505L26.9316 43.8185V28.2498L40.3863 20.4227ZM40.3863 8.99609L35.4348 11.8527L21.9515 19.6799L17 22.5366V49.5509L21.9515 52.4075L35.4539 60.1585L40.4054 63.0151L45.3569 60.1585L58.8117 52.3504L63.7632 49.4937V22.4413L58.8117 19.5847L45.3188 11.8527L40.3673 8.99609H40.3863Z" fill="#EFEFEF"/>
</g>
<defs>
<clipPath id="clip0_2601_7773">
<rect width="175.826" height="54" fill="white" transform="translate(17 9)"/>
</clipPath>
</defs>
</svg>
