<svg width="210" height="72" viewBox="0 0 210 72" fill="none" xmlns="http://www.w3.org/2000/svg">
<g clip-path="url(#clip0_2601_7862)">
<path d="M37.544 14.2305C32.2731 14.2305 28 18.5035 28 23.7745V48.2359C28 53.5068 32.2731 57.7799 37.544 57.7799H61.9542C67.2252 57.7799 71.4983 53.5068 71.4983 48.2359V23.7745C71.4983 18.5035 67.2252 14.2305 61.9542 14.2305H37.544Z" fill="white"/>
<path d="M58.0917 35.9543C59.4478 35.5961 60.676 34.547 60.676 32.4744C60.676 28.9946 57.7846 28.1758 54.0489 28.1758H39.2339V43.8352H45.4772V38.513H52.8719C54.0233 38.513 54.6886 38.9736 54.6886 40.0994V43.8096H60.9318V39.8947C60.9063 37.7966 59.7292 36.4404 58.0917 35.9543Z" fill="#0746CB"/>
<path d="M53.8948 32.5488H45.4766V34.6982H53.8948H53.9203C54.5088 34.6982 54.9694 34.212 54.9694 33.6235C54.9694 33.035 54.5088 32.5488 53.9203 32.5488C53.9203 32.5488 53.9203 32.5488 53.8948 32.5488Z" fill="white"/>
<path d="M157.881 39.5351C157.881 44.1152 155.246 47.2624 150.768 47.2624C148.926 47.2624 147.237 46.4948 146.495 45.2922V47.0066H142.759V25.9995H146.495V33.7012C147.365 32.5754 148.952 31.8078 150.819 31.8078C155.246 31.8078 157.881 34.955 157.881 39.5351ZM146.265 39.5351C146.265 42.2473 147.826 44.0128 150.231 44.0128C152.611 44.0128 154.171 42.2217 154.171 39.5351C154.171 36.8228 152.611 35.0573 150.231 35.0573C147.826 35.0573 146.265 36.8228 146.265 39.5351ZM104.66 47.0066L100.106 37.7184C102.153 36.7205 103.355 34.7247 103.355 32.3707C103.355 28.6349 100.72 26.2297 96.6513 26.2297H86.749L86.7746 47.0066H90.7918V38.486H95.9604L99.952 47.0066H104.66ZM90.8174 29.7096H96.0372C98.1097 29.7096 99.2868 30.7075 99.2868 32.3707C99.2868 34.0338 98.1097 35.0062 96.0372 35.0062H90.8174V29.7096ZM116.916 32.0636H120.652V47.0066H116.916V45.2922C116.174 46.4692 114.511 47.2624 112.643 47.2624C108.166 47.2624 105.53 44.1152 105.53 39.5351C105.53 34.955 108.166 31.8078 112.592 31.8078C114.46 31.8078 116.046 32.5754 116.916 33.7012V32.0636ZM109.24 39.5351C109.24 42.2473 110.801 44.0128 113.181 44.0128C115.586 44.0128 117.147 42.2217 117.147 39.5351C117.147 36.8228 115.586 35.0573 113.181 35.0573C110.801 35.0573 109.24 36.8228 109.24 39.5351ZM133.855 32.0636L133.625 35.697C133.087 35.4667 132.371 35.3388 131.731 35.3388C129.633 35.3388 127.74 37.0787 127.74 41.5309V47.0066H124.004V32.038H127.74V34.7759C128.482 33.0871 130.426 31.8078 132.243 31.8078C132.755 31.8078 133.395 31.9101 133.855 32.0636ZM139.459 47.0066H135.723V32.038H139.459V47.0066ZM160.415 47.0066H164.15V25.9995H160.415V47.0066ZM181.524 39.0233C181.524 35.5435 179.068 31.8078 174.027 31.8078C169.089 31.8078 166.658 35.6458 166.658 39.5351C166.658 43.4243 169.293 47.2624 174.232 47.2624C177.737 47.2624 180.321 45.5993 181.166 42.7847L177.66 41.8379C177.277 43.2964 176.023 44.1152 174.283 44.1152C172.159 44.1152 170.701 42.7847 170.368 40.533H181.447C181.498 40.2259 181.524 39.5607 181.524 39.0233ZM170.496 37.7696C170.905 35.7482 172.21 34.6479 174.053 34.6479C176.228 34.6479 177.379 35.9785 177.558 37.7696H170.496ZM135.288 26.7671C135.288 25.8203 136.056 25.0527 137.002 25.0527H138.23C139.177 25.0527 139.945 25.8203 139.945 26.7671V27.9953C139.945 28.942 139.177 29.7096 138.23 29.7096H137.002C136.056 29.7096 135.288 28.942 135.288 27.9953V26.7671Z" fill="white"/>
</g>
<defs>
<clipPath id="clip0_2601_7862">
<rect width="153.523" height="44.01" fill="white" transform="translate(28 14)"/>
</clipPath>
</defs>
</svg>
