<svg width="210" height="72" viewBox="0 0 210 72" fill="none" xmlns="http://www.w3.org/2000/svg">
<path d="M40.4376 44.6963C39.9159 44.6963 39.655 44.5659 39.3942 44.4355C39.2637 44.1746 39.1333 43.9137 39.1333 43.5224V28.9137C39.1333 28.5224 39.2637 28.1311 39.3942 28.0007C39.655 27.7398 39.9159 27.6094 40.4376 27.6094H46.5681C48.9159 27.6094 50.6116 28.1311 51.7855 29.0442C52.829 30.0876 53.4811 31.5224 53.4811 33.4789C53.4811 35.4355 52.9594 36.8702 51.7855 37.9137C50.742 38.8268 48.9159 39.3485 46.5681 39.3485H44.2203V43.392C44.2203 43.7833 44.0898 44.1746 43.9594 44.305C43.6985 44.5659 43.4377 44.5659 42.9159 44.5659H40.4376V44.6963ZM46.1768 35.6963C46.829 35.6963 47.3507 35.5659 47.742 35.1746C48.1333 34.7833 48.2637 34.2616 48.2637 33.4789C48.2637 32.6963 48.1333 32.1746 47.742 31.7833C47.3507 31.392 46.829 31.2616 46.1768 31.2616H44.2203V35.6963H46.1768Z" fill="white"/>
<path d="M59.3487 45.0888C57.7835 45.0888 56.4792 44.5671 55.5661 43.5236C54.6531 42.4801 54.1313 41.0453 54.1313 39.2193C54.1313 37.7845 54.3922 36.6106 55.0444 35.5671C55.6966 34.5236 56.6096 33.741 57.7835 33.0888C58.9574 32.5671 60.3922 32.1758 61.827 32.1758C63.1313 32.1758 64.1748 32.3062 65.2183 32.5671C66.2618 32.828 67.0444 33.2193 67.9574 33.741V43.7845C67.9574 44.0453 67.9574 44.3062 67.827 44.4367C67.6966 44.5671 67.4357 44.5671 67.1748 44.5671H64.5661C64.4357 44.5671 64.1748 44.5671 64.1748 44.4367C64.0444 44.3062 64.0444 44.3062 63.914 44.1758L63.5227 43.3932C63.0009 43.9149 62.4792 44.3062 61.827 44.5671C61.1748 44.9584 60.2618 45.0888 59.3487 45.0888ZM61.1748 41.6975C61.827 41.6975 62.3487 41.5671 62.74 41.1758C63.1313 40.9149 63.2618 40.3932 63.2618 39.8714V35.9584C63.0009 35.828 62.4792 35.6975 62.0879 35.6975C61.1748 35.6975 60.5227 35.9584 60.0009 36.6106C59.4792 37.2627 59.2183 38.0453 59.2183 39.2193C59.2183 40.7845 59.8705 41.6975 61.1748 41.6975Z" fill="white"/>
<path d="M71.4801 44.694C70.9584 44.694 70.6975 44.5636 70.4366 44.4332C70.1758 44.1723 70.1758 43.9114 70.1758 43.5201V33.3462C70.1758 33.0853 70.1758 32.8245 70.3062 32.694C70.4366 32.5636 70.6975 32.5636 70.9584 32.5636H73.5671C73.828 32.5636 73.9584 32.5636 73.9584 32.694C74.0888 32.694 74.0888 32.8245 74.2193 32.9549L74.3497 33.7375C74.8714 33.2158 75.3932 32.9549 76.1758 32.694C76.9584 32.4332 77.741 32.3027 78.7845 32.3027C80.0888 32.3027 81.2627 32.694 82.0453 33.4766C82.828 34.2593 83.3497 35.3027 83.3497 36.868V43.5201C83.3497 43.9114 83.2193 44.3027 83.0888 44.4332C82.9584 44.694 82.5671 44.694 82.0453 44.694H79.5671C79.0453 44.694 78.7845 44.5636 78.5236 44.4332C78.2627 44.1723 78.2627 43.9114 78.2627 43.5201V37.1288C78.2627 36.6071 78.1323 36.2158 77.8714 36.0853C77.6106 35.8245 77.3497 35.694 76.828 35.694C76.3062 35.694 75.9149 35.8245 75.654 36.0853C75.3932 36.3462 75.2627 36.7375 75.2627 37.1288V43.3897C75.2627 43.781 75.1323 44.1723 75.0019 44.3027C74.8714 44.5636 74.4801 44.5636 73.9584 44.5636H71.4801V44.694Z" fill="white"/>
<path d="M92.217 45.0853C89.8692 45.0853 88.0431 44.5636 86.7387 43.3897C85.4344 42.3462 84.7822 40.781 84.7822 38.694C84.7822 37.3897 85.0431 36.3462 85.6953 35.3027C86.217 34.3897 87.1301 33.6071 88.1735 33.0853C89.3474 32.5636 90.6518 32.3027 92.0866 32.3027C93.2605 32.3027 94.1735 32.4332 94.9561 32.694C95.7388 32.9549 96.5214 33.2158 97.0431 33.7375C97.1735 33.868 97.304 33.9984 97.304 34.1288C97.304 34.2593 97.1735 34.3897 97.0431 34.6506L95.9996 36.4766C95.8692 36.7375 95.7388 36.868 95.6083 36.868C95.4779 36.868 95.3474 36.7375 95.0866 36.6071C94.6953 36.3462 94.1735 36.0853 93.7822 35.9549C93.3909 35.8245 92.8692 35.694 92.3474 35.694C91.5648 35.694 90.7822 35.9549 90.2605 36.4766C89.7387 36.9984 89.4779 37.781 89.4779 38.694C89.4779 39.6071 89.7387 40.3897 90.2605 40.9114C90.7822 41.4332 91.4344 41.694 92.3474 41.694C92.8692 41.694 93.3909 41.5636 93.7822 41.4332C94.1735 41.3027 94.6953 41.0419 95.0866 40.781C95.3474 40.6506 95.4779 40.5201 95.6083 40.5201C95.7388 40.5201 95.8692 40.6506 95.9996 40.9114L97.1735 42.868C97.304 42.9984 97.304 43.1288 97.304 43.2593C97.304 43.3897 97.1735 43.5201 97.0431 43.6506C96.3909 44.0419 95.6083 44.4332 94.6953 44.694C94.304 44.9549 93.3909 45.0853 92.217 45.0853Z" fill="white"/>
<path d="M104.087 45.0888C102.522 45.0888 101.217 44.5671 100.304 43.5236C99.3914 42.4801 98.8696 41.0453 98.8696 39.2193C98.8696 37.7845 99.1305 36.6106 99.7827 35.5671C100.435 34.5236 101.348 33.741 102.522 33.0888C103.696 32.5671 105.13 32.1758 106.565 32.1758C107.87 32.1758 108.913 32.3062 109.957 32.5671C111 32.828 111.783 33.2193 112.696 33.741V43.7845C112.696 44.0453 112.696 44.3062 112.565 44.4367C112.435 44.5671 112.174 44.5671 111.913 44.5671H109.304C109.174 44.5671 108.913 44.5671 108.913 44.4367C108.783 44.3062 108.783 44.3062 108.652 44.1758L108.261 43.3932C107.739 43.9149 107.217 44.3062 106.565 44.5671C105.913 44.9584 105.13 45.0888 104.087 45.0888ZM106.044 41.6975C106.696 41.6975 107.217 41.5671 107.609 41.1758C108 40.9149 108.13 40.3932 108.13 39.8714V35.9584C107.87 35.828 107.348 35.6975 106.957 35.6975C106.044 35.6975 105.391 35.9584 104.87 36.6106C104.348 37.2627 104.087 38.0453 104.087 39.2193C103.957 40.7845 104.609 41.6975 106.044 41.6975Z" fill="white"/>
<path d="M128.608 43.7833C128.739 43.9137 128.739 44.0442 128.739 44.1746C128.739 44.305 128.739 44.4355 128.608 44.5659C128.478 44.6963 128.347 44.6963 128.217 44.6963H124.304C124.043 44.6963 123.913 44.6963 123.782 44.6963C123.652 44.6963 123.521 44.5659 123.391 44.4355L120 39.7398V43.392C120 43.7833 119.869 44.1746 119.739 44.305C119.478 44.5659 119.217 44.5659 118.695 44.5659H116.217C115.695 44.5659 115.434 44.4355 115.173 44.305C115.043 44.0442 114.913 43.7833 114.913 43.392V28.9137C114.913 28.5224 115.043 28.1311 115.173 28.0007C115.434 27.7398 115.695 27.6094 116.217 27.6094H118.695C119.217 27.6094 119.478 27.7398 119.739 28.0007C120 28.2616 120 28.5224 120 28.9137V37.2616L123.26 32.9572C123.391 32.8268 123.521 32.6963 123.652 32.6963C123.782 32.6963 123.913 32.5659 124.173 32.5659H128.087C128.217 32.5659 128.347 32.5659 128.478 32.6963C128.608 32.8268 128.608 32.9572 128.608 33.0876C128.608 33.2181 128.608 33.3485 128.478 33.4789L124.173 38.4355L128.608 43.7833Z" fill="white"/>
<path d="M136.695 45.0877C135.261 45.0877 134.087 44.8269 132.913 44.4355C131.869 43.9138 130.956 43.2616 130.304 42.3486C129.652 41.4355 129.391 40.2616 129.391 38.9573C129.391 36.8703 130.043 35.1747 131.217 34.1312C132.391 32.9573 134.217 32.4355 136.435 32.4355C138.652 32.4355 140.348 32.9573 141.391 34.1312C142.565 35.1747 143.087 36.7399 143.087 38.6964C143.087 39.479 142.695 40.0008 142.043 40.0008H134.217C134.217 40.7834 134.478 41.3051 135 41.6964C135.522 42.0877 136.435 42.2182 137.478 42.2182C138.13 42.2182 138.782 42.2182 139.174 42.0877C139.695 41.9573 140.087 41.6964 140.609 41.566C140.869 41.4355 141 41.4355 141 41.4355C141.13 41.4355 141.261 41.566 141.391 41.6964L142.304 43.2616C142.435 43.3921 142.435 43.5225 142.435 43.6529C142.435 43.7834 142.304 43.9138 142.174 44.0442C141.522 44.4355 140.739 44.8269 139.826 45.0877C138.782 44.9573 137.869 45.0877 136.695 45.0877ZM138.652 37.2616C138.652 36.6095 138.522 36.0877 138.13 35.8269C137.739 35.4355 137.217 35.3051 136.435 35.3051C135.652 35.3051 135.13 35.4355 134.739 35.8269C134.348 36.2182 134.217 36.6095 134.217 37.2616H138.652Z" fill="white"/>
<path d="M151.825 45.0833C150.391 45.0833 149.086 44.9529 147.782 44.692C146.478 44.4311 145.565 43.9094 144.782 43.3877C144.521 43.2572 144.391 42.9964 144.391 42.8659C144.391 42.7355 144.391 42.605 144.521 42.4746L145.695 40.5181C145.825 40.2572 145.956 40.2572 146.086 40.2572C146.217 40.2572 146.347 40.2572 146.478 40.3877C147.13 40.779 147.782 41.0398 148.565 41.3007C149.347 41.5616 150.13 41.692 150.912 41.692C151.695 41.692 152.217 41.5616 152.608 41.3007C152.999 41.0398 153.13 40.6485 153.13 40.1268C153.13 39.605 152.869 39.2137 152.478 38.9529C152.086 38.692 151.304 38.3007 150.13 37.9094C148.434 37.2572 147.13 36.605 146.217 35.8224C145.304 35.0398 144.782 33.8659 144.782 32.5616C144.782 30.8659 145.434 29.692 146.608 28.779C147.782 27.8659 149.347 27.4746 151.304 27.4746C152.738 27.4746 153.912 27.605 154.825 27.8659C155.869 28.1268 156.652 28.5181 157.304 28.9094C157.565 29.1703 157.695 29.3007 157.695 29.5616C157.695 29.692 157.695 29.8224 157.565 29.9529L156.391 31.9094C156.26 32.1703 156.13 32.1703 155.999 32.1703C155.869 32.1703 155.738 32.1703 155.608 32.0398C154.695 31.3877 153.521 31.1268 152.086 31.1268C151.304 31.1268 150.782 31.2572 150.391 31.5181C149.999 31.779 149.869 32.1703 149.869 32.692C149.869 33.0833 149.999 33.3442 150.13 33.605C150.391 33.8659 150.651 33.9964 150.912 34.2572C151.304 34.3877 151.825 34.6485 152.478 34.9094L152.999 35.0398C154.173 35.5616 155.217 35.9529 155.869 36.4746C156.651 36.8659 157.173 37.5181 157.565 38.1703C157.956 38.8224 158.086 39.605 158.086 40.5181C158.086 41.9529 157.565 43.2572 156.391 44.0398C155.608 44.5616 153.912 45.0833 151.825 45.0833Z" fill="white"/>
<path d="M163.697 44.6968C163.436 44.6968 163.306 44.6968 163.175 44.5664C163.045 44.436 162.914 44.3055 162.914 44.0447L159.653 33.2186C159.653 33.0881 159.653 33.0881 159.653 32.9577C159.653 32.6968 159.784 32.5664 160.175 32.5664H163.436C163.697 32.5664 163.827 32.5664 163.958 32.6968C164.088 32.8273 164.088 32.8273 164.219 33.0881L165.523 38.8273L167.219 34.2621C167.349 34.0012 167.349 33.8708 167.479 33.8708C167.61 33.7403 167.74 33.7403 168.001 33.7403H169.566C169.827 33.7403 169.958 33.7403 170.088 33.8708C170.219 34.0012 170.219 34.1316 170.349 34.2621L172.045 38.8273L173.479 33.0881C173.479 32.9577 173.61 32.8273 173.74 32.6968C173.871 32.5664 174.001 32.5664 174.132 32.5664H177.523C177.914 32.5664 178.045 32.6968 178.045 32.9577C178.045 32.9577 178.045 33.0881 178.045 33.2186L174.784 44.0447C174.653 44.3055 174.653 44.436 174.523 44.5664C174.392 44.6968 174.262 44.6968 174.001 44.6968H171.523C171.262 44.6968 171.132 44.6968 171.001 44.5664C170.871 44.436 170.74 44.3055 170.74 44.0447L169.045 39.4795L167.349 44.0447C167.219 44.3055 167.219 44.436 167.088 44.5664C166.958 44.6968 166.827 44.6968 166.566 44.6968H163.697Z" fill="white"/>
<path d="M184.044 45.0888C182.479 45.0888 181.174 44.5671 180.261 43.5236C179.348 42.4801 178.827 41.0453 178.827 39.2193C178.827 37.7845 179.088 36.6106 179.74 35.5671C180.392 34.5236 181.305 33.741 182.479 33.0888C183.653 32.5671 185.088 32.1758 186.522 32.1758C187.827 32.1758 188.87 32.3062 189.914 32.5671C190.957 32.828 191.74 33.2193 192.653 33.741V43.7845C192.653 44.0453 192.653 44.3062 192.522 44.4367C192.392 44.5671 192.131 44.5671 191.87 44.5671H189.261C189.131 44.5671 189.001 44.5671 188.87 44.4367C188.74 44.3062 188.74 44.3062 188.609 44.1758L188.218 43.3932C187.696 43.9149 187.174 44.3062 186.522 44.5671C185.87 44.9584 185.088 45.0888 184.044 45.0888ZM186.001 41.6975C186.653 41.6975 187.174 41.5671 187.566 41.1758C187.957 40.9149 188.088 40.3932 188.088 39.8714V35.9584C187.827 35.828 187.305 35.6975 186.914 35.6975C186.001 35.6975 185.348 35.9584 184.827 36.6106C184.305 37.2627 184.044 38.0453 184.044 39.2193C183.914 40.7845 184.566 41.6975 186.001 41.6975Z" fill="white"/>
<path d="M196.176 49.7834C195.654 49.7834 195.393 49.6529 195.132 49.5225C195.002 49.2616 194.872 49.0008 194.872 48.6095V34.2616C195.654 33.7399 196.567 33.2182 197.741 32.9573C198.915 32.566 200.089 32.4355 201.263 32.4355C206.35 32.4355 208.828 34.5225 208.828 38.8269C208.828 40.7834 208.306 42.3486 207.263 43.5225C206.219 44.6964 204.654 45.2182 202.698 45.2182C202.176 45.2182 201.654 45.0877 201.132 44.9573C200.611 44.8269 200.219 44.6964 199.828 44.4356V48.6095C199.828 49.0008 199.698 49.3921 199.567 49.5225C199.306 49.7834 199.045 49.7834 198.524 49.7834H196.176ZM201.654 41.6964C202.437 41.6964 202.959 41.4355 203.219 40.9138C203.611 40.3921 203.741 39.6095 203.741 38.6964C203.741 37.6529 203.48 36.8703 203.089 36.3486C202.698 35.9573 202.046 35.6964 201.132 35.6964C200.611 35.6964 200.089 35.8269 199.828 35.9573V39.8703C199.828 40.3921 199.959 40.9138 200.35 41.1747C200.611 41.566 201.132 41.6964 201.654 41.6964Z" fill="white"/>
<path fill-rule="evenodd" clip-rule="evenodd" d="M5.86957 24.7373C5.34783 22.1287 7.43478 19.6504 10.0435 19.6504C12.3913 19.6504 14.3478 21.6069 14.3478 23.9547V29.1721C15 29.1721 15.5217 29.1721 16.1739 29.1721C16.6957 29.1721 17.3478 29.1721 17.8696 29.1721V23.9547C17.8696 21.6069 19.8261 19.6504 22.1739 19.6504C24.7826 19.6504 26.8696 22.1287 26.3478 24.7373L25.1739 30.8678C29.087 32.5634 32.087 35.5634 32.087 39.346V41.5634C32.087 44.6939 30 47.3026 27.1304 48.9982C24.2609 50.8243 20.3478 51.8678 16.0435 51.8678C11.7391 51.8678 7.82609 50.8243 4.95652 48.9982C2.08696 47.3026 0 44.6939 0 41.5634V39.346C0 35.5634 3 32.5634 6.91304 30.8678L5.86957 24.7373Z" fill="white"/>
<path d="M12.1329 38.8279C12.1329 40.1322 11.3503 41.3061 10.5677 41.3061C9.78505 41.3061 9.00244 40.2627 9.00244 38.8279C9.00244 37.5235 9.78505 36.3496 10.5677 36.3496C11.3503 36.3496 12.1329 37.3931 12.1329 38.8279Z" fill="#290F73"/>
<path d="M23.3502 38.8279C23.3502 40.1322 22.5676 41.3061 21.7849 41.3061C20.8719 41.3061 20.2197 40.2627 20.2197 38.8279C20.2197 37.5235 21.0023 36.3496 21.7849 36.3496C22.5676 36.3496 23.3502 37.3931 23.3502 38.8279Z" fill="#290F73"/>
</svg>
