<svg width="210" height="72" viewBox="0 0 210 72" fill="none" xmlns="http://www.w3.org/2000/svg">
<g clip-path="url(#clip0_2601_6078)">
<path d="M49 46.6305V33.0826H56.5596C60.811 33.0826 64.5439 33.3099 65.0897 33.6021C65.9938 34.0859 66.0603 34.7368 66.0603 43.0999C66.0603 53.9607 66.2194 53.6553 60.5586 53.6553C56.1016 53.6553 56.0248 53.7241 56.0248 57.7106V60.1784H52.5124H49V46.6305ZM58.5337 43.4227C58.5337 37.9427 58.3962 36.6497 57.7887 36.4165C56.5105 35.926 56.0248 37.8198 56.0248 43.295C56.0248 49.2268 56.2334 50.1429 57.5838 50.1429C58.4685 50.1429 58.5337 49.6818 58.5337 43.4227ZM69.0886 59.2078C68.7702 58.6129 68.5692 53.3703 68.5692 45.66V33.0826H72.3325H76.0958V44.0257C76.0958 52.4137 76.2537 55.1849 76.7723 55.8941C78.3284 58.0222 78.6046 56.3185 78.6046 44.5938V33.0826H82.3679H86.1312V46.0284C86.1312 55.4283 85.9663 59.1391 85.5291 59.5763C85.1134 59.992 82.5558 60.1784 77.2675 60.1784C70.2083 60.1784 69.5673 60.1023 69.0886 59.2078ZM88.6401 47.2326C88.6401 37.8328 88.805 34.122 89.2422 33.6848C90.098 32.829 113.776 32.829 114.632 33.6848C115.069 34.122 115.234 37.8328 115.234 47.2326V60.1784H111.471H107.707V48.3499C107.707 37.3549 107.646 36.5334 106.829 36.6903C106.028 36.8444 105.94 37.8754 105.817 48.5188L105.682 60.1784H101.928H98.1738V48.6991C98.1738 39.7864 98.0253 37.0964 97.5096 36.6684C95.9253 35.3536 95.6649 37.0575 95.6649 48.738V60.1784H92.1525H88.6401V47.2326ZM118.245 47.1499C118.245 34.7826 118.294 34.0951 119.215 33.6021C120.619 32.851 133.94 32.9222 134.703 33.6848C135.14 34.122 135.305 37.8328 135.305 47.2326V60.1784H131.565H127.824L127.676 56.7914C127.562 54.1812 127.355 53.4045 126.775 53.4045C126.195 53.4045 125.988 54.1812 125.874 56.7914L125.725 60.1784H121.985H118.245V47.1499ZM127.528 43.3272C127.528 37.9006 127.405 36.8459 126.775 36.8459C126.156 36.8459 125.997 37.9094 125.88 42.838C125.729 49.1909 125.894 50.3528 126.901 50.0174C127.359 49.8646 127.528 48.0647 127.528 43.3272Z" fill="white"/>
<path d="M150.594 48.4177C150.277 48.0353 149.722 46.7052 149.611 45.3112C149.418 42.8625 149.922 43.0409 146.922 40.0281C144.502 37.5986 142.928 36.0026 141.841 32.8023C140.128 27.7625 137.886 26.4415 135.141 26.4415C132.599 26.4415 128.552 25.6263 126.387 24.6782C125.361 24.2289 123.37 22.8229 121.962 21.5538L119.403 19.2463L118.227 20.1711C116.666 21.3989 114.469 21.3376 111.158 19.9738C108.076 18.7043 107.495 18.7823 107.495 19.6748C107.495 20.7268 106.678 20.7745 105.512 20.0104C103.058 18.4026 105.13 15.7853 109.254 15.9906C111.71 16.1116 111.826 16.133 111.826 15.1299C111.826 13.9436 111.094 13.5231 109.03 13.5231C108.144 13.5231 107.371 13.2287 106.6 12.4899C106.127 12.2049 105.705 11.9829 105.434 11.3335C105.659 10.5092 105.891 9.98442 106.33 9.58801C106.757 8.75522 107.264 7.85648 108.165 7.28778C108.683 6.9604 109.188 5.9408 109.583 5.53869C109.933 5.18297 109.918 5.07161 110.52 5.56825C111.138 6.07875 111.379 6.08152 111.977 5.58506C112.58 5.08457 112.774 5.10119 113.205 5.69012C113.486 6.07491 114.504 7.11647 115.907 7.44621C119.816 8.36518 123.272 10.4295 129.567 15.6225C137.587 22.2383 138.386 21.9532 142.195 22.3354C146.664 22.7839 148.345 21.1225 151.551 14.0517C153.656 9.40931 155.02 7.62899 157.564 6.02281C159.725 4.65847 161.612 4.60755 161.762 6.14934C161.906 7.628 161.89 8.33481 158.704 10.2572C155.162 12.395 154.112 13.4854 151.884 18.0999C150.737 20.4762 149.344 22.5986 148.331 23.5135L146.666 25.0185L147.772 27.2548C148.592 28.9102 148.934 30.4547 149.089 33.2005C149.377 38.2966 149.034 37.8183 150.755 39.4513C151.555 40.2106 151.869 39.6032 152.195 41.1326C152.504 42.5839 152.584 43.3068 153.257 45.132C153.679 46.2739 153.293 45.6147 153.133 47.2283C153.012 48.4561 153.3 47.9971 152.764 49.2771C152.53 49.8353 150.911 48.8 150.594 48.4177Z" fill="white"/>
<path d="M144.088 62.8711H143.267L141.676 60.9797H140.784V62.8711H140.152V58.1139H141.484C141.772 58.1139 142.011 58.1331 142.203 58.1714C142.395 58.2076 142.567 58.2737 142.721 58.3695C142.893 58.4781 143.027 58.6155 143.123 58.7817C143.221 58.9457 143.27 59.1544 143.27 59.4078C143.27 59.7508 143.184 60.0383 143.011 60.2705C142.839 60.5005 142.601 60.6741 142.299 60.7912L144.088 62.8711ZM142.609 59.4526C142.609 59.3163 142.584 59.1959 142.535 59.0916C142.488 58.9851 142.41 58.8956 142.299 58.8232C142.207 58.7614 142.099 58.7188 141.973 58.6954C141.847 58.6698 141.699 58.6571 141.529 58.6571H140.784V60.4526H141.423C141.624 60.4526 141.798 60.4355 141.947 60.4015C142.096 60.3652 142.223 60.2992 142.328 60.2034C142.423 60.1139 142.494 60.0117 142.538 59.8967C142.585 59.7795 142.609 59.6315 142.609 59.4526Z" fill="white"/>
<path d="M144.975 59.1036C144.975 59.5081 144.896 59.9086 144.741 60.2823C144.586 60.656 144.36 60.9955 144.074 61.2816C143.788 61.5676 143.448 61.7945 143.075 61.9493C142.701 62.1041 142.301 62.1838 141.896 62.1838C141.492 62.1838 141.091 62.1041 140.717 61.9493C140.344 61.7945 140.004 61.5676 139.718 61.2816C139.432 60.9955 139.206 60.656 139.051 60.2823C138.896 59.9086 138.817 59.5081 138.817 59.1036C138.817 58.6992 138.896 58.2987 139.051 57.925C139.206 57.5513 139.432 57.2117 139.718 56.9257C140.004 56.6396 140.344 56.4127 140.717 56.2579C141.091 56.1031 141.492 56.0234 141.896 56.0234C142.301 56.0234 142.701 56.1031 143.075 56.2579C143.448 56.4127 143.788 56.6396 144.074 56.9257C144.36 57.2117 144.586 57.5513 144.741 57.925C144.896 58.2987 144.975 58.6992 144.975 59.1036Z" stroke="white" stroke-width="0.817888"/>
</g>
<defs>
<clipPath id="clip0_2601_6078">
<rect width="112.807" height="57.5105" fill="white" transform="translate(49 5)"/>
</clipPath>
</defs>
</svg>
