<svg width="56" height="56" viewBox="0 0 56 56" fill="none" xmlns="http://www.w3.org/2000/svg">
<path d="M43.7613 1.85762C42.6341 0.717548 41.0976 0.0759583 39.4945 0.0759583H6.01884C2.70513 0.0759583 0.0188332 2.76225 0.0188332 6.07596V49.176C0.0188332 52.4897 2.70513 55.176 6.01883 55.176H49.1189C52.4326 55.176 55.1189 52.4897 55.1189 49.176V15.811C55.1189 14.2316 54.4961 12.7158 53.3857 11.5927L43.7613 1.85762Z" fill="#F3F4FB"/>
<path d="M33.133 31.6089L38.9559 26.1176V29.612L27.5688 40.5946L16.1818 29.612V26.2008L22.0047 31.6505C23.6006 33.1481 24.5927 34.5625 24.9377 35.3945H26.1454V14.6574H28.9922V35.3529H30.1999C30.545 34.4793 31.4939 33.1481 33.133 31.6089Z" fill="#060606"/>
</svg>
