<svg width="210" height="72" viewBox="0 0 210 72" fill="none" xmlns="http://www.w3.org/2000/svg">
<path d="M62.8311 54.9575C62.1186 54.9575 61.482 54.5125 61.2373 53.8434L57.7759 44.3786H59.8463L62.8386 52.9778L65.8461 44.3786H67.8863L64.4249 53.8434C64.1802 54.5125 63.5436 54.9575 62.8311 54.9575Z" fill="white"/>
<path d="M71.3379 54.9575C70.4601 54.9575 69.7485 54.2459 69.7485 53.3681V45.9681C69.7485 45.0902 70.4601 44.3786 71.3379 44.3786H76.655V45.9352H71.6829V48.8369H76.2016V50.3482H71.6829V53.4009H76.655V54.9575H71.3379Z" fill="white"/>
<path d="M79.09 54.9575V45.6389C79.09 44.9429 79.6543 44.3786 80.3503 44.3786C80.7715 44.3786 81.1649 44.589 81.3987 44.9393L85.9966 51.8292V44.3786H87.931V53.6967C87.931 54.3931 87.3665 54.9575 86.6702 54.9575C86.2493 54.9575 85.8561 54.7475 85.6221 54.3976L81.0245 47.5221V54.9575H79.09Z" fill="white"/>
<path d="M93.0497 54.9575V45.9352H89.9667V44.3786H98.0823V45.9352H94.9841V54.9575H93.0497Z" fill="white"/>
<path d="M104.2 55.1389C103.424 55.1389 102.724 54.9878 102.1 54.6855C101.475 54.3732 100.976 53.9047 100.603 53.28C100.241 52.6554 100.059 51.8645 100.059 50.9073V44.3786H101.994V50.9224C101.994 51.7486 102.19 52.3632 102.583 52.7662C102.986 53.1692 103.54 53.3707 104.246 53.3707C104.941 53.3707 105.49 53.1692 105.893 52.7662C106.296 52.3632 106.497 51.7486 106.497 50.9224V44.3786H108.432V50.9073C108.432 51.8645 108.24 52.6554 107.857 53.28C107.475 53.9047 106.961 54.3732 106.316 54.6855C105.681 54.9878 104.976 55.1389 104.2 55.1389Z" fill="white"/>
<path d="M111.011 54.9575V44.3786H114.895C115.741 44.3786 116.436 44.5247 116.981 44.8169C117.535 45.099 117.948 45.4869 118.22 45.9806C118.492 46.4642 118.628 47.0032 118.628 47.5976C118.628 48.2424 118.457 48.8318 118.114 49.3658C117.781 49.8998 117.258 50.2877 116.542 50.5295L118.734 54.9575H116.512L114.547 50.7864H112.945V54.9575H111.011ZM112.945 49.3658H114.774C115.419 49.3658 115.892 49.2097 116.195 48.8973C116.497 48.585 116.648 48.1719 116.648 47.6581C116.648 47.1543 116.497 46.7513 116.195 46.4491C115.902 46.1468 115.424 45.9957 114.759 45.9957H112.945V49.3658Z" fill="white"/>
<path d="M122.303 54.9575C121.601 54.9575 121.031 54.3882 121.031 53.686V45.6502C121.031 44.9479 121.601 44.3786 122.303 44.3786H127.938V45.9352H122.966V48.8369H127.485V50.3482H122.966V53.4009H127.938V54.9575H122.303Z" fill="white"/>
<path d="M139.369 55.1389C138.301 55.1389 137.385 54.9122 136.619 54.4588C135.853 53.9954 135.264 53.3556 134.851 52.5395C134.438 51.7133 134.231 50.7612 134.231 49.6832C134.231 48.6051 134.438 47.653 134.851 46.8269C135.264 46.0007 135.853 45.3559 136.619 44.8925C137.385 44.429 138.301 44.1973 139.369 44.1973C140.639 44.1973 141.677 44.5146 142.483 45.1494C143.299 45.774 143.807 46.6556 144.009 47.7941H141.878C141.747 47.2198 141.465 46.7715 141.032 46.4491C140.609 46.1166 140.044 45.9503 139.339 45.9503C138.362 45.9503 137.596 46.2828 137.042 46.9478C136.488 47.6127 136.211 48.5245 136.211 49.6832C136.211 50.8418 136.488 51.7536 137.042 52.4186C137.596 53.0735 138.362 53.4009 139.339 53.4009C140.044 53.4009 140.609 53.2498 141.032 52.9475C141.465 52.6352 141.747 52.207 141.878 51.663H144.009C143.807 52.7511 143.299 53.6024 142.483 54.217C141.677 54.8316 140.639 55.1389 139.369 55.1389Z" fill="white"/>
<path d="M145.513 54.9575L149.008 45.4005C149.232 44.7868 149.816 44.3786 150.47 44.3786C151.123 44.3786 151.707 44.7868 151.932 45.4005L155.427 54.9575H153.372L152.525 52.5093H148.399L147.538 54.9575H145.513ZM148.928 50.998H151.996L150.455 46.6002L148.928 50.998Z" fill="white"/>
<path d="M157.394 54.9575V44.3786H161.308C162.155 44.3786 162.855 44.5197 163.409 44.8018C163.963 45.0839 164.376 45.4718 164.648 45.9655C164.92 46.4591 165.056 47.0133 165.056 47.6279C165.056 48.2122 164.925 48.7512 164.663 49.2449C164.401 49.7285 163.993 50.1215 163.439 50.4237C162.885 50.7159 162.175 50.862 161.308 50.862H159.329V54.9575H157.394ZM159.329 49.2903H161.187C161.862 49.2903 162.346 49.1442 162.638 48.852C162.94 48.5497 163.092 48.1417 163.092 47.6279C163.092 47.1039 162.94 46.6959 162.638 46.4037C162.346 46.1015 161.862 45.9503 161.187 45.9503H159.329V49.2903Z" fill="white"/>
<path d="M167.178 54.9575V44.3786H169.113V54.9575H167.178Z" fill="white"/>
<path d="M174.231 54.9575V45.9352H171.148V44.3786H179.264V45.9352H176.166V54.9575H174.231Z" fill="white"/>
<path d="M179.499 54.9575L183.063 45.2134C183.246 44.7121 183.723 44.3786 184.257 44.3786H184.656C185.189 44.3786 185.666 44.7121 185.85 45.2134L189.413 54.9575H187.358L186.512 52.5093H182.386L181.525 54.9575H179.499ZM182.915 50.998H185.983L184.441 46.6002L182.915 50.998Z" fill="white"/>
<path d="M192.97 54.9575C192.092 54.9575 191.381 54.2459 191.381 53.3681V44.3786H193.315V53.4463H198V54.9575H192.97Z" fill="white"/>
<path d="M57.7759 39.2804V20.3634H64.7211C66.2345 20.3634 67.4776 20.6246 68.4505 21.1471C69.4414 21.6515 70.18 22.3451 70.6665 23.2279C71.1529 24.0927 71.3961 25.0566 71.3961 26.1195C71.3961 27.2726 71.0898 28.3265 70.4773 29.2814C69.8828 30.2362 68.9459 30.9298 67.6668 31.3622L71.5853 39.2804H67.6127L64.0996 31.8217H61.235V39.2804H57.7759ZM61.235 29.2814H64.5049C65.658 29.2814 66.5047 29.0021 67.0452 28.4436C67.5857 27.8851 67.8559 27.1464 67.8559 26.2276C67.8559 25.3268 67.5857 24.6062 67.0452 24.0657C66.5227 23.5252 65.667 23.255 64.4779 23.255H61.235V29.2814Z" fill="white"/>
<path d="M77.5087 39.2804C75.9096 39.2804 74.6133 37.984 74.6133 36.3849V23.2588C74.6133 21.6597 75.9096 20.3634 77.5087 20.3634H86.9634V23.1469H78.0724V28.3355H86.1526V31.0379H78.0724V36.4969H86.9634V39.2804H77.5087Z" fill="white"/>
<path d="M90.2367 39.2804V20.3634H96.6955C98.9115 20.3634 100.731 20.7597 102.154 21.5524C103.596 22.3271 104.659 23.4261 105.343 24.8494C106.046 26.2546 106.397 27.9121 106.397 29.8219C106.397 31.7316 106.046 33.3981 105.343 34.8213C104.659 36.2266 103.596 37.3256 102.154 38.1183C100.731 38.893 98.9115 39.2804 96.6955 39.2804H90.2367ZM93.6958 36.3077H96.5334C98.1188 36.3077 99.3709 36.0555 100.29 35.551C101.209 35.0285 101.866 34.2899 102.262 33.335C102.659 32.3621 102.857 31.1911 102.857 29.8219C102.857 28.4706 102.659 27.3086 102.262 26.3357C101.866 25.3628 101.209 24.6152 100.29 24.0927C99.3709 23.5702 98.1188 23.309 96.5334 23.309H93.6958V36.3077Z" fill="white"/>
<path d="M122.347 39.6046C120.96 39.6046 119.735 39.3704 118.672 38.902C117.609 38.4156 116.771 37.731 116.159 36.8482C115.546 35.9474 115.231 34.8574 115.213 33.5782H118.861C118.897 34.461 119.213 35.2087 119.807 35.8212C120.42 36.4158 121.257 36.713 122.32 36.713C123.239 36.713 123.969 36.4969 124.509 36.0645C125.05 35.6141 125.32 35.0195 125.32 34.2809C125.32 33.5062 125.077 32.9026 124.59 32.4702C124.122 32.0378 123.491 31.6865 122.699 31.4163C121.906 31.146 121.059 30.8578 120.158 30.5515C118.699 30.0471 117.582 29.3985 116.807 28.6058C116.051 27.813 115.672 26.7591 115.672 25.4439C115.654 24.3269 115.916 23.3721 116.456 22.5793C117.015 21.7686 117.771 21.1471 118.726 20.7147C119.681 20.2643 120.78 20.0391 122.023 20.0391C123.284 20.0391 124.392 20.2643 125.347 20.7147C126.32 21.1651 127.077 21.7956 127.617 22.6064C128.176 23.4171 128.473 24.381 128.509 25.498H124.807C124.789 24.8314 124.527 24.2458 124.023 23.7414C123.537 23.2189 122.852 22.9577 121.969 22.9577C121.212 22.9397 120.573 23.1288 120.05 23.5252C119.546 23.9035 119.294 24.462 119.294 25.2007C119.294 25.8313 119.492 26.3357 119.888 26.7141C120.285 27.0744 120.825 27.3807 121.51 27.6329C122.194 27.8851 122.978 28.1554 123.861 28.4436C124.798 28.7679 125.653 29.1462 126.428 29.5786C127.203 30.011 127.824 30.5875 128.293 31.3082C128.761 32.0108 128.995 32.9206 128.995 34.0376C128.995 35.0285 128.743 35.9474 128.239 36.7941C127.734 37.6409 126.987 38.3255 125.996 38.848C125.005 39.3524 123.789 39.6046 122.347 39.6046Z" fill="white"/>
<path d="M137.665 39.2804C136.456 39.2804 135.398 38.466 135.089 37.297L130.614 20.3634H134.316L137.721 35.4159L141.721 20.3634H145.531L149.423 35.4159L152.828 20.3634H156.557L151.96 37.3017C151.643 38.4696 150.583 39.2804 149.372 39.2804C148.159 39.2804 147.097 38.4652 146.783 37.293L143.559 25.2547L140.233 37.324C139.915 38.4797 138.864 39.2804 137.665 39.2804Z" fill="white"/>
<path d="M159.064 39.2804V20.3634H162.523V39.2804H159.064Z" fill="white"/>
<path d="M172.649 39.6046C171.261 39.6046 170.036 39.3704 168.973 38.902C167.91 38.4156 167.073 37.731 166.46 36.8482C165.847 35.9474 165.532 34.8574 165.514 33.5782H169.162C169.198 34.461 169.514 35.2087 170.108 35.8212C170.721 36.4158 171.559 36.713 172.621 36.713C173.54 36.713 174.27 36.4969 174.81 36.0645C175.351 35.6141 175.621 35.0195 175.621 34.2809C175.621 33.5062 175.378 32.9026 174.892 32.4702C174.423 32.0378 173.793 31.6865 173 31.4163C172.207 31.146 171.36 30.8578 170.46 30.5515C169 30.0471 167.883 29.3985 167.109 28.6058C166.352 27.813 165.974 26.7591 165.974 25.4439C165.956 24.3269 166.217 23.3721 166.757 22.5793C167.316 21.7686 168.072 21.1471 169.027 20.7147C169.982 20.2643 171.081 20.0391 172.324 20.0391C173.585 20.0391 174.693 20.2643 175.648 20.7147C176.621 21.1651 177.378 21.7956 177.918 22.6064C178.477 23.4171 178.774 24.381 178.81 25.498H175.108C175.09 24.8314 174.828 24.2458 174.324 23.7414C173.838 23.2189 173.153 22.9577 172.27 22.9577C171.513 22.9397 170.874 23.1288 170.351 23.5252C169.847 23.9035 169.595 24.462 169.595 25.2007C169.595 25.8313 169.793 26.3357 170.189 26.7141C170.586 27.0744 171.126 27.3807 171.811 27.6329C172.495 27.8851 173.279 28.1554 174.162 28.4436C175.099 28.7679 175.954 29.1462 176.729 29.5786C177.504 30.011 178.125 30.5875 178.594 31.3082C179.062 32.0108 179.296 32.9206 179.296 34.0376C179.296 35.0285 179.044 35.9474 178.54 36.7941C178.035 37.6409 177.288 38.3255 176.297 38.848C175.306 39.3524 174.09 39.6046 172.649 39.6046Z" fill="white"/>
<path d="M188.773 39.6046C187.386 39.6046 186.161 39.3704 185.098 38.902C184.035 38.4156 183.197 37.731 182.585 36.8482C181.972 35.9474 181.657 34.8574 181.639 33.5782H185.287C185.323 34.461 185.639 35.2087 186.233 35.8212C186.846 36.4158 187.683 36.713 188.746 36.713C189.665 36.713 190.395 36.4969 190.935 36.0645C191.476 35.6141 191.746 35.0195 191.746 34.2809C191.746 33.5062 191.503 32.9026 191.016 32.4702C190.548 32.0378 189.917 31.6865 189.125 31.4163C188.332 31.146 187.485 30.8578 186.584 30.5515C185.125 30.0471 184.008 29.3985 183.233 28.6058C182.477 27.813 182.098 26.7591 182.098 25.4439C182.08 24.3269 182.342 23.3721 182.882 22.5793C183.441 21.7686 184.197 21.1471 185.152 20.7147C186.107 20.2643 187.206 20.0391 188.449 20.0391C189.71 20.0391 190.818 20.2643 191.773 20.7147C192.746 21.1651 193.503 21.7956 194.043 22.6064C194.602 23.4171 194.899 24.381 194.935 25.498H191.233C191.215 24.8314 190.953 24.2458 190.449 23.7414C189.962 23.2189 189.278 22.9577 188.395 22.9577C187.638 22.9397 186.999 23.1288 186.476 23.5252C185.972 23.9035 185.72 24.462 185.72 25.2007C185.72 25.8313 185.918 26.3357 186.314 26.7141C186.71 27.0744 187.251 27.3807 187.936 27.6329C188.62 27.8851 189.404 28.1554 190.287 28.4436C191.224 28.7679 192.079 29.1462 192.854 29.5786C193.629 30.011 194.25 30.5875 194.719 31.3082C195.187 32.0108 195.421 32.9206 195.421 34.0376C195.421 35.0285 195.169 35.9474 194.665 36.7941C194.16 37.6409 193.413 38.3255 192.422 38.848C191.431 39.3524 190.215 39.6046 188.773 39.6046Z" fill="white"/>
<path d="M31.868 42.7031C29.4203 44.8965 27.0679 47.2806 24.4294 49.2198C21.2823 51.5086 17.5948 52.5258 13.653 52.4622C13.0808 52.4622 12.5404 52.0172 12 51.7629C12.5404 51.5721 13.049 51.2225 13.5894 51.2225C21.632 51.1271 27.0361 46.6449 31.7408 40.5096C29.3885 41.209 27.3222 41.9719 25.1923 42.4487C22.9989 42.9574 20.7737 42.862 18.6756 41.8448C14.6067 39.8739 13.9073 35.487 17.1816 32.3717C17.3405 32.2128 17.563 32.1492 17.722 32.0538C17.4995 31.4816 17.3087 31.1002 17.2134 30.6869C16.069 26.9994 18.4213 23.6298 22.2678 23.4073C24.8427 23.2483 27.0361 24.1702 29.0388 25.6961C29.9925 26.4272 30.9143 27.2219 31.9634 28.112C32.2177 26.3636 32.3766 24.7742 32.6627 23.1848C33.076 20.896 34.0614 18.8615 35.9687 17.3674C39.1158 14.9197 43.0576 15.8415 44.6789 19.4655C45.0285 20.2602 45.3782 20.5463 46.2683 20.5781C50.083 20.737 52.4353 24.1384 51.3545 27.8259C50.6234 30.3054 48.9704 32.0538 46.8087 33.3254C45.4418 34.1201 44.0113 34.7877 42.5808 35.5506C44.3292 36.6314 46.1412 37.6486 47.8577 38.8248C49.6061 40.001 50.6552 41.6858 51.1638 43.7203C52.0857 47.376 49.7651 50.4913 46.014 50.6185C45.0921 50.6503 44.6789 50.8728 44.2974 51.7629C42.8669 55.0371 39.1794 56.0543 36.1913 54.0517C33.2985 52.1125 32.3766 49.0926 32.0269 45.8501C31.8998 44.7375 31.9316 43.5614 31.868 42.7031Z" fill="white"/>
</svg>
