<svg width="210" height="72" viewBox="0 0 210 72" fill="none" xmlns="http://www.w3.org/2000/svg">
<g clip-path="url(#clip0_2601_6064)">
<path d="M90.0999 24.599V47.399H86.1415V29.5074H86.0888L79.0165 47.399H76.3776L69.1471 29.5074H69.0943V47.399H65.4526V24.599H71.1526L77.6971 41.4879H77.8026L84.7165 24.599H90.0999ZM93.3721 26.3407C93.3721 25.7074 93.5832 25.1796 94.0582 24.7574C94.5332 24.3352 95.061 24.124 95.6943 24.124C96.3804 24.124 96.961 24.3352 97.3832 24.7574C97.8054 25.1796 98.0693 25.7074 98.0693 26.3407C98.0693 26.974 97.8582 27.5018 97.3832 27.924C96.9082 28.3463 96.3804 28.5574 95.6943 28.5574C95.0082 28.5574 94.4804 28.3463 94.0582 27.924C93.636 27.449 93.3721 26.9213 93.3721 26.3407ZM97.6471 31.0379V47.399H93.7943V31.0379H97.6471ZM109.311 44.6018C109.892 44.6018 110.525 44.4963 111.211 44.1796C111.897 43.9157 112.53 43.5463 113.111 43.124V46.7129C112.478 47.0824 111.792 47.3463 111 47.5046C110.208 47.6629 109.364 47.7685 108.414 47.7685C105.986 47.7685 104.033 47.0296 102.555 45.499C101.025 43.9685 100.286 42.0157 100.286 39.6935C100.286 37.0546 101.078 34.8907 102.608 33.2018C104.139 31.5129 106.303 30.6685 109.153 30.6685C109.892 30.6685 110.63 30.774 111.317 30.9324C112.055 31.0907 112.636 31.3546 113.058 31.5657V35.2602C112.478 34.8379 111.844 34.4685 111.264 34.2574C110.63 34.0463 109.997 33.8879 109.364 33.8879C107.833 33.8879 106.619 34.3629 105.669 35.3657C104.719 36.3685 104.297 37.6879 104.297 39.3768C104.297 41.0129 104.772 42.3324 105.669 43.2296C106.567 44.1268 107.78 44.6018 109.311 44.6018ZM124.036 30.774C124.353 30.774 124.617 30.774 124.88 30.8268C125.144 30.8796 125.355 30.9324 125.514 30.9852V34.8907C125.303 34.7324 125.039 34.574 124.617 34.4685C124.194 34.3629 123.772 34.2574 123.192 34.2574C122.242 34.2574 121.45 34.6796 120.817 35.4713C120.183 36.2629 119.814 37.4768 119.814 39.1657V47.399H115.961V31.0379H119.814V33.624H119.867C120.236 32.7268 120.764 32.0407 121.45 31.5129C122.189 31.0379 123.033 30.774 124.036 30.774ZM125.725 39.4824C125.725 36.7907 126.517 34.6268 127.994 33.0435C129.525 31.4602 131.636 30.6685 134.328 30.6685C136.861 30.6685 138.867 31.4074 140.292 32.9379C141.717 34.4685 142.455 36.5268 142.455 39.1129C142.455 41.7518 141.664 43.8629 140.186 45.4463C138.655 47.0296 136.597 47.8213 133.958 47.8213C131.425 47.8213 129.419 47.0824 127.942 45.6046C126.464 44.074 125.725 42.0157 125.725 39.4824ZM129.736 39.324C129.736 41.0129 130.105 42.3324 130.897 43.2296C131.689 44.1268 132.797 44.6018 134.222 44.6018C135.594 44.6018 136.703 44.1796 137.442 43.2296C138.18 42.3324 138.55 41.0129 138.55 39.2185C138.55 37.4768 138.18 36.1574 137.442 35.2074C136.703 34.3102 135.594 33.8352 134.275 33.8352C132.85 33.8352 131.794 34.3102 131.003 35.2602C130.105 36.2629 129.736 37.5824 129.736 39.324ZM148.208 35.3657C148.208 35.8935 148.367 36.3685 148.736 36.6852C149.105 37.0018 149.844 37.3713 151.058 37.8463C152.589 38.4796 153.697 39.1657 154.278 39.9046C154.911 40.6963 155.228 41.5935 155.228 42.7018C155.228 44.2324 154.647 45.4463 153.433 46.3963C152.272 47.3463 150.636 47.7685 148.63 47.7685C147.944 47.7685 147.205 47.6629 146.361 47.5046C145.517 47.3463 144.83 47.1352 144.25 46.8713V43.0713C144.936 43.5463 145.728 43.9685 146.519 44.2324C147.311 44.4963 148.05 44.6546 148.736 44.6546C149.58 44.6546 150.267 44.549 150.636 44.2852C151.058 44.0213 151.269 43.6518 151.269 43.0713C151.269 42.5435 151.058 42.1213 150.636 41.699C150.214 41.3296 149.369 40.9074 148.208 40.4324C146.783 39.8518 145.78 39.1657 145.2 38.4268C144.619 37.6879 144.303 36.7379 144.303 35.5768C144.303 34.099 144.883 32.8852 146.044 31.9352C147.205 30.9852 148.736 30.5102 150.583 30.5102C151.164 30.5102 151.797 30.5629 152.483 30.7213C153.169 30.8796 153.803 31.0379 154.278 31.1963V34.9435C153.75 34.6268 153.169 34.3102 152.483 34.0463C151.797 33.7824 151.111 33.6768 150.478 33.6768C149.739 33.6768 149.158 33.8352 148.789 34.099C148.419 34.4685 148.208 34.8379 148.208 35.3657ZM156.864 39.4824C156.864 36.7907 157.655 34.6268 159.133 33.0435C160.664 31.4602 162.775 30.6685 165.467 30.6685C168 30.6685 170.005 31.4074 171.43 32.9379C172.855 34.4685 173.594 36.5268 173.594 39.1129C173.594 41.7518 172.803 43.8629 171.325 45.4463C169.794 47.0296 167.736 47.8213 165.097 47.8213C162.564 47.8213 160.558 47.0824 159.08 45.6046C157.655 44.074 156.864 42.0157 156.864 39.4824ZM160.875 39.324C160.875 41.0129 161.244 42.3324 162.036 43.2296C162.828 44.1268 163.936 44.6018 165.361 44.6018C166.733 44.6018 167.842 44.1796 168.58 43.2296C169.319 42.3324 169.689 41.0129 169.689 39.2185C169.689 37.4768 169.319 36.1574 168.58 35.2074C167.842 34.3102 166.733 33.8352 165.414 33.8352C163.989 33.8352 162.933 34.3102 162.142 35.2602C161.297 36.2629 160.875 37.5824 160.875 39.324ZM186.419 34.2046H180.667V47.399H176.761V34.2046H174.017V31.0379H176.761V28.7685C176.761 27.0796 177.342 25.6546 178.45 24.5463C179.558 23.4379 180.983 22.9102 182.725 22.9102C183.2 22.9102 183.622 22.9629 183.992 22.9629C184.361 22.9629 184.678 23.0685 184.942 23.174V26.499C184.836 26.4463 184.572 26.3407 184.255 26.2352C183.939 26.1296 183.569 26.0768 183.147 26.0768C182.355 26.0768 181.722 26.3407 181.3 26.8157C180.878 27.2907 180.667 28.0824 180.667 29.0324V30.9852H186.419V27.2907L190.272 26.1296V30.9852H194.178V34.1518H190.272V41.8046C190.272 42.8074 190.483 43.4935 190.8 43.9157C191.169 44.3379 191.75 44.549 192.542 44.549C192.753 44.549 193.017 44.4963 193.333 44.3907C193.65 44.2852 193.914 44.1796 194.125 44.0213V47.1879C193.861 47.3463 193.492 47.4518 192.911 47.5574C192.33 47.6629 191.803 47.7157 191.222 47.7157C189.586 47.7157 188.372 47.2935 187.58 46.449C186.789 45.6046 186.367 44.2852 186.367 42.5435L186.419 34.2046Z" fill="white"/>
<path d="M34.05 17H16V35.05H34.05V17Z" fill="white"/>
<path d="M53.9987 17H35.9487V35.05H53.9987V17Z" fill="white"/>
<path d="M34.05 36.9512H16V55.0012H34.05V36.9512Z" fill="white"/>
<path d="M53.9987 36.9512H35.9487V55.0012H53.9987V36.9512Z" fill="white"/>
</g>
<defs>
<clipPath id="clip0_2601_6064">
<rect width="178.178" height="38" fill="white" transform="translate(16 17)"/>
</clipPath>
</defs>
</svg>
