<svg width="210" height="72" viewBox="0 0 210 72" fill="none" xmlns="http://www.w3.org/2000/svg">
<g clip-path="url(#clip0_2601_6073)">
<path d="M61.4538 23.232L51.7255 17.616L42 23.232V17.616L51.7269 12L61.4552 17.616L61.4538 23.232Z" fill="white"/>
<path d="M42 27.9466H47.0954V40.3265C47.0954 43.5249 49.4838 45.084 51.7269 45.084C53.9894 45.084 56.3598 43.4834 56.3598 40.2835V27.9466H61.4552V40.6214C61.4552 43.5678 60.5289 45.8414 58.6763 47.4005C56.8223 48.9581 54.5072 49.7169 51.684 49.7169C48.8635 49.7169 46.5471 48.9595 44.7374 47.4005C42.9263 45.8428 42 43.6537 42 40.7474V27.9466ZM105.507 43.3325C103.964 44.706 102.207 45.3789 100.204 45.3789C96.5483 45.3789 94.0975 43.2965 93.8206 40.0717H110.284C110.284 40.0717 110.394 39.0305 110.394 38.0529C110.394 35.0206 109.425 32.4937 107.445 30.4306C105.51 28.3675 102.984 27.3568 99.9088 27.3568C96.6674 27.3568 94.0131 28.3675 91.9071 30.4306C89.844 32.4937 88.7917 35.1881 88.7917 38.5583V38.7245C88.7917 42.0517 89.844 44.7046 91.9071 46.6846C93.9701 48.6632 96.7075 49.674 100.035 49.674C103.903 49.674 106.981 48.1481 109.291 45.5174L105.507 43.3325ZM95.8228 32.9991C96.9581 32.1143 98.3497 31.6518 99.9074 31.6518C101.381 31.6518 102.602 32.1143 103.656 33.042C104.661 33.8866 105.204 34.9237 105.251 36.1158H93.9508C94.1141 34.8835 94.7372 33.8451 95.8241 33.0005L95.8228 32.9991ZM156.798 52.5346C154.731 57.4154 152.568 59.0755 149.252 59.0755H146.954V54.5589H148.812C149.953 54.5589 151.014 54.1297 152.024 51.798L153.035 49.4635L144.318 27.9466H149.497L155.688 43.4432L162.048 27.9466H167.226L156.798 52.5346ZM81.2912 19.8203V29.8685C79.6214 28.3731 77.0238 27.4828 74.5121 27.4828C71.5214 27.4828 68.9958 28.5351 66.9328 30.6812C64.9112 32.7872 63.9005 35.3972 63.9005 38.5555C63.9005 41.7152 64.9112 44.3252 66.9328 46.4728C68.9958 48.5788 71.5228 49.6325 74.5121 49.6325C77.9598 49.6325 80.1392 48.2769 81.2912 47.2149V49.1686H86.3451V19.8217L81.2912 19.8203ZM79.7751 43.1898C78.5538 44.4111 76.9961 45.0438 75.1851 45.0438C73.374 45.0438 71.9008 44.4111 70.6795 43.1898C69.5026 41.9686 68.9114 40.4109 68.9114 38.5583C68.9114 36.7043 69.5012 35.1466 70.6795 33.9254C71.9008 32.7042 73.374 32.0728 75.1851 32.0728C76.9961 32.0728 78.5538 32.7042 79.7751 33.9254C81.0378 35.1466 81.672 36.7043 81.672 38.5583C81.672 40.4109 81.0378 41.9686 79.7751 43.1898ZM136.461 27.5257C132.623 27.5257 130.628 29.118 129.261 30.6522C128.714 29.6095 127.175 27.5257 123.577 27.5257C120.537 27.5257 118.745 29.0626 117.851 30.1565V27.9494H112.841V49.1714H117.851V36.9591C117.851 34.0957 119.62 32.0326 121.977 32.0326C124.379 32.0326 125.768 33.8437 125.768 36.7486V49.17H130.779V36.9577C130.779 34.0528 132.504 32.0312 134.988 32.0312C137.389 32.0312 138.778 33.8423 138.778 36.7458V49.1686H143.832V36.0314C143.832 30.4985 140.857 27.5271 136.461 27.5271V27.5257Z" fill="white"/>
</g>
<defs>
<clipPath id="clip0_2601_6073">
<rect width="126" height="47.0769" fill="white" transform="translate(42 12)"/>
</clipPath>
</defs>
</svg>
