<svg width="254" height="251" viewBox="0 0 254 251" fill="none" xmlns="http://www.w3.org/2000/svg">
<g clip-path="url(#clip0_3697_10820)">
<path d="M160.714 117.567L160.461 117.92L160.835 118.142C169.456 123.265 175.328 132.76 175.203 143.755V143.76C175.203 160.129 161.831 173.5 145.462 173.5H139.763H139.365V173.899V188.57H126.485V173.899V173.5H126.087H116.843H116.444V173.899V188.57H103.565V173.899V173.5H103.166H80.2638V157.201H96.0745H96.473V156.803V87.2805V86.8819H96.0745H80.2638V70.5833H103.166H103.565V70.1848V55.5138H116.444V70.1848V70.5833H116.843H126.087H126.485V70.1848V55.5138H139.365V70.438V70.7954L139.72 70.8342C154.589 72.4585 166.212 85.2056 166.212 100.45C166.212 106.823 164.213 112.694 160.714 117.567ZM112.898 113.367V113.766H113.297H136.471C143.909 113.766 149.913 107.762 149.913 100.324C149.913 93.0189 144.123 87.0976 136.87 86.8877V86.7553H136.471H113.297H112.898V87.1538V113.367ZM112.898 156.803V157.201H113.297H145.589C153.032 157.201 159.031 151.066 159.031 143.633C159.031 136.195 153.027 130.191 145.589 130.191H136.471H113.297H112.898V130.59V156.803Z" fill="url(#paint0_linear_3697_10820)" stroke="url(#paint1_linear_3697_10820)" stroke-width="0.797079"/>
<path d="M25.5408 98.0465C25.6675 97.4134 25.9207 96.9068 26.0474 96.2736L28.5801 88.4223C29.4665 86.2695 30.0997 84.8765 30.0997 84.8765L30.2263 84.7499H30.3529C30.3529 84.7499 33.2655 83.8634 36.0515 83.2302C37.4445 82.8503 38.8375 82.5971 39.8505 82.3438C39.8505 82.3438 40.8636 82.0905 41.4968 82.0905L43.6496 78.2915C43.9029 77.9116 44.1561 77.405 44.4094 76.8985C44.9159 76.0121 45.4225 75.1256 46.0557 74.1125L50.7411 67.4009C51.121 66.8944 51.5009 66.5145 51.8808 66.0079C52.1341 65.7547 52.2608 65.5014 52.514 65.2481L55.5533 61.7023C56.5663 60.436 57.3261 59.6762 57.8327 59.1697L58.7191 58.2832L59.2257 58.7897L58.3392 59.6762C57.8327 60.1827 57.0729 60.9425 56.1864 62.0822L53.1472 65.628C52.8939 65.8813 52.7673 66.1346 52.514 66.3878C52.1341 66.7677 51.7542 67.2743 51.5009 67.6542L46.8155 74.3658C46.1823 75.2523 45.6757 76.1387 45.2958 77.0252C45.0426 77.5317 44.7893 77.9116 44.536 78.4181L42.13 82.7237H41.8767C41.6234 82.7237 40.9903 82.8503 40.2305 82.977C39.2174 83.2302 37.8244 83.4835 36.4314 83.8634C34.0254 84.4966 31.6193 85.1298 30.8595 85.3831C30.7328 85.763 30.0997 87.0293 29.4665 88.6755L26.9338 96.5269C26.4273 97.9199 26.174 99.4395 25.7941 100.706L24.2745 108.051C24.4011 108.177 24.5277 108.557 24.9077 109.064L26.5539 111.47L29.0866 115.016L28.7067 118.561C28.5801 119.828 28.5801 121.347 28.5801 122.994C28.5801 124.007 28.5801 124.893 28.5801 125.906C28.4534 128.059 28.7067 130.085 28.8333 131.858C28.8333 132.365 28.96 132.871 28.96 133.378L29.3399 136.923L28.5801 137.936C28.3268 138.316 27.9469 138.823 27.6936 139.203L26.4273 141.356L27.1871 145.155C27.3137 145.535 27.3137 146.041 27.4403 146.421C27.567 147.307 27.8203 148.194 28.0735 149.08L29.4665 153.639C29.5931 154.146 29.8464 154.779 29.973 155.285C30.2263 156.299 30.4796 157.185 30.8595 158.071L34.0254 165.796L33.6455 166.936L33.0123 169.215L32.2525 172.508L34.7852 177.193L37.8244 181.879C38.2043 182.385 38.4576 182.892 38.7108 183.272C39.5973 184.538 40.3571 185.931 41.3702 187.071L42.2566 188.21C44.6627 191.376 47.0687 194.289 49.2215 196.315L52.8939 200.114C53.1472 200.114 53.5271 200.114 54.1603 200.241H57.4528C59.7322 200.241 62.0116 200.241 62.0116 200.241H62.1383L64.5443 202.267C65.4308 202.9 66.6971 203.787 67.9635 204.673C68.7233 205.18 69.3564 205.686 70.1163 206.193C70.4962 206.446 70.8761 206.699 71.1293 206.952C71.7625 207.459 72.3957 207.839 73.0289 208.219L78.3475 211.131L82.2732 210.118L86.4521 208.725L88.8582 209.738C89.3647 209.865 89.8713 210.118 90.3778 210.372C91.3909 210.878 92.6572 211.385 93.9236 211.765L101.522 214.171L101.268 214.93L93.6703 212.524C92.404 212.144 91.1376 211.638 89.9979 211.131C89.4914 210.878 88.9848 210.625 88.4783 210.498L86.3255 209.612L82.3998 211.005L78.0942 212.018L72.5223 208.979C71.8891 208.599 71.256 208.092 70.6228 207.712C70.2429 207.459 69.863 207.206 69.6097 206.952C68.8499 206.446 68.2167 205.939 67.4569 205.433C66.1906 204.546 65.0509 203.787 64.0378 203.027L61.7584 201.127C61.2518 201.127 59.2257 201.127 57.3261 201.127H54.0336C53.1472 201.127 52.514 201.001 52.514 201.001H52.3874L48.4617 196.948C46.3089 194.922 43.9029 192.01 41.4968 188.844L40.6104 187.704C39.5973 186.438 38.7108 185.171 37.8244 183.778C37.5711 183.272 37.1912 182.765 36.938 182.385L33.8987 177.7L31.2394 172.634L32.6324 166.809L32.8856 165.923L29.8464 158.451C29.4665 157.565 29.2132 156.552 28.8333 155.539C28.7067 155.032 28.5801 154.399 28.3268 153.892L26.9338 149.334C26.6805 148.321 26.4273 147.434 26.3006 146.548C26.174 146.041 26.174 145.661 26.0474 145.281L25.2876 141.102L26.6805 138.696C26.9338 138.19 27.3137 137.683 27.567 137.303L28.0735 136.543L27.8202 133.251C27.8202 132.744 27.6936 132.365 27.6936 131.858C27.567 129.958 27.3137 127.932 27.4403 125.78C27.4403 124.766 27.4403 123.753 27.4403 122.867C27.4403 121.221 27.4403 119.574 27.567 118.308L27.9469 115.016L25.6675 111.723L24.0212 109.317C23.5147 108.684 23.2614 108.177 23.2614 108.177L23.1348 108.051L24.6544 100.453C25.1609 99.6928 25.2876 98.8063 25.5408 98.0465Z" fill="#9CE1FF"/>
<path d="M101.521 214.167L110.639 216.067C111.652 216.193 112.792 216.32 113.932 216.447C114.565 216.573 115.325 216.573 115.958 216.7C116.591 216.7 117.224 216.827 117.984 216.953C119.124 217.08 120.263 217.206 121.277 217.206H129.381L130.774 217.08L130.901 217.206C130.901 217.206 132.8 219.359 134.7 221.512C136.346 223.285 138.119 225.058 138.752 225.691L139.639 225.564C140.018 225.564 140.525 225.438 141.158 225.311C141.538 225.184 141.918 225.184 142.298 225.058C143.058 224.931 143.817 224.805 144.831 224.551C146.603 224.171 148.503 223.918 150.402 223.412L158.254 221.006C159.014 220.879 159.52 220.626 160.027 220.372C160.28 220.246 160.533 220.119 160.787 220.119L161.546 219.739L163.446 216.067L165.219 212.268H165.345C165.345 212.268 165.599 212.141 166.105 211.888L168.258 210.748C168.891 210.368 169.651 209.988 170.411 209.608C171.804 208.849 173.323 208.089 174.843 207.202L181.048 203.15C181.681 202.77 182.061 202.39 182.441 202.137C182.694 202.01 182.821 201.757 182.948 201.757L183.834 201.124L186.62 201.251L189.153 201.377L189.913 200.744C190.039 200.617 190.166 200.491 190.419 200.364C190.926 199.984 191.559 199.478 192.192 198.844C192.825 198.211 193.458 197.578 194.091 196.945C195.484 195.679 197.004 194.159 198.524 192.639L204.222 185.928C204.729 185.295 205.109 184.788 205.489 184.281C205.615 184.028 205.869 183.775 205.995 183.648L206.755 182.635L210.301 181.749L213.593 180.862C213.72 180.736 213.973 180.356 214.353 179.723L219.039 171.365C219.672 170.225 220.178 168.959 220.685 167.566C220.938 166.933 221.318 166.173 221.571 165.54C223.091 162.374 224.104 158.955 224.99 156.169C225.244 155.535 225.37 154.776 225.624 154.142C226.51 151.61 226.89 149.71 227.017 149.077C226.763 148.57 225.75 146.798 224.864 145.025C223.977 143.378 222.964 141.732 222.711 141.226H222.458L222.584 140.846C222.711 140.592 222.838 139.453 222.964 137.933L223.724 131.222C223.851 130.208 223.851 129.195 223.851 128.182V121.597C223.471 121.091 222.204 119.824 220.938 118.685L217.139 115.266H217.646C217.519 113.239 215.493 101.209 214.86 100.323L215.113 100.196L214.986 99.6895L215.366 99.8161C215.873 100.449 218.279 113.239 218.279 115.519L221.318 118.305C222.711 119.571 223.851 120.837 224.357 121.344H224.484V128.436C224.484 129.449 224.484 130.462 224.357 131.601L223.597 138.313C223.471 139.706 223.217 140.846 223.217 141.226C223.471 141.732 224.484 143.378 225.37 145.025C226.51 147.051 227.65 149.204 227.65 149.204L227.776 149.584L227.65 149.71C227.523 150.47 227.143 152.37 226.257 154.902C226.003 155.535 225.877 156.169 225.624 156.802C224.737 159.588 223.724 163.007 222.204 166.173C221.951 166.806 221.571 167.566 221.318 168.199C220.685 169.592 220.178 170.858 219.545 172.125L214.86 180.482C214.1 181.749 213.847 182.002 213.72 182.002L210.427 182.888L207.135 183.775L206.628 184.535C206.502 184.788 206.375 184.915 206.122 185.168C205.742 185.674 205.362 186.308 204.855 186.941L199.03 193.779C197.511 195.299 195.991 196.818 194.598 198.085C193.838 198.718 193.205 199.351 192.698 199.984C192.065 200.617 191.432 201.124 190.926 201.63C190.799 201.757 190.672 201.884 190.546 202.01L189.533 202.77L184.214 202.517L183.581 203.023C183.454 203.15 183.201 203.277 183.074 203.403C182.694 203.783 182.188 204.163 181.555 204.543L175.35 208.595C173.83 209.482 172.184 210.368 170.791 211.128C170.031 211.508 169.271 211.888 168.765 212.268L166.612 213.407C166.232 213.534 165.979 213.661 165.852 213.787L164.206 217.333L162.18 221.259L161.04 221.639C160.787 221.765 160.66 221.765 160.407 221.892C159.9 222.145 159.267 222.399 158.507 222.525L150.656 224.931C148.756 225.438 146.73 225.818 144.957 226.071C144.071 226.198 143.184 226.451 142.551 226.577C142.171 226.704 141.791 226.704 141.411 226.831C140.778 226.957 140.272 227.084 139.892 227.084L138.625 227.211L138.499 227.084C137.992 226.577 136.093 224.678 134.32 222.778C132.674 221.006 131.027 219.106 130.647 218.599L129.634 218.726H121.53C120.39 218.726 119.25 218.599 118.111 218.473C117.477 218.346 116.844 218.346 116.211 218.22C115.451 218.093 114.818 218.093 114.185 217.966C113.045 217.84 111.906 217.713 110.892 217.586L101.775 215.687L101.521 214.167Z" fill="#9CE1FF"/>
<path d="M19.4638 96.2736C21.6166 87.9157 24.4025 81.2041 26.682 76.3919C31.2408 67.5275 36.1796 59.8028 40.7384 54.6108C41.4982 53.7243 42.1314 52.9645 42.7646 52.2047C43.7777 50.9384 44.6641 49.9253 45.4239 49.1655L47.3234 47.3926L48.4631 48.6589L46.5636 50.4318C45.9305 51.1916 45.044 52.2047 44.0309 53.4711C43.3978 54.2309 42.7646 54.9907 42.0048 55.8771C37.5726 60.9425 32.6338 68.5406 28.2016 77.2784C24.6558 84.6232 20.097 96.6535 18.1974 111.85C16.5512 125.4 17.5643 139.583 21.2367 152.879C24.7824 166.049 31.1142 178.839 39.4721 189.73C47.1968 199.861 56.3145 208.345 65.6855 214.297C67.3317 215.564 69.1046 216.577 70.7509 217.463L72.1438 218.223C72.9036 218.603 73.6635 219.109 74.4233 219.489C75.6896 220.249 76.956 220.882 78.2223 221.515L83.7942 223.921C84.3008 224.175 84.934 224.428 85.4405 224.681C86.4536 225.188 87.4666 225.568 88.4797 225.821L97.8507 228.734L97.3442 230.38L87.9732 227.467C86.9601 227.214 85.8204 226.707 84.8073 226.201C84.3008 225.948 83.7942 225.694 83.1611 225.441L77.5891 223.035C76.3228 222.402 75.0564 221.769 73.6635 221.009C72.9037 220.629 72.1438 220.122 71.384 219.743L69.9911 218.983C68.2182 217.97 66.4453 217.083 64.799 215.69C55.1748 209.612 46.0571 201.001 38.2057 190.743C29.7212 179.599 23.2628 166.683 19.7171 153.259C16.0446 139.836 14.9049 125.4 16.6778 111.596C17.1844 105.898 18.3241 100.832 19.4638 96.2736Z" fill="#9CE1FF"/>
<path d="M13.0046 102.732L19.5896 104.125L19.3364 105.265C19.3364 105.518 19.2097 105.772 19.2097 106.152C19.0831 106.658 18.9565 107.418 18.8298 108.178C18.7032 108.938 18.5766 110.077 18.4499 111.344C18.1967 113.75 17.9434 116.409 17.6901 119.448C17.1836 130.212 18.5766 142.496 21.4892 152.753L23.0088 158.072C23.3887 159.212 23.642 160.351 24.1485 161.364L27.5676 169.849L32.633 179.473L35.2924 183.525C37.1919 186.691 39.218 189.224 40.7377 191.123L43.7769 194.923C44.0302 195.302 44.2834 195.556 44.2834 195.556L39.4713 200.241C39.4713 200.241 39.0914 199.861 38.4582 199.101L35.419 195.302C33.7727 193.276 31.6199 190.49 29.4672 186.945L26.048 181.626L21.2359 172.382L17.8168 163.897C17.1836 162.631 16.8037 161.238 16.4238 159.845L14.9042 154.526C11.8649 143.509 10.3453 130.592 10.8518 118.942C11.1051 115.649 11.3584 112.863 11.6117 110.584C11.7383 109.444 11.8649 108.304 11.9916 107.418C12.1182 106.278 12.3715 105.392 12.4981 104.759C12.4981 104.505 12.6247 104.252 12.6247 103.999L13.0046 102.732Z" fill="#9CE1FF"/>
<path d="M47.4492 47.2635L52.8945 41.9449L60.9991 35.4865C61.6323 35.1066 62.1389 34.7267 62.772 34.3468L69.4837 29.9146C70.8766 29.1548 72.2696 28.3949 73.7893 27.6351C74.6757 27.2552 75.4355 26.7487 76.3219 26.3688C84.0467 22.5697 96.3302 17.631 111.273 15.6048C124.95 13.7053 139.386 14.7184 153.063 18.2642C166.613 21.8099 179.656 28.1417 190.8 36.4996C202.83 45.4906 211.188 55.8747 216 62.9662C216.507 63.8527 217.013 64.6125 217.52 65.3723C218.406 66.7653 219.293 68.0316 220.052 69.4246L223.851 76.6428C224.231 77.276 224.485 77.9091 224.738 78.4157L228.79 88.5465L230.816 95.2581L229.17 95.7646L227.017 88.5465L223.218 79.0489C222.965 78.5423 222.712 77.9091 222.332 77.4026L218.659 70.311C217.9 69.0447 217.013 67.7783 216.127 66.3854C215.62 65.6256 215.114 64.7391 214.607 63.9793C209.922 57.0144 201.69 46.757 189.787 37.8925C178.896 29.6613 166.106 23.4562 152.683 20.0371C139.259 16.4913 125.076 15.6048 111.526 17.3777C96.8368 19.2772 84.6798 24.216 77.0818 27.8884C76.1953 28.3949 75.4355 28.7748 74.5491 29.1547C73.1561 29.9146 71.7631 30.6744 70.3701 31.4342L63.6585 35.8664C63.1519 36.2463 62.5188 36.6262 62.0122 37.0061L53.6543 43.7177L48.5889 48.6565L47.4492 47.2635Z" fill="#9CE1FF"/>
<path d="M102.535 12.1889L107.474 11.1758C107.98 11.0491 108.614 10.9225 109.247 10.9225L118.491 10.0361C125.583 9.65616 139.386 9.7828 154.202 13.5818C169.018 17.5075 181.049 24.2192 186.874 27.8916L194.599 33.2102C195.232 33.5901 195.612 33.97 196.118 34.3499L200.044 37.6424L195.738 42.7078L192.446 39.9219C192.319 39.7952 192.066 39.542 191.813 39.4153C191.559 39.1621 191.179 38.9088 190.8 38.6555L183.328 33.4635C174.084 27.6383 162.813 22.6995 152.683 20.0402C142.552 17.3809 130.268 16.2412 119.124 16.7477L110.133 17.6341C109.753 17.6341 109.373 17.7608 108.994 17.8874C108.74 17.8874 108.36 18.0141 108.107 18.0141L103.928 18.7739L102.535 12.1889Z" fill="#9CE1FF"/>
<path d="M97.849 228.478L107.473 230.504C108.486 230.757 109.499 230.884 110.639 231.011C111.272 231.011 111.779 231.137 112.412 231.264L118.364 231.897C119.757 232.024 121.15 232.024 122.543 232.024C123.429 232.024 124.316 232.024 125.202 232.024H126.848C128.748 232.024 130.774 232.024 132.8 231.77C144.071 231.137 156.101 228.225 167.751 223.286C180.415 217.841 192.192 209.863 201.816 200.112C211.567 190.361 219.418 178.584 224.61 165.92C230.436 151.737 232.335 139.074 232.842 130.842C233.222 121.092 232.715 111.974 231.322 105.389C231.069 104.249 230.942 103.236 230.689 102.223C230.436 100.577 230.182 99.3104 229.929 98.2974L229.169 95.8913L230.815 95.3848L231.575 97.7908C231.829 98.8039 232.082 100.197 232.335 101.843C232.462 102.73 232.715 103.869 232.968 105.009C234.361 111.721 234.994 120.965 234.615 130.842C234.108 139.2 232.208 152.117 226.257 166.427C220.938 179.344 212.96 191.374 203.082 201.251C193.332 211.129 181.301 219.234 168.511 224.805C156.607 229.871 144.324 232.91 133.053 233.417C131.027 233.67 129.001 233.67 126.975 233.67H125.329C124.442 233.67 123.556 233.67 122.796 233.67C121.276 233.67 119.757 233.67 118.364 233.543L112.285 232.91C111.652 232.783 111.019 232.783 110.512 232.783C109.246 232.657 108.106 232.53 107.093 232.277L97.5957 230.251L97.849 228.478Z" fill="#9CE1FF"/>
<path d="M158.508 227.971L160.661 225.945C160.661 225.945 160.914 225.819 161.42 225.692L166.106 223.792C168.512 222.906 171.425 221.64 174.59 219.867L181.175 216.194L188.267 211.636L195.359 206.064C196.372 205.304 197.131 204.544 198.018 203.658L202.07 199.732C209.542 192.134 216.76 182.256 221.699 172.505C222.965 169.846 223.978 167.313 224.991 165.161C225.498 164.021 225.878 163.008 226.257 162.121C226.511 161.488 226.637 160.855 226.891 160.348C227.017 159.969 227.144 159.715 227.144 159.335L227.397 158.322L233.855 160.348L233.476 161.488C233.349 161.741 233.349 161.995 233.222 162.248C232.969 162.881 232.716 163.768 232.336 164.654C231.829 165.667 231.449 166.68 231.07 167.693C230.183 169.846 229.043 172.505 227.65 175.291C222.332 185.675 214.734 196.313 206.629 204.291L202.577 208.216C201.564 209.229 200.551 210.243 199.284 211.129L191.939 216.954L181.049 223.792L177.756 225.565C174.337 227.591 171.045 228.858 168.512 229.871L163.953 231.77C163.193 232.024 162.813 232.277 162.687 232.277L161.674 229.111L158.508 227.971Z" fill="#9CE1FF"/>
<path d="M96.0781 218.98L96.458 217.967L100.257 219.233L100.004 220.246L96.0781 218.98Z" fill="#9CE1FF"/>
<path d="M81.7676 213.412L82.1475 212.525C82.2741 212.652 82.5274 212.652 82.7807 212.779L87.4661 214.805L87.0862 215.691L82.4008 213.665C82.1475 213.665 81.8942 213.538 81.7676 213.412ZM90.632 217.211L90.8853 216.198L92.6582 216.831L92.4049 217.844L90.632 217.211Z" fill="#9CE1FF"/>
<path d="M27.948 104.885L28.9611 105.138L28.7078 106.151C28.7078 106.404 28.5812 106.784 28.4545 107.291C28.3279 108.051 28.0746 109.064 27.948 110.077C27.948 110.33 27.948 110.583 27.948 110.71L26.9349 110.583C26.9349 110.33 26.9349 110.077 26.9349 109.95C27.0615 108.81 27.3148 107.797 27.4415 107.038C27.5681 106.658 27.5681 106.278 27.6947 106.024L27.948 104.885ZM26.555 114.382L27.5681 114.509C27.4415 115.142 27.4415 115.775 27.3148 116.409L26.3017 116.282C26.4284 115.649 26.4284 115.016 26.555 114.382ZM26.0485 120.208H27.0615C27.0615 121.601 26.9349 122.994 27.0615 124.26C27.0615 125.4 27.0615 126.666 27.0615 127.806H26.0485C26.0485 126.539 26.0485 125.4 26.0485 124.26C25.9218 122.994 26.0485 121.601 26.0485 120.208ZM26.1751 130.845L27.1882 130.718C27.3148 132.618 27.4415 134.517 27.6947 136.417L26.6816 136.543C26.555 134.644 26.3017 132.744 26.1751 130.845ZM27.3148 140.342L28.3279 140.216C28.4545 140.849 28.5812 141.482 28.7078 142.115L27.6947 142.242C27.5681 141.735 27.4415 140.976 27.3148 140.342ZM28.4545 146.041L29.4676 145.788C29.9741 148.32 30.734 150.853 31.3671 153.133L30.354 153.386C29.7209 151.106 29.0877 148.574 28.4545 146.041ZM31.3671 156.298L32.3802 155.919C33.0134 157.691 33.6466 159.591 34.4064 161.237L33.5199 161.617C32.6335 159.971 31.8737 158.198 31.3671 156.298ZM34.9129 165.29L35.7993 164.91C36.0526 165.416 36.3059 165.923 36.5592 166.429L36.6858 166.556L35.7993 167.062L35.6727 166.809C35.4194 166.303 35.1662 165.796 34.9129 165.29ZM37.4456 170.482L38.332 169.975C39.5984 172.381 40.7381 174.534 42.1311 176.56L41.2446 177.193C39.9783 175.167 38.712 173.014 37.4456 170.482ZM42.8909 179.599L43.7773 179.093L45.4236 181.625L47.0698 183.652L46.31 184.285L44.2839 181.625L42.8909 179.599ZM48.7161 187.324L49.4759 186.691C49.8558 187.197 50.2357 187.704 50.6156 188.21L49.8558 188.844C49.4759 188.337 49.096 187.831 48.7161 187.324ZM52.5151 191.756L53.275 190.996C53.7815 191.503 54.1614 192.009 54.6679 192.389C55.1745 192.896 55.681 193.402 56.1875 193.909L57.9604 195.682C58.2137 195.935 58.467 196.062 58.7202 196.315L58.0871 197.075C57.8338 196.822 57.5805 196.568 57.3273 196.315L55.5544 194.542C55.0478 194.036 54.5413 193.529 54.0348 193.023C53.4016 192.643 53.0217 192.263 52.5151 191.756ZM60.1132 199.101L60.7464 198.341L63.1525 200.367C63.7856 200.874 64.4188 201.507 65.1786 202.014L64.5454 202.773C63.7856 202.14 63.1525 201.634 62.5193 201.127L60.1132 199.101ZM67.7113 205.053L68.3445 204.166C68.851 204.546 69.3576 204.8 69.7375 205.179L69.8641 205.306L69.2309 206.193L69.1043 206.066C68.7244 205.686 68.2178 205.433 67.7113 205.053ZM72.5234 208.345L73.03 207.459C73.7898 207.965 74.2963 208.219 74.9295 208.599L79.7416 211.258L79.2351 212.144L74.423 209.485C73.9164 209.232 73.2832 208.852 72.5234 208.345Z" fill="#9CE1FF"/>
<path d="M29.2146 99.0566L30.2276 99.3099L29.3412 103.236L28.3281 102.982L29.2146 99.0566Z" fill="#9CE1FF"/>
<path d="M29.2129 99.0604L30.3526 95.1348L31.3657 95.5147L30.0993 99.3137L29.2129 99.0604Z" fill="#9CE1FF"/>
<path d="M31.6191 91.5862L32.2523 89.8133L33.2654 90.0666L32.6322 91.9661L31.6191 91.5862ZM33.6453 86.1409L35.6715 81.4554C35.7981 81.2022 35.7981 81.0755 35.9247 80.8223L36.8112 81.2022C36.6845 81.3288 36.6845 81.5821 36.5579 81.8353L34.5317 86.5208L33.6453 86.1409Z" fill="#9CE1FF"/>
<path d="M37.3184 78.2901L39.9777 73.478C40.231 72.9714 40.6109 72.2116 41.1174 71.5785L42.0039 72.085C41.4973 72.8448 41.244 73.3514 40.8641 73.9845L38.2048 78.7966L37.3184 78.2901ZM43.2702 68.4126L43.3968 68.286C43.7767 67.7794 44.03 67.3995 44.4099 66.893L45.2964 67.5262C44.9164 68.0327 44.6632 68.5392 44.2833 68.9191L44.1566 69.0458L43.2702 68.4126ZM46.5627 63.6005C47.1959 62.8407 47.7024 62.2075 48.209 61.5743L50.2351 59.1683L50.9949 59.8014L48.9688 62.2075C48.4622 62.8407 47.829 63.4738 47.3225 64.2337L46.5627 63.6005ZM52.1346 57.0155C52.3879 56.7622 52.6412 56.5089 52.8944 56.2557L54.794 54.4828C55.3005 53.9762 55.807 53.4697 56.3136 52.9632C56.8201 52.4566 57.2 52.0767 57.7066 51.5702L58.4664 52.33C57.9598 52.8365 57.4533 53.2164 57.0734 53.723C56.5669 54.2295 56.0603 54.7361 55.5538 55.2426L53.7809 57.0155C53.5276 57.2687 53.401 57.522 53.1477 57.7753L52.1346 57.0155ZM60.4925 48.9109C60.9991 48.5309 61.5056 48.0244 62.0121 47.6445L62.6453 48.4043C62.1388 48.7842 61.6322 49.1641 61.1257 49.544L60.4925 48.9109ZM65.0514 45.3651L67.7107 43.3389L69.7369 41.9459L70.2434 42.8324L67.7107 44.4786L65.6845 46.1249L65.0514 45.3651ZM72.1429 40.4263C74.1691 39.0333 76.4485 37.767 78.8546 36.5006L79.3611 37.3871C76.955 38.6534 74.8022 39.7931 72.7761 41.1861L72.1429 40.4263ZM82.2737 34.7278L82.527 34.6011C83.0335 34.3479 83.5401 34.0946 84.0466 33.8413L84.4265 34.7278C83.92 34.981 83.4134 35.2343 82.9069 35.4876L82.7802 35.6142L82.2737 34.7278ZM87.5924 32.4483C89.3653 31.6885 91.1381 31.0553 93.0377 30.4222L93.4176 31.4353C91.6447 32.0684 89.7452 32.7016 88.0989 33.4614L87.5924 32.4483ZM95.8236 29.5357C98.2297 28.7759 100.762 28.1428 103.295 27.5096L103.548 28.5227C101.016 29.0292 98.483 29.789 96.2035 30.4222L95.8236 29.5357ZM107.094 26.7498C107.727 26.6231 108.36 26.4965 108.994 26.3699L109.12 27.3829C108.487 27.5096 107.854 27.6362 107.221 27.7628L107.094 26.7498ZM112.793 25.8633C114.692 25.6101 116.718 25.4834 118.618 25.3568L118.745 26.3699C116.845 26.4965 114.945 26.6231 113.046 26.8764L112.793 25.8633ZM121.53 25.1035C122.797 25.1035 123.937 25.1035 125.076 25.1035C126.469 25.1035 127.736 25.1035 129.255 25.1035V26.1166C127.862 26.1166 126.469 26.1166 125.203 26.1166C124.063 26.1166 122.797 26.1166 121.657 26.1166L121.53 25.1035ZM133.054 25.3568C133.687 25.3568 134.321 25.4834 134.954 25.6101L134.827 26.6231C134.194 26.4965 133.561 26.4965 132.928 26.3699L133.054 25.3568ZM138.879 25.99C139.133 25.99 139.386 25.99 139.513 25.99C140.652 26.1166 141.665 26.3699 142.425 26.4965C142.805 26.6231 143.185 26.6231 143.438 26.7498L144.451 27.003L144.198 28.0161L143.185 27.7628C142.932 27.7628 142.552 27.6362 142.045 27.5096C141.285 27.3829 140.272 27.1297 139.259 27.003C139.006 27.003 138.753 27.003 138.626 27.003L138.879 25.99Z" fill="#9CE1FF"/>
<path d="M146.351 27.3848L150.277 28.2712L150.15 29.2843L146.098 28.3978L146.351 27.3848Z" fill="#9CE1FF"/>
<path d="M150.023 29.154L150.403 28.2676L154.202 29.4073L153.949 30.4204L150.023 29.154Z" fill="#9CE1FF"/>
<path d="M157.621 31.5619L157.874 30.5488L159.647 31.182L159.394 32.1951L157.621 31.5619ZM162.94 33.7147L163.32 32.8282L168.005 34.8544C168.258 34.981 168.385 34.981 168.638 35.1077L168.258 35.9941C168.132 35.8675 167.879 35.8675 167.625 35.7409L162.94 33.7147Z" fill="#9CE1FF"/>
<path d="M170.539 37.2595L171.046 36.373L175.858 39.0324C176.364 39.2856 177.124 39.6656 177.757 40.1721L177.251 41.0585C176.491 40.552 175.984 40.2987 175.351 39.9188L170.539 37.2595ZM180.417 43.0847L181.05 42.1982L181.176 42.3249C181.683 42.7048 182.063 42.9581 182.569 43.338L181.936 44.2244C181.43 43.8445 180.923 43.5912 180.543 43.2113L180.417 43.0847ZM185.102 46.3772L185.735 45.6174C186.495 46.2506 187.128 46.7571 187.761 47.2636L190.167 49.2898L189.534 50.0496L187.128 48.0234C186.495 47.5169 185.862 47.0104 185.102 46.3772ZM191.687 51.9491L192.32 51.1893C192.574 51.4426 192.827 51.6958 193.08 51.9491L194.853 53.8486C195.359 54.3552 195.866 54.8617 196.373 55.3683C196.879 55.8748 197.259 56.3813 197.766 56.7612L197.006 57.521C196.499 57.0145 196.119 56.508 195.613 56.1281C195.106 55.6215 194.6 55.115 194.093 54.6085L192.32 52.8356C192.194 52.4557 191.94 52.2024 191.687 51.9491ZM199.665 60.307L200.425 59.6738C200.805 60.1804 201.311 60.6869 201.691 61.1935L200.931 61.8266C200.425 61.1935 200.045 60.6869 199.665 60.307ZM203.211 64.7392L203.971 64.1061L205.997 66.7654L207.39 68.7915L206.503 69.2981L204.857 66.7654L203.211 64.7392ZM208.15 71.8308L209.036 71.1976C210.429 73.2238 211.695 75.5032 212.962 77.9092L212.075 78.4158C210.682 76.0097 209.543 73.8569 208.15 71.8308ZM213.722 81.8349L214.608 81.3284L214.735 81.5817C214.988 82.0882 215.241 82.5947 215.494 83.1013L214.608 83.4812C214.355 82.9746 214.101 82.4681 213.848 81.9615L213.722 81.8349ZM216.128 87.0269L217.014 86.647C217.774 88.4199 218.407 90.1928 219.04 92.0923L218.027 92.4722C217.521 90.6993 216.761 88.7998 216.128 87.0269ZM218.914 95.1316L219.927 94.8783C220.686 97.2844 221.32 99.8171 221.953 102.35L220.94 102.603C220.307 100.07 219.673 97.5376 218.914 95.1316ZM221.7 106.275L222.713 106.149C222.839 106.782 222.966 107.415 223.092 108.048L222.079 108.175C221.826 107.542 221.826 107.035 221.7 106.275ZM222.586 111.974L223.599 111.847C223.852 113.747 223.979 115.773 224.106 117.673L223.092 117.799C222.966 115.9 222.839 113.874 222.586 111.974ZM223.219 120.585H224.232C224.232 121.851 224.232 122.991 224.232 124.258C224.232 125.651 224.232 126.917 224.232 128.437H223.219C223.219 127.044 223.346 125.651 223.219 124.384C223.346 122.991 223.346 121.851 223.219 120.585ZM222.966 132.109L223.979 132.236C223.852 132.869 223.852 133.502 223.726 134.135L222.713 134.008C222.839 133.375 222.966 132.742 222.966 132.109ZM222.333 137.807L223.346 137.934C223.346 138.187 223.346 138.441 223.346 138.567C223.219 139.707 222.966 140.72 222.839 141.48C222.713 141.86 222.713 142.24 222.586 142.493L222.333 143.506L221.32 143.253L221.573 142.24C221.573 141.986 221.7 141.607 221.826 141.1C221.953 140.34 222.206 139.327 222.333 138.314C222.333 138.314 222.333 138.061 222.333 137.807Z" fill="#9CE1FF"/>
<path d="M221.066 145.154L221.953 145.408L221.193 149.333L220.18 149.207L221.066 145.154Z" fill="#9CE1FF"/>
<path d="M218.912 153.002L220.178 149.076L221.192 149.456L219.925 153.255L218.912 153.002Z" fill="#9CE1FF"/>
<path d="M213.467 167.188C213.593 167.062 213.593 166.809 213.72 166.555L215.746 161.87L216.633 162.25L214.607 166.935C214.48 167.188 214.48 167.315 214.353 167.568L213.467 167.188ZM217.266 158.451L217.899 156.678L218.912 156.931L218.279 158.704L217.266 158.451Z" fill="#9CE1FF"/>
<path d="M105.955 220.499L106.968 220.752C107.221 220.752 107.601 220.879 108.108 221.005C108.868 221.132 109.881 221.385 110.894 221.512C111.147 221.512 111.4 221.512 111.654 221.512L111.527 222.525C111.274 222.525 111.02 222.525 110.894 222.525C109.754 222.398 108.741 222.145 107.981 222.019C107.601 221.892 107.221 221.892 106.968 221.765L105.955 221.512V220.499ZM115.453 221.892C116.086 222.019 116.719 222.019 117.352 222.145L117.226 223.158C116.592 223.032 115.959 223.032 115.326 222.905L115.453 221.892ZM121.151 222.272C122.544 222.272 123.937 222.398 125.204 222.272C126.343 222.272 127.61 222.272 128.749 222.272V223.285C127.483 223.285 126.343 223.285 125.204 223.285C123.811 223.285 122.544 223.285 121.025 223.285L121.151 222.272ZM131.662 222.145C133.561 222.019 135.461 221.892 137.36 221.639L137.487 222.652C135.588 222.905 133.561 223.032 131.662 223.158V222.145ZM141.16 221.005C141.793 220.879 142.426 220.752 143.059 220.626L143.186 221.639C142.553 221.765 141.919 221.892 141.286 222.019L141.16 221.005ZM146.858 219.992C149.391 219.486 151.923 218.726 154.203 218.093L154.456 219.106C152.05 219.866 149.517 220.499 146.985 221.132L146.858 219.992ZM156.989 217.08C158.762 216.447 160.661 215.813 162.308 215.054L162.687 215.94C160.915 216.7 159.142 217.333 157.242 217.966L156.989 217.08ZM165.853 213.661C166.36 213.407 166.866 213.154 167.373 212.901L167.5 212.774L168.006 213.661L167.753 213.787C167.246 214.041 166.74 214.294 166.233 214.547L165.853 213.661ZM170.919 211.001C173.325 209.735 175.478 208.595 177.504 207.202L178.137 208.089C176.111 209.482 173.831 210.748 171.425 212.014L170.919 211.001ZM180.036 205.556L182.569 203.91L184.595 202.264L185.228 203.023L182.569 205.05L180.543 206.442L180.036 205.556ZM187.634 199.857C188.141 199.478 188.648 199.098 189.154 198.718L189.787 199.478C189.281 199.857 188.774 200.364 188.268 200.744L187.634 199.857ZM191.94 196.185C192.447 195.679 192.953 195.299 193.333 194.792C193.84 194.286 194.346 193.779 194.853 193.272L196.626 191.5C196.879 191.246 197.005 190.993 197.259 190.74L198.019 191.373C197.765 191.626 197.512 191.879 197.259 192.133L195.359 193.906C194.853 194.412 194.346 194.919 193.84 195.425C193.333 195.932 192.953 196.312 192.447 196.818L191.94 196.185ZM199.285 188.587L201.311 186.181C201.818 185.548 202.451 184.915 202.957 184.155L203.717 184.788C203.084 185.548 202.577 186.181 202.071 186.814L200.045 189.22L199.285 188.587ZM205.11 181.116C205.49 180.609 205.743 180.102 206.123 179.723L206.25 179.596L207.136 180.229L207.01 180.356C206.63 180.862 206.376 181.242 205.997 181.749L205.11 181.116ZM208.403 176.303C208.909 175.544 209.162 175.037 209.542 174.404L212.202 169.592L213.088 170.098L210.429 174.91C210.175 175.417 209.796 176.177 209.289 176.81L208.403 176.303Z" fill="#9CE1FF"/>
<path d="M100.255 219.232L104.181 220.119L103.928 221.005L100.002 220.246L100.255 219.232Z" fill="#9CE1FF"/>
<path d="M8.95298 96.9043L10.0927 97.1576L9.20625 101.59L8.06653 101.337L8.95298 96.9043ZM7.18009 105.642L8.3198 105.895V106.149L7.9399 110.328L6.80019 110.201L7.18009 105.642ZM6.16701 114.633L7.30673 114.76L7.05346 116.659C6.92682 117.419 6.92682 118.179 6.92682 119.065H5.78711C5.78711 118.052 5.78711 117.166 5.91375 116.533L6.16701 114.633ZM5.78711 123.624H6.92682V128.056H5.78711V123.624ZM6.16701 132.615L7.30673 132.489L7.68663 136.921L6.54692 137.048L6.16701 132.615ZM6.92682 141.606L8.06653 141.48C8.19317 142.113 8.31981 142.619 8.44644 143.253C8.57308 143.759 8.57307 144.139 8.69971 144.646L8.95298 145.912L7.81327 146.165L7.56 144.899C7.43336 144.392 7.43336 144.012 7.30673 143.506C7.18009 142.746 7.05346 142.24 6.92682 141.606ZM8.69971 150.344L9.83942 150.091L10.2193 152.37C10.346 153.003 10.5992 153.763 10.7259 154.396L9.58615 154.65C9.33288 153.89 9.20625 153.257 8.95298 152.497L8.69971 150.344ZM10.9791 159.082L11.9922 158.702C12.4988 160.095 12.8787 161.488 13.3852 162.881L12.3721 163.261C11.9922 161.995 11.4857 160.475 10.9791 159.082ZM14.0184 167.566L15.0314 167.187C15.538 168.58 16.1712 169.973 16.6777 171.366L15.6646 171.872C15.1581 170.352 14.5249 168.959 14.0184 167.566ZM17.5641 175.798L18.5772 175.291C19.2104 176.684 19.8436 177.951 20.6034 179.344L19.5903 179.85C18.8305 178.584 18.1973 177.191 17.5641 175.798ZM21.7431 183.902L22.7562 183.269L23.1361 183.902C23.7692 184.915 24.4024 186.055 25.1622 187.068L24.2758 187.701C23.6426 186.688 22.8828 185.549 22.2496 184.536L21.7431 183.902ZM26.5552 191.5L27.4417 190.867C28.3281 192.134 29.2145 193.273 30.101 194.54L29.2145 195.173C28.3281 193.907 27.4416 192.64 26.5552 191.5ZM31.8739 198.719L32.7603 197.959C33.6468 199.099 34.6598 200.238 35.5463 201.378L34.6598 202.138C33.7734 200.998 32.8869 199.858 31.8739 198.719ZM37.6991 205.557L38.5855 204.797C39.5986 205.937 40.6117 206.95 41.6247 208.09L40.8649 208.849C39.8519 207.71 38.8388 206.57 37.6991 205.557ZM44.1574 211.889L44.9172 211.002L48.3364 213.915L47.5766 214.801L44.1574 211.889ZM50.8691 217.714L51.6289 216.827C52.1354 217.334 52.7686 217.714 53.2751 218.22L55.1747 219.487L54.5415 220.373L52.642 219.107C52.0088 218.727 51.5023 218.22 50.8691 217.714ZM58.2139 223.033L58.8471 222.146L62.5195 224.679L62.0129 225.692L61.3798 225.312L58.2139 223.033ZM65.812 227.718L66.3185 226.705L68.218 227.718C68.8512 228.098 69.611 228.478 70.2442 228.858L69.7377 229.871C69.1045 229.491 68.4713 229.111 67.7115 228.731L65.812 227.718ZM73.79 232.024L74.2965 231.011L78.3488 232.783L77.8423 233.796L73.79 232.024ZM82.0212 235.569L82.4011 234.556L83.5408 235.063L86.5801 236.076L86.2002 237.089L83.0343 236.076L82.0212 235.569ZM90.6324 238.355L91.0123 237.342L95.3179 238.735L94.938 239.748L90.6324 238.355Z" fill="#9CE1FF"/>
<path d="M9.58594 93.866L10.9789 89.5604L11.992 89.9403L10.599 94.2459L9.58594 93.866ZM12.3719 85.3815L13.385 82.2156L13.8915 81.0759L14.9046 81.5825L14.3981 82.7222L13.385 85.7614L12.3719 85.3815ZM15.6644 77.0236L17.4373 72.9713L18.4504 73.4778L16.6775 77.5301L15.6644 77.0236ZM19.4634 68.7923C19.8434 68.1592 20.2233 67.526 20.6032 66.7662L21.6162 64.8667L22.6293 65.3732L21.6162 67.2727C21.2363 67.9059 20.8564 68.6657 20.4765 69.2989L19.4634 68.7923ZM23.769 60.941L24.1489 60.3078L26.3017 57.1419L27.1882 57.7751L24.6555 61.4475L23.769 60.941ZM28.9611 53.5962L30.2274 51.6967C30.7339 51.0635 31.1138 50.5569 31.6204 49.9238L32.5068 50.6836C32.0003 51.1901 31.6204 51.8233 31.1139 52.3298L29.8475 54.2293L28.9611 53.5962ZM34.533 46.5046L37.4456 43.0855L38.332 43.8453L35.4194 47.2644L34.533 46.5046ZM40.6115 39.9196C41.6245 38.9065 42.7642 37.8935 43.904 36.8804L44.6638 37.7668C43.5241 38.7799 42.511 39.793 41.3713 40.8061L40.6115 39.9196ZM47.3231 33.8412C48.4628 32.8281 49.6025 31.9416 50.7422 30.9286L51.502 31.815C50.3623 32.7014 49.2226 33.7145 48.0829 34.601L47.3231 33.8412ZM54.288 28.2692C55.4277 27.3828 56.6941 26.4963 57.9604 25.6099L58.5936 26.4963C57.3272 27.3828 56.1875 28.2692 54.9212 29.1557L54.288 28.2692ZM61.7595 23.0772C62.7725 22.444 63.9123 21.6842 64.9253 21.051L65.5585 20.6711L66.065 21.6842L65.4319 22.0641C64.4188 22.6973 63.2791 23.3305 62.266 24.0903L61.7595 23.0772ZM69.4842 18.645C70.8772 18.0118 72.1435 17.252 73.5365 16.6188L74.043 17.6319C72.65 18.2651 71.3837 18.8982 69.9907 19.6581L69.4842 18.645ZM77.5888 14.8459C78.9818 14.2128 80.3748 13.7062 81.7678 13.0731L82.1477 14.0861C80.7547 14.5927 79.3617 15.2258 77.9687 15.7324L77.5888 14.8459ZM86.0733 11.5534C87.4663 11.0469 88.8593 10.5404 90.3789 10.1605L90.7588 11.1735C89.3658 11.6801 87.9729 12.06 86.5799 12.5665L86.0733 11.5534ZM94.5579 8.76747C95.3177 8.5142 95.9509 8.38757 96.7107 8.1343L98.9901 7.62776L99.2434 8.76747L96.9639 9.14738C96.3307 9.27401 95.5709 9.52729 94.9378 9.65392L94.5579 8.76747ZM103.422 6.86795L104.689 6.61469C105.195 6.48805 105.575 6.48804 106.082 6.36141C106.715 6.23478 107.221 6.10815 107.854 5.98151L107.981 7.12123C107.348 7.24786 106.841 7.37449 106.208 7.50112C105.702 7.62776 105.322 7.62776 104.815 7.7544L103.549 8.00767L103.422 6.86795ZM112.287 5.6016L116.719 5.2217L116.846 6.36141L112.413 6.74132L112.287 5.6016ZM121.278 4.8418H125.71V5.98151H121.278V4.8418ZM130.269 4.96843C131.282 4.96843 132.168 4.96843 132.802 5.09506L134.701 5.34834L134.574 6.48805L132.675 6.23478C131.915 6.10814 131.155 6.10814 130.269 6.10814V4.96843ZM139.26 5.72824L143.819 6.23478L143.566 7.37449H143.312L139.133 6.99458L139.26 5.72824ZM148.124 7.12123L152.557 8.00767L152.303 9.14738L147.871 8.26093L148.124 7.12123Z" fill="#9CE1FF"/>
<path d="M155.215 9.78066L155.595 8.76758L159.9 10.1606L159.52 11.1736L155.215 9.78066ZM163.699 12.44L164.079 11.4269L167.245 12.44L168.385 12.9465L168.005 13.9596L166.865 13.4531L163.699 12.44ZM171.931 15.7325L172.311 14.7194L176.363 16.4923L175.856 17.5054L171.931 15.7325ZM180.035 19.5315L180.542 18.5185C181.175 18.8984 181.808 19.2783 182.568 19.6582L184.467 20.6712L183.961 21.6843L182.061 20.6712C181.302 20.2913 180.668 19.9114 180.035 19.5315ZM187.887 23.8371L188.393 22.824L189.026 23.2039L192.192 25.3567L191.559 26.2432L187.887 23.8371ZM195.231 28.9025L195.865 28.0161L197.764 29.2824C198.397 29.789 198.904 30.1689 199.537 30.6754L198.777 31.5618C198.271 31.0553 197.637 30.6754 197.131 30.1689L195.231 28.9025ZM202.07 34.4744L202.83 33.588L206.249 36.5006L205.489 37.387L202.07 34.4744ZM208.655 40.4263L209.415 39.6665C210.428 40.6795 211.441 41.8193 212.454 42.959L211.567 43.7188C210.808 42.5791 209.668 41.566 208.655 40.4263ZM214.733 47.0113L215.62 46.2515C216.633 47.3912 217.519 48.5309 218.532 49.6706L217.646 50.4304C216.633 49.2907 215.62 48.151 214.733 47.0113ZM220.305 53.9762L221.192 53.343C222.078 54.4827 222.964 55.7491 223.851 57.0154L222.964 57.6486C222.078 56.3822 221.192 55.2425 220.305 53.9762ZM225.37 61.321L226.257 60.6878C226.89 61.7009 227.65 62.8406 228.283 63.8537L228.663 64.4869L227.65 65.12L227.27 64.4869C226.637 63.4738 226.004 62.4607 225.37 61.321ZM229.803 69.0457L230.816 68.5392C231.449 69.9322 232.209 71.1985 232.842 72.5915L231.829 73.098C231.069 71.7051 230.436 70.4387 229.803 69.0457ZM233.602 77.1504L234.615 76.7705C235.248 78.1634 235.755 79.5564 236.261 80.9494L235.248 81.3293C234.741 79.9363 234.235 78.5433 233.602 77.1504ZM236.894 85.5082L237.907 85.1283C238.414 86.5213 238.92 87.9143 239.3 89.4339L238.287 89.8138C237.781 88.2942 237.401 86.9012 236.894 85.5082ZM239.554 93.9928L240.567 93.7395C240.82 94.4993 240.947 95.1325 241.2 95.8923L241.706 98.1717L240.567 98.425L240.187 96.1456C239.933 95.3858 239.68 94.6259 239.554 93.9928ZM241.453 102.731L242.593 102.477L242.846 103.744C242.973 104.25 242.973 104.63 243.099 105.137C243.226 105.77 243.353 106.276 243.479 106.91L242.34 107.036C242.213 106.403 242.086 105.896 241.96 105.263C241.833 104.757 241.833 104.377 241.706 103.87L241.453 102.731ZM242.719 111.468L243.859 111.342L244.239 115.774L243.099 115.901L242.719 111.468ZM243.353 120.333H244.492V124.765H243.353V120.333ZM243.353 129.324H244.492C244.492 130.337 244.492 131.223 244.366 131.857L244.112 133.756L242.973 133.629L243.226 131.73C243.353 131.097 243.353 130.337 243.353 129.324ZM242.593 138.188L243.733 138.315L243.226 142.874L242.086 142.621V142.367L242.593 138.188ZM241.2 146.926L242.34 147.179L241.453 151.612L240.313 151.358L241.2 146.926Z" fill="#9CE1FF"/>
<path d="M98.1029 239.241L102.535 240.128L102.282 241.267L97.8496 240.381L98.1029 239.241ZM106.841 241.141H107.094L111.273 241.521L111.146 242.66L106.587 242.154L106.841 241.141ZM115.705 242.027L117.605 242.28C118.364 242.407 119.124 242.407 120.011 242.407V243.547C118.998 243.547 118.111 243.547 117.478 243.42L115.578 243.167L115.705 242.027ZM124.57 242.407H129.002V243.547H124.57V242.407ZM133.434 242.154L137.866 241.774L137.993 242.914L133.561 243.293L133.434 242.154ZM142.298 241.267C142.932 241.141 143.438 241.014 144.071 240.887C144.578 240.761 144.958 240.761 145.464 240.634L146.731 240.381L146.984 241.521L145.718 241.774C145.211 241.9 144.831 241.9 144.325 242.027C143.691 242.154 143.185 242.28 142.552 242.407L142.298 241.267ZM151.163 239.621L153.442 239.241C154.075 239.115 154.835 238.861 155.468 238.735L155.722 239.748C154.962 240.001 154.329 240.128 153.569 240.381L151.289 240.887L151.163 239.621ZM159.774 237.342C161.167 236.835 162.56 236.455 163.953 235.949L164.333 236.962C162.94 237.468 161.547 237.975 160.027 238.355L159.774 237.342ZM168.132 234.302C169.525 233.796 170.918 233.163 172.311 232.656L172.691 233.669C171.298 234.302 169.905 234.809 168.512 235.315L168.132 234.302ZM176.363 230.757C177.756 230.123 179.022 229.49 180.415 228.73L180.922 229.744C179.529 230.377 178.263 231.137 176.87 231.77L176.363 230.757ZM184.215 226.704L184.848 226.324C185.861 225.691 187 225.058 188.014 224.298L188.647 225.185C187.634 225.818 186.494 226.578 185.481 227.211L184.848 227.591L184.215 226.704ZM191.813 221.892C193.079 221.006 194.219 220.119 195.485 219.233L196.118 220.119C194.978 221.006 193.712 221.892 192.446 222.779L191.813 221.892ZM198.904 216.574C200.044 215.687 201.184 214.674 202.323 213.788L203.083 214.674C201.943 215.687 200.804 216.574 199.664 217.587L198.904 216.574ZM205.742 210.875C206.882 209.862 207.895 208.849 209.035 207.836L209.795 208.596C208.782 209.609 207.642 210.622 206.502 211.635L205.742 210.875ZM212.074 204.543L214.987 201.124L215.873 201.884L212.961 205.303L212.074 204.543ZM217.773 197.705C218.279 197.198 218.659 196.565 219.166 196.059L220.432 194.159L221.318 194.792L220.052 196.692C219.546 197.325 219.166 197.832 218.659 198.465L217.773 197.705ZM223.091 190.613L225.624 186.941L226.637 187.448L226.257 188.081L224.104 191.247L223.091 190.613ZM227.777 183.015L228.79 181.116C229.17 180.483 229.55 179.723 229.93 179.09L230.943 179.596C230.563 180.229 230.183 180.863 229.803 181.622L228.79 183.522L227.777 183.015ZM231.956 175.164L233.729 171.112L234.742 171.618L232.969 175.67L231.956 175.164ZM235.502 166.933L236.008 165.793L237.021 162.754L238.034 163.134L237.021 166.3L236.515 167.439L235.502 166.933ZM238.288 158.448L239.681 154.143L240.694 154.522L239.301 158.828L238.288 158.448Z" fill="#9CE1FF"/>
</g>
<defs>
<linearGradient id="paint0_linear_3697_10820" x1="133.855" y1="35.2786" x2="127.95" y2="207.523" gradientUnits="userSpaceOnUse">
<stop stop-color="#9CE1FF"/>
<stop offset="1" stop-color="#9CE1FF" stop-opacity="0.08"/>
</linearGradient>
<linearGradient id="paint1_linear_3697_10820" x1="127.734" y1="55.1152" x2="94.9381" y2="211.327" gradientUnits="userSpaceOnUse">
<stop stop-color="#9CE1FF"/>
<stop offset="1" stop-color="#9CE1FF" stop-opacity="0"/>
</linearGradient>
<clipPath id="clip0_3697_10820">
<rect width="253.937" height="250" fill="white" transform="translate(0 0.173828)"/>
</clipPath>
</defs>
</svg>
