<svg width="148" height="48" viewBox="0 0 148 48" fill="none" xmlns="http://www.w3.org/2000/svg">
<path d="M20.2808 17V22.2509H8.44525V17H4.5V31.44H8.44525V26.1891H20.2808V31.44H24.2261V17H20.2808Z" fill="white"/>
<path d="M95.2402 26.1875H91.2949V31.4384H95.2402V26.1875Z" fill="white"/>
<path d="M95.2395 17H91.2942V22.2509H79.459V17H75.5137V31.44H79.459V26.1891H91.2942L95.2395 22.2509V17Z" fill="white"/>
<path d="M45.2698 17H28.1738V31.44H32.1191V26.1891H43.9547V31.44H47.8999V17H45.2698ZM32.1191 22.2509V20.9382H43.9547V22.2509H32.1191Z" fill="white"/>
<path d="M71.5656 20.9382V17H55.7851H54.47H51.8398V31.44H54.47H55.7851H71.5656V27.5018H55.7851V20.9382H71.5656Z" fill="white"/>
<path d="M118.915 20.9382V17H103.135H101.819H99.1895V31.44H101.819H103.135H118.915V27.5018H103.135V26.1891H118.915V22.2509H103.135V20.9382H118.915Z" fill="white"/>
<path d="M138.636 17V26.1891L126.8 17H122.855V31.44H126.8V22.2509L138.636 31.44H142.581V17H138.636Z" fill="white"/>
</svg>
