<svg width="210" height="72" viewBox="0 0 210 72" fill="none" xmlns="http://www.w3.org/2000/svg">
<g clip-path="url(#clip0_2601_6108)">
<path d="M52.5073 34.4745C51.9934 33.3579 51.7271 32.7786 51.3674 31.9097C51.0357 32.7786 50.9236 33.0449 50.2975 34.5399L49.0736 37.5485H53.8901L52.5073 34.4745ZM47.6907 41.2718L45.9715 45.0652H40.9495L49.6949 26.6447H53.9321L62.6729 45.0652H57.7256L55.8569 41.2718H47.6907ZM75.1837 34.6286C76.2068 34.6286 76.632 34.5632 77.0524 34.339C77.3812 34.1492 77.6549 33.8771 77.8465 33.5495C78.0382 33.2218 78.1413 32.8499 78.1456 32.4703C78.1395 32.0911 78.0356 31.7199 77.8441 31.3926C77.6526 31.0652 77.3799 30.7928 77.0524 30.6016C76.6506 30.3774 76.2255 30.3307 75.1837 30.3307H69.0498V34.5913L75.1837 34.6286ZM69.0498 45.0652H64.4341V26.6447H76.4544C78.5941 26.6447 79.7527 26.9157 80.8458 27.579C81.5401 28.0194 82.1109 28.629 82.5048 29.3506C82.8987 30.0722 83.1027 30.8821 83.0976 31.7042C83.0976 33.8905 81.9624 35.5163 79.8881 36.3759C81.7148 37.0252 82.2754 38.0483 82.3174 40.9261C82.4062 43.2246 82.5417 43.8926 83.0976 45.0746H78.0148C77.6784 44.0468 77.613 43.6263 77.6597 41.8604C77.6597 39.1882 76.9216 38.3613 74.5577 38.3613H69.0498V45.0652ZM104.681 45.0652V26.6447H121.536V30.3821H109.297V33.8391H120.112V37.5765H109.297V41.3699H121.536V45.1073L104.681 45.0652ZM134.916 45.0652H130.301V30.368H123.924V26.6307H141.27V30.368H134.916V45.0652ZM163.881 37.8615C162.563 43.1031 158.975 45.7333 153.024 45.7333C146.245 45.7333 141.961 41.9632 141.961 36.0348C141.961 29.9616 146.376 26 153.131 26C156.369 26 158.91 26.8456 160.914 28.6535C162.277 29.7871 163.226 31.3392 163.614 33.0683H158.639C157.705 30.7324 155.878 29.5879 153.112 29.5879C149.408 29.5879 146.848 32.1994 146.848 35.9461C146.848 39.5993 149.389 42.1454 153.024 42.1454C155.967 42.1454 157.728 40.828 158.798 37.8615H163.881ZM180.316 26.6447V33.8251H170.823V26.6447H166.207V45.0652H170.823V37.5485H180.302V45.0652H184.913V26.6447H180.316ZM26 45.0652V26.6447H42.1641V30.3821H30.6156V33.8391H41.2064V37.5765H30.6156V45.0652H26ZM86.1295 45.0652V26.6447H102.298V30.3821H90.7452V33.8391H101.359V37.5765H90.7452V45.0652H86.1295Z" fill="white"/>
</g>
<defs>
<clipPath id="clip0_2601_6108">
<rect width="158.927" height="19.7333" fill="white" transform="translate(26 26)"/>
</clipPath>
</defs>
</svg>
