<svg width="101" height="48" viewBox="0 0 101 48" fill="none" xmlns="http://www.w3.org/2000/svg">
<g clip-path="url(#clip0_4718_23560)">
<path d="M7.043 6.17201C4.90235 6.55427 3.52621 7.26782 2.26476 8.64396C0.124104 10.9503 -0.602189 15.1041 0.531847 18.5954C1.38556 21.2713 3.32234 22.9914 6.36767 23.7687C7.99865 24.1892 11.4008 24.1255 13.2866 23.6285C15.0832 23.1571 16.5485 22.0485 17.2366 20.6342C17.6061 19.8824 18.0011 18.4425 18.154 17.3467L18.2432 16.6841H15.9369H13.6306V18.3406V19.9971H9.17091H4.71122V15.0277V10.0583H9.17091H13.6306V11.7148V13.3712H15.8604C17.0837 13.3712 18.0903 13.3457 18.0903 13.3203C18.0903 13.0272 17.6698 11.2306 17.4659 10.6444C16.9945 9.2938 15.9751 8.0196 14.7646 7.28057C13.0062 6.21024 9.57865 5.7133 7.043 6.17201Z" fill="white"/>
<path d="M16.0508 6.48193C16.0508 6.55838 17.5926 8.87742 19.4911 11.6552L22.9315 16.6882V20.1796V23.6836H25.225H27.5186V20.205V16.7392L30.8952 11.6807C32.7555 8.89016 34.2718 6.54564 34.2718 6.48193C34.2718 6.39273 33.4818 6.35451 31.9528 6.37999L29.6337 6.41822L27.5058 9.76936C26.3336 11.6169 25.3397 13.1332 25.276 13.1332C25.2123 13.146 24.1929 11.6297 22.9952 9.7821L20.8163 6.41822L18.4335 6.37999C16.8408 6.35451 16.0508 6.39273 16.0508 6.48193Z" fill="white"/>
<path d="M34.7812 15.0337V23.7109L40.9993 23.66C46.3127 23.609 47.3066 23.5708 47.931 23.3924C49.7913 22.8572 50.696 21.685 50.8999 19.5316C51.1292 17.2508 50.0207 15.6708 47.8927 15.2248C47.3576 15.1228 47.1665 15.0337 47.3321 14.9954C47.4723 14.9572 47.8418 14.8553 48.1603 14.7661C49.0395 14.5495 49.8678 13.8741 50.25 13.0841C50.8616 11.8227 50.8999 9.78396 50.3265 8.64992C49.9824 7.98734 49.0268 7.17185 48.2113 6.86604C47.09 6.4583 45.5864 6.35637 40.0437 6.35637H34.7812V15.0337ZM46.249 11.708V13.3645H42.8087H39.3684V11.708V10.0515H42.8087H46.249V11.708ZM46.249 18.3338V19.9903H42.8087H39.3684V18.3338V16.6774H42.8087H46.249V18.3338Z" fill="white"/>
<path d="M51.8177 6.4437C51.7667 6.48193 51.7285 10.381 51.7285 15.1082V23.6836H59.756H67.7834V21.836V19.9884H62.0495H56.3156V18.332V16.6755H60.7753H65.235V15.0191V13.3626H60.7753H56.3156V11.7061V10.0497H62.0495H67.7834V8.20209V6.35451H59.8452C55.4747 6.35451 51.8559 6.39273 51.8177 6.4437Z" fill="white"/>
<path d="M68.8047 15.0191V23.6836H71.0345H73.2644V20.1796V16.6755H76.7684H80.2725V20.1796V23.6836L82.5405 23.6581L84.7959 23.6199V20.8166C84.7959 18.8799 84.7449 17.8733 84.6302 17.5547C84.2862 16.5481 83.0884 15.7199 81.3683 15.2739C80.5655 15.0573 80.5146 15.0318 80.9605 15.0318C82.4768 15.0063 83.8147 14.1908 84.3499 12.9549C84.8978 11.6807 84.8978 9.73113 84.3499 8.64806C84.0059 7.98548 83.0502 7.16999 82.2347 6.86419C81.1134 6.45644 79.6099 6.35451 74.0671 6.35451H68.8047V15.0191ZM80.2725 11.7061V13.3626H76.7684H73.2644V11.7061V10.0497H76.7684H80.2725V11.7061Z" fill="white"/>
<path d="M34.7812 30.59C34.7812 37.2413 34.8195 37.5853 35.5713 38.9997C36.323 40.414 37.6864 41.3697 39.7251 41.9303C41.1522 42.3253 44.4652 42.3253 45.905 41.9303C48.4152 41.2422 49.8678 39.8279 50.5303 37.4324C50.7342 36.7061 50.7597 35.9671 50.7724 30.6282V24.6395L48.5171 24.6012L46.249 24.5757V31.3927V38.2097H42.8087H39.3684L39.3429 31.4182L39.3047 24.6395L37.0493 24.6012L34.7812 24.5757V30.59Z" fill="white"/>
<path d="M51.7911 24.734C51.7528 24.8232 51.7401 28.7095 51.7528 33.373L51.7911 41.8464L54.0464 41.8847L56.3145 41.9102L56.3399 34.3669L56.3782 26.8109L57.7543 33.6916C58.5061 37.4759 59.1814 40.8781 59.2579 41.2348L59.3853 41.9102H63.5901H67.7822V33.2456V24.5811H65.4887H63.1951L63.1696 32.1243L63.1314 39.6548L61.5641 32.3409C60.6977 28.3145 59.9587 24.9251 59.9332 24.7977C59.8695 24.5938 59.5637 24.5811 55.8557 24.5811C52.7722 24.5811 51.8293 24.6193 51.7911 24.734Z" fill="white"/>
<path d="M68.8047 26.4287V28.2762H71.6716H74.5386V33.2456V38.215H71.6716H68.8047V40.0626V41.9102L76.8067 41.8847L84.7959 41.8464L84.8341 40.0243L84.8723 38.215H81.9926H79.1257V33.2456V28.2762L81.9672 28.2508L84.7959 28.2125V26.4287V24.6448L76.8067 24.6066L68.8047 24.5811V26.4287Z" fill="white"/>
<path d="M85.752 26.4287V28.2762H88.6189H91.4858L91.5113 35.055L91.5496 41.8464L93.8176 41.8847L96.073 41.9102V35.0932V28.2762H98.9399H101.807V26.4287V24.5811H93.7794H85.752V26.4287Z" fill="white"/>
<path d="M4.79818 25.8181C4.74721 25.8564 4.70898 26.4298 4.70898 27.0923C4.70898 28.0607 4.74721 28.2773 4.90011 28.2773C5.00205 28.2773 5.09124 28.2136 5.09124 28.1244C5.09124 28.0098 5.12947 28.0098 5.24415 28.1244C5.33334 28.2136 5.58818 28.2773 5.83028 28.2773C6.18705 28.2773 6.27625 28.2136 6.42915 27.8441C6.77318 27.0286 6.13609 26.1367 5.46076 26.4935C5.11673 26.6846 5.15495 26.7356 5.61366 26.7228C6.04689 26.7101 6.23802 26.9012 6.23802 27.3854C6.23802 27.9843 5.80479 28.2519 5.34608 27.9333C5.14221 27.7931 5.0785 27.6275 5.10399 27.2707C5.1677 26.0348 5.06576 25.5378 4.79818 25.8181Z" fill="white"/>
<path d="M0.572197 26.1765C0.151712 26.5842 0.126228 27.4506 0.52123 27.9476C0.763327 28.2534 0.865263 28.2916 1.43865 28.2534C1.96107 28.2279 2.12672 28.1515 2.33059 27.8584C2.52172 27.6163 2.55995 27.4761 2.45801 27.3742C2.35607 27.2723 2.26688 27.336 2.13946 27.6036C1.9993 27.8966 1.88462 27.9731 1.43865 27.9986C1.01817 28.024 0.878005 27.9858 0.712359 27.7437C0.228164 27.0684 0.635907 26.1127 1.38768 26.1127C1.7572 26.1127 2.16494 26.3931 2.16494 26.6352C2.16494 26.6989 2.2414 26.7498 2.34333 26.7498C2.45801 26.7498 2.49624 26.6606 2.45801 26.495C2.27962 25.8197 1.10736 25.6285 0.572197 26.1765Z" fill="white"/>
<path d="M11.208 26.1112C10.7238 26.5954 10.9914 27.0541 11.8323 27.1943C12.788 27.3472 12.9026 28.0225 11.9725 28.0225C11.603 28.0225 11.4246 27.9588 11.3099 27.7677C11.1188 27.4746 10.9531 27.4364 10.9531 27.6785C10.9531 28.0225 11.4118 28.2773 11.9852 28.2773C12.6478 28.2773 12.8644 28.1117 12.8644 27.6275C12.8644 27.1943 12.686 27.0541 11.9725 26.914C11.4755 26.8248 11.3991 26.761 11.3991 26.4935C11.3991 26.2131 11.4628 26.1749 11.8705 26.1367C12.2401 26.1112 12.3675 26.1494 12.4822 26.3533C12.6223 26.6336 12.8644 26.7101 12.8644 26.4935C12.8644 26.2004 12.342 25.8564 11.9088 25.8564C11.6284 25.8564 11.3609 25.9583 11.208 26.1112Z" fill="white"/>
<path d="M20.5137 26.0393C20.5137 26.1413 20.6029 26.2305 20.7048 26.2305C20.8067 26.2305 20.8959 26.1413 20.8959 26.0393C20.8959 25.9374 20.8067 25.8482 20.7048 25.8482C20.6029 25.8482 20.5137 25.9374 20.5137 26.0393Z" fill="white"/>
<path d="M21.5307 26.3036C21.5307 26.4055 21.4415 26.4947 21.3396 26.4947C21.2376 26.4947 21.1484 26.5457 21.1484 26.6221C21.1484 26.6858 21.2121 26.7495 21.2759 26.7495C21.3523 26.7495 21.4033 27.0299 21.4033 27.3611C21.4033 27.6924 21.467 28.0365 21.5562 28.1257C21.7473 28.3168 22.2952 28.3295 22.2952 28.1511C22.2952 28.0747 22.1805 28.0237 22.0404 28.0237C21.8238 28.0237 21.7855 27.9345 21.7855 27.3866C21.7855 26.8387 21.8238 26.7495 22.0404 26.7495C22.1805 26.7495 22.2952 26.6858 22.2952 26.6221C22.2952 26.5457 22.1805 26.4947 22.0404 26.4947C21.9002 26.4947 21.7855 26.4055 21.7855 26.3036C21.7855 26.2016 21.7346 26.1124 21.6581 26.1124C21.5944 26.1124 21.5307 26.2016 21.5307 26.3036Z" fill="white"/>
<path d="M7.38859 26.5188C6.98084 26.6717 6.87891 26.8374 6.87891 27.398C6.87891 27.6784 6.9681 27.9332 7.10826 28.0606C7.40133 28.3282 8.19133 28.3409 8.40794 28.0861C8.65004 27.793 8.47165 27.7166 8.11488 27.9459C7.80907 28.1626 7.41407 28.1116 7.23568 27.844C7.04455 27.5637 7.14649 27.5127 7.83455 27.5127C8.4844 27.5127 8.53536 27.4872 8.53536 27.2196C8.53536 26.6972 7.92375 26.315 7.38859 26.5188ZM8.07665 26.8246C8.40794 27.1432 8.31875 27.2579 7.70713 27.2579C7.38859 27.2579 7.13375 27.2069 7.13375 27.1432C7.13375 26.9648 7.51601 26.6208 7.70713 26.6208C7.79633 26.6208 7.97472 26.71 8.07665 26.8246Z" fill="white"/>
<path d="M13.7597 26.5205C13.5941 26.5842 13.4029 26.6989 13.352 26.7881C13.1863 27.0557 13.2373 27.8712 13.4539 28.075C13.7087 28.3426 14.5752 28.3426 14.7791 28.0878C15.0212 27.7947 14.8428 27.7183 14.486 27.9476C14.1802 28.1642 13.7852 28.1133 13.6068 27.8457C13.4157 27.5654 13.5176 27.5144 14.2057 27.5144C14.8555 27.5144 14.9065 27.4889 14.9065 27.2213C14.9065 26.6989 14.2949 26.3166 13.7597 26.5205ZM14.4478 26.8263C14.7791 27.1449 14.6899 27.2595 14.0783 27.2595C13.7597 27.2595 13.5049 27.2086 13.5049 27.1449C13.5049 26.9665 13.8871 26.6225 14.0783 26.6225C14.1675 26.6225 14.3458 26.7116 14.4478 26.8263Z" fill="white"/>
<path d="M15.7713 26.5235C15.1725 26.7274 15.045 27.8359 15.5802 28.18C16.0007 28.4475 16.9436 28.1672 16.9436 27.7595C16.9436 27.5811 16.8289 27.6193 16.4849 27.8869C15.9115 28.3329 15.3891 27.8741 15.593 27.0841C15.6949 26.6764 16.1026 26.5872 16.4976 26.9058C16.8544 27.1861 16.9946 27.1606 16.8671 26.842C16.7652 26.5617 16.1791 26.3833 15.7713 26.5235Z" fill="white"/>
<path d="M2.79688 26.5967C2.79688 26.7623 3.3193 28.062 3.44672 28.2022C3.61236 28.3933 3.3193 28.7883 3.02623 28.7883C2.80962 28.7883 2.78413 28.8265 2.89881 28.9412C3.21736 29.2597 3.57414 28.8647 4.08381 27.667C4.41511 26.8642 4.51704 26.4947 4.40236 26.4947C4.31317 26.4947 4.13478 26.7623 4.00736 27.0936C3.87994 27.4376 3.73978 27.7562 3.68881 27.8072C3.63785 27.8581 3.48494 27.6033 3.34478 27.2465C3.11542 26.6476 2.79688 26.2654 2.79688 26.5967Z" fill="white"/>
<path d="M8.91602 27.3854C8.91602 27.8951 8.96698 28.2773 9.04344 28.2773C9.11989 28.2773 9.17086 28.0862 9.17086 27.8569C9.17086 27.1943 9.31102 26.8757 9.62957 26.7993C9.79521 26.761 9.93537 26.6719 9.93537 26.6081C9.93537 26.4425 9.50215 26.468 9.32376 26.6464C9.20908 26.761 9.17086 26.761 9.17086 26.6464C9.17086 26.5572 9.11989 26.4935 9.04344 26.4935C8.96698 26.4935 8.91602 26.8757 8.91602 27.3854Z" fill="white"/>
<path d="M17.2372 27.2452C17.2754 27.6657 17.3391 28.0607 17.3901 28.1372C17.5048 28.3283 18.2565 28.3156 18.4477 28.1244C18.5623 28.0098 18.6006 28.0098 18.6006 28.1244C18.6006 28.2136 18.6643 28.2773 18.728 28.2773C18.8044 28.2773 18.8554 27.8951 18.8554 27.3854C18.8554 26.8757 18.8044 26.4935 18.728 26.4935C18.6643 26.4935 18.6006 26.6846 18.6006 26.9267C18.6006 27.1688 18.5369 27.5256 18.4732 27.704C18.3712 27.9715 18.2693 28.0352 17.989 27.997C17.6577 27.9588 17.6449 27.9206 17.6067 27.2198C17.5812 26.6591 17.5175 26.4935 17.3646 26.4935C17.199 26.4935 17.1735 26.6209 17.2372 27.2452Z" fill="white"/>
<path d="M19.2363 27.3854C19.2363 28.099 19.2746 28.2773 19.4275 28.2773C19.5676 28.2773 19.6186 28.1372 19.6186 27.7549C19.6186 27.1178 19.8097 26.7483 20.1283 26.7483C20.2684 26.7483 20.3831 26.6846 20.3831 26.6209C20.3831 26.4425 19.9626 26.4552 19.7715 26.6464C19.6568 26.761 19.6186 26.761 19.6186 26.6464C19.6186 26.5572 19.5294 26.4935 19.4275 26.4935C19.2746 26.4935 19.2363 26.6719 19.2363 27.3854Z" fill="white"/>
<path d="M20.5137 27.3854C20.5137 28.099 20.5519 28.2773 20.7048 28.2773C20.8577 28.2773 20.8959 28.099 20.8959 27.3854C20.8959 26.6719 20.8577 26.4935 20.7048 26.4935C20.5519 26.4935 20.5137 26.6719 20.5137 27.3854Z" fill="white"/>
<path d="M22.5488 26.5309C22.5488 26.5564 22.7145 26.9769 22.9056 27.4611C23.3006 28.4167 23.3006 28.7862 22.9183 28.7862C22.7909 28.7862 22.6762 28.8499 22.6762 28.9264C22.6762 29.0028 22.8037 29.0411 22.9693 29.0156C23.2624 28.9773 23.5554 28.4804 24.0651 27.1552C24.2817 26.6073 24.2945 26.4927 24.1416 26.4927C24.0396 26.4927 23.9504 26.5436 23.9504 26.6073C23.9504 26.6711 23.8358 27.0023 23.6829 27.3464L23.4153 27.958L23.135 27.2699C22.9821 26.8877 22.7909 26.5564 22.7017 26.5181C22.6125 26.4927 22.5488 26.4927 22.5488 26.5309Z" fill="white"/>
<path d="M0.437223 30.4393C0.080448 30.8343 0.271578 31.293 0.857709 31.4459C1.11255 31.5224 1.39287 31.5861 1.48207 31.5861C1.6732 31.5861 1.88981 31.9811 1.81336 32.185C1.71142 32.4653 0.781257 32.3889 0.602869 32.0958C0.411739 31.8027 0.246094 31.7645 0.246094 32.0193C0.246094 32.3634 0.628353 32.6055 1.20174 32.6055C1.8261 32.6055 2.15739 32.3634 2.15739 31.9047C2.15739 31.5606 1.90255 31.3822 1.17626 31.2293C0.781257 31.1401 0.692063 31.0764 0.692063 30.8216C0.692063 30.6177 0.781257 30.4903 0.921419 30.4648C1.30368 30.3884 1.77513 30.554 1.77513 30.7579C1.77513 30.8598 1.86432 30.949 1.96626 30.949C2.23384 30.949 2.20836 30.7451 1.90255 30.4393C1.55852 30.0953 0.755773 30.0953 0.437223 30.4393Z" fill="white"/>
<path d="M12.4844 30.3923C12.4844 30.507 12.5481 30.5707 12.6373 30.5452C12.8666 30.4688 12.9049 30.1884 12.6882 30.1884C12.5736 30.1884 12.4844 30.2776 12.4844 30.3923Z" fill="white"/>
<path d="M16.0508 31.395C16.0508 32.1213 16.1017 32.6055 16.1782 32.6055C16.2547 32.6055 16.3056 32.3761 16.3056 32.0958V31.5861H16.8663C17.5034 31.5861 17.8347 31.344 17.8347 30.8853C17.8347 30.4521 17.3759 30.1845 16.6624 30.1845H16.0508V31.395ZM17.2995 30.554C17.4014 30.605 17.4524 30.7961 17.4269 30.9618C17.4014 31.2166 17.3122 31.2676 16.8535 31.3058L16.3056 31.344V30.898C16.3056 30.4648 16.3311 30.4393 16.7261 30.4393C16.9427 30.4393 17.2103 30.4903 17.2995 30.554Z" fill="white"/>
<path d="M2.62198 30.7217C2.46908 30.8873 2.43085 31.0147 2.52004 31.0657C2.5965 31.1039 2.67295 31.4607 2.69843 31.8429C2.73666 32.531 2.7494 32.5438 3.15714 32.582C3.3865 32.6075 3.56489 32.5692 3.56489 32.4928C3.56489 32.4163 3.45021 32.3526 3.31005 32.3526C3.09343 32.3526 3.05521 32.2634 3.05521 31.7155C3.05521 31.1676 3.09343 31.0784 3.31005 31.0784C3.45021 31.0784 3.56489 31.0147 3.56489 30.951C3.56489 30.8746 3.45021 30.8236 3.31005 30.8236C3.16989 30.8236 3.05521 30.7344 3.05521 30.6325C3.05521 30.3776 2.91505 30.4031 2.62198 30.7217Z" fill="white"/>
<path d="M7.26117 30.6317C7.26117 30.7336 7.17197 30.8228 7.07004 30.8228C6.9681 30.8228 6.87891 30.8738 6.87891 30.9502C6.87891 31.0139 6.94262 31.0777 7.00633 31.0777C7.08278 31.0777 7.13375 31.358 7.13375 31.6893C7.13375 32.0206 7.19746 32.3646 7.28665 32.4538C7.47778 32.6449 8.02568 32.6577 8.02568 32.4793C8.02568 32.4028 7.91101 32.3519 7.77084 32.3519C7.55423 32.3519 7.51601 32.2627 7.51601 31.7148C7.51601 31.1668 7.55423 31.0777 7.77084 31.0777C7.91101 31.0777 8.02568 31.0139 8.02568 30.9502C8.02568 30.8738 7.91101 30.8228 7.77084 30.8228C7.63068 30.8228 7.51601 30.7336 7.51601 30.6317C7.51601 30.5297 7.46504 30.4406 7.38859 30.4406C7.32488 30.4406 7.26117 30.5297 7.26117 30.6317Z" fill="white"/>
<path d="M21.4673 30.5933C21.4163 30.7335 21.2379 30.8227 21.0341 30.8227C20.8429 30.8227 20.6136 30.8991 20.5244 30.9756C20.3842 31.103 20.346 31.103 20.295 30.9756C20.1421 30.5678 20.002 30.9119 20.002 31.7146C20.002 32.7085 20.1931 32.9124 20.2823 32.0332C20.3715 31.3323 20.5626 31.0775 21.0341 31.0775C21.3781 31.0775 21.3908 31.103 21.4291 31.8038C21.4673 32.5301 21.4673 32.5428 21.8878 32.5811C22.1171 32.6065 22.2955 32.5683 22.2955 32.4919C22.2955 32.4154 22.1553 32.3517 21.977 32.3517C21.6839 32.3517 21.6584 32.3135 21.6584 31.7146C21.6584 31.1157 21.6839 31.0775 21.977 31.0775C22.1553 31.0775 22.2955 31.0138 22.2955 30.9501C22.2955 30.8736 22.1553 30.8227 21.9897 30.8227C21.7986 30.8227 21.6584 30.7335 21.6202 30.5933C21.5692 30.3894 21.5692 30.3894 21.4673 30.5933Z" fill="white"/>
<path d="M5.52809 30.8216C5.1968 30.949 5.01841 31.3313 5.286 31.3313C5.38793 31.3313 5.47713 31.2803 5.47713 31.2166C5.47713 31.0127 5.98681 30.9235 6.19068 31.0892C6.36906 31.2421 6.36906 31.2676 6.16519 31.4205C6.03777 31.5097 5.80842 31.5861 5.65551 31.5861C5.29874 31.5861 5.06938 31.8792 5.12035 32.2487C5.14583 32.478 5.24777 32.5545 5.57906 32.58C5.80842 32.6055 6.08874 32.5545 6.19068 32.4653C6.3181 32.3634 6.36906 32.3634 6.36906 32.4653C6.36906 32.5418 6.43277 32.6055 6.49648 32.6055C6.68761 32.6055 6.64939 31.1274 6.471 30.9745C6.20342 30.7706 5.80842 30.7069 5.52809 30.8216ZM6.36906 31.79C6.36906 32.0448 6.06326 32.3506 5.79568 32.3506C5.08212 32.3506 5.41342 31.7518 6.15245 31.7263C6.26713 31.7135 6.36906 31.7518 6.36906 31.79Z" fill="white"/>
<path d="M8.78702 30.8509C8.37928 31.0038 8.27734 31.1694 8.27734 31.7301C8.27734 32.0104 8.36654 32.2652 8.5067 32.3927C8.79976 32.6602 9.58977 32.673 9.80638 32.4181C10.0485 32.1251 9.87009 32.0486 9.51332 32.278C9.20751 32.4946 8.81251 32.4436 8.63412 32.176C8.44299 31.8957 8.54493 31.8447 9.23299 31.8447C9.88283 31.8447 9.9338 31.8193 9.9338 31.5517C9.9338 31.0293 9.32219 30.647 8.78702 30.8509ZM9.47509 31.1567C9.80638 31.4752 9.71719 31.5899 9.10557 31.5899C8.78702 31.5899 8.53218 31.5389 8.53218 31.4752C8.53218 31.2968 8.91444 30.9528 9.10557 30.9528C9.19477 30.9528 9.37315 31.042 9.47509 31.1567Z" fill="white"/>
<path d="M13.7947 30.7919C13.1958 30.8811 12.9283 31.7603 13.3233 32.3209C13.6036 32.7159 14.4318 32.7159 14.7121 32.3209C14.9415 31.9769 14.7249 31.824 14.47 32.1553C14.3681 32.2955 14.1897 32.3592 13.9476 32.3209C13.5908 32.2827 13.5654 32.2445 13.5654 31.7221C13.5654 31.2634 13.6163 31.1487 13.8584 31.0595C14.075 30.983 14.2025 31.0085 14.3936 31.1996C14.7376 31.5437 14.9925 31.5309 14.7504 31.1742C14.5465 30.8556 14.2025 30.7282 13.7947 30.7919Z" fill="white"/>
<path d="M18.5242 30.8216C18.2184 30.9363 18.0272 31.1784 18.1292 31.2803C18.1674 31.3185 18.3458 31.2548 18.5242 31.1401C18.7026 31.0127 18.9447 30.949 19.0466 31C19.3651 31.1147 19.2632 31.4459 18.8937 31.5224C18.3076 31.6498 18.1547 31.79 18.1547 32.1722C18.1547 32.478 18.2184 32.5545 18.4987 32.58C18.6898 32.6055 18.9574 32.5545 19.1103 32.478C19.276 32.3889 19.3651 32.3889 19.3651 32.478C19.3651 32.5418 19.4289 32.6055 19.4926 32.6055C19.671 32.6055 19.6455 31.293 19.4671 31.0509C19.2505 30.7834 18.8555 30.6814 18.5242 30.8216ZM19.2122 31.9939C19.1868 32.2232 19.0721 32.2997 18.7663 32.3251C18.2948 32.3761 18.1801 32.083 18.5751 31.8537C18.9701 31.6116 19.2632 31.688 19.2122 31.9939Z" fill="white"/>
<path d="M23.2624 30.8853C23.084 30.9872 22.9311 31.0127 22.9311 30.9363C22.9311 30.8726 22.8419 30.8216 22.74 30.8216C22.5871 30.8216 22.5488 31 22.5488 31.7135C22.5488 32.4271 22.5871 32.6055 22.74 32.6055C22.8801 32.6055 22.9311 32.4526 22.9311 32.0321C22.9311 31.3185 23.3006 30.8598 23.6956 31.0764C23.8995 31.1911 23.9504 31.344 23.9504 31.9047C23.9504 32.2869 24.0142 32.6055 24.0779 32.6055C24.218 32.6055 24.2435 31.2166 24.1033 31C23.9377 30.7579 23.6064 30.7069 23.2624 30.8853Z" fill="white"/>
<path d="M25.0995 30.8509C24.6918 31.0038 24.5898 31.1694 24.5898 31.7301C24.5898 32.0104 24.679 32.2652 24.8192 32.3927C25.1123 32.6602 25.9023 32.673 26.1189 32.4181C26.361 32.1251 26.1826 32.0486 25.8258 32.278C25.52 32.4946 25.125 32.4436 24.9466 32.176C24.7555 31.8957 24.8574 31.8447 25.5455 31.8447C26.1953 31.8447 26.2463 31.8193 26.2463 31.5517C26.2463 31.0293 25.6347 30.647 25.0995 30.8509ZM25.7876 31.1567C26.1189 31.4752 26.0297 31.5899 25.4181 31.5899C25.0995 31.5899 24.8447 31.5389 24.8447 31.4752C24.8447 31.2968 25.2269 30.9528 25.4181 30.9528C25.5073 30.9528 25.6857 31.042 25.7876 31.1567Z" fill="white"/>
<path d="M3.94531 31.7135C3.94531 32.2232 3.99628 32.6055 4.07273 32.6055C4.14918 32.6055 4.20015 32.4143 4.20015 32.185C4.20015 31.5224 4.34031 31.2039 4.65886 31.1274C4.82451 31.0892 4.96467 31 4.96467 30.9363C4.96467 30.7706 4.53144 30.7961 4.35306 30.9745C4.23838 31.0892 4.20015 31.0892 4.20015 30.9745C4.20015 30.8853 4.14918 30.8216 4.07273 30.8216C3.99628 30.8216 3.94531 31.2039 3.94531 31.7135Z" fill="white"/>
<path d="M10.4698 30.9795C9.87093 31.744 10.4825 32.8016 11.349 32.4958C11.6676 32.3811 11.7185 32.4066 11.7185 32.5977C11.7185 33.0819 11.0177 33.3113 10.6992 32.929C10.5208 32.7124 10.3169 32.6742 10.3169 32.8526C10.3169 33.1074 10.7374 33.375 11.1451 33.375C11.8332 33.375 11.9734 33.1329 11.9734 31.8969C11.9734 31.3108 11.9224 30.8266 11.8587 30.8266C11.693 30.8266 11.5911 31.1706 11.6676 31.4C11.8077 31.7568 11.6038 32.2155 11.2726 32.3047C10.8393 32.4066 10.5717 32.1645 10.5717 31.6421C10.5717 31.1579 10.7119 31.0432 11.2343 31.056C11.4255 31.056 11.5656 31.005 11.5274 30.9413C11.4127 30.7756 10.6227 30.8011 10.4698 30.9795Z" fill="white"/>
<path d="M12.4844 31.7135C12.4844 32.2232 12.5353 32.6055 12.6118 32.6055C12.6882 32.6055 12.7392 32.2232 12.7392 31.7135C12.7392 31.2039 12.6882 30.8216 12.6118 30.8216C12.5353 30.8216 12.4844 31.2039 12.4844 31.7135Z" fill="white"/>
<path d="M26.625 31.7135C26.625 32.2232 26.676 32.6055 26.7524 32.6055C26.8289 32.6055 26.8798 32.4143 26.8798 32.185C26.8798 31.5224 27.02 31.2039 27.3386 31.1274C27.5042 31.0892 27.6444 31 27.6444 30.9363C27.6444 30.7706 27.2111 30.7961 27.0327 30.9745C26.9181 31.0892 26.8798 31.0892 26.8798 30.9745C26.8798 30.8853 26.8289 30.8216 26.7524 30.8216C26.676 30.8216 26.625 31.2039 26.625 31.7135Z" fill="white"/>
</g>
<defs>
<clipPath id="clip0_4718_23560">
<rect width="101" height="48" fill="white"/>
</clipPath>
</defs>
</svg>
