<svg width="258" height="56" viewBox="0 0 258 56" fill="none" xmlns="http://www.w3.org/2000/svg">
<rect width="258" height="55" transform="translate(0 0.5)" fill="white"/>
<g clip-path="url(#clip0_7455_5148)">
<path d="M6.45198 28.0053L3.22599 31.2084L0 28.0053L3.22599 24.8023L6.45198 28.0053ZM14.322 20.1913L19.8522 25.7174L23.0782 22.5144L17.548 16.9882L14.322 13.7852L11.096 16.9882L5.53028 22.5144L8.75625 25.7174L14.322 20.1913ZM25.418 24.8023L22.192 28.0053L25.418 31.2084L28.644 28.0053L25.418 24.8023ZM14.322 35.7842L8.79172 30.2932L5.53028 33.4963L11.0606 38.9872L14.2865 42.1903L17.5125 38.9872L23.0782 33.4963L19.8522 30.2932L14.322 35.7842ZM14.322 31.2084L17.548 28.0053L14.322 24.8023L11.096 28.0053L14.322 31.2084ZM48.4608 31.5251V31.4899C48.4608 29.4133 47.3264 28.3573 45.5183 27.6533C46.6527 27.0197 47.5744 26.0342 47.5744 24.2743V24.2391C47.5744 21.7752 45.5893 20.1913 42.3989 20.1913H35.0959V35.7842H42.5759C46.121 35.7842 48.4608 34.3762 48.4608 31.5251ZM44.1359 24.8727C44.1359 26.0342 43.1786 26.527 41.6542 26.527H38.4637V23.2183H41.8668C43.3206 23.2183 44.1359 23.7815 44.1359 24.8375V24.8727ZM45.022 31.1028C45.022 32.2643 44.1003 32.7923 42.5759 32.7923H38.4637V29.3781H42.4695C44.2423 29.3781 45.022 30.0116 45.022 31.0676V31.1028ZM55.6928 35.7842V20.1913H52.254V35.7842H55.6928ZM74.2686 35.7842V20.1913H70.8654V29.8004L63.4918 20.1913H60.3013V35.7842H63.7045V25.8934L71.3265 35.8193H74.2686V35.7842ZM93.4121 35.7842L86.6765 20.0857H83.4857L76.7504 35.7842H80.2598L81.7132 32.2995H88.3425L89.7959 35.7842H93.4121ZM87.1371 29.2725H82.954L85.0457 24.2039L87.1371 29.2725ZM109.861 35.7842V20.1913H106.458V29.8004L99.084 20.1913H95.8935V35.7842H99.2967V25.8934L106.919 35.8193H109.861V35.7842ZM127.728 33.2851L125.53 31.0676C124.289 32.1939 123.19 32.8979 121.418 32.8979C118.724 32.8979 116.88 30.6804 116.88 28.0053V27.9701C116.88 25.295 118.795 23.1127 121.418 23.1127C122.978 23.1127 124.218 23.7815 125.424 24.8727L127.622 22.3384C126.168 20.8952 124.395 19.9449 121.418 19.9449C116.596 19.9449 113.229 23.5703 113.229 28.0053V28.0405C113.229 32.5107 116.667 36.0657 121.276 36.0657C124.289 36.0657 126.097 35.0098 127.728 33.2851ZM142.44 35.7842V32.7219H133.932V29.4485H141.341V26.3862H133.932V23.2183H142.334V20.1561H130.493V35.749H142.44V35.7842Z" fill="#F0B90B"/>
<path d="M154.604 24.2631C154.604 25.4846 155.314 26.0176 158.291 26.7283C161.578 27.5279 163.288 28.705 163.288 31.3036C163.288 34.2353 161 35.9676 157.735 35.9676C155.359 35.9676 153.116 35.1459 151.25 33.4801L152.894 31.5257C154.382 32.8138 155.87 33.5468 157.802 33.5468C159.49 33.5468 160.556 32.7694 160.556 31.5701C160.556 30.4374 159.934 29.8377 157.047 29.1714C153.737 28.3719 151.872 27.3946 151.872 24.5074C151.872 21.7978 154.093 19.9766 157.18 19.9766C159.445 19.9766 161.244 20.6651 162.821 21.931L161.355 23.9965C159.956 22.9527 158.557 22.3974 157.136 22.3974C155.536 22.3974 154.604 23.2192 154.604 24.2631Z" fill="#0B0E11"/>
<path d="M180.491 32.7526L182.268 34.2628L180.513 36.2173L178.648 34.5516C177.337 35.4622 175.738 36.0174 173.917 36.0174C169.142 36.0174 165.811 32.3972 165.811 27.9997C165.811 23.6021 169.186 19.9375 173.962 19.9375C178.737 19.9375 182.068 23.5577 182.068 27.9552C182.068 29.732 181.491 31.3978 180.491 32.7526ZM176.627 32.7526L173.962 30.4872L175.716 28.4883L178.404 30.9314C178.937 30.1096 179.203 29.0879 179.203 27.9997C179.203 24.9569 177.004 22.4472 173.917 22.4472C170.83 22.4472 168.676 24.9125 168.676 27.9552C168.676 30.998 170.874 33.5077 173.962 33.5077C174.983 33.5077 175.894 33.219 176.627 32.7526Z" fill="#0B0E11"/>
<path d="M198.433 20.1992V29.0165C198.433 33.6584 195.812 35.9904 191.747 35.9904C187.705 35.9904 185.129 33.6584 185.129 29.1498V20.1992H187.861V29.0387C187.861 31.926 189.349 33.4807 191.792 33.4807C194.213 33.4807 195.701 32.0148 195.701 29.1498V20.1992H198.433Z" fill="#0B0E11"/>
<path d="M209.656 20.082L216.496 35.74H213.609L212.032 31.9865H204.681L203.082 35.74H200.283L207.124 20.082H209.656ZM211.033 29.5656L208.345 23.3469L205.68 29.5656H211.033Z" fill="#0B0E11"/>
<path d="M232.353 35.7461H229.132L225.312 30.3269H221.892V35.7461H219.16V20.1992H226.09C229.665 20.1992 231.864 22.0871 231.864 25.1298C231.864 27.7061 230.332 29.2608 228.155 29.8605L232.353 35.7461ZM229.088 25.2853C229.088 23.5751 227.889 22.6867 225.868 22.6867H221.892V27.906H225.89C227.844 27.906 229.088 26.8844 229.088 25.2853Z" fill="#0B0E11"/>
<path d="M246.736 20.1992V22.6423H237.941V26.6845H245.736V29.1276H237.941V33.303H246.847V35.7461H235.209V20.1992H246.736Z" fill="#0B0E11"/>
</g>
<defs>
<clipPath id="clip0_7455_5148">
<rect width="247" height="28.6035" fill="white" transform="translate(0 13.7852)"/>
</clipPath>
</defs>
</svg>
