<svg width="210" height="72" viewBox="0 0 210 72" fill="none" xmlns="http://www.w3.org/2000/svg">
<g clip-path="url(#clip0_2601_6059)">
<path d="M71.8864 37.3514C71.8334 31.7901 76.4298 29.1181 76.6366 28.9909C74.0494 25.2109 70.0308 24.6913 68.5994 24.633C65.1799 24.2831 61.9247 26.6476 60.1858 26.6476C58.4469 26.6476 55.7696 24.6807 52.9333 24.739C49.201 24.792 45.7602 26.9074 43.8358 30.2473C39.9656 36.9591 42.8497 46.9261 46.6297 52.3814C48.4799 55.0481 50.6748 58.0541 53.5694 57.9427C56.3581 57.8314 57.4078 56.1402 60.769 56.1402C64.1302 56.1402 65.0792 57.9427 68.0215 57.8897C71.0169 57.8314 72.9149 55.1647 74.7492 52.4874C76.8592 49.386 77.734 46.3906 77.787 46.2316C77.7181 46.2051 71.95 43.9943 71.8864 37.3514Z" fill="white"/>
<path d="M66.3572 21.0193C67.8946 19.1584 68.9285 16.5766 68.6475 14C66.4367 14.0901 63.7594 15.4738 62.1743 17.3347C60.7534 18.9782 59.5076 21.6078 59.8469 24.1313C62.3015 24.3222 64.825 22.8748 66.3572 21.0193ZM91.2746 42.8193L88.7298 50.5331H85.4587L93.7875 26.0187H97.6046L105.965 50.5331H102.583L99.9638 42.8193H91.2746ZM99.3117 40.3435L96.9154 33.2871C96.3694 31.686 96.0089 30.2334 95.6431 28.8126H95.5741C95.2083 30.2652 94.8107 31.755 94.3389 33.25L91.9426 40.3382L99.3117 40.3435ZM108.446 38.6735C108.446 36.4203 108.377 34.5966 108.298 32.9266H111.171L111.32 35.9485H111.389C112.698 33.8014 114.771 32.529 117.645 32.529C121.902 32.529 125.099 36.1287 125.099 41.478C125.099 47.8081 121.244 50.9307 117.099 50.9307C114.771 50.9307 112.735 49.9128 111.68 48.1686H111.611V57.7326H108.446V38.6735ZM111.606 43.3654C111.606 43.8425 111.675 44.272 111.755 44.6749C112.338 46.8909 114.262 48.4231 116.558 48.4231C119.94 48.4231 121.907 45.661 121.907 41.6212C121.907 38.0903 120.051 35.079 116.669 35.079C114.49 35.079 112.454 36.643 111.829 39.0446C111.717 39.4422 111.611 39.9194 111.611 40.3541L111.606 43.3654ZM128.407 38.6735C128.407 36.4203 128.338 34.5966 128.258 32.9266H131.132L131.28 35.9485H131.349C132.659 33.8014 134.732 32.529 137.605 32.529C141.862 32.529 145.059 36.1287 145.059 41.478C145.059 47.8081 141.205 50.9307 137.059 50.9307C134.732 50.9307 132.696 49.9128 131.641 48.1686H131.572V57.7326H128.407V38.6735ZM131.572 43.3654C131.572 43.8425 131.641 44.272 131.72 44.6749C132.303 46.8909 134.228 48.4231 136.523 48.4231C139.906 48.4231 141.873 45.661 141.873 41.6212C141.873 38.0903 140.017 35.079 136.635 35.079C134.456 35.079 132.42 36.643 131.794 39.0446C131.683 39.4422 131.577 39.9194 131.577 40.3541L131.572 43.3654ZM148.372 24.7092H151.575V50.5278H148.372V24.7092ZM158.011 42.3104C158.08 46.6365 160.847 48.4231 164.044 48.4231C166.334 48.4231 167.718 48.0255 168.916 47.5165L169.462 49.8068C168.338 50.3157 166.408 50.8989 163.609 50.8989C158.191 50.8989 154.952 47.3363 154.952 42.0241C154.952 36.7119 158.08 32.529 163.206 32.529C168.953 32.529 170.48 37.5814 170.48 40.8206C170.48 41.478 170.411 41.9817 170.369 42.3104H158.011ZM167.395 40.0201C167.432 37.9843 166.557 34.8193 162.957 34.8193C159.718 34.8193 158.302 37.804 158.048 40.0201H167.395Z" fill="white"/>
</g>
<defs>
<clipPath id="clip0_2601_6059">
<rect width="128.484" height="43.95" fill="white" transform="translate(42 14)"/>
</clipPath>
</defs>
</svg>
