<svg width="416" height="55" viewBox="0 0 416 55" fill="none" xmlns="http://www.w3.org/2000/svg">
<g clip-path="url(#clip0_5405_44041)">
<path d="M105.904 42.0975H113.992V10.3677H124.569V2.69446H95.3965V10.3677H105.904V42.0975ZM124.569 42.0975H132.173V28.8249C132.173 24.1933 134.523 21.4282 138.187 21.4282C139.431 21.4282 140.468 21.6356 141.643 22.0504V14.308C140.814 14.1006 139.915 13.9624 139.086 13.9624C135.975 13.9624 133.14 16.0362 132.173 18.7322V14.308H124.569V42.0975ZM156.229 42.7197C160.031 42.7197 162.935 40.7841 164.248 38.9868V42.0975H171.852V14.3771H164.248V17.4879C163.004 15.6906 160.1 13.755 156.229 13.755C148.833 13.755 143.164 20.3913 143.164 28.2719C143.164 36.0834 148.833 42.7197 156.229 42.7197ZM157.819 35.8069C153.602 35.8069 150.837 32.627 150.837 28.2719C150.837 23.9168 153.602 20.7369 157.819 20.7369C162.036 20.7369 164.801 23.9168 164.801 28.2719C164.801 32.627 162.036 35.8069 157.819 35.8069ZM189.895 42.7197C193.697 42.7197 196.6 40.7841 197.914 38.9868V42.0975H205.518V0.48236H197.914V17.4879C196.669 15.6906 193.766 13.755 189.895 13.755C182.498 13.755 176.83 20.3913 176.83 28.2719C176.899 36.0834 182.498 42.7197 189.895 42.7197ZM191.554 35.8069C187.337 35.8069 184.572 32.627 184.572 28.2719C184.572 23.9168 187.337 20.7369 191.554 20.7369C195.771 20.7369 198.536 23.9168 198.536 28.2719C198.536 32.627 195.771 35.8069 191.554 35.8069ZM216.094 10.1603C218.79 10.1603 221.002 8.01734 221.002 5.32133C221.002 2.62533 218.79 0.48236 216.094 0.48236C213.467 0.48236 211.255 2.62533 211.255 5.32133C211.325 7.94821 213.467 10.0912 216.094 10.1603ZM212.361 42.0975H219.966V14.6537H212.361V42.0975ZM226.671 42.0975H234.275V28.5484C234.275 23.2255 236.902 20.6678 240.427 20.6678C243.607 20.6678 245.336 23.0873 245.336 27.0967V42.0975H252.94V25.8524C252.94 18.6631 248.93 13.755 242.225 13.755C238.63 13.755 235.796 15.2758 234.275 17.557V14.3771H226.671V42.0975ZM272.296 34.7008C268.494 34.7008 265.245 31.7974 265.245 27.5806C265.245 23.2947 268.424 20.4604 272.296 20.4604C276.098 20.4604 279.347 23.2947 279.347 27.5806C279.347 31.8666 276.167 34.7008 272.296 34.7008ZM271.397 54.1258C279.9 54.1258 286.329 49.7708 286.329 39.8163V14.2389H278.725V17.3497C277.204 15.2067 274.231 13.6167 270.706 13.6167C263.447 13.6167 257.64 19.8383 257.64 27.6497C257.64 35.3921 263.447 41.6137 270.706 41.6137C274.231 41.6137 277.273 40.0237 278.725 37.9499V39.8163C278.725 44.2405 275.752 47.4204 271.259 47.4204C268.148 47.4204 265.037 46.3835 262.618 43.964L258.47 49.6325C261.65 52.7433 266.558 54.1258 271.397 54.1258ZM302.435 42.0975H309.625L325.939 2.69446H317.091L306.099 30.0692L294.97 2.69446H286.259L302.435 42.0975ZM332.852 9.81467C335.548 9.81467 337.691 7.67169 337.76 4.97569C337.76 2.27969 335.548 0.136719 332.852 0.136719C330.225 0.136719 328.013 2.27969 328.013 4.97569C328.013 7.67169 330.294 9.81467 332.852 9.81467ZM329.119 42.0975H336.723V14.308H329.119V42.0975ZM356.355 42.7197C362.162 42.7197 366.586 40.3002 369.213 36.4982L363.545 32.2813C362.301 34.2169 359.881 35.8069 356.355 35.8069C352.692 35.8069 349.443 33.733 348.959 30.0001H369.697C369.835 28.8249 369.836 28.0645 369.836 27.3732C369.836 18.3174 363.476 13.755 356.148 13.755C347.714 13.755 341.562 20.0456 341.562 28.2028C341.7 36.9821 348.129 42.7197 356.355 42.7197ZM349.304 24.8846C350.065 21.4973 353.176 20.0456 356.01 20.0456C358.844 20.0456 361.609 21.5665 362.301 24.8846H349.304ZM398.385 42.0975H405.92L415.045 14.308H406.888L401.704 32.074L396.035 14.308H390.228L384.629 32.074L379.375 14.308H371.287L380.481 42.0975H388.016L393.201 26.3363L398.385 42.0975Z" fill="white"/>
<path d="M30.9683 42.0984H15.6219V18.0418H0.275391V2.69531H30.8992V42.0984H30.9683ZM61.6612 42.0984H44.1718L60.6243 2.69531H78.1137L61.6612 42.0984ZM44.1027 2.69531C48.9416 2.69531 52.882 6.63563 52.882 11.4746C52.882 16.3136 48.9416 20.2539 44.1027 20.2539C39.2637 20.2539 35.3234 16.3136 35.3234 11.4746C35.3925 6.63563 39.2637 2.69531 44.1027 2.69531Z" fill="white"/>
</g>
<defs>
<clipPath id="clip0_5405_44041">
<rect width="415.461" height="54.6113" fill="white"/>
</clipPath>
</defs>
</svg>
