<svg width="210" height="72" viewBox="0 0 210 72" fill="none" xmlns="http://www.w3.org/2000/svg">
<g clip-path="url(#clip0_2601_6021)">
<path fill-rule="evenodd" clip-rule="evenodd" d="M120.979 49.4149C113.615 54.8529 102.906 57.7567 93.6986 57.7567C80.7885 57.7567 69.1646 52.9827 60.3721 45.0396C59.6814 44.4149 60.2997 43.5642 61.1288 44.0492C70.6184 49.5723 82.3515 52.8925 94.4705 52.8925C102.645 52.8925 111.637 51.2013 119.905 47.6919C121.154 47.1612 122.198 48.5096 120.976 49.4162M124.046 45.9068C123.107 44.7006 117.825 45.338 115.435 45.6198C114.712 45.7087 114.601 45.0777 115.253 44.6244C119.468 41.6559 126.388 42.5129 127.196 43.5071C128.005 44.5012 126.987 51.4426 123.024 54.7539C122.415 55.2618 121.836 54.9913 122.106 54.3171C122.995 52.0952 124.991 47.1168 124.046 45.9068Z" fill="white"/>
<path fill-rule="evenodd" clip-rule="evenodd" d="M115.601 23.6756V20.7909C115.598 20.6943 115.615 20.5982 115.651 20.5084C115.687 20.4187 115.74 20.3371 115.809 20.2688C115.877 20.2005 115.958 20.1468 116.048 20.111C116.138 20.0753 116.234 20.0582 116.331 20.0608H129.246C129.66 20.0608 129.992 20.3592 129.992 20.7909V23.2604C129.987 23.6743 129.637 24.2165 129.02 25.0735L122.329 34.6291C124.817 34.5681 127.44 34.9389 129.695 36.2098C130.203 36.4968 130.33 36.917 130.381 37.3322V40.4112C130.381 40.8302 129.916 41.3228 129.429 41.0689C125.455 38.9866 120.177 38.7581 115.783 41.0905C115.335 41.3343 114.865 40.8467 114.865 40.4277V37.5036C114.865 37.0339 114.871 36.234 115.34 35.5191L123.094 24.3993H116.359C115.945 24.3993 115.612 24.1073 115.612 23.6756M68.4842 41.6771H64.5558C64.18 41.6491 63.8829 41.3673 63.8537 41.0079V20.8404C63.8537 20.4366 64.1914 20.1167 64.6104 20.1167H68.2747C68.6556 20.1332 68.9603 20.4265 68.9882 20.7896V23.4255H69.0606C70.0167 20.8772 71.8133 19.6888 74.2333 19.6888C76.6926 19.6888 78.2289 20.8772 79.3348 23.4255C80.2871 20.8772 82.4455 19.6888 84.7627 19.6888C86.4095 19.6888 88.2111 20.3681 89.3107 21.8942C90.555 23.5905 90.301 26.0562 90.301 28.2172L90.2921 40.947C90.2921 41.3508 89.9544 41.6771 89.5354 41.6771H85.5994C85.2185 41.6491 84.8922 41.3343 84.8922 40.947V30.2436C84.8922 29.3929 84.9684 27.27 84.7817 26.4638C84.4897 25.1103 83.6098 24.7281 82.4709 24.7281C81.5187 24.7281 80.5258 25.363 80.122 26.3813C79.7183 27.3995 79.7576 29.1009 79.7576 30.2449V40.9356C79.7576 41.3393 79.4199 41.6656 79.0009 41.6656H75.0649C74.6675 41.6377 74.3577 41.3228 74.3577 40.9356L74.3526 30.2449C74.3526 27.995 74.7234 24.6837 71.9313 24.6837C69.1076 24.6837 69.218 27.9112 69.218 30.2449V40.9356C69.218 41.3393 68.8803 41.6656 68.4613 41.6656M141.112 19.7053C146.943 19.7053 150.099 24.7129 150.099 31.0791C150.099 37.2307 146.611 42.11 141.112 42.11C135.399 42.11 132.269 37.1024 132.269 30.8632C132.269 24.5847 135.425 19.6901 141.112 19.6901M141.145 23.8076C138.25 23.8076 138.066 27.7538 138.066 30.2132C138.066 32.6725 138.028 37.9391 141.111 37.9391C144.156 37.9391 144.3 33.6946 144.3 31.1083C144.3 29.4069 144.228 27.3716 143.716 25.7579C143.275 24.3536 142.396 23.8064 141.147 23.8064M157.661 41.6771H153.748C153.367 41.6491 153.041 41.3343 153.041 40.947L153.036 20.7744C153.069 20.4036 153.395 20.1167 153.793 20.1167H157.436C157.779 20.1332 158.061 20.3655 158.139 20.6804V23.7657H158.211C159.311 21.008 160.852 19.6926 163.566 19.6926C165.344 19.6926 167.048 20.3274 168.154 22.0694C169.17 23.6819 169.17 26.3965 169.17 28.348V41.0448C169.125 41.4003 168.799 41.6796 168.413 41.6796H164.479C164.12 41.6517 163.822 41.3876 163.784 41.0448V30.0913C163.784 27.8858 164.038 24.657 161.324 24.657C160.368 24.657 159.49 25.2982 159.039 26.2695C158.487 27.5011 158.414 28.7289 158.414 30.0887V40.9495C158.409 41.3533 158.066 41.6796 157.646 41.6796M105.304 32.0301C105.304 33.5613 105.342 34.8233 104.567 36.1971C103.942 37.3018 102.948 37.9823 101.847 37.9823C100.339 37.9823 99.4541 36.8332 99.4541 35.1357C99.4541 31.7863 102.456 31.1781 105.301 31.1781V32.0288M109.262 41.6072C109.002 41.8396 108.628 41.8561 108.336 41.7012C107.032 40.6182 106.794 40.1141 106.081 39.0819C103.925 41.2809 102.395 41.9386 99.6027 41.9386C96.2926 41.9386 93.7215 39.8995 93.7215 35.815C93.7215 32.6255 95.4458 30.4544 97.9115 29.3929C100.045 28.4534 103.023 28.2883 105.301 28.028V27.5202C105.301 26.5857 105.373 25.4811 104.819 24.6735C104.344 23.9498 103.426 23.6515 102.613 23.6515C101.115 23.6515 99.7817 24.4196 99.4567 26.0131C99.3907 26.3686 99.1304 26.7152 98.771 26.7317L94.962 26.3229C94.6421 26.2505 94.2827 25.9927 94.378 25.4976C95.2515 20.8759 99.4313 19.4844 103.164 19.4844C105.076 19.4844 107.575 19.9922 109.083 21.4397C110.995 23.2248 110.813 25.6068 110.813 28.1994V34.3231C110.813 36.1641 111.574 36.9704 112.294 37.9671C112.543 38.3226 112.599 38.7467 112.278 39.012L109.274 41.6326L109.269 41.6199M53.7889 32.0428C53.7889 33.574 53.827 34.836 53.0525 36.2098C52.4278 37.3145 51.44 37.995 50.3329 37.995C48.8245 37.995 47.9459 36.8459 47.9459 35.1484C47.9459 31.799 50.9474 31.1908 53.7864 31.1908V32.0415M57.7478 41.6199C57.4875 41.8523 57.1129 41.8688 56.8209 41.7139C55.517 40.6309 55.2973 40.1268 54.566 39.0945C52.4101 41.2936 50.8839 41.9513 48.0881 41.9513C44.7844 41.9526 42.2095 39.9135 42.2095 35.8302C42.2095 32.6408 43.9388 30.4696 46.3994 29.4082C48.5325 28.4686 51.5111 28.3036 53.7889 28.0433V27.5354C53.7889 26.6009 53.8613 25.4963 53.3141 24.6888C52.8316 23.9651 51.9174 23.6667 51.1086 23.6667C49.6104 23.6667 48.2735 24.4348 47.9344 26.0283C47.8684 26.3838 47.6081 26.7304 47.2552 26.7469L43.4411 26.3381C43.1211 26.2657 42.7681 26.008 42.857 25.5128C43.7356 20.8912 47.9103 19.4996 51.6432 19.4996C53.5553 19.4996 56.054 20.0075 57.5624 21.4549C59.4745 23.2401 59.2917 25.622 59.2917 28.2147V34.3383C59.2917 36.1794 60.0535 36.9856 60.7734 37.9823C61.0274 38.3378 61.0832 38.7619 60.7607 39.0273L57.7643 41.6326L57.7516 41.6199" fill="white"/>
</g>
<defs>
<clipPath id="clip0_2601_6021">
<rect width="128.237" height="39.36" fill="white" transform="translate(41 19.3223)"/>
</clipPath>
</defs>
</svg>
