<svg width="210" height="72" viewBox="0 0 210 72" fill="none" xmlns="http://www.w3.org/2000/svg">
<g clip-path="url(#clip0_2601_6086)">
<path d="M85.4282 23.6972C85.4282 22.2061 86.6317 21 88.1133 21C89.5998 21 90.808 22.2061 90.808 23.6972C90.808 25.1864 89.5998 26.3937 88.1133 26.3937C86.6317 26.3937 85.4282 25.1864 85.4282 23.6972Z" fill="white"/>
<path d="M127.874 41.6346C127.874 40.1429 129.076 38.9355 130.558 38.9355C132.044 38.9355 133.252 40.1429 133.252 41.6346C133.252 43.1225 132.044 44.3312 130.558 44.3312C129.076 44.3312 127.874 43.1225 127.874 41.6346Z" fill="white"/>
<path d="M41.2759 40.4727C38.959 40.4727 37.349 38.6326 37.349 36.0031C37.349 33.3744 38.959 31.5356 41.2759 31.5356C43.6061 31.5356 45.234 33.3744 45.234 36.0031C45.234 38.6741 43.64 40.4727 41.2759 40.4727ZM41.2759 27.6074C36.3742 27.6074 32.8169 31.1393 32.8169 36.0031C32.8169 40.867 36.3742 44.3982 41.2759 44.3982C46.196 44.3982 49.7681 40.867 49.7681 36.0031C49.7681 31.1393 46.196 27.6074 41.2759 27.6074Z" fill="white"/>
<path d="M80.2178 36.4205C80.0272 36.062 79.8088 35.7584 79.5761 35.5175L79.4279 35.3602L79.5838 35.2107C79.8088 34.9735 80.0388 34.6923 80.2607 34.3664L84.5863 27.936H79.3352L76.0851 32.966C75.9011 33.2357 75.5296 33.3719 74.9736 33.3719H74.2328V23.8621C74.2328 21.96 73.0479 21.7012 71.7677 21.7012H69.5762L69.5799 44.1484H74.2328V37.4151H74.6688C75.1992 37.4151 75.5604 37.4764 75.726 37.7647L78.2928 42.6093C79.0098 43.924 79.7243 44.1484 81.0685 44.1484H84.6342L81.9786 39.7556L80.2178 36.4205Z" fill="white"/>
<path d="M102.806 27.5703C100.439 27.5703 98.929 28.6217 98.0827 29.5107L97.8002 29.7964L97.7005 29.4079C97.4519 28.4555 96.6139 27.9314 95.3529 27.9314H93.2676L93.2807 44.1438H97.9019V36.6717C97.9019 35.9411 97.9969 35.3071 98.1901 34.7287C98.7045 32.9781 100.139 31.8896 101.933 31.8896C103.375 31.8896 103.939 32.6508 103.939 34.6181V41.6793C103.939 43.3583 104.716 44.1438 106.396 44.1438H108.595L108.588 33.8326C108.588 29.7357 106.59 27.5703 102.807 27.5703" fill="white"/>
<path d="M88.1743 27.9395H85.9839L85.9989 40.4749H85.9974V44.1487H88.3355C88.3649 44.1487 88.3885 44.1518 88.4179 44.1518L89.507 44.1487H90.591V44.1423H90.5985L90.6078 30.4008C90.6078 28.7429 89.8152 27.9395 88.1759 27.9395" fill="white"/>
<path d="M59.428 40.4727C57.1113 40.4727 55.4981 38.6326 55.4981 36.0031C55.4981 33.3744 57.1113 31.5356 59.428 31.5356C61.7533 31.5356 63.3857 33.3744 63.3857 36.0031C63.3857 38.6741 61.7923 40.4727 59.428 40.4727ZM59.428 27.6074C54.5214 27.6074 50.9634 31.1393 50.9634 36.0031C50.9634 40.867 54.5214 44.3982 59.428 44.3982C64.343 44.3982 67.9209 40.867 67.9209 36.0031C67.9209 31.1393 64.343 27.6074 59.428 27.6074Z" fill="white"/>
<path d="M158.485 40.4727C156.17 40.4727 154.555 38.6326 154.555 36.0031C154.555 33.3744 156.17 31.5356 158.485 31.5356C160.811 31.5356 162.444 33.3744 162.444 36.0031C162.444 38.6741 160.85 40.4727 158.485 40.4727ZM158.485 27.6074C153.58 27.6074 150.022 31.1393 150.022 36.0031C150.022 40.867 153.58 44.3982 158.485 44.3982C163.401 44.3982 166.978 40.867 166.978 36.0031C166.978 31.1393 163.401 27.6074 158.485 27.6074Z" fill="white"/>
<path d="M118.332 39.7574C115.805 39.7574 114.906 37.553 114.906 35.4873C114.906 34.5772 115.136 31.6109 118.089 31.6109C119.557 31.6109 121.512 32.0314 121.512 35.64C121.512 39.0434 119.782 39.7574 118.332 39.7574ZM123.912 27.8943C123.035 27.8943 122.36 28.2439 122.022 28.8824L121.894 29.1304L121.68 28.9444C120.934 28.2989 119.596 27.5332 117.424 27.5332C113.103 27.5332 110.194 30.7788 110.194 35.6087C110.194 40.433 113.204 43.8044 117.511 43.8044C118.983 43.8044 120.145 43.4612 121.067 42.7632L121.424 42.4954V42.946C121.424 45.1114 120.023 46.306 117.485 46.306C116.251 46.306 115.128 46.0056 114.377 45.7333C113.397 45.4374 112.822 45.6822 112.424 46.6658L112.058 47.5734L111.539 48.899L111.86 49.0703C113.485 49.9325 115.6 50.447 117.511 50.447C121.447 50.447 126.043 48.4324 126.043 42.7632L126.059 27.8943H123.912" fill="white"/>
<path d="M24.0652 40.2858L20.3033 40.282V35.7844C20.3033 34.8231 20.676 34.3233 21.4997 34.2083H24.0652C25.8963 34.2083 27.0794 35.3632 27.0807 37.2314C27.0794 39.1488 25.9257 40.2845 24.0652 40.2858ZM20.3033 28.153V26.9693C20.3033 25.9332 20.7417 25.4405 21.7037 25.3772H23.6287C25.2796 25.3772 26.2684 26.3653 26.2684 28.0181C26.2684 29.2785 25.5915 30.7492 23.6894 30.7492H20.3033V28.153ZM28.8697 32.6416L28.1896 32.2594L28.7833 31.752C29.4737 31.1582 30.6311 29.8237 30.6311 27.5177C30.6311 23.9896 27.8944 21.7124 23.6587 21.7124H18.825V21.7109H18.2746C17.0188 21.757 16.0141 22.7783 16 24.0419V44.0681H18.2184C18.224 44.0695 18.2258 44.0681 18.2277 44.0695L23.7542 44.0681C28.4628 44.0681 31.5019 41.5051 31.5019 37.5354C31.5019 35.3981 30.5196 33.5708 28.8687 32.6415" fill="white"/>
<path d="M187.621 27.6211C185.704 27.6211 183.85 28.5191 182.66 30.0249L182.325 30.4493L182.062 29.9744C181.207 28.4136 179.733 27.6211 177.685 27.6211C175.537 27.6211 174.096 28.8195 173.427 29.5321L172.989 30.0064L172.821 29.3825C172.576 28.4846 171.777 27.9899 170.566 27.9899H168.623L168.604 44.1396H173.018V37.0107C173.018 36.3862 173.095 35.7682 173.252 35.122C173.673 33.3995 174.831 31.5467 176.777 31.732C177.978 31.8471 178.564 32.7745 178.564 34.566V44.1396H183.008V37.0107C183.008 36.2303 183.081 35.6461 183.257 35.06C183.615 33.4155 184.823 31.7295 186.701 31.7295C188.06 31.7295 188.562 32.499 188.562 34.566V41.7787C188.562 43.4104 189.29 44.1396 190.921 44.1396H192.998L193.002 33.8297C193.002 29.7111 191.188 27.6211 187.62 27.6211" fill="white"/>
<path d="M147.467 38.5325C147.454 38.5485 145.555 40.5509 143.055 40.5509C140.777 40.5509 138.475 39.1532 138.475 36.0329C138.475 33.3389 140.26 31.456 142.814 31.456C143.643 31.456 144.587 31.7532 144.734 32.253L144.756 32.3374C145.096 33.4706 146.126 33.5313 146.328 33.5313L148.746 33.5338V31.4201C148.746 28.6322 145.2 27.6211 142.814 27.6211C137.711 27.6211 134.008 31.1741 134.008 36.0667C134.008 40.9574 137.671 44.5052 142.721 44.5052C147.102 44.5052 149.485 41.6253 149.507 41.5965L149.634 41.4406L147.719 38.2641L147.467 38.5325Z" fill="white"/>
</g>
<defs>
<clipPath id="clip0_2601_6086">
<rect width="177.003" height="29.41" fill="white" transform="translate(16 21)"/>
</clipPath>
</defs>
</svg>
