<svg width="210" height="72" viewBox="0 0 210 72" fill="none" xmlns="http://www.w3.org/2000/svg">
<path d="M72.2753 19.8594V31.1244C72.2753 31.1244 76.2447 31.1244 78.369 30.9631C80.0397 30.6706 80.3472 30.5094 80.6547 28.8387L81.2697 26.3919H83.0865L82.779 31.7394L82.9403 37.2181H81.1084L80.6547 35.0787C80.2009 33.5562 79.5859 33.2469 78.369 33.1006C76.8465 32.9394 72.2753 32.9394 72.2753 32.9394V42.3875C72.2753 44.2044 73.1978 44.9806 75.3222 44.9806H81.7234C83.7015 44.9806 85.6778 44.8194 86.9097 41.9338L88.5653 38.2719H90.1028C89.9415 39.0331 89.1803 45.7419 89.034 47.2512C89.034 47.2512 83.2478 47.105 80.8159 47.105H69.8434L63.2959 47.2512V45.5956L65.4203 45.1269C66.9578 44.8194 67.4115 44.3656 67.4115 43.1487C67.4115 43.1487 67.5728 39.0331 67.5728 32.1763C67.5728 25.3363 67.4115 21.2188 67.4115 21.2188C67.4115 19.8556 66.9578 19.5481 65.4203 19.2406L63.2959 18.7906V17.12L69.6972 17.2512H81.8847C84.3165 17.2512 88.4172 16.8125 88.4172 16.8125C88.4172 16.8125 88.2709 19.3906 88.1097 25.4844H86.439L85.824 23.345C85.224 20.6056 84.3147 19.2425 82.6309 19.2425H73.0515C72.2753 19.2444 72.2753 19.3906 72.2753 19.8594ZM96.9428 21.0613H98.7747V27.4625L105.03 27.155L104.722 30.0556L98.6284 29.5869V40.8669C98.6284 44.06 99.6972 45.29 101.529 45.29C103.185 45.29 104.415 44.3675 104.868 43.6063L105.776 44.675C104.868 46.7994 102.29 47.8681 99.8434 47.8681C96.8115 47.8681 94.3497 46.0513 94.3497 42.5506V29.7462H90.7159V28.2238C93.7647 27.9163 96.0353 26.0844 96.9428 21.0613ZM110.053 40.7037L111.268 43.6044C111.722 44.8194 112.79 46.0513 115.222 46.0513C117.815 46.0513 118.884 44.675 118.884 43.0044C118.884 37.8181 108.675 39.3425 108.675 32.3394C108.675 28.385 111.868 26.5381 115.983 26.5381C117.815 26.5381 120.555 26.8456 121.931 27.4606C121.623 28.9831 121.462 30.9613 121.462 32.4856L119.953 32.6319L118.884 29.585C118.577 28.8388 117.347 28.2219 115.837 28.2219C114.005 28.2219 112.175 28.9831 112.175 30.9612C112.175 35.6787 122.692 34.6231 122.692 41.6263C122.692 45.5956 119.192 47.72 114.915 47.72C111.722 47.72 108.513 46.49 108.513 46.49C108.821 44.6731 108.675 42.6969 108.513 40.7037H110.053ZM121.933 55.3231C122.387 53.6525 122.694 51.53 123.002 49.5369L124.672 49.3906L125.287 52.5837C125.433 53.345 125.887 53.96 127.104 53.96C129.082 53.96 131.675 52.745 134.12 48.4812C133.037 45.8881 129.843 37.5238 126.943 31.1225C126.182 29.4388 126.035 29.2906 124.98 28.9831L124.203 28.6906V27.1531L128.788 27.3144L134.413 27.0069V28.5312L133.037 28.8387C131.968 28.985 131.527 29.585 131.527 30.2019C131.527 30.3631 131.527 30.5094 131.673 30.8169C131.966 31.7394 134.413 38.5812 136.245 43.1506C137.754 39.9575 140.655 32.795 141.108 31.5781C141.27 30.9631 141.416 30.8169 141.416 30.3631C141.416 29.5869 140.962 29.1331 139.907 28.8406L138.823 28.5312V27.0087L143.1 27.155L147.054 27.0087V28.5312L146.293 29.1312C144.77 29.7462 144.609 29.8925 144.007 31.1225L137.313 46.7956C133.344 55.79 129.228 56.5513 126.341 56.5513C124.511 56.5531 123.135 56.0844 121.933 55.3231Z" fill="white"/>
</svg>
