<svg width="12" height="14" viewBox="0 0 12 14" fill="none" xmlns="http://www.w3.org/2000/svg">
<path fill-rule="evenodd" clip-rule="evenodd" d="M5.99995 4.29133e-07C6.37749 3.19334e-05 6.68353 0.331687 6.68346 0.740728L6.6835 11.4709L10.8332 6.97386C11.1001 6.68459 11.5329 6.68459 11.7998 6.97386C12.0667 7.26313 12.0667 7.73215 11.7998 8.02142L6.48331 13.783C6.35514 13.9219 6.18126 14 5.99995 14C5.81873 13.9999 5.64487 13.9219 5.51668 13.783L0.20018 8.02141C-0.0667471 7.73214 -0.066708 7.26308 0.20018 6.97385C0.467067 6.68462 0.899889 6.68458 1.16681 6.97385L5.31648 11.4709L5.31644 0.740728C5.3165 0.331698 5.62252 6.33386e-05 5.99995 4.29133e-07Z" fill="#E7E8F4"/>
</svg>
