<svg width="210" height="72" viewBox="0 0 210 72" fill="none" xmlns="http://www.w3.org/2000/svg">
<path d="M126.198 45.1795V20.1855H131.223V45.1795H126.198Z" fill="white"/>
<path d="M67.6503 52.5995H56.8813V27.6094H67.2183C72.2389 27.6094 75.1695 30.3493 75.1695 34.6304C75.1695 37.4054 73.2897 39.1918 71.9859 39.7911C73.5388 40.4917 75.5276 42.0718 75.5276 45.4072C75.5276 50.0697 72.2389 52.5995 67.6503 52.5995ZM66.8213 31.9644H61.9019V37.7206H66.8213C68.9541 37.7206 70.1489 36.5608 70.1489 34.8406C70.1489 33.1203 68.9541 31.9644 66.8213 31.9644ZM67.1444 42.1068H61.9019V48.2483H67.1405C69.4211 48.2483 70.5031 46.8433 70.5031 45.1581C70.5031 43.4729 69.4172 42.1068 67.1444 42.1068Z" fill="white"/>
<path d="M90.8507 42.3481V52.5995H85.8612V42.3481L78.1279 27.6094H83.5883L88.391 37.6817L93.1274 27.6094H98.5839L90.8507 42.3481Z" fill="white"/>
<path d="M112.824 52.5995H102.055V27.6094H112.392C117.413 27.6094 120.343 30.3493 120.343 34.6304C120.343 37.4054 118.464 39.1918 117.16 39.7911C118.713 40.4917 120.701 42.0718 120.701 45.4072C120.701 50.0697 117.417 52.5995 112.824 52.5995ZM111.995 31.9644H107.08V37.7206H111.995C114.128 37.7206 115.323 36.5608 115.323 34.8406C115.319 33.1203 114.124 31.9644 111.995 31.9644ZM112.318 42.1068H107.08V48.2483H112.318C114.599 48.2483 115.681 46.8433 115.681 45.1581C115.681 43.4729 114.595 42.1068 112.318 42.1068Z" fill="white"/>
<path d="M147.412 31.9644V52.6034H142.388V31.9644H135.667V27.6094H154.134V31.9644H147.412Z" fill="white"/>
</svg>
