<svg width="210" height="72" viewBox="0 0 210 72" fill="none" xmlns="http://www.w3.org/2000/svg">
<g clip-path="url(#clip0_2601_7735)">
<path fill-rule="evenodd" clip-rule="evenodd" d="M152.194 29.8193H156.283V25.7303H152.194V29.8193ZM130.459 36.6324C131.242 34.5591 133.241 33.0847 135.585 33.0847C137.929 33.0847 139.933 34.5591 140.71 36.6324H130.459ZM135.585 29.2779C130.459 29.2779 126.301 33.436 126.301 38.5617C126.301 43.6873 130.459 47.8455 135.585 47.8455C139.104 47.8455 142.162 45.8873 143.734 43.0078L140.307 41.3434C139.351 42.9617 137.595 44.0444 135.585 44.0444C133.045 44.0444 130.908 42.3167 130.286 39.9669H140.883V39.9727H144.765C144.834 39.5119 144.869 39.0397 144.869 38.5617C144.869 33.436 140.716 29.2779 135.585 29.2779ZM145.951 47.3502H150.04V43.2612H145.951V47.3502ZM152.194 47.3502H156.283V31.6161H152.194V47.3502ZM167.692 44.0444C164.663 44.0444 162.209 41.591 162.209 38.5617C162.209 35.5324 164.663 33.079 167.692 33.079C170.721 33.079 173.175 35.5324 173.175 38.5617C173.175 41.591 170.721 44.0444 167.692 44.0444ZM167.692 29.2779C162.566 29.2779 158.408 33.436 158.408 38.5617C158.408 43.6873 162.566 47.8455 167.692 47.8455C172.818 47.8455 176.976 43.6873 176.976 38.5617C176.976 33.436 172.818 29.2779 167.692 29.2779ZM82.2031 35.1407V39.368H87.922C87.6225 40.5774 87.0351 41.6601 86.1885 42.524C84.9099 43.8313 83.1419 44.5455 81.2068 44.5455C77.1869 44.5455 73.9157 41.2742 73.9157 37.2486C73.9157 33.2287 77.1869 29.9517 81.2068 29.9517C83.3607 29.9517 85.3419 30.8732 86.7125 32.4627L89.9837 29.7847C87.8125 27.2392 84.5932 25.7188 81.2068 25.7188C74.8544 25.7188 69.6885 30.8905 69.6885 37.2428C69.6885 43.5952 74.8544 48.7669 81.2068 48.7669C84.2937 48.7669 87.133 47.6554 89.212 45.5303C90.957 43.7449 92.1146 41.257 92.3335 38.769C92.4429 37.5538 92.4544 36.3444 92.3853 35.1292L82.2031 35.1407ZM103.028 44.0444C100.005 44.0444 97.5455 41.591 97.5455 38.5617C97.5455 35.5324 99.9989 33.079 103.028 33.079C106.058 33.079 108.511 35.5324 108.511 38.5617C108.511 41.591 106.058 44.0444 103.028 44.0444ZM108.511 31.0863C106.973 29.9575 105.078 29.2952 103.028 29.2952C97.9026 29.2952 93.7502 33.4533 93.7502 38.579C93.7502 43.7046 97.9083 47.8627 103.028 47.8627C105.078 47.8627 106.973 47.1947 108.511 46.0716V47.3559H112.312V29.802H108.511V31.0863ZM120.467 25.7303H116.666V29.8193H114.391V33.4072H116.666V42.7947C116.666 43.7622 116.787 44.58 117.029 45.2193C117.265 45.8528 117.633 46.3481 118.065 46.7339C118.503 47.1256 119.016 47.4308 119.626 47.6093C120.248 47.7821 120.928 47.8512 121.653 47.8512C122.402 47.8512 123.07 47.7763 123.634 47.6208C124.164 47.4769 124.671 47.2753 125.138 47.0219V44.1308C124.389 44.4533 123.686 44.5742 122.886 44.6088C122.039 44.6491 121.544 44.4072 121.129 44.0098C120.692 43.5952 120.461 43.0538 120.461 42.1496V33.4072H125.138V29.8193H120.461V25.7303H120.467Z" fill="white"/>
<path fill-rule="evenodd" clip-rule="evenodd" d="M49.4812 45.5671C44.4765 45.5671 40.4163 41.5069 40.4163 36.5022C40.4163 31.4974 44.4765 27.4372 49.4812 27.4372V20.0137C40.376 20.0137 32.9985 27.3969 32.9985 36.5022C32.9985 45.6074 40.376 52.9849 49.4812 52.9849C58.5807 52.9849 65.964 45.6016 65.964 36.5022H58.5462C58.5462 41.5126 54.486 45.5671 49.4812 45.5671Z" fill="white"/>
<path fill-rule="evenodd" clip-rule="evenodd" d="M49.4824 36.5044H58.5473V27.4395H49.4824V36.5044Z" fill="white"/>
</g>
<defs>
<clipPath id="clip0_2601_7735">
<rect width="143.979" height="33" fill="white" transform="translate(33 20)"/>
</clipPath>
</defs>
</svg>
