<svg width="210" height="72" viewBox="0 0 210 72" fill="none" xmlns="http://www.w3.org/2000/svg">
<g clip-path="url(#clip0_2601_5274)">
<path d="M111.635 40.0742C111.383 40.9975 111.005 41.8368 110.585 42.6342C110.46 42.886 110.334 43.1378 110.166 43.3896C109.452 44.4388 108.151 45.1523 106.808 45.1523C105.591 45.1523 104.458 44.6067 103.703 43.7254C103.661 43.6834 103.619 43.6414 103.577 43.5995C102.821 42.7181 101.73 42.1726 100.471 42.1726C100.135 42.1726 99.8837 42.2145 99.5899 42.2565V50.776C98.6666 50.9438 97.7014 51.0278 96.7361 51.0278C88.1327 51.0278 81.166 44.0191 81.166 35.4157C81.166 26.8123 88.0487 19.7617 96.6941 19.7617C98.3309 19.7617 99.9257 20.0555 101.395 20.4752L96.7781 25.1336L99.5899 27.9455L109.494 37.8499L109.914 38.2696L111.635 40.0742Z" fill="white"/>
<path d="M0.293945 39.8226L1.76282 39.1092C2.51824 40.8718 4.32286 41.8371 6.58912 41.8371C9.02326 41.8371 10.9118 40.578 10.9118 38.3957C10.9118 36.0455 8.77146 35.5839 6.46322 35.0802C3.77728 34.4927 0.755591 33.6953 0.755591 30.17C0.755591 27.4001 3.3576 25.2598 6.42126 25.2598C8.9813 25.2598 11.2895 26.4768 12.2128 28.827L10.7859 29.5405C9.98852 27.8198 8.43571 26.8545 6.33732 26.8545C4.23892 26.8545 2.43431 28.2395 2.43431 30.0861C2.43431 32.4363 4.61664 32.8979 6.96684 33.4015C9.65278 33.9891 12.6325 34.7865 12.6325 38.3537C12.5486 41.5013 9.90459 43.4738 6.54716 43.4738C3.73531 43.4738 1.25921 42.2148 0.293945 39.8226Z" fill="white"/>
<path d="M15.5698 43.3061V25.5117H17.2485V33.6535H27.7825V25.5117H29.4612V43.3061H27.7825V35.2063H17.2485V43.2641H15.5698V43.3061Z" fill="white"/>
<path d="M35.5049 25.5117V43.3061H33.8262V25.5117H35.5049Z" fill="white"/>
<path d="M38.5264 43.3059L41.0864 27.1483C41.2962 25.8892 42.2195 25.1758 43.3527 25.1758C44.3599 25.1758 45.2412 25.6794 45.577 26.8125L49.396 40.3262C49.48 40.7459 49.5639 40.8718 49.8157 40.8718C50.0256 40.8718 50.1515 40.7039 50.2354 40.3262L54.0545 26.8545C54.3902 25.7214 55.2716 25.1758 56.2788 25.1758C57.3699 25.1758 58.2932 25.8473 58.5031 27.1902L60.8113 43.18H59.1326L56.9503 27.6099C56.8663 27.0224 56.7404 26.6447 56.2368 26.6447C55.8591 26.6447 55.6073 26.9804 55.4814 27.526L51.5364 41.0816C51.3266 41.879 50.6131 42.3406 49.8577 42.3406C49.1442 42.3406 48.3888 41.921 48.179 41.1236L44.234 27.484C44.0661 26.9384 43.8563 26.6447 43.5205 26.6447C43.1428 26.6447 42.8491 26.9804 42.7651 27.6099L40.373 43.222H38.6523V43.3059H38.5264Z" fill="white"/>
<path d="M67.0645 27.3591C67.5261 25.8902 68.5753 25.2188 69.9183 25.2188C71.2193 25.2188 72.3105 25.8902 72.7721 27.3591L77.7663 43.2649H76.0456L74.5348 38.3127L65.3858 38.3547L63.791 43.2649H62.0703L67.0645 27.3591ZM65.8055 36.7599H74.0312L71.3032 27.9047C71.0934 27.1912 70.6318 26.8135 69.9603 26.8135C69.2468 26.8135 68.8271 27.1912 68.6173 27.9047L65.8055 36.7599Z" fill="white"/>
<path d="M115.076 34.3677C115.076 29.2896 119.063 25.2188 123.931 25.2188C126.911 25.2188 129.555 26.7296 130.982 29.1637L129.639 29.9611C128.463 27.9886 126.323 26.7716 123.973 26.7716C120.112 26.7716 116.88 30.087 116.88 34.3258C116.88 38.6065 120.07 41.922 123.973 41.922C126.323 41.922 128.463 40.7469 129.639 38.7744L130.982 39.6137C129.555 42.0898 126.953 43.5587 123.931 43.5587C119.063 43.5587 115.076 39.5298 115.076 34.3677Z" fill="white"/>
<path d="M136.06 27.3591C136.522 25.8902 137.571 25.2188 138.914 25.2188C140.257 25.2188 141.306 25.8902 141.768 27.3591L146.762 43.2649H145.041L143.53 38.3127L134.381 38.3547L132.787 43.2649H131.066L136.06 27.3591ZM134.759 36.7599H142.985L140.257 27.9047C140.047 27.1912 139.585 26.8135 138.914 26.8135C138.2 26.8135 137.781 27.1912 137.571 27.9047L134.759 36.7599Z" fill="white"/>
<path d="M149.28 43.3061V25.5117H154.4C158.932 25.5117 162.038 27.5262 162.038 31.639C162.038 35.9198 158.806 37.8083 154.442 37.8083H150.959V43.3061H149.28ZM150.959 27.1065V36.2135H154.4C157.673 36.2135 160.233 34.9125 160.233 31.639C160.233 28.4914 157.841 27.1065 154.4 27.1065H150.959Z" fill="white"/>
<path d="M166.067 25.5117V43.3061H164.388V25.5117H166.067Z" fill="white"/>
<path d="M180.798 27.1065H175.132V43.3061H173.453V27.1065H167.83V25.5117H180.798V27.1065Z" fill="white"/>
<path d="M184.659 27.3591C185.12 25.8902 186.17 25.2188 187.513 25.2188C188.856 25.2188 189.905 25.8902 190.366 27.3591L195.361 43.2649H193.598L192.087 38.3127L182.938 38.3547L181.385 43.3069H179.665L184.659 27.3591ZM183.358 36.7599H191.583L188.856 27.9047C188.646 27.1912 188.184 26.8135 187.513 26.8135C186.799 26.8135 186.379 27.1912 186.17 27.9047L183.358 36.7599Z" fill="white"/>
<path d="M199.557 41.7113H208.832V43.3061H199.557C198.298 43.3061 197.878 42.6766 197.878 41.6274V25.5117H199.557V41.7113Z" fill="white"/>
</g>
<defs>
<clipPath id="clip0_2601_5274">
<rect width="209" height="31.4759" fill="white" transform="translate(0 19.7617)"/>
</clipPath>
</defs>
</svg>
