<svg width="210" height="72" viewBox="0 0 210 72" fill="none" xmlns="http://www.w3.org/2000/svg">
<g clip-path="url(#clip0_2601_7706)">
<path d="M84.4595 21H55.7553C55.5783 21 55.4085 21.0703 55.2834 21.1955C55.1582 21.3207 55.0879 21.4904 55.0879 21.6676V50.3717C55.0879 50.5488 55.1582 50.7185 55.2834 50.8437C55.4085 50.9689 55.5783 51.0392 55.7553 51.0392H84.4595C84.6367 51.0392 84.8064 50.9689 84.9316 50.8437C85.0568 50.7185 85.1271 50.5488 85.1271 50.3717V21.6676C85.1271 21.4904 85.0568 21.3207 84.9316 21.1955C84.8064 21.0703 84.6367 21 84.4595 21ZM75.114 40.3586C75.114 40.5357 75.0437 40.7054 74.9185 40.8307C74.7933 40.9558 74.6236 41.0262 74.4465 41.0262H65.7685C65.5914 41.0262 65.4217 40.9558 65.2964 40.8307C65.1713 40.7054 65.101 40.5357 65.101 40.3586V31.6806C65.101 31.5035 65.1713 31.3338 65.2964 31.2086C65.4217 31.0834 65.5914 31.0131 65.7685 31.0131H74.4465C74.6236 31.0131 74.7933 31.0834 74.9185 31.2086C75.0437 31.3338 75.114 31.5035 75.114 31.6806V40.3586Z" fill="white"/>
<path d="M144.555 31.0137H135.877C135.508 31.0137 135.209 31.3125 135.209 31.6811V40.3592C135.209 40.7279 135.508 41.0268 135.877 41.0268H144.555C144.924 41.0268 145.223 40.7279 145.223 40.3592V31.6811C145.223 31.3125 144.924 31.0137 144.555 31.0137Z" fill="white"/>
<path d="M134.536 21H125.859C125.49 21 125.191 21.2988 125.191 21.6676V30.3455C125.191 30.7142 125.49 31.0131 125.859 31.0131H134.536C134.905 31.0131 135.204 30.7142 135.204 30.3455V21.6676C135.204 21.2988 134.905 21 134.536 21Z" fill="white"/>
<path d="M154.563 21H145.885C145.517 21 145.218 21.2988 145.218 21.6676V30.3455C145.218 30.7142 145.517 31.0131 145.885 31.0131H154.563C154.932 31.0131 155.231 30.7142 155.231 30.3455V21.6676C155.231 21.2988 154.932 21 154.563 21Z" fill="white"/>
<path d="M134.536 41.0273H125.859C125.49 41.0273 125.191 41.3261 125.191 41.6948V50.3729C125.191 50.7415 125.49 51.0405 125.859 51.0405H134.536C134.905 51.0405 135.204 50.7415 135.204 50.3729V41.6948C135.204 41.3261 134.905 41.0273 134.536 41.0273Z" fill="white"/>
<path d="M154.563 41.0273H145.885C145.517 41.0273 145.218 41.3261 145.218 41.6948V50.3729C145.218 50.7415 145.517 51.0405 145.885 51.0405H154.563C154.932 51.0405 155.231 50.7415 155.231 50.3729V41.6948C155.231 41.3261 154.932 41.0273 154.563 41.0273Z" fill="white"/>
<path d="M119.507 21H110.829C110.46 21 110.161 21.2988 110.161 21.6676V30.3455C110.161 30.7142 110.46 31.0131 110.829 31.0131H119.507C119.875 31.0131 120.174 30.7142 120.174 30.3455V21.6676C120.174 21.2988 119.875 21 119.507 21Z" fill="white"/>
<path d="M119.507 41.0273H110.829C110.46 41.0273 110.161 41.3261 110.161 41.6948V50.3729C110.161 50.7415 110.46 51.0405 110.829 51.0405H119.507C119.875 51.0405 120.174 50.7415 120.174 50.3729V41.6948C120.174 41.3261 119.875 41.0273 119.507 41.0273Z" fill="white"/>
<path d="M110.161 31.673C110.161 31.496 110.091 31.3262 109.965 31.2011C109.84 31.0759 109.67 31.0056 109.493 31.0056H100.148V21.6676C100.148 21.4904 100.077 21.3207 99.9523 21.1955C99.8271 21.0703 99.6573 21 99.4803 21H90.8024C90.6252 21 90.4554 21.0703 90.3303 21.1955C90.205 21.3207 90.1348 21.4904 90.1348 21.6676V50.3567C90.1348 50.5337 90.205 50.7035 90.3303 50.8286C90.4554 50.9539 90.6252 51.0242 90.8024 51.0242H99.4803C99.6573 51.0242 99.8271 50.9539 99.9523 50.8286C100.077 50.7035 100.148 50.5337 100.148 50.3567V41.0187H109.493C109.67 41.0187 109.84 40.9483 109.965 40.8232C110.091 40.6979 110.161 40.5281 110.161 40.3511V31.673Z" fill="white"/>
</g>
<defs>
<clipPath id="clip0_2601_7706">
<rect width="100.312" height="30.04" fill="white" transform="translate(55 21)"/>
</clipPath>
</defs>
</svg>
