<svg width="137" height="48" viewBox="0 0 137 48" fill="none" xmlns="http://www.w3.org/2000/svg">
<path d="M107.33 20.6957H106.928V16.3416C107.062 16.2746 107.196 16.2746 107.397 16.2076C107.598 16.1406 107.866 16.1406 108.133 16.1406C108.401 16.1406 108.602 16.2076 108.803 16.2746C109.004 16.3416 109.205 16.4756 109.339 16.6095C109.473 16.7435 109.607 16.9445 109.674 17.1454C109.741 17.3464 109.808 17.6143 109.808 17.8823C109.808 18.1502 109.808 18.3512 109.741 18.5521C109.674 18.7531 109.607 18.954 109.473 19.088C109.339 19.222 109.205 19.356 109.004 19.4229C108.803 19.4899 108.602 19.5569 108.334 19.5569C108.133 19.5569 107.933 19.5569 107.732 19.4899C107.598 19.4229 107.464 19.356 107.397 19.289V20.6957H107.33ZM107.33 18.954C107.397 18.954 107.397 19.021 107.464 19.021C107.531 19.088 107.598 19.088 107.665 19.088C107.732 19.088 107.799 19.155 107.933 19.155C108 19.155 108.133 19.155 108.2 19.155C108.401 19.155 108.602 19.088 108.736 19.021C108.87 18.954 109.004 18.8201 109.071 18.7531C109.138 18.6191 109.205 18.4851 109.272 18.3512C109.339 18.2172 109.339 18.0162 109.339 17.8153C109.339 17.3464 109.205 17.0114 109.004 16.8105C108.803 16.6095 108.468 16.4756 108.133 16.4756C107.933 16.4756 107.732 16.4756 107.665 16.4756C107.531 16.4756 107.464 16.5425 107.397 16.5425V18.954H107.33Z" fill="white"/>
<path d="M112.556 16.1406C112.757 16.1406 112.958 16.1406 113.092 16.2076C113.226 16.2746 113.36 16.3416 113.494 16.4756C113.561 16.6095 113.628 16.7435 113.695 16.8775C113.695 17.0114 113.695 17.2124 113.695 17.3464V19.4229C113.628 19.4229 113.561 19.4229 113.494 19.4899C113.427 19.4899 113.293 19.4899 113.226 19.5569C113.092 19.5569 113.025 19.5569 112.891 19.6239C112.757 19.6909 112.623 19.6239 112.489 19.6239C112.288 19.6239 112.154 19.6239 112.02 19.5569C111.886 19.4899 111.752 19.4899 111.618 19.356C111.484 19.289 111.417 19.155 111.35 19.021C111.283 18.8871 111.283 18.7531 111.283 18.5521C111.283 18.3512 111.35 18.2172 111.417 18.0832C111.484 17.9492 111.551 17.8153 111.685 17.7483C111.819 17.6813 111.953 17.6143 112.154 17.5473C112.355 17.4803 112.489 17.4803 112.69 17.4803C112.757 17.4803 112.824 17.4803 112.891 17.4803C112.958 17.4803 113.025 17.4803 113.092 17.4803C113.159 17.4803 113.226 17.4803 113.226 17.4803C113.293 17.4803 113.293 17.4803 113.293 17.4803V17.4134C113.293 17.2794 113.293 17.2124 113.293 17.0784C113.293 16.9445 113.226 16.8775 113.159 16.8105C113.092 16.7435 113.025 16.6765 112.891 16.6095C112.757 16.5425 112.623 16.5425 112.489 16.5425C112.221 16.5425 112.087 16.5425 111.953 16.6095C111.819 16.6765 111.752 16.6765 111.685 16.6765L111.618 16.3416C111.685 16.2746 111.819 16.2746 111.953 16.2746C112.154 16.1406 112.288 16.1406 112.556 16.1406ZM112.556 19.222C112.69 19.222 112.891 19.222 112.958 19.222C113.092 19.222 113.159 19.222 113.293 19.155V18.0162C113.226 18.0162 113.159 17.9492 113.092 17.9492C112.958 17.9492 112.824 17.8823 112.69 17.8823C112.556 17.8823 112.489 17.8823 112.355 17.8823C112.221 17.8823 112.154 17.9492 112.02 17.9492C111.953 18.0162 111.819 18.0832 111.819 18.1502C111.752 18.2172 111.752 18.3512 111.752 18.4851C111.752 18.6191 111.752 18.6861 111.819 18.8201C111.886 18.8871 111.886 18.954 112.02 19.021C112.087 19.088 112.154 19.088 112.288 19.155C112.288 19.222 112.422 19.222 112.556 19.222Z" fill="white"/>
<path d="M116.784 16.1406C116.918 16.1406 117.052 16.1406 117.186 16.1406C117.32 16.1406 117.387 16.2076 117.454 16.2076L117.387 16.5425C117.32 16.5425 117.253 16.4756 117.186 16.4756C117.119 16.4756 116.918 16.4756 116.784 16.4756C116.583 16.4756 116.449 16.4756 116.382 16.5425C116.248 16.5425 116.181 16.6095 116.181 16.6095V19.5569H115.779V16.3416C115.913 16.2746 116.047 16.2746 116.248 16.2076C116.248 16.1406 116.516 16.1406 116.784 16.1406Z" fill="white"/>
<path d="M119.252 16.1968H120.592V16.5317H119.252V18.2733C119.252 18.4743 119.252 18.6083 119.319 18.7422C119.319 18.8762 119.386 18.9432 119.453 19.0102C119.52 19.0772 119.587 19.1442 119.654 19.1442C119.721 19.1442 119.855 19.1442 119.922 19.1442C120.123 19.1442 120.257 19.1442 120.324 19.0772C120.458 19.0102 120.525 19.0102 120.592 18.9432L120.726 19.2781C120.659 19.3451 120.592 19.3451 120.391 19.4121C120.257 19.4791 120.056 19.4791 119.922 19.4791C119.721 19.4791 119.52 19.4791 119.386 19.4121C119.252 19.3451 119.118 19.2781 119.051 19.1442C118.984 19.0102 118.917 18.8762 118.85 18.7422C118.783 18.6083 118.783 18.4073 118.783 18.1394V15.192L119.185 15.125V16.1968H119.252Z" fill="white"/>
<path d="M122.205 16.3416C122.339 16.2746 122.473 16.2746 122.741 16.2076C122.942 16.1406 123.21 16.1406 123.545 16.1406C123.813 16.1406 124.014 16.2076 124.148 16.2746C124.349 16.3416 124.483 16.4756 124.55 16.6095C124.684 16.7435 124.751 16.8775 124.751 17.0784C124.818 17.2794 124.818 17.4803 124.818 17.6813V19.5569H124.416V17.8153C124.416 17.5473 124.416 17.3464 124.349 17.2124C124.349 17.0784 124.282 16.9445 124.215 16.8105C124.148 16.6765 124.014 16.6095 123.947 16.6095C123.813 16.5425 123.679 16.5425 123.478 16.5425C123.277 16.5425 123.143 16.5425 122.942 16.5425C122.808 16.5425 122.674 16.6095 122.674 16.6095V19.5569H122.272V16.3416H122.205Z" fill="white"/>
<path d="M132.454 16.1406C132.588 16.1406 132.722 16.1406 132.856 16.1406C132.99 16.1406 133.057 16.2076 133.124 16.2076L133.057 16.5425C132.99 16.5425 132.923 16.4756 132.856 16.4756C132.722 16.4756 132.588 16.4756 132.454 16.4756C132.253 16.4756 132.119 16.4756 132.052 16.5425C131.918 16.5425 131.851 16.6095 131.851 16.6095V19.5569H131.449V16.3416C131.583 16.2746 131.717 16.2746 131.918 16.2076C131.918 16.1406 132.186 16.1406 132.454 16.1406Z" fill="white"/>
<path d="M135.268 19.2265C135.536 19.2265 135.737 19.1595 135.871 19.0925C136.005 19.0255 136.139 18.8915 136.139 18.6906C136.139 18.6236 136.139 18.4896 136.072 18.4896C136.072 18.4226 136.005 18.3557 135.938 18.2887C135.871 18.2217 135.804 18.1547 135.67 18.1547C135.536 18.0877 135.402 18.0207 135.268 17.9537C135.134 17.8867 135 17.8198 134.933 17.8198C134.799 17.7528 134.732 17.6858 134.665 17.6188C134.598 17.5518 134.531 17.4848 134.464 17.3509C134.397 17.2839 134.397 17.1499 134.397 17.0159C134.397 16.748 134.531 16.547 134.732 16.3461C134.933 16.2121 135.201 16.0781 135.603 16.0781C135.804 16.0781 136.005 16.0781 136.139 16.1451C136.273 16.2121 136.407 16.2121 136.474 16.2791L136.273 16.681C136.206 16.681 136.139 16.614 136.005 16.547C135.871 16.48 135.67 16.48 135.469 16.48C135.402 16.48 135.268 16.48 135.201 16.48C135.134 16.48 135.067 16.547 135 16.547C134.933 16.614 134.866 16.614 134.866 16.681C134.866 16.748 134.799 16.815 134.799 16.882C134.799 16.9489 134.799 17.0829 134.866 17.0829C134.933 17.1499 134.933 17.2169 135 17.2839C135.067 17.3509 135.134 17.3509 135.268 17.4178C135.335 17.4848 135.469 17.4848 135.603 17.5518C135.737 17.6188 135.871 17.6858 136.005 17.6858C136.139 17.7528 136.206 17.8198 136.34 17.8867C136.407 17.9537 136.474 18.0207 136.541 18.1547C136.608 18.2887 136.608 18.4226 136.608 18.5566C136.608 18.8246 136.474 19.0925 136.273 19.2265C136.072 19.3604 135.737 19.4274 135.335 19.4274C135.067 19.4274 134.799 19.4274 134.665 19.3604C134.531 19.2935 134.397 19.2935 134.33 19.2265L134.464 18.8246C134.464 18.8246 134.531 18.8246 134.531 18.8915C134.598 18.8915 134.665 18.9585 134.732 18.9585C134.799 18.9585 134.866 19.0255 135 19.0255C135 19.2265 135.134 19.2265 135.268 19.2265Z" fill="white"/>
<path d="M126.564 17.0039H129.445V17.3388H126.564V17.0039ZM126.564 18.4106H129.445V18.7455H126.564V18.4106Z" fill="white"/>
<path d="M45.1134 32.1508L43.2378 27.8636H36.6062L34.6636 32.1508H31.7832L39.8885 14.7344L47.9938 32.1508H45.1134ZM37.611 25.5861H42.3L40.5584 21.7679C40.4914 21.5 40.3574 21.232 40.2234 20.8971C40.0895 20.5622 40.0225 20.2272 39.8885 19.8253C39.8215 20.1602 39.6876 20.5622 39.6206 20.8301C39.4866 21.165 39.4196 21.433 39.2856 21.7009L37.611 25.5861Z" fill="white"/>
<path d="M50.4746 32.1489L55.9005 23.3737L51.1445 15.4023H54.0249L56.4364 19.4885C56.5703 19.6895 56.8383 20.1584 57.1732 20.8282L57.3742 21.1631C57.5081 20.8952 57.6421 20.6942 57.7761 20.4263C57.9101 20.1584 58.111 19.8904 58.312 19.5555L60.8574 15.4693H63.6709L58.7809 23.3737L64.0728 32.1489H61.0584L58.111 27.3928L58.044 27.3259C57.7091 26.723 57.4412 26.1871 57.1732 25.7182C57.0392 25.9861 56.9053 26.2541 56.7713 26.522C56.6373 26.79 56.4364 27.0579 56.3024 27.3928L53.355 32.1489H50.4746Z" fill="white"/>
<path d="M83.4966 23.7836C83.4966 24.9893 83.2956 26.1281 82.8267 27.1329C82.3578 28.2046 81.755 29.1425 80.8841 29.9463C80.0133 30.7501 79.0755 31.42 77.9368 31.8889C76.798 32.3578 75.7262 32.5587 74.5205 32.5587C73.3147 32.5587 72.176 32.3578 71.1042 31.8889C70.0324 31.42 69.0276 30.8171 68.2238 30.0133C67.353 29.2094 66.7501 28.2716 66.2812 27.1999C65.8123 26.1281 65.6113 24.9893 65.6113 23.7836C65.6113 22.5778 65.8123 21.4391 66.2812 20.3673C66.7501 19.2955 67.353 18.3577 68.2238 17.4869C69.0946 16.683 70.0324 16.0132 71.1042 15.6113C72.176 15.2094 73.3147 14.9414 74.5205 14.9414C75.7262 14.9414 76.865 15.1424 77.9368 15.6113C79.0085 16.0132 80.0133 16.683 80.8172 17.4869C81.688 18.3577 82.2909 19.2955 82.7598 20.3673C83.2956 21.506 83.4966 22.6448 83.4966 23.7836ZM80.6832 23.7836C80.6832 22.9127 80.5492 22.1089 80.2143 21.3721C79.8794 20.6352 79.4774 19.8984 78.8746 19.3625C78.3387 18.7596 77.6688 18.2907 76.932 18.0228C76.1951 17.6878 75.3913 17.5539 74.5875 17.5539C73.7836 17.5539 72.9798 17.6878 72.2429 18.0228C71.5061 18.3577 70.8362 18.7596 70.2334 19.3625C69.6305 19.9654 69.2286 20.6352 68.8936 21.3721C68.5587 22.1089 68.4247 22.9127 68.4247 23.7836C68.4247 24.6544 68.5587 25.4582 68.8936 26.1951C69.2286 26.9319 69.6305 27.6018 70.2334 28.2046C70.8362 28.8075 71.4391 29.2764 72.2429 29.5444C73.0468 29.8123 73.7836 30.0133 74.5875 30.0133C75.3913 30.0133 76.1951 29.8793 76.932 29.5444C77.6688 29.2094 78.3387 28.8075 78.9416 28.2046C79.5444 27.6018 79.9463 26.9319 80.2813 26.1951C80.4822 25.4582 80.6832 24.6544 80.6832 23.7836Z" fill="white"/>
<path d="M86.1758 32.1508V14.7344L96.8266 24.9832C97.0945 25.2512 97.4294 25.5861 97.6974 25.921C97.9653 26.256 98.3003 26.5909 98.6352 27.0598V15.4042H101.181V32.8206L90.3289 22.3708C90.061 22.1028 89.726 21.7679 89.4581 21.5C89.1902 21.165 88.9222 20.8301 88.6543 20.4952V32.1508H86.1758Z" fill="white"/>
<path d="M18.3166 14.0664L16.0391 15.942L23.8094 23.6454L16.24 31.0809L18.1156 33.0904L27.7616 23.5114L18.3166 14.0664Z" fill="white"/>
<path d="M12.0216 16.0096L10.146 14L0.5 23.579L9.94503 33.024L12.2226 31.2154L4.45218 23.445L12.0216 16.0096Z" fill="white"/>
</svg>
