<svg width="210" height="72" viewBox="0 0 210 72" fill="none" xmlns="http://www.w3.org/2000/svg">
<g clip-path="url(#clip0_2601_7845)">
<path d="M23.3007 17L7 26.3107V44.932L23.3007 54.2427L39.6013 44.932V26.3107L23.3007 17ZM23.3007 17L7 26.3107V44.932L23.3007 54.2427L39.6013 44.932V26.3107L23.3007 17Z" fill="white"/>
<path d="M29.736 46.9688H27.4167L24.64 44.4471V43.154L27.5147 40.4383V36.1386L31.2713 33.714L35.5507 36.9145L29.736 46.9688ZM20.132 40.1797L20.5567 36.1386L19.152 32.5178H27.4493L26.0773 36.1386L26.4693 40.1797H23.268H20.132ZM22.0267 44.4471L19.25 47.0011H16.898L11.0507 36.9145L15.3627 33.7463L19.152 36.1386V40.4383L22.0267 43.154V44.4471ZM16.8653 25.0499H29.7033L31.2387 31.5156H15.3627L16.8653 25.0499ZM23.3007 17L7 26.3107V44.932L23.3007 54.2427L39.6013 44.932V26.3107L23.3007 17Z" fill="#465FDD"/>
<path d="M57.8942 44.2534C53.5822 44.2534 50.4136 40.9235 50.4136 36.8178C50.4136 32.712 53.6149 29.2852 57.9269 29.2852C60.6709 29.2852 62.3696 30.2873 63.7089 31.7421L61.6509 33.9405C60.6382 32.8737 59.5602 32.1624 57.8942 32.1624C55.4769 32.1624 53.7129 34.2315 53.7129 36.7531C53.7129 39.3394 55.5096 41.4084 58.0576 41.4084C59.6256 41.4084 60.7689 40.6649 61.8142 39.6304L63.8069 41.6024C62.3696 43.1219 60.7036 44.2534 57.8942 44.2534Z" fill="white"/>
<path d="M70.1123 44.2523H66.7803V29.3164H70.1123V32.8079C71.0269 30.6742 72.6929 29.1871 75.2409 29.3164V32.8079H75.0449C72.1376 32.8079 70.1123 34.683 70.1123 38.4978V44.2523Z" fill="white"/>
<path d="M92.6521 29.252L85.3021 48.2613H81.9374L83.5381 44.2525L77.2334 29.252H80.7941L85.0734 40.3407L89.1894 29.252H92.6521Z" fill="white"/>
<path d="M102.452 32.1292C100.198 32.1292 98.2379 33.9396 98.2379 36.7522C98.2379 39.5648 100.231 41.3752 102.452 41.3752C104.739 41.3752 106.601 39.5971 106.601 36.7522C106.601 33.9073 104.706 32.1292 102.452 32.1292ZM103.203 44.2202C100.819 44.2202 99.3159 43.024 98.3032 41.6985V48.2613H94.9712V29.252H98.3032V31.9352C99.3812 30.4481 100.884 29.252 103.203 29.252C106.633 29.252 109.965 31.9352 109.965 36.7199C109.965 41.5045 106.666 44.2202 103.203 44.2202Z" fill="white"/>
<path d="M117.251 32.3895V39.4372C117.251 40.698 117.904 41.2153 119.047 41.2153H120.354V44.1572H118.067C115.65 44.1572 113.919 43.0903 113.919 39.9544V32.3895H112.089V29.5769H113.919V25.6328H117.251V29.5769H120.354V32.3895H117.251Z" fill="white"/>
<path d="M130.839 32.1301C128.16 32.1301 126.461 34.1991 126.461 36.7208C126.461 39.2747 128.291 41.3761 130.871 41.3761C133.55 41.3761 135.249 39.3071 135.249 36.7854C135.314 34.2315 133.452 32.1301 130.839 32.1301ZM130.839 44.2534C126.429 44.2534 123.162 40.9235 123.162 36.8178C123.162 32.6797 126.461 29.2852 130.904 29.2852C135.347 29.2852 138.613 32.615 138.613 36.7531C138.613 40.8265 135.347 44.2534 130.839 44.2534Z" fill="white"/>
<path d="M170.398 32.1301C167.72 32.1301 166.021 34.1991 166.021 36.7208C166.021 39.2747 167.85 41.3761 170.431 41.3761C173.11 41.3761 174.808 39.3071 174.808 36.7854C174.841 34.2315 173.012 32.1301 170.398 32.1301ZM170.398 44.2534C165.988 44.2534 162.722 40.9235 162.722 36.8178C162.722 32.6797 166.021 29.2852 170.464 29.2852C174.906 29.2852 178.173 32.615 178.173 36.7531C178.173 40.8265 174.874 44.2534 170.398 44.2534Z" fill="white"/>
<path d="M197.905 29.252C201.073 29.252 203.001 31.224 203.001 34.7478V44.2202H199.669V35.75C199.669 33.4547 198.591 32.2585 196.729 32.2585C194.932 32.2585 193.625 33.5193 193.625 35.8147V44.2525H190.293V35.75C190.293 33.5193 189.183 32.2585 187.353 32.2585C185.524 32.2585 184.25 33.6163 184.25 35.847V44.2525H180.918V29.2843H184.25V31.7413C185.197 30.4804 186.439 29.2843 188.66 29.2843C190.751 29.2843 192.188 30.2865 192.972 31.8059C194.181 30.2541 195.716 29.252 197.905 29.252Z" fill="white"/>
<path d="M141.52 41.0524L142.958 40.2441H143.154L144.624 41.0524L144.722 41.214V42.8951L144.624 43.0567L143.154 43.865H142.958L141.52 43.0567L141.422 42.8951V41.214L141.52 41.0524Z" fill="white"/>
<path d="M154.816 44.2183C150.504 44.1213 147.401 40.7268 147.466 36.621C147.532 32.5153 150.798 29.1531 155.143 29.2501C157.887 29.3148 159.586 30.3493 160.892 31.8364L158.802 34.0024C157.822 32.9356 156.744 32.1597 155.078 32.1274C152.66 32.095 150.864 34.0994 150.831 36.6534C150.766 39.2397 152.53 41.341 155.078 41.3734C156.646 41.4057 157.822 40.6945 158.867 39.6599L160.827 41.6643C159.357 43.1838 157.658 44.283 154.816 44.2183Z" fill="white"/>
</g>
<defs>
<clipPath id="clip0_2601_7845">
<rect width="196" height="37.2427" fill="white" transform="translate(7 17)"/>
</clipPath>
</defs>
</svg>
