<svg width="210" height="72" viewBox="0 0 210 72" fill="none" xmlns="http://www.w3.org/2000/svg">
<g clip-path="url(#clip0_2601_7835)">
<path d="M75.0061 39.7984L69.1227 48.477L69.0747 48.4289C66.9663 51.2722 60.1512 50.0955 53.7299 45.5377C47.3566 41.0231 43.6777 35.2886 45.4932 32.2005L45.4451 32.1524L51.3285 23.6228C53.3361 20.6787 60.252 21.8554 66.7213 26.4132C73.3395 30.7308 76.9176 36.8591 75.0061 39.7984Z" fill="white"/>
<path fill-rule="evenodd" clip-rule="evenodd" d="M74.1225 39.3105C72.3599 41.8607 66.0827 40.5832 60.0985 36.3712C53.975 32.1544 50.3969 26.8089 52.2076 24.2587C53.9702 21.7084 60.2474 22.9859 66.2316 27.1979C72.2158 31.4099 75.7939 36.7602 74.1225 39.3105ZM68.5369 35.4875C67.6532 36.7602 64.565 36.1262 61.5249 34.0659C58.5856 32.0535 56.8182 29.3592 57.7019 28.0864C58.5856 26.8137 61.6738 27.4477 64.7139 29.5081C67.6532 31.5156 69.4158 34.2148 68.5369 35.4875Z" fill="#131F5A"/>
<path d="M90.4024 49.213C88.5869 49.213 86.7235 48.872 84.86 48.1852C82.9965 47.4984 81.426 46.6147 80.1533 45.4908L83.1454 41.0291C84.1732 41.9128 85.3499 42.6476 86.6274 43.1855C87.953 43.7234 89.1777 43.9684 90.3544 43.9684C91.3341 43.9684 92.1698 43.7715 92.8038 43.4305C93.4905 43.0895 93.8315 42.5948 93.8315 42.0089C93.8315 41.8119 93.7835 41.615 93.6827 41.4229C93.5866 41.274 93.4377 41.0819 93.2408 40.9811C93.0439 40.8322 92.799 40.7361 92.602 40.5872C92.3091 40.4384 92.0161 40.3423 91.6703 40.2462C91.2765 40.1502 90.9355 40.0493 90.6425 39.9533C90.2487 39.8572 89.8068 39.7083 89.4178 39.6123C83.8322 38.2339 81.0851 35.6836 81.0851 31.9087C81.0851 29.7522 81.9207 27.9848 83.6353 26.7121C85.3499 25.3865 87.6072 24.7526 90.4024 24.7526C92.165 24.7526 93.7835 24.9975 95.258 25.5354C96.7324 26.0733 97.9523 26.7601 98.884 27.6438L96.1897 32.1536C95.4549 31.5149 94.5712 30.9769 93.5434 30.5831C92.5156 30.1893 91.435 29.9972 90.3544 29.9972C89.4226 29.9972 88.6398 30.1461 88.049 30.4871C87.4631 30.8281 87.1653 31.2219 87.1653 31.7598C87.1653 32.2977 87.5063 32.7396 88.1931 33.1334C88.8799 33.4744 89.8597 33.8202 91.0844 34.1131C91.5262 34.2092 91.8672 34.31 92.213 34.4061C92.5588 34.5022 93.0487 34.651 93.6827 34.896C94.3214 35.0929 94.8593 35.3378 95.3972 35.5828C95.8871 35.8277 96.4779 36.1687 97.0158 36.5625C97.5537 36.9564 98.0436 37.3982 98.4374 37.8881C98.8312 38.378 99.1722 38.9687 99.4171 39.6027C99.6621 40.2895 99.811 41.0243 99.811 41.7591C99.811 43.2287 99.3691 44.5063 98.5382 45.6301C97.7026 46.7588 96.5787 47.6425 95.1571 48.2284C93.7355 48.8672 92.117 49.1601 90.3544 49.1601L90.4024 49.213ZM116.337 47.2054C114.82 48.531 112.807 49.2178 110.257 49.2178C107.755 49.2178 105.747 48.531 104.177 47.2054C102.659 45.8318 101.871 44.0692 101.871 41.8119V31.366H107.414V41.0243C107.414 41.86 107.659 42.542 108.197 43.0847C108.734 43.5745 109.421 43.8675 110.257 43.8675C111.093 43.8675 111.775 43.6226 112.269 43.0847C112.807 42.5948 113.052 41.908 113.052 41.0243V31.366H118.595V41.8071C118.595 44.0116 117.812 45.827 116.289 47.2006H116.337V47.2054ZM128.2 49.213C125.405 49.213 122.907 48.3293 120.602 46.6147L123.051 43.1327C124.67 44.3574 126.337 44.9481 128.003 44.9481C128.738 44.9481 129.329 44.8521 129.766 44.6552C130.208 44.4583 130.452 44.1653 130.452 43.7715C130.452 43.3776 130.208 43.0847 129.766 42.8878C129.324 42.6908 128.589 42.4939 127.609 42.3018C127.071 42.2058 126.678 42.1049 126.385 42.0569C125.991 41.9608 125.549 41.8119 125.16 41.7159C124.718 41.567 124.324 41.4229 123.887 41.226C123.594 41.0291 123.248 40.8322 122.807 40.5392C122.466 40.2943 122.12 39.9533 121.875 39.6075C121.63 39.2137 121.433 38.8246 121.337 38.3828C121.188 37.8449 121.092 37.3022 121.092 36.7643C121.092 35.5396 121.433 34.4589 122.12 33.5752C122.807 32.6915 123.69 32.0576 124.766 31.6157C125.895 31.2219 127.119 30.9769 128.493 30.9769C131.043 30.9769 133.445 31.7118 135.553 33.2342L133.104 36.7162C131.533 35.7365 130.063 35.2466 128.69 35.2466C128.051 35.2466 127.561 35.3426 127.172 35.4915C126.778 35.6404 126.586 35.9334 126.586 36.2744C126.586 36.6154 126.831 36.9131 127.273 37.1101C127.715 37.307 128.45 37.5039 129.43 37.696C129.919 37.792 130.313 37.8929 130.654 37.9409C130.995 38.037 131.389 38.1378 131.879 38.2819C132.369 38.4308 132.763 38.6229 133.104 38.7718C133.445 38.9687 133.79 39.1656 134.184 39.4586C134.578 39.7516 134.871 40.0445 135.116 40.3903C135.361 40.7361 135.558 41.1732 135.702 41.6631C135.846 42.1529 135.947 42.6428 135.947 43.2336C135.947 45.097 135.212 46.5667 133.79 47.6473C132.321 48.6751 130.505 49.213 128.2 49.213ZM148.986 30.9289C150.946 30.9289 152.516 31.5149 153.741 32.6915C154.966 33.8682 155.556 35.4867 155.556 37.4462V48.7711H150.014V39.3097C150.014 38.378 149.769 37.6432 149.231 37.1052C148.693 36.5673 148.007 36.2696 147.123 36.2696C146.143 36.2696 145.408 36.5625 144.818 37.1052C144.232 37.6912 143.934 38.4308 143.934 39.3625V48.7759H138.391V24.1618H143.939V32.9845C145.264 31.6109 146.931 30.9289 148.986 30.9289ZM161.685 29.4545C160.705 29.4545 159.922 29.1135 159.283 28.5227C158.645 27.884 158.304 27.0531 158.304 26.1214C158.304 25.1416 158.645 24.3588 159.283 23.72C159.922 23.0812 160.705 22.7402 161.685 22.7402C162.665 22.7402 163.447 23.0812 164.086 23.72C164.725 24.3588 165.066 25.1896 165.066 26.1214C165.066 27.0531 164.725 27.884 164.086 28.5227C163.447 29.1615 162.669 29.4545 161.685 29.4545ZM158.942 48.7711V31.3179H164.485V48.7711H158.942Z" fill="white"/>
</g>
<defs>
<clipPath id="clip0_2601_7835">
<rect width="120.069" height="28" fill="white" transform="translate(45 22)"/>
</clipPath>
</defs>
</svg>
