<svg width="210" height="72" viewBox="0 0 210 72" fill="none" xmlns="http://www.w3.org/2000/svg">
<g clip-path="url(#clip0_2601_7679)">
<path d="M26.737 32.9678L33.6544 26.0507L40.5755 32.9715L44.6006 28.9464L33.6544 18L22.7119 28.9428L26.737 32.9678Z" fill="white"/>
<path d="M23.8961 35.8101L19.8711 31.7852L15.8459 35.8103L19.8709 39.8353L23.8961 35.8101Z" fill="white"/>
<path d="M26.7395 38.6518L33.6569 45.569L40.5777 38.6484L44.605 42.6712L44.603 42.6735L33.6569 53.6196L22.7141 42.6771L22.7085 42.6715L26.7395 38.6518Z" fill="white"/>
<path d="M47.4406 39.8377L51.4658 35.8125L47.4408 31.7875L43.4157 35.8127L47.4406 39.8377Z" fill="white"/>
<path d="M37.7384 35.809H37.7401L33.6557 31.7246L30.6373 34.743H30.637L30.2904 35.0899L29.575 35.8054L29.5693 35.811L29.575 35.8169L33.6557 39.8976L37.7401 35.8132L37.7421 35.811L37.7384 35.809Z" fill="white"/>
<path d="M57.7407 26.6309H66.495C68.6677 26.6309 70.3107 27.1885 71.4243 28.3037C72.286 29.1674 72.7167 30.2378 72.7167 31.5148V31.5688C72.7167 32.1084 72.65 32.5853 72.5158 32.9989C72.3819 33.413 72.203 33.7857 71.9793 34.1186C71.7562 34.4517 71.4968 34.744 71.202 34.9955C70.9069 35.2476 70.5898 35.4636 70.2503 35.6431C71.3424 36.0572 72.2022 36.6191 72.829 37.3297C73.4555 38.0406 73.7692 39.0256 73.7692 40.2846V40.3383C73.7692 41.202 73.6032 41.9574 73.2709 42.6053C72.9387 43.2526 72.4627 43.7925 71.8429 44.2244C71.2231 44.6562 70.4779 44.9798 69.6068 45.1958C68.7358 45.4116 67.7706 45.5194 66.7113 45.5194H57.7407V26.6309ZM65.6198 34.2671C66.5375 34.2671 67.2661 34.1101 67.8055 33.795C68.3451 33.4802 68.6149 32.9718 68.6149 32.2705V32.2165C68.6149 31.5871 68.3808 31.106 67.9132 30.7729C67.4453 30.4401 66.7707 30.2736 65.8896 30.2736H61.788V34.2671H65.6198ZM66.7263 41.8769C67.6437 41.8769 68.3628 41.7109 68.8849 41.3778C69.4065 41.045 69.6676 40.5276 69.6676 39.826V39.7723C69.6676 39.1426 69.4245 38.6435 68.939 38.2744C68.4531 37.9062 67.6707 37.7216 66.5912 37.7216H61.788V41.8772L66.7263 41.8769Z" fill="white"/>
<path d="M78.9844 26.6309H83.1402V45.5199H78.9844V26.6309Z" fill="white"/>
<path d="M89.4331 26.6309H93.2643L102.115 38.2612V26.6309H106.217V45.5199H102.682L93.5344 33.512V45.5199H89.4331V26.6309Z" fill="white"/>
<path d="M118.798 26.498H122.629L130.725 45.5219H126.38L124.653 41.2855H116.666L114.939 45.5219H110.702L118.798 26.498ZM123.169 37.6152L120.659 31.49L118.15 37.6152H123.169Z" fill="white"/>
<path d="M135.21 26.6309H139.043L147.893 38.2612V26.6309H151.995V45.5199H148.46L139.312 33.512V45.5199H135.21V26.6309Z" fill="white"/>
<path d="M166.95 45.845C165.564 45.845 164.279 45.5929 163.091 45.0896C161.904 44.5863 160.878 43.8979 160.015 43.0252C159.151 42.1528 158.476 41.1228 157.991 39.9356C157.505 38.7481 157.263 37.4798 157.263 36.1305V36.0768C157.263 34.7275 157.505 33.464 157.991 32.2855C158.477 31.1073 159.151 30.0728 160.015 29.1824C160.878 28.292 161.913 27.5901 163.118 27.0775C164.323 26.5649 165.655 26.3086 167.112 26.3086C167.993 26.3086 168.798 26.3809 169.526 26.5244C170.255 26.6687 170.916 26.8662 171.51 27.118C172.104 27.3701 172.652 27.6759 173.156 28.0354C173.659 28.3955 174.127 28.7911 174.559 29.2229L171.915 32.272C171.177 31.6067 170.426 31.0845 169.662 30.707C168.897 30.3294 168.038 30.1404 167.085 30.1404C166.293 30.1404 165.56 30.2934 164.886 30.5992C164.211 30.905 163.631 31.3276 163.145 31.8672C162.66 32.4068 162.282 33.0322 162.011 33.7426C161.742 34.4535 161.607 35.2134 161.607 36.0228V36.0765C161.607 36.8859 161.742 37.6509 162.011 38.37C162.282 39.0899 162.654 39.7192 163.132 40.2588C163.608 40.7984 164.184 41.2261 164.858 41.5409C165.533 41.856 166.275 42.0129 167.085 42.0129C168.164 42.0129 169.076 41.8152 169.823 41.4193C170.57 41.0241 171.312 40.4842 172.05 39.8003L174.694 42.4718C174.208 42.9937 173.704 43.4615 173.183 43.8748C172.661 44.2889 172.09 44.644 171.469 44.9411C170.849 45.2376 170.169 45.4629 169.432 45.6154C168.694 45.7682 167.867 45.845 166.95 45.845Z" fill="white"/>
<path d="M179.586 26.6309H193.807V30.3279H183.688V34.1596H192.593V37.8564H183.688V41.8232H193.943V45.5199H179.586V26.6309Z" fill="white"/>
</g>
<defs>
<clipPath id="clip0_2601_7679">
<rect width="177.807" height="35.62" fill="white" transform="translate(16 18)"/>
</clipPath>
</defs>
</svg>
