<svg width="210" height="72" viewBox="0 0 210 72" fill="none" xmlns="http://www.w3.org/2000/svg">
<path fill-rule="evenodd" clip-rule="evenodd" d="M10.7348 16.11C15.4241 21.8589 20.573 29.0812 21.4058 30.2494C21.4502 30.3117 21.4823 30.3567 21.5014 30.3835C21.9454 31.0033 22.3119 31.464 22.5902 31.8139C23.208 32.5906 23.3914 32.8211 23.0227 33.0328C22.7253 33.2035 22.4186 33.2598 22.1125 33.2598C21.7662 33.2598 21.3762 33.0914 21.0921 32.8193C20.8914 32.627 19.5177 30.6117 17.6471 27.6801C16.2159 25.4369 15.0181 23.576 14.9854 23.5449C14.9099 23.4728 14.9112 23.4753 17.5012 28.1562C19.1275 31.0955 20.24 33.2675 20.24 33.4065C20.24 33.6891 20.1636 33.8377 19.8184 34.2267C19.2429 34.8752 18.9856 35.6039 18.7999 37.1118C18.5917 38.8022 18.0063 39.9965 16.3839 42.04C15.4343 43.2364 15.2789 43.4556 15.0392 43.9379C14.7374 44.5451 14.6544 44.8852 14.6208 45.6519C14.5852 46.4627 14.6545 46.9864 14.8997 47.7614C15.1144 48.44 15.3384 48.8882 15.9113 49.7844C16.4056 50.5576 16.6903 51.1324 16.6903 51.3573C16.6903 51.5362 16.7241 51.5364 17.4901 51.3618C19.3234 50.9435 20.812 50.2082 21.6492 49.3069C22.1673 48.7489 22.289 48.4409 22.2929 47.6765C22.2955 47.1765 22.2781 47.0719 22.1443 46.7842C21.9265 46.3158 21.5299 45.9267 20.6559 45.3232C19.5107 44.5324 19.0216 43.8958 18.8865 43.0203C18.7757 42.3021 18.9043 41.7952 19.5378 40.4541C20.1935 39.0658 20.356 38.4743 20.4659 37.0749C20.5369 36.1708 20.6352 35.8143 20.8924 35.5282C21.1606 35.2298 21.402 35.1287 22.0658 35.037C23.1478 34.8878 23.8369 34.605 24.4032 34.0778C24.8945 33.6205 25.1002 33.1798 25.1317 32.5165L25.1557 32.0137L24.8811 31.6904C23.8868 30.5194 10.0689 15.1895 10.0077 15.1895C9.99463 15.1895 10.3218 15.6037 10.7348 16.11ZM17.2484 46.5693C17.4733 46.167 17.3538 45.6502 16.9778 45.3975C16.6224 45.1589 16.0705 45.2714 16.0705 45.5823C16.0705 45.6772 16.1225 45.7462 16.2396 45.8072C16.4367 45.9097 16.451 46.0248 16.2959 46.2603C16.1388 46.4989 16.1515 46.7085 16.3317 46.8509C16.6221 47.0807 17.0331 46.9543 17.2484 46.5693ZM24.015 24.6396C23.5714 24.5701 23.5527 24.5619 23.7614 24.5295C24.1615 24.4674 25.1061 24.5521 25.757 24.7084C27.2766 25.0733 28.6594 26.0079 30.1355 27.6679L30.5275 28.1089L31.0886 28.0178C33.4519 27.6342 35.856 27.9391 37.8669 28.8774C38.4202 29.1355 39.2923 29.6494 39.4013 29.7814C39.4359 29.8235 39.4998 30.0944 39.5428 30.3835C39.6923 31.3835 39.6176 32.1501 39.3146 32.7226C39.15 33.0342 39.1408 33.1329 39.2515 33.3995C39.3399 33.6123 39.5865 33.7698 39.8307 33.7694C40.3304 33.7687 40.8681 32.9528 41.1175 31.8175L41.2164 31.3665L41.4126 31.5909C42.4881 32.8219 43.3331 34.5007 43.4782 35.6956L43.516 36.0071L43.3353 35.724C43.0239 35.2366 42.7114 34.9048 42.3109 34.6372C41.5893 34.1548 40.8261 33.9907 38.8052 33.8831C36.9799 33.786 35.947 33.6285 34.9227 33.2911C33.1797 32.7172 32.3012 31.9528 30.2309 29.2092C29.3114 27.9906 28.7431 27.3164 28.1777 26.7735C26.8931 25.5398 25.6308 24.8927 24.015 24.6396ZM39.8129 27.3604C39.8589 26.5438 39.9686 26.0052 40.189 25.5134C40.2762 25.3187 40.3579 25.1593 40.3704 25.1593C40.3832 25.1593 40.3452 25.303 40.2862 25.4786C40.126 25.956 40.0996 26.6089 40.2101 27.3685C40.3501 28.3324 40.4299 28.4715 41.4384 29.5126C41.9114 30.001 42.4617 30.6169 42.6612 30.8813L43.0239 31.3622L42.6612 31.0185C42.2177 30.5983 41.1976 29.7788 40.9724 29.6617C40.8212 29.5831 40.7987 29.5845 40.7056 29.6781C40.6198 29.7645 40.6016 29.8942 40.5897 30.5075C40.5711 31.4633 40.4422 32.0768 40.1309 32.6902C39.9625 33.022 39.9359 32.9512 40.0883 32.5767C40.2021 32.2971 40.2136 32.1741 40.2128 31.2489C40.2111 29.3898 39.9924 28.9428 38.711 28.1772C38.3865 27.9832 37.8515 27.7035 37.5224 27.5555C37.1934 27.4076 36.932 27.2787 36.9414 27.2691C36.9777 27.2326 38.2275 27.601 38.7305 27.7965C39.4787 28.0872 39.6021 28.1248 39.693 28.0898C39.7539 28.0663 39.7834 27.8871 39.8129 27.3604ZM23.5395 25.9331C23.4189 27.3684 23.9761 29.2885 24.8766 30.5408C25.5747 31.5115 26.6569 32.2659 27.4558 32.3388C27.9789 32.3865 28.1361 32.221 27.8994 31.872C27.5709 31.3873 27.1668 30.641 27.0598 30.3215C26.9934 30.1231 26.8491 29.5368 26.739 29.0187C26.3634 27.2499 25.9942 26.561 25.1413 26.0379C24.8305 25.8472 24.1668 25.5976 23.7818 25.5267L23.5769 25.4889L23.5395 25.9331ZM38.7207 39.8609C34.5122 38.1494 33.0299 36.6638 33.0299 34.1571C33.0299 33.7882 33.0426 33.4864 33.0578 33.4864C33.0733 33.4864 33.236 33.6081 33.4196 33.757C34.273 34.4483 35.2287 34.7436 37.8744 35.1334C39.431 35.363 40.3071 35.5482 41.1153 35.819C43.6839 36.6794 45.2732 38.4256 45.6522 40.8041C45.7623 41.4952 45.6978 42.7911 45.5192 43.4742C45.3782 44.0138 44.948 44.9861 44.834 45.0234C44.8023 45.0338 44.7712 44.9114 44.7632 44.7447C44.72 43.8516 44.2731 42.9822 43.5228 42.3308C42.6696 41.5902 41.5232 41.0008 38.7207 39.8609ZM35.5629 39.6726C35.622 39.8504 35.7135 40.255 35.7661 40.572C36.1032 42.5983 35.0502 44.2355 33.0017 44.8699C32.7848 44.937 31.9307 45.1059 31.1035 45.245C29.429 45.5266 28.6816 45.726 27.9309 46.0913C27.3984 46.3505 26.7538 46.7384 26.7921 46.777C26.8044 46.7895 26.926 46.7601 27.0621 46.7118C28.0089 46.3761 29.0626 46.2022 30.6635 46.1181C31.2988 46.0849 32.0214 46.0317 32.2694 46.0002C33.6955 45.8187 34.6841 45.3811 35.4528 44.5908C35.8805 44.151 36.1355 43.7413 36.341 43.1637C36.4713 42.7972 36.4889 42.6611 36.4898 42.0119C36.491 41.3503 36.4752 41.2292 36.334 40.8223C36.1492 40.2888 35.9311 39.8885 35.655 39.5754L35.4555 39.3494L35.5629 39.6726ZM37.6954 44.0327C37.1361 42.8185 37.0079 41.6464 37.3141 40.5532C37.347 40.4363 37.3996 40.3406 37.4314 40.3406C37.4631 40.3406 37.5949 40.4128 37.7246 40.5008C37.9821 40.676 38.499 40.9711 39.8757 41.7293C41.5938 42.6754 42.5734 43.4079 43.2394 44.2451C43.8228 44.978 44.1838 45.8129 44.3574 46.8309C44.456 47.4076 44.3983 48.7953 44.2518 49.3759C43.7899 51.2069 42.7163 52.645 41.1851 53.4843C40.9608 53.6071 40.7594 53.708 40.7375 53.7086C40.7158 53.709 40.7975 53.4992 40.9192 53.242C41.4343 52.1543 41.4929 51.0964 41.1036 49.9189C40.865 49.1979 40.3788 48.3181 39.3972 46.8311C38.2559 45.1024 37.9761 44.6423 37.6954 44.0327ZM27.1629 48.015C25.3929 48.3054 23.4497 49.2515 21.8879 50.5834L21.423 50.98L21.8316 51.0446C23.9639 51.3807 24.5381 51.679 26.0172 53.218C26.8684 54.1034 27.1559 54.3006 27.8618 54.4826C28.8988 54.75 29.9209 54.2587 30.2716 53.3244C30.4282 52.9068 30.4073 52.2156 30.2276 51.8684C29.8001 51.0418 28.5546 50.7747 27.9524 51.3801C27.4507 51.8845 27.5969 52.6442 28.2208 52.7748C28.3636 52.805 28.3596 52.7985 28.1844 52.7185C27.9114 52.5938 27.7928 52.4209 27.7912 52.1457C27.7878 51.5006 28.5186 51.1384 29.1986 51.4482C29.6964 51.6752 29.8941 51.9717 29.8941 52.4915C29.8941 53.2919 29.2197 53.895 28.4348 53.7964C28.0153 53.7436 27.5023 53.4726 27.2271 53.1585C26.5349 52.3679 26.8046 51.1202 27.7711 50.6415C28.5069 50.2772 29.4849 50.367 30.2434 50.8686C31.1148 51.4451 31.4854 51.9719 32.2359 53.701C32.4804 54.264 32.7948 54.8978 32.9346 55.1094C33.6457 56.1844 34.4975 56.7116 35.5236 56.7116C36.0895 56.7116 36.5153 56.6071 37.0509 56.3371C37.4488 56.1362 38.013 55.7547 37.9723 55.7138C37.9608 55.7023 37.7958 55.7541 37.6055 55.829C36.4851 56.2704 35.3462 56.2401 34.6849 55.751C34.2683 55.4432 33.9324 54.8299 33.7597 54.063C33.7298 53.9302 33.6312 53.3439 33.5405 52.76C33.3105 51.28 33.0897 50.6147 32.5748 49.8513C32.048 49.0702 31.0352 48.4147 29.9029 48.122C29.1965 47.9393 27.9257 47.8897 27.1629 48.015ZM24.6839 36.5725C24.8367 36.0022 25.3305 35.4584 25.8385 35.3008C26.1616 35.2007 26.8292 35.2646 27.1432 35.4257C27.7516 35.7382 28.1933 36.4499 28.0974 36.9636C27.9805 37.59 26.9748 38.0912 25.818 38.0994C25.2271 38.1035 25.0089 38.0233 24.7832 37.719C24.6436 37.5305 24.5906 36.9204 24.6839 36.5725ZM26.9878 35.6491C27.2912 35.8362 27.3693 36.1129 27.1909 36.3689C27.068 36.5453 26.6876 36.7129 26.4096 36.7129C25.9919 36.7129 25.5363 36.4133 25.5363 36.1389C25.5363 35.5877 26.41 35.2926 26.9878 35.6491ZM117.667 37.2276C116.723 34.0884 118.28 31.4846 121.6 30.6479C122.553 30.4078 126.865 30.5161 127.604 30.7988C127.876 30.9023 127.994 31.2999 127.996 32.117C127.998 32.7605 128.068 33.542 128.152 33.8536C128.279 34.326 128.205 34.419 127.706 34.4114C127.255 34.4044 126.983 34.1401 126.602 33.3407C125.994 32.0638 125.258 31.6577 123.542 31.6529C121.352 31.6466 119.749 33.1213 120.01 34.903C120.18 36.0625 121.339 37.2033 123.938 38.7717C126.412 40.2636 127.856 41.4905 128.431 42.5897C129.969 45.5285 128.656 48.6735 125.228 50.258C123.469 51.0714 120.521 51.1554 118.448 50.4514L117.121 50.0005V47.8795C117.121 45.9586 117.166 45.7581 117.604 45.7581C117.97 45.7581 118.129 46.0002 118.257 46.7586C118.577 48.6443 120.01 49.7891 122.051 49.7891C124.05 49.7891 125.448 48.6967 125.983 46.7159C126.212 45.8721 126.172 45.561 125.72 44.6301C125.178 43.5141 124.244 42.7735 121.074 40.9447C119.315 39.9298 118.071 38.5728 117.667 37.2276ZM55.5233 31.901C55.0907 31.901 54.9219 31.7597 54.9219 31.3972C54.9219 30.9172 55.0907 30.8933 58.4803 30.8933C61.6264 30.8933 62.029 30.9406 61.9568 31.3017C61.9117 31.5264 61.4769 31.8381 60.9902 31.9945L60.1051 32.279L60.0296 38.7036C59.979 42.9906 60.0502 45.4636 60.2432 46.1359C60.8171 48.1355 62.568 49.2854 65.0382 49.2854C66.7579 49.2854 67.7625 48.8833 69.0246 47.6892C70.3822 46.4056 70.5986 45.1859 70.5943 38.8468C70.5902 32.594 70.4813 32.0779 69.1384 31.9482C68.5273 31.889 68.3226 31.7466 68.3226 31.3813C68.3226 30.9258 68.5242 30.8933 71.3566 30.8933C74.2221 30.8933 74.3907 30.9212 74.3907 31.3972C74.3907 31.7076 74.2207 31.9026 73.9481 31.9048C72.7771 31.9151 72.7556 32.0266 72.598 38.883C72.4345 46.0031 72.2818 46.8462 70.8388 48.5903C70.4226 49.0935 69.4302 49.8241 68.6335 50.214C67.3352 50.8494 66.9222 50.9223 64.6563 50.9182C62.5676 50.9139 61.9081 50.813 60.8637 50.3376C59.3391 49.6436 58.3477 48.7454 57.6167 47.3957C57.1065 46.4535 57.0629 45.9437 56.9448 39.5602C56.8094 32.2533 56.7439 31.901 55.5233 31.901ZM79.1827 31.901C78.6047 31.901 78.4361 31.7872 78.4361 31.3972C78.4361 30.9248 78.5976 30.8945 81.0276 30.9139L83.6193 30.9346L84.8593 32.3626C85.5408 33.1479 87.7631 35.6047 89.7971 37.8217C91.8313 40.0389 94.1666 42.6181 94.9866 43.5534C95.8067 44.489 96.5786 45.2542 96.702 45.2542C96.8287 45.2542 96.8919 42.6118 96.8467 39.1853L96.7669 33.1164L96.0574 32.5088C95.6673 32.1744 95.0703 31.901 94.7302 31.901C94.2779 31.901 94.1122 31.764 94.1122 31.3901C94.1122 30.898 94.2413 30.8817 97.5886 30.9492C100.435 31.0066 101.065 31.086 101.065 31.3868C101.065 31.6012 100.713 31.8262 100.22 31.9268C99.7554 32.0215 99.2432 32.2301 99.0823 32.3903C98.8746 32.5972 98.7688 35.2716 98.7174 41.6133L98.6448 50.5449H97.9121C97.2812 50.5449 96.5303 49.8351 92.5155 45.4431C89.9504 42.6368 86.9563 39.3018 85.8619 38.0319C84.7674 36.7618 83.7867 35.713 83.6825 35.7015C83.3889 35.6686 83.4599 47.0159 83.7601 48.093C83.9942 48.9324 84.1551 49.0769 85.1495 49.3421C85.9503 49.5554 86.2742 49.7719 86.2742 50.0934C86.2742 50.5062 85.9689 50.5449 82.7344 50.5449C79.4418 50.5449 79.1947 50.5121 79.1947 50.0727C79.1947 49.751 79.4329 49.5529 79.9417 49.4514C81.4856 49.1438 81.5881 48.6555 81.6747 41.1911C81.7232 37.0105 81.652 34.0854 81.4864 33.473C81.1954 32.3959 80.4703 31.901 79.1827 31.901ZM105.695 31.901C105.153 31.901 104.984 31.7814 104.984 31.3972C104.984 30.9157 105.153 30.8933 108.777 30.8933C112.401 30.8933 112.57 30.9157 112.57 31.3972C112.57 31.7668 112.401 31.901 111.937 31.901C111.59 31.901 111.073 32.1324 110.789 32.415C110.289 32.9141 110.276 33.1623 110.347 40.8759C110.416 48.4057 110.446 48.8414 110.911 49.1799C111.181 49.3765 111.665 49.5372 111.986 49.5372C112.401 49.5372 112.57 49.6825 112.57 50.0412C112.57 50.5226 112.401 50.5449 108.777 50.5449C105.239 50.5449 104.984 50.5132 104.984 50.0734C104.984 49.7187 105.232 49.5621 105.986 49.442C107.482 49.2036 107.559 48.7155 107.465 40.0056C107.391 33.0306 107.359 32.5957 106.896 32.2583C106.625 32.0618 106.085 31.901 105.695 31.901ZM132.15 31.901C131.804 31.901 131.541 31.7093 131.459 31.3972C131.332 30.9099 131.452 30.8933 135.096 30.8933C138.696 30.8933 138.865 30.9157 138.865 31.3972C138.865 31.7844 138.696 31.901 138.137 31.901C136.545 31.901 136.581 32.1893 138.99 38.7781C140.216 42.1321 141.407 45.3181 141.636 45.858L142.052 46.8399L143.983 41.7009C146.256 35.6518 146.551 34.5331 146.165 33.4299C145.896 32.6609 144.85 31.901 144.061 31.901C143.838 31.901 143.669 31.6844 143.669 31.3972C143.669 30.9149 143.838 30.8933 147.588 30.8933C151.338 30.8933 151.507 30.9149 151.507 31.3972C151.507 31.7557 151.338 31.901 150.923 31.901C149.86 31.901 149.391 32.4659 149.544 33.5634C149.701 34.6931 154.05 46.835 154.232 46.6534C154.529 46.3579 159.345 33.287 159.345 32.7776C159.345 32.1671 158.916 31.901 157.934 31.901C157.491 31.901 157.322 31.7622 157.322 31.3972C157.322 30.9212 157.491 30.8933 160.356 30.8933C162.93 30.8933 163.39 30.9528 163.39 31.2843C163.39 31.4995 163.075 31.7849 162.69 31.9187C161.823 32.2198 161.605 32.5634 160.518 35.3471C160.041 36.5695 158.546 40.3954 157.197 43.8485C155.848 47.302 154.687 50.2782 154.616 50.4622C154.545 50.6464 154.127 50.797 153.686 50.797H152.886L151.07 46.073C150.071 43.475 148.891 40.397 148.448 39.233C147.688 37.2385 147.624 37.1519 147.338 37.7212C147.171 38.0538 145.971 41.1373 144.671 44.5736L142.307 50.8216L141.425 50.7463L140.543 50.6711L137.179 41.8726C135.299 36.9569 133.57 32.8151 133.261 32.4876C132.957 32.1649 132.457 31.901 132.15 31.901ZM182.706 32.0079C182.664 31.9122 182.664 31.5682 182.664 31.5682C182.664 31.5682 182.654 31.4442 182.706 31.378C182.758 31.3121 182.776 31.3103 182.962 31.2926L182.964 31.2924C183.647 31.2275 185.016 31.1182 186.159 31.0684C186.264 31.0638 186.38 31.0585 186.507 31.0528L186.509 31.0527L186.511 31.0526L186.512 31.0525C187.77 30.9955 190.021 30.9191 191.568 30.9964C194.537 31.1448 196.648 32.5797 197.368 34.9509C198.087 37.322 197.707 39.5479 196.726 40.9647C195.745 42.3815 194.096 43.6013 191.355 43.5219C189.092 43.4564 188.486 43.0327 188.002 42.6941C187.9 42.6226 187.803 42.5547 187.697 42.4951V45.5189C187.721 47.5813 187.739 48.5718 187.898 48.9384C188.113 49.432 188.6 49.7361 189.547 49.9692C189.547 49.9692 189.976 50.0697 190.087 50.1769C190.197 50.284 190.197 50.522 190.197 50.522C190.197 50.522 190.22 50.7446 190.131 50.858C190.042 50.9714 189.871 50.9487 189.871 50.9487L185.674 50.9149L183.144 50.9083C183.144 50.9083 182.878 50.9591 182.779 50.8523C182.679 50.7454 182.688 50.5226 182.688 50.5226C182.688 50.5226 182.71 50.2827 182.826 50.1753C182.943 50.0678 183.375 49.9477 183.375 49.9477C184.35 49.6737 184.774 49.3839 184.995 48.8379C185.173 48.3977 185.174 47.5815 185.172 40.9203C185.171 34.6032 185.161 33.4249 185.016 33.086C184.802 32.5843 184.265 32.4514 183.501 32.2621L183.501 32.2621C183.349 32.2245 183.189 32.1848 183.02 32.1395C183.02 32.1395 182.748 32.1036 182.706 32.0079ZM194.925 37.1625C194.925 38.1983 194.907 39.8201 193.804 40.8567C192.702 41.8933 190.53 42.1771 189.056 41.8885C188.592 41.7975 188.326 41.6573 188.121 41.5492L188.101 41.5384L187.724 41.3397L187.702 37.7002C187.688 35.4199 187.712 33.9342 187.766 33.7218C187.815 32.5194 189.588 32.3698 190.455 32.4143C194.163 32.4143 194.817 35.5382 194.925 37.1625ZM171.063 31.0344C171.063 31.0344 170.882 31.1039 170.608 31.208L169.618 31.7193L168.905 33.499C168.513 34.4778 167.796 36.2746 167.311 37.492C166.429 39.7092 165.846 41.1659 165.233 42.6863C165.053 43.1336 164.508 44.4954 164.023 45.7127C163.537 46.9299 163.052 48.0884 162.945 48.287C162.927 48.3201 162.908 48.3557 162.888 48.3932C162.617 48.9032 162.145 49.7891 161.313 49.9231C161.313 49.9231 160.855 49.968 160.686 50.1354C160.516 50.303 160.532 50.4399 160.532 50.4399V50.6509C160.532 50.6509 160.548 50.7532 160.644 50.804C160.74 50.8551 160.87 50.858 160.87 50.858L163.915 50.8234H167.062C167.062 50.8234 167.285 50.8494 167.371 50.7782C167.457 50.707 167.48 50.6014 167.48 50.6014V50.3793C167.48 50.3793 167.436 50.1384 167.312 50.0443C167.187 49.9504 166.72 49.8861 166.72 49.8861C165.46 49.7205 165.243 48.7675 165.399 47.9106C165.475 47.4896 165.981 45.9322 166.552 44.3642L166.749 43.8223L170.047 43.7971C171.86 43.7832 173.426 43.7926 173.527 43.818C173.67 43.8542 173.87 44.2611 174.459 45.7106C175.35 47.9067 175.421 48.1742 175.224 48.5851C175.212 48.6101 175.199 48.6377 175.185 48.6674C175 49.0648 174.64 49.8368 173.734 49.9154C173.734 49.9154 173.254 49.932 173.134 50.0758C173.014 50.2197 173.04 50.3852 173.04 50.3852V50.605C173.04 50.605 173.072 50.7338 173.134 50.7849C173.196 50.8359 173.3 50.823 173.3 50.823L176.293 50.8015L180.501 50.8013C180.501 50.8013 180.666 50.8189 180.711 50.7555C180.756 50.692 180.765 50.6173 180.765 50.6173V50.3253C180.765 50.3253 180.747 50.17 180.666 50.0844C180.585 49.9989 180.04 49.9086 180.04 49.9086C179.343 49.7961 178.995 49.2208 178.737 48.7924C178.671 48.683 178.611 48.5833 178.552 48.5033C178.432 48.34 178.004 47.4452 177.669 46.5845C177.334 45.7239 176.578 43.7797 175.989 42.2643C175.4 40.749 174.578 38.635 174.163 37.5669C173.747 36.4986 172.958 34.466 172.408 33.0499C172.318 32.8175 172.237 32.6087 172.165 32.4219L172.164 32.421C171.796 31.4701 171.647 31.0863 171.606 31.0344C171.474 30.8657 171.063 31.0344 171.063 31.0344ZM170.867 36.821C170.735 36.4982 170.501 35.9189 170.348 35.5339C170.07 34.834 169.965 34.6728 169.879 34.8174C169.854 34.8596 169.679 35.3379 169.49 35.8804C168.27 39.3926 167.718 40.974 167.607 41.2721C167.537 41.4594 167.48 41.6524 167.48 41.7011C167.48 41.757 168.473 41.7897 170.173 41.7897C171.655 41.7897 172.866 41.7713 172.866 41.7488C172.866 41.7263 172.734 41.3912 172.573 41.0036C172.411 40.616 172.016 39.6486 171.694 38.8536C171.373 38.0587 171 37.1441 170.867 36.821Z" fill="white"/>
</svg>
