<svg width="210" height="72" viewBox="0 0 210 72" fill="none" xmlns="http://www.w3.org/2000/svg">
<g clip-path="url(#clip0_2601_7805)">
<path d="M59.45 36.225C59.45 46.8421 50.8421 55.45 40.225 55.45C29.6079 55.45 21 46.8421 21 36.225C21 25.6079 29.6079 17 40.225 17C50.8443 17 59.45 25.6079 59.45 36.225Z" fill="white"/>
<path d="M30.485 36.8692L30.5679 36.7389L35.5691 28.9151C35.6422 28.8006 35.814 28.8124 35.8693 28.9369C36.7049 30.8093 37.4258 33.1381 37.088 34.5879C36.9439 35.1844 36.5488 35.9922 36.1044 36.7389C36.0471 36.8475 35.9839 36.9542 35.9167 37.0569C35.8851 37.1043 35.8318 37.1319 35.7745 37.1319H30.6311C30.4929 37.1319 30.4119 36.9818 30.485 36.8692Z" fill="#0E1549"/>
<path d="M52.777 38.3223V39.5607C52.777 39.6318 52.7335 39.695 52.6703 39.7226C52.2832 39.8886 50.9578 40.4969 50.4068 41.2633C49.0004 43.2207 47.9259 46.0196 45.5241 46.0196H35.5039C31.9526 46.0196 29.0747 43.1318 29.0747 39.5686V39.454C29.0747 39.3592 29.1517 39.2822 29.2465 39.2822H34.8324C34.943 39.2822 35.024 39.3849 35.0141 39.4935C34.9746 39.8569 35.0418 40.2283 35.2136 40.566C35.5454 41.2396 36.2328 41.6603 36.9754 41.6603H39.7407V39.5014H37.0071C36.8668 39.5014 36.7839 39.3394 36.8649 39.2249C36.8945 39.1795 36.9281 39.1321 36.9636 39.0788C37.2224 38.7114 37.5917 38.1405 37.9591 37.4907C38.21 37.0522 38.4529 36.5841 38.6484 36.114C38.688 36.0291 38.7195 35.9421 38.7511 35.8572C38.8045 35.7071 38.8598 35.5668 38.8993 35.4266C38.9388 35.3081 38.9704 35.1837 39.002 35.0671C39.0949 34.6681 39.1343 34.2454 39.1343 33.807C39.1343 33.6351 39.1265 33.4554 39.1107 33.2835C39.1027 33.0959 39.079 32.9082 39.0553 32.7206C39.0395 32.5547 39.0099 32.3907 38.9783 32.2189C38.9388 31.968 38.8835 31.7192 38.8203 31.4683L38.7986 31.3735C38.7511 31.2017 38.7117 31.0377 38.6564 30.8659C38.5003 30.3267 38.3206 29.8013 38.1309 29.3095C38.0618 29.1139 37.9828 28.9263 37.9038 28.7386C37.7873 28.4562 37.6687 28.1994 37.5601 27.9564C37.5048 27.8458 37.4574 27.7451 37.41 27.6424C37.3567 27.5258 37.3014 27.4093 37.2461 27.2987C37.2066 27.2138 37.1611 27.1348 37.1295 27.0558L36.7918 26.4316C36.7444 26.3467 36.8234 26.2459 36.9162 26.2716L39.0297 26.8444H39.0356C39.0395 26.8444 39.0415 26.8464 39.0435 26.8464L39.322 26.9234L39.6282 27.0103L39.7407 27.0419V25.7857C39.7407 25.1793 40.2266 24.6875 40.8271 24.6875C41.1273 24.6875 41.3999 24.81 41.5954 25.0094C41.791 25.209 41.9134 25.4815 41.9134 25.7857V27.6503L42.1386 27.7135C42.1564 27.7194 42.1742 27.7273 42.19 27.7392C42.2453 27.7806 42.3243 27.8419 42.425 27.917C42.504 27.9801 42.589 28.0572 42.6917 28.1362C42.8951 28.3001 43.1381 28.5115 43.4047 28.7544C43.4758 28.8156 43.5449 28.8789 43.6082 28.9421C43.9519 29.2621 44.337 29.6373 44.7044 30.0521C44.8071 30.1687 44.9078 30.2872 45.0105 30.4116C45.1132 30.538 45.2219 30.6624 45.3167 30.7869C45.4411 30.9528 45.5754 31.1246 45.692 31.3044C45.7473 31.3893 45.8105 31.4762 45.8638 31.5612C46.0139 31.7883 46.1463 32.0234 46.2727 32.2584C46.326 32.367 46.3813 32.4855 46.4287 32.6021C46.569 32.9161 46.6796 33.2361 46.7507 33.5561C46.7724 33.6252 46.7882 33.7003 46.7961 33.7675V33.7833C46.8198 33.878 46.8277 33.9788 46.8356 34.0815C46.8672 34.4094 46.8514 34.7373 46.7803 35.0671C46.7507 35.2074 46.7112 35.3397 46.6638 35.48C46.6164 35.6143 46.569 35.7545 46.5077 35.8868C46.3892 36.1614 46.249 36.4359 46.0831 36.6927C46.0297 36.7875 45.9665 36.8883 45.9033 36.9831C45.8342 37.0838 45.7631 37.1786 45.6999 37.2715C45.613 37.39 45.5202 37.5144 45.4253 37.625C45.3404 37.7415 45.2535 37.8581 45.1587 37.9608C45.0263 38.1168 44.8999 38.265 44.7676 38.4072C44.6886 38.5 44.6037 38.5948 44.5167 38.6798C44.4318 38.7745 44.3449 38.8595 44.2659 38.9385C44.1336 39.0708 44.0229 39.1735 43.9301 39.2585L43.7128 39.458C43.6812 39.4856 43.6398 39.5014 43.5963 39.5014H41.9134V41.6603H44.0308C44.5049 41.6603 44.9552 41.4924 45.3187 41.1843C45.4431 41.0757 45.9863 40.6056 46.6282 39.8965C46.6499 39.8727 46.6776 39.855 46.7092 39.8471L52.5577 38.1563C52.6664 38.1247 52.777 38.2077 52.777 38.3223Z" fill="#0E1549"/>
<path d="M78.1832 45.4499C76.4453 45.4499 74.8477 45.0605 73.3908 44.2816C71.9513 43.5026 70.8012 42.4189 69.9411 41.0304C69.0987 39.6249 68.6772 38.0501 68.6772 36.306C68.6772 34.5619 69.0987 32.9956 69.9411 31.6071C70.8012 30.2186 71.9513 29.1348 73.3908 28.3559C74.8477 27.577 76.4453 27.1875 78.1832 27.1875C79.9212 27.1875 81.5099 27.577 82.9495 28.3559C84.4068 29.1348 85.5476 30.2186 86.3727 31.6071C87.2155 32.9956 87.6366 34.5619 87.6366 36.306C87.6366 38.0501 87.2155 39.6249 86.3727 41.0304C85.5303 42.4189 84.3891 43.5026 82.9495 44.2816C81.5099 45.0605 79.9212 45.4499 78.1832 45.4499ZM78.1832 41.4876C79.6578 41.4876 80.834 41.0134 81.7118 40.0652C82.6073 39.1169 83.0549 37.8639 83.0549 36.306C83.0549 34.7312 82.6073 33.4782 81.7118 32.5469C80.834 31.5986 79.6578 31.1245 78.1832 31.1245C76.691 31.1245 75.4975 31.5901 74.602 32.5214C73.7242 33.4528 73.2855 34.7143 73.2855 36.306C73.2855 37.8808 73.7242 39.1423 74.602 40.0906C75.4975 41.0219 76.691 41.4876 78.1832 41.4876Z" fill="white"/>
<path d="M94.6445 33.1063C95.0832 32.4459 95.6888 31.9125 96.4612 31.5061C97.2337 31.0997 98.1377 30.8965 99.1735 30.8965C100.385 30.8965 101.482 31.1928 102.465 31.7855C103.448 32.3782 104.22 33.2248 104.782 34.3255C105.362 35.4261 105.651 36.7046 105.651 38.1608C105.651 39.6171 105.362 40.904 104.782 42.0216C104.22 43.1223 103.448 43.9774 102.465 44.587C101.482 45.1797 100.385 45.476 99.1735 45.476C98.1553 45.476 97.2514 45.2728 96.4612 44.8664C95.6888 44.46 95.0832 43.9351 94.6445 43.2916V49.4891H90.1416V31.0997H94.6445V33.1063ZM101.069 38.1608C101.069 37.0771 100.753 36.2305 100.121 35.6209C99.5069 34.9943 98.7432 34.6811 97.8304 34.6811C96.9353 34.6811 96.1717 34.9943 95.5396 35.6209C94.9252 36.2474 94.6179 37.1025 94.6179 38.1862C94.6179 39.27 94.9252 40.1251 95.5396 40.7516C96.1717 41.3781 96.9353 41.6914 97.8304 41.6914C98.7259 41.6914 99.4896 41.3781 100.121 40.7516C100.753 40.1081 101.069 39.2446 101.069 38.1608Z" fill="white"/>
<path d="M121.867 37.9576C121.867 38.3641 121.841 38.7873 121.788 39.2276H111.597C111.668 40.1081 111.957 40.7855 112.466 41.2596C112.993 41.7168 113.634 41.9454 114.389 41.9454C115.512 41.9454 116.293 41.4882 116.732 40.5738H121.525C121.279 41.5051 120.832 42.3433 120.182 43.0884C119.55 43.8334 118.751 44.4177 117.786 44.841C116.82 45.2643 115.74 45.476 114.547 45.476C113.107 45.476 111.826 45.1797 110.702 44.587C109.579 43.9943 108.701 43.1477 108.069 42.047C107.437 40.9464 107.121 39.6594 107.121 38.1862C107.121 36.713 107.428 35.4261 108.043 34.3255C108.674 33.2248 109.552 32.3782 110.676 31.7855C111.799 31.1928 113.09 30.8965 114.547 30.8965C115.969 30.8965 117.233 31.1844 118.338 31.7601C119.445 32.3358 120.305 33.1571 120.919 34.2239C121.551 35.2907 121.867 36.5353 121.867 37.9576ZM117.259 36.8146C117.259 36.0696 116.996 35.4769 116.469 35.0367C115.942 34.5964 115.284 34.3763 114.494 34.3763C113.739 34.3763 113.099 34.588 112.572 35.0112C112.063 35.4346 111.747 36.0357 111.624 36.8146H117.259Z" fill="white"/>
<path d="M133.194 30.9453C134.914 30.9453 136.283 31.4872 137.301 32.5709C138.337 33.6377 138.855 35.1109 138.855 36.9905V45.2708H134.378V37.5746C134.378 36.6264 134.124 35.8898 133.615 35.3649C133.106 34.8399 132.421 34.5775 131.561 34.5775C130.701 34.5775 130.016 34.8399 129.507 35.3649C128.998 35.8898 128.744 36.6264 128.744 37.5746V45.2708H124.241V31.0977H128.744V32.9773C129.2 32.3507 129.814 31.8597 130.587 31.5041C131.359 31.1316 132.228 30.9453 133.194 30.9453Z" fill="white"/>
<path d="M148.674 45.4499C147.322 45.4499 146.111 45.2383 145.04 44.8149C143.969 44.3916 143.109 43.7651 142.459 42.9353C141.827 42.1056 141.493 41.1066 141.458 39.9382H146.251C146.321 40.5986 146.558 41.1066 146.962 41.4622C147.366 41.8008 147.892 41.9702 148.542 41.9702C149.209 41.9702 149.736 41.8262 150.122 41.5384C150.508 41.2336 150.701 40.8187 150.701 40.2938C150.701 39.8535 150.543 39.4895 150.227 39.2016C149.929 38.9137 149.551 38.6767 149.095 38.4904C148.656 38.3041 148.024 38.0925 147.199 37.8554C146.005 37.4998 145.031 37.1442 144.276 36.7886C143.521 36.433 142.872 35.9081 142.327 35.2138C141.783 34.5196 141.511 33.6136 141.511 32.4961C141.511 30.8366 142.134 29.5412 143.381 28.6099C144.627 27.6616 146.251 27.1875 148.252 27.1875C150.289 27.1875 151.93 27.6616 153.177 28.6099C154.423 29.5412 155.09 30.8451 155.178 32.5214H150.306C150.271 31.9457 150.052 31.497 149.648 31.1753C149.244 30.8366 148.726 30.6673 148.094 30.6673C147.55 30.6673 147.111 30.8112 146.778 31.0991C146.444 31.37 146.277 31.7679 146.277 32.2929C146.277 32.8686 146.558 33.3173 147.12 33.639C147.682 33.9608 148.559 34.3079 149.753 34.6804C150.947 35.0699 151.913 35.4424 152.65 35.798C153.405 36.1536 154.054 36.6701 154.598 37.3474C155.143 38.0247 155.415 38.8968 155.415 39.9636C155.415 40.9796 155.143 41.9024 154.598 42.7321C154.072 43.5619 153.3 44.2223 152.281 44.7134C151.263 45.2044 150.061 45.4499 148.674 45.4499Z" fill="white"/>
<path d="M172.035 37.9576C172.035 38.3641 172.009 38.7873 171.956 39.2276H161.765C161.836 40.1081 162.125 40.7855 162.634 41.2596C163.161 41.7168 163.802 41.9454 164.557 41.9454C165.68 41.9454 166.462 41.4882 166.9 40.5738H171.693C171.447 41.5051 171 42.3433 170.35 43.0884C169.718 43.8334 168.919 44.4177 167.954 44.841C166.988 45.2643 165.908 45.476 164.715 45.476C163.275 45.476 161.994 45.1797 160.87 44.587C159.747 43.9943 158.869 43.1477 158.237 42.047C157.605 40.9464 157.289 39.6594 157.289 38.1862C157.289 36.713 157.596 35.4261 158.211 34.3255C158.842 33.2248 159.72 32.3782 160.844 31.7855C161.967 31.1928 163.258 30.8965 164.715 30.8965C166.137 30.8965 167.401 31.1844 168.507 31.7601C169.613 32.3358 170.473 33.1571 171.087 34.2239C171.719 35.2907 172.035 36.5353 172.035 37.9576ZM167.427 36.8146C167.427 36.0696 167.164 35.4769 166.637 35.0367C166.11 34.5964 165.452 34.3763 164.662 34.3763C163.907 34.3763 163.266 34.588 162.74 35.0112C162.231 35.4346 161.915 36.0357 161.792 36.8146H167.427Z" fill="white"/>
<path d="M173.515 38.1608C173.515 36.7046 173.796 35.4261 174.357 34.3255C174.937 33.2248 175.718 32.3782 176.701 31.7855C177.684 31.1928 178.781 30.8965 179.993 30.8965C181.028 30.8965 181.933 31.0997 182.705 31.5061C183.495 31.9125 184.1 32.4459 184.522 33.1063V31.0997H189.025V45.2728H184.522V43.2662C184.083 43.9266 183.469 44.46 182.678 44.8664C181.906 45.2728 181.002 45.476 179.966 45.476C178.772 45.476 177.684 45.1797 176.701 44.587C175.718 43.9774 174.937 43.1223 174.357 42.0216C173.796 40.904 173.515 39.6171 173.515 38.1608ZM184.522 38.1862C184.522 37.1025 184.206 36.2474 183.574 35.6209C182.96 34.9943 182.204 34.6811 181.309 34.6811C180.414 34.6811 179.65 34.9943 179.018 35.6209C178.404 36.2305 178.097 37.0771 178.097 38.1608C178.097 39.2446 178.404 40.1081 179.018 40.7516C179.65 41.3781 180.414 41.6914 181.309 41.6914C182.204 41.6914 182.96 41.3781 183.574 40.7516C184.206 40.1251 184.522 39.27 184.522 38.1862Z" fill="white"/>
</g>
<defs>
<clipPath id="clip0_2601_7805">
<rect width="168.026" height="38.45" fill="white" transform="translate(21 17)"/>
</clipPath>
</defs>
</svg>
