<svg width="503" height="142" viewBox="0 0 503 142" fill="none" xmlns="http://www.w3.org/2000/svg">
<g filter="url(#filter0_d_5475_70399)">
<path d="M149.625 63.9608H157.713V32.231H168.289V24.5577H139.117V32.231H149.625V63.9608ZM168.289 63.9608H175.893V50.6882C175.893 46.0566 178.244 43.2915 181.908 43.2915C183.152 43.2915 184.189 43.4989 185.364 43.9136V36.1713C184.534 35.9639 183.636 35.8257 182.806 35.8257C179.695 35.8257 176.861 37.8995 175.893 40.5955V36.1713H168.289V63.9608ZM199.95 64.583C203.752 64.583 206.655 62.6474 207.969 60.8501V63.9608H215.573V36.2404H207.969V39.3512C206.725 37.5538 203.821 35.6183 199.95 35.6183C192.553 35.6183 186.885 42.2546 186.885 50.1352C186.885 57.9467 192.553 64.583 199.95 64.583ZM201.54 57.6702C197.323 57.6702 194.558 54.4903 194.558 50.1352C194.558 45.7801 197.323 42.6002 201.54 42.6002C205.757 42.6002 208.522 45.7801 208.522 50.1352C208.522 54.4903 205.757 57.6702 201.54 57.6702ZM233.615 64.583C237.418 64.583 240.321 62.6474 241.634 60.8501V63.9608H249.238V22.3456H241.634V39.3512C240.39 37.5538 237.487 35.6183 233.615 35.6183C226.219 35.6183 220.55 42.2546 220.55 50.1352C220.619 57.9467 226.219 64.583 233.615 64.583ZM235.275 57.6702C231.058 57.6702 228.293 54.4903 228.293 50.1352C228.293 45.7801 231.058 42.6002 235.275 42.6002C239.491 42.6002 242.256 45.7801 242.256 50.1352C242.256 54.4903 239.491 57.6702 235.275 57.6702ZM259.815 32.0236C262.511 32.0236 264.723 29.8806 264.723 27.1846C264.723 24.4886 262.511 22.3456 259.815 22.3456C257.188 22.3456 254.976 24.4886 254.976 27.1846C255.045 29.8115 257.188 31.9545 259.815 32.0236ZM256.082 63.9608H263.686V36.5169H256.082V63.9608ZM270.392 63.9608H277.996V50.4117C277.996 45.0888 280.623 42.5311 284.148 42.5311C287.328 42.5311 289.056 44.9506 289.056 48.96V63.9608H296.66V47.7157C296.66 40.5264 292.651 35.6183 285.946 35.6183C282.351 35.6183 279.517 37.1391 277.996 39.4203V36.2404H270.392V63.9608ZM316.016 56.5641C312.214 56.5641 308.965 53.6607 308.965 49.4439C308.965 45.1579 312.145 42.3237 316.016 42.3237C319.818 42.3237 323.067 45.1579 323.067 49.4439C323.067 53.7298 319.887 56.5641 316.016 56.5641ZM315.118 75.9891C323.62 75.9891 330.049 71.6341 330.049 61.6796V36.1022H322.445V39.2129C320.924 37.07 317.952 35.48 314.426 35.48C307.168 35.48 301.361 41.7015 301.361 49.513C301.361 57.2554 307.168 63.4769 314.426 63.4769C317.952 63.4769 320.994 61.887 322.445 59.8131V61.6796C322.445 66.1038 319.473 69.2837 314.979 69.2837C311.869 69.2837 308.758 68.2468 306.338 65.8273L302.191 71.4958C305.371 74.6066 310.279 75.9891 315.118 75.9891ZM346.156 63.9608H353.346L369.66 24.5577H360.811L349.82 51.9325L338.69 24.5577H329.98L346.156 63.9608ZM376.573 31.6779C379.269 31.6779 381.412 29.535 381.481 26.839C381.481 24.143 379.269 22 376.573 22C373.946 22 371.734 24.143 371.734 26.839C371.734 29.535 374.015 31.6779 376.573 31.6779ZM372.84 63.9608H380.444V36.1713H372.84V63.9608ZM400.076 64.583C405.883 64.583 410.307 62.1635 412.934 58.3614L407.266 54.1446C406.021 56.0802 403.602 57.6702 400.076 57.6702C396.412 57.6702 393.163 55.5963 392.679 51.8634H413.418C413.556 50.6882 413.556 49.9278 413.556 49.2365C413.556 40.1807 407.196 35.6183 399.869 35.6183C391.435 35.6183 385.283 41.9089 385.283 50.066C385.421 58.8453 391.85 64.583 400.076 64.583ZM393.025 46.7479C393.786 43.3606 396.896 41.9089 399.731 41.9089C402.565 41.9089 405.33 43.4297 406.021 46.7479H393.025ZM442.106 63.9608H449.641L458.766 36.1713H450.609L445.424 53.9372L439.756 36.1713H433.949L428.35 53.9372L423.096 36.1713H415.008L424.202 63.9608H431.737L436.922 48.1996L442.106 63.9608Z" fill="white"/>
</g>
<g filter="url(#filter1_d_5475_70399)">
<path d="M74.6929 63.9617H59.3465V39.9051H44V24.5586H74.6238V63.9617H74.6929ZM105.386 63.9617H87.8964L104.349 24.5586H121.838L105.386 63.9617ZM87.8273 24.5586C92.6663 24.5586 96.6066 28.4989 96.6066 33.3379C96.6066 38.1769 92.6663 42.1172 87.8273 42.1172C82.9883 42.1172 79.048 38.1769 79.048 33.3379C79.1171 28.4989 82.9883 24.5586 87.8273 24.5586Z" fill="white"/>
</g>
<defs>
<filter id="filter0_d_5475_70399" x="95.1172" y="0" width="407.648" height="141.988" filterUnits="userSpaceOnUse" color-interpolation-filters="sRGB">
<feFlood flood-opacity="0" result="BackgroundImageFix"/>
<feColorMatrix in="SourceAlpha" type="matrix" values="0 0 0 0 0 0 0 0 0 0 0 0 0 0 0 0 0 0 127 0" result="hardAlpha"/>
<feOffset dy="22"/>
<feGaussianBlur stdDeviation="22"/>
<feComposite in2="hardAlpha" operator="out"/>
<feColorMatrix type="matrix" values="0 0 0 0 0.0550266 0 0 0 0 0.0200521 0 0 0 0 0.320833 0 0 0 0.56 0"/>
<feBlend mode="normal" in2="BackgroundImageFix" result="effect1_dropShadow_5475_70399"/>
<feBlend mode="normal" in="SourceGraphic" in2="effect1_dropShadow_5475_70399" result="shape"/>
</filter>
<filter id="filter1_d_5475_70399" x="0" y="2.55859" width="165.84" height="127.402" filterUnits="userSpaceOnUse" color-interpolation-filters="sRGB">
<feFlood flood-opacity="0" result="BackgroundImageFix"/>
<feColorMatrix in="SourceAlpha" type="matrix" values="0 0 0 0 0 0 0 0 0 0 0 0 0 0 0 0 0 0 127 0" result="hardAlpha"/>
<feOffset dy="22"/>
<feGaussianBlur stdDeviation="22"/>
<feComposite in2="hardAlpha" operator="out"/>
<feColorMatrix type="matrix" values="0 0 0 0 0.0550266 0 0 0 0 0.0200521 0 0 0 0 0.320833 0 0 0 0.56 0"/>
<feBlend mode="normal" in2="BackgroundImageFix" result="effect1_dropShadow_5475_70399"/>
<feBlend mode="normal" in="SourceGraphic" in2="effect1_dropShadow_5475_70399" result="shape"/>
</filter>
</defs>
</svg>
