<svg width="210" height="72" viewBox="0 0 210 72" fill="none" xmlns="http://www.w3.org/2000/svg">
<g clip-path="url(#clip0_2601_6026)">
<path d="M63.772 45.3143V20.1562H78.6415V23.3104H66.851V31.0456H77.4399V34.1997H66.851V42.0851H79.4676V45.2393H63.772V45.3143Z" fill="white"/>
<path d="M95.0906 45.3165L89.9839 38.6327L84.8772 45.3165H81.2725L88.2567 36.3797L80.897 27.1426H84.9523L89.9839 34.0517L95.0906 27.1426H99.0709L92.0867 36.3797L98.6954 45.3165H95.0906Z" fill="white"/>
<path d="M103.649 42.6124V55.0037H100.57V36.4542C100.57 31.723 104.175 26.6914 109.807 26.6914C115.514 26.6914 119.795 30.2961 119.795 36.229C119.795 42.0116 115.439 45.9918 110.483 45.9918C108.08 45.9918 104.85 44.9404 103.649 42.6124ZM116.566 36.229C116.566 32.1736 113.937 29.7705 109.281 29.9957C107.028 30.0708 103.574 31.723 103.874 37.5056C103.949 39.3831 105.902 42.9127 110.182 42.9127C113.862 42.9127 116.566 40.81 116.566 36.229Z" fill="white"/>
<path d="M122.424 45.317V27.1431H125.503V29.0956C127.005 27.3684 129.333 26.7676 131.812 26.7676V30.0719C131.436 29.9968 127.756 29.5462 125.503 34.3526V45.3921H122.424V45.317Z" fill="white"/>
<path d="M132.639 36.229C132.639 30.972 136.394 26.6914 141.575 26.6914C148.034 26.6914 150.437 30.972 150.437 36.4542V37.9562H136.018C136.243 41.4108 139.322 43.2131 142.176 43.138C144.279 43.0629 145.706 42.4622 147.208 40.9602L149.235 43.0629C147.358 44.8653 144.955 46.0669 142.026 46.0669C136.544 45.9918 132.639 41.9365 132.639 36.229ZM141.35 29.7705C138.421 29.7705 136.168 32.3238 136.018 35.1025H147.208C147.208 32.3989 145.255 29.7705 141.35 29.7705Z" fill="white"/>
<path d="M152.012 42.7651L154.265 40.7374C154.19 40.7374 155.391 41.939 155.541 42.0141C156.067 42.4647 156.593 42.7651 157.269 42.9153C159.221 43.441 162.751 43.2908 163.051 40.5872C163.201 39.0852 162.075 38.2591 160.798 37.7334C159.146 37.1327 157.344 36.9074 155.692 36.1564C153.814 35.3303 152.612 33.9034 152.612 31.8006C152.612 26.3184 160.423 25.4172 163.952 27.9706C164.103 28.1208 165.83 29.6979 165.755 29.6979L163.502 31.5002C162.375 30.1485 161.324 29.4726 158.921 29.4726C157.719 29.4726 156.067 29.9983 155.767 31.275C155.316 33.0773 157.344 33.7532 158.696 34.1287C160.498 34.5793 162.45 34.8797 164.028 35.856C166.205 37.2078 166.731 40.1366 165.905 42.3896C165.004 44.8678 162.3 45.8441 159.897 45.9192C157.043 46.0694 154.565 45.1682 152.537 43.1406C152.387 43.1406 152.012 42.7651 152.012 42.7651Z" fill="white"/>
<path d="M167.862 42.7651L170.115 40.7374C170.04 40.7374 171.242 41.939 171.392 42.0141C171.918 42.4647 172.443 42.7651 173.119 42.9153C175.072 43.441 178.601 43.2908 178.902 40.5872C179.052 39.0852 177.926 38.2591 176.649 37.7334C174.997 37.1327 173.194 36.9074 171.542 36.1564C169.665 35.3303 168.463 33.9034 168.463 31.8006C168.463 26.3184 176.273 25.4172 179.803 27.9706C179.953 28.1208 181.68 29.6979 181.605 29.6979L179.352 31.5002C178.226 30.1485 177.175 29.4726 174.771 29.4726C173.57 29.4726 171.918 29.9983 171.617 31.275C171.167 33.0773 173.194 33.7532 174.546 34.1287C176.348 34.5793 178.301 34.8797 179.878 35.856C182.056 37.2078 182.582 40.1366 181.756 42.3896C180.854 44.8678 178.151 45.8441 175.748 45.9192C172.894 46.0694 170.416 45.1682 168.388 43.1406C168.238 43.1406 167.862 42.7651 167.862 42.7651Z" fill="white"/>
<path d="M182.504 27.1406V25.188H181.828V24.8125H183.63V25.188H182.955V27.1406H182.504Z" fill="white"/>
<path d="M185.882 27.1406V25.3382L185.206 27.1406H185.056L184.38 25.3382V27.1406H184.005V24.8125H184.606L185.206 26.3896L185.807 24.8125H186.408V27.1406H185.882Z" fill="white"/>
<path d="M42.8963 45.3143L40.6433 39.3064H28.4773L26.2244 45.3143H22.9951L32.758 20.1562H36.2876L45.9753 45.3143H42.8963ZM34.4101 23.761L29.8291 36.2274H39.3667L34.4101 23.761Z" fill="white"/>
<path d="M48.002 45.3143V20.1562H51.1561V45.3143H48.002Z" fill="white"/>
<path d="M55.8887 45.3121V27.5137H59.0428V45.3121H55.8887Z" fill="white"/>
<path d="M62.0432 21.7312C62.0432 21.6561 62.0432 21.6561 62.0432 21.581C62.0432 21.5059 62.0432 21.5059 62.0432 21.4308C59.64 21.3557 57.6875 19.4032 57.6124 17C57.5373 17 57.4622 17 57.3871 17C57.312 17 57.2369 17 57.1618 17C57.0867 19.4032 55.1341 21.3557 52.731 21.4308C52.731 21.5059 52.731 21.5059 52.731 21.581C52.731 21.6561 52.731 21.6561 52.731 21.7312C55.1341 21.8063 57.0867 23.7589 57.1618 26.162C57.2369 26.162 57.312 26.162 57.3871 26.162C57.4622 26.162 57.5373 26.162 57.6124 26.162C57.6875 23.7589 59.64 21.8063 62.0432 21.7312Z" fill="white"/>
</g>
<defs>
<clipPath id="clip0_2601_6026">
<rect width="163.415" height="38" fill="white" transform="translate(23 17)"/>
</clipPath>
</defs>
</svg>
