<svg width="148" height="48" viewBox="0 0 148 48" fill="none" xmlns="http://www.w3.org/2000/svg">
<g clip-path="url(#clip0_6338_11748)">
<path fill-rule="evenodd" clip-rule="evenodd" d="M151 1H0V1.00017H75.61H151V47.8477H75.61H0V48H151V47.8477H151.22V24.4239V1.00017H151V1ZM26.4668 9.76906C25.9129 9.2819 21.682 6.87279 21.028 6.67259C20.047 6.36561 19.373 6.53912 18.2719 7.38664C17.8514 7.70697 17.8047 7.84711 18.0383 8.04731C18.1184 8.12072 19.76 9.12174 21.6887 10.2762C23.6173 11.4241 25.3924 12.4985 25.6326 12.6587C26.2066 13.0457 26.5202 13.0924 26.8138 12.8455C27.1342 12.5719 27.2276 12.345 27.2276 11.8178C27.2276 10.8902 26.974 10.2095 26.4668 9.76906ZM16.6903 9.10172C16.3766 8.06733 15.5958 7.26652 14.5548 6.92618C13.3869 6.53912 12.1857 6.83275 11.2714 7.74034C10.7776 8.2275 10.524 8.66794 10.3772 9.28857C10.1102 10.4164 10.4506 11.5909 11.2848 12.4117C12.2858 13.4061 13.9008 13.633 15.1153 12.9523C15.3155 12.8388 15.5157 12.7454 15.5624 12.7454C15.6025 12.7454 15.8361 12.8589 16.0763 12.999C16.1177 13.0231 16.1753 13.0568 16.2459 13.098C16.5856 13.2964 17.227 13.6709 17.8181 14.0134C18.1436 14.202 18.4926 14.4058 18.8039 14.5876C19.1756 14.8047 19.4935 14.9903 19.6533 15.0811L19.7212 15.1213C20.0004 15.2863 20.3184 15.4743 20.4541 15.5483C20.7744 15.7284 22.336 16.6227 23.0033 17.0164C23.8041 17.4769 23.9176 17.6837 24.2246 19.1853C24.4448 20.2664 24.4581 20.4599 24.318 20.6734C24.2579 20.7735 23.8976 21.1806 23.5305 21.5744C22.8365 22.3218 22.7564 22.4219 22.8899 22.4219C22.9299 22.4219 23.1301 22.502 23.337 22.6021C23.8108 22.8356 24.3647 23.3829 24.5649 23.8166C24.6517 23.9968 24.7584 24.1503 24.7985 24.157C24.8385 24.157 24.9586 24.0502 25.0721 23.9234C25.1855 23.7966 25.5859 23.3628 25.9596 22.9624C26.3334 22.562 26.687 22.1616 26.7471 22.0749C26.8472 21.9414 26.8606 21.6411 26.8606 19.4188C26.8606 16.656 26.8405 16.5026 26.4268 15.982C26.1532 15.635 25.8996 15.4748 24.3247 14.6006C23.5572 14.1735 22.3693 13.5062 21.6887 13.1124C21.4481 12.9733 21.2066 12.8333 20.9876 12.7063C20.5871 12.474 20.2616 12.2853 20.1538 12.2249C19.9869 12.1315 19.3863 11.7711 18.8191 11.4241C18.2518 11.0771 17.6846 10.7367 17.5645 10.67C16.8638 10.2629 16.817 10.2095 16.817 9.81577C16.817 9.64894 16.7637 9.32861 16.6903 9.10172ZM34.3148 9.96926C33.9811 9.44873 33.5473 9.0817 32.9334 8.78139C32.4929 8.56784 32.3595 8.53447 31.8189 8.50778C30.9247 8.46774 30.3841 8.60121 29.7835 9.01496C28.4155 9.95591 27.935 11.671 28.6223 13.1658C28.8225 13.613 29.3631 14.2536 29.7368 14.4872L29.9704 14.6273L29.9504 19.3121L29.9303 23.9968L29.7301 24.3038C29.6167 24.4773 29.2897 24.8176 28.9961 25.0646C28.7024 25.3115 28.322 25.6452 28.1485 25.812C27.8616 26.0923 27.8015 26.119 27.5146 26.119C27.2209 26.1123 26.4735 25.9721 25.993 25.8253C25.8862 25.792 25.666 25.7453 25.5192 25.7186L25.2389 25.6785V26.3325C25.2456 27.0466 25.1188 27.507 24.7851 28.0009C24.6917 28.1343 24.6383 28.2678 24.6717 28.2945C24.7451 28.3679 27.3744 28.9618 27.608 28.9618C27.7148 28.9618 27.975 28.8551 28.1886 28.7283C28.4021 28.6015 28.589 28.4947 28.5956 28.4947C28.6223 28.4947 30.4108 27.4803 31.1449 27.0466C31.8456 26.6395 32.2861 26.2391 32.513 25.8187L32.6664 25.525L32.6865 20.2597C32.6998 16.7228 32.7265 14.961 32.7732 14.9076C32.8133 14.8609 32.9667 14.7608 33.1202 14.6807C34.7953 13.8065 35.3558 11.5842 34.3148 9.96926ZM12.4993 15.021C13.0399 14.3804 12.3525 13.5262 11.0312 13.1859C10.2571 12.9857 10.0035 13.0591 8.40852 13.9466C4.70477 16.002 4.21093 16.3491 3.8172 17.1499C3.65704 17.4702 3.63702 17.6103 3.617 18.251C3.59698 19.0918 3.70375 19.6391 3.89061 19.6724C3.95734 19.6858 4.39779 19.4856 4.86493 19.232C5.42677 18.9204 6.57314 18.3015 7.59274 17.751C8.01433 17.5234 8.41424 17.3075 8.74219 17.1299C9.0158 16.983 9.27607 16.8429 9.30944 16.8162C9.34948 16.7895 9.64978 16.6227 9.97678 16.4492C10.3105 16.2757 10.7776 16.0154 11.0245 15.8686C11.2714 15.7284 11.6652 15.5282 11.8987 15.4215C12.1323 15.3147 12.3992 15.1345 12.4993 15.021ZM37.845 16.1155C37.5447 15.2479 37.2444 14.9209 36.3235 14.4738C36.0232 14.327 35.6695 14.1869 35.5427 14.1669C35.3291 14.1335 35.2958 14.1468 35.2357 14.307C35.2023 14.4071 35.169 14.9476 35.169 15.5015C35.169 16.0621 35.1356 18.2043 35.0889 20.2597C35.0155 23.8033 35.0155 24.0168 35.1289 24.1903C35.2557 24.3839 35.6028 24.5574 35.8764 24.5574C36.4102 24.5574 37.4113 23.7966 37.805 23.0826L37.9985 22.7222L38.0052 19.6524V16.5826L37.845 16.1155ZM94.6092 17.5503C94.1888 16.7962 93.9219 16.3891 93.7484 16.2623C93.6349 16.1822 93.428 16.1155 93.2145 16.1021C92.8007 16.0688 92.5071 16.2156 92.2935 16.5626C92.1667 16.7762 92.1601 16.9096 92.1601 22.1683V27.5604H93.1611C93.715 27.5604 94.1688 27.5538 94.1755 27.5404C94.1888 27.5337 94.2088 26.0389 94.2288 24.2237L94.2622 20.9204L94.5291 21.3875C94.619 21.5426 94.7013 21.6903 94.7547 21.7861C94.7886 21.847 94.8109 21.8869 94.8161 21.8947C94.8203 21.9073 95.1057 22.4081 95.5302 23.1528C95.7789 23.5892 96.0754 24.1094 96.391 24.6642C97.2653 26.1924 98.026 27.447 98.1194 27.5204C98.3597 27.7006 98.8869 27.7339 99.1872 27.5938C99.4608 27.467 99.5542 27.3269 100.435 25.7586C100.775 25.1513 101.203 24.4039 101.383 24.1036C101.556 23.7966 101.703 23.5297 101.703 23.5163C101.703 23.5043 101.762 23.4009 101.832 23.2785L101.857 23.236C101.943 23.1026 102.09 22.8557 102.184 22.6888C102.204 22.653 102.226 22.6132 102.249 22.5714C102.335 22.4181 102.436 22.2369 102.504 22.1216C102.552 22.0338 102.624 21.9077 102.694 21.7849C102.741 21.7024 102.787 21.6214 102.824 21.5543C102.969 21.2949 103.058 21.0969 103.115 21.1059C103.22 21.1224 103.212 21.8517 103.238 24.2237L103.271 27.5271H104.272H105.273L105.293 22.1883C105.307 17.0965 105.3 16.8362 105.187 16.616C104.906 16.0888 104.266 15.922 103.745 16.2423C103.525 16.3758 103.351 16.6293 102.611 17.924C102.124 18.7648 101.129 20.4866 100.402 21.7545C99.6744 23.0225 99.007 24.1837 98.9136 24.3438C98.8268 24.4973 98.7334 24.6108 98.7067 24.5974C98.6467 24.5574 98.4464 24.2237 97.0317 21.7545C96.7427 21.2523 96.4573 20.7607 96.2348 20.3775C96.0257 20.0174 95.8723 19.7531 95.8238 19.6658C95.717 19.4922 95.6303 19.3388 95.6303 19.3254C95.6303 19.3054 95.4501 18.9851 95.2232 18.6047C94.9963 18.2243 94.7227 17.7505 94.6092 17.5503ZM119.074 18.5713C118.56 17.5303 117.706 16.7828 116.525 16.3357L115.951 16.1222L113.682 16.1088C112.434 16.1021 111.279 16.1155 111.113 16.1489C110.672 16.2289 109.965 16.5026 109.531 16.7561C108.97 17.0831 108.256 17.8372 107.963 18.3911C107.442 19.3921 107.422 19.4989 107.389 21.6344C107.362 23.9034 107.409 24.2437 107.889 25.2181C108.423 26.2991 109.324 27.0599 110.565 27.487L111.079 27.6605H113.482H115.884L116.418 27.4737C116.712 27.3669 117.132 27.18 117.359 27.0599C118.12 26.6328 118.947 25.6785 119.221 24.9044C119.241 24.8521 119.262 24.7975 119.282 24.7446C119.328 24.6218 119.371 24.5086 119.394 24.4573C119.548 24.0902 119.601 23.236 119.575 21.5543C119.541 19.6057 119.514 19.4656 119.074 18.5713ZM132.995 18.558C132.481 17.5169 131.5 16.6961 130.252 16.269C129.858 16.1355 129.691 16.1222 127.596 16.1088C125.327 16.0955 125.013 16.1155 124.426 16.3157C122.851 16.8496 121.723 18.1242 121.39 19.7659C121.196 20.6801 121.196 23.236 121.39 24.0502C121.717 25.4583 122.518 26.5327 123.699 27.14C124.7 27.6605 124.726 27.6605 127.429 27.6605H129.832L130.345 27.4803C131.954 26.9131 133.021 25.7186 133.409 24.0435C133.535 23.4763 133.542 23.2828 133.515 21.7412C133.482 19.7992 133.422 19.4188 132.995 18.558ZM139.208 18.3511C137.359 16.4091 137.166 16.2223 136.972 16.1489C136.765 16.0688 136.358 16.0688 136.171 16.1422C135.944 16.2356 135.678 16.5559 135.604 16.8095C135.557 16.9697 135.537 18.7982 135.551 22.2884L135.571 27.5271H136.572H137.573L137.606 23.5697L137.64 19.6057L138.167 20.1663C138.316 20.3194 138.541 20.554 138.781 20.8056C139.012 21.0475 139.259 21.3051 139.468 21.521C141.31 23.4296 144.306 26.5661 144.84 27.14C145.387 27.7339 145.881 27.8474 146.402 27.5137L146.682 27.3335V21.7679V16.2089L145.768 16.2289L144.847 16.249L144.827 20.1663C144.82 22.3285 144.787 24.0902 144.76 24.0902C144.727 24.0902 144.179 23.543 143.539 22.8757C142.898 22.2017 141.957 21.2207 141.443 20.6868C140.93 20.1529 139.922 19.1052 139.208 18.3511ZM61.3021 19.5523C60.7416 17.7972 59.4136 16.6227 57.6384 16.309C57.2113 16.2356 56.4239 16.2156 54.0548 16.2223C50.8382 16.2289 50.6914 16.2423 50.4445 16.5426C50.3243 16.6894 50.3177 16.9163 50.3177 21.868C50.3177 25.4449 50.3377 27.0799 50.3911 27.1734C50.4311 27.2468 50.5846 27.3602 50.7381 27.4336C50.9984 27.5471 51.2186 27.5604 53.968 27.5604C56.9177 27.5604 57.6451 27.5204 58.2924 27.3135C59.567 26.9131 60.6415 25.8987 61.1486 24.6241C61.4423 23.8767 61.4756 23.523 61.4489 21.6544C61.4223 20.2397 61.3956 19.8526 61.3021 19.5523ZM73.7481 18.2844L73.7281 17.2633L73.708 16.249L69.0033 16.2356C64.165 16.2223 64.0316 16.2289 63.7846 16.4825C63.7416 16.5265 63.7043 16.5633 63.672 16.604C63.4593 16.8726 63.4643 17.3136 63.4643 21.1206C63.4643 25.0979 63.471 25.2447 63.6045 25.6385C63.9448 26.6528 64.759 27.3269 65.8401 27.4937C66.1337 27.5404 67.6552 27.5538 70.0043 27.5471L73.708 27.5271L73.7281 26.506L73.7481 25.4917H69.9509C67.5218 25.4917 66.0803 25.465 65.9535 25.4249C65.8775 25.3976 65.8153 25.3769 65.7643 25.3404C65.5286 25.1718 65.5331 24.6673 65.5331 21.6277V18.2844H69.6372H73.7481ZM85.9872 18.251V17.25V16.249L81.2824 16.2356C77.6387 16.2289 76.5242 16.2423 76.344 16.309C76.2039 16.3557 76.0371 16.5026 75.9303 16.656L75.7434 16.9163V22.1216V27.4403C75.7434 27.5471 75.8369 27.5604 76.7445 27.5604H77.7455V27.3402C77.7455 27.2268 77.7521 25.1446 77.7655 22.7222L77.7788 18.3177L81.883 18.2844L85.9872 18.251ZM89.7243 27.5271V21.888V16.249L88.7366 16.2289C87.9892 16.2156 87.7423 16.2289 87.7222 16.2957C87.7022 16.3424 87.6955 18.8916 87.7022 21.9547L87.7222 27.5271H88.7233H89.7243ZM18.0183 17.557C17.1707 17.0364 16.3366 16.5893 16.0162 16.4959C15.6025 16.3758 15.3889 16.3624 15.0152 16.4425C14.6215 16.5226 14.4013 16.6427 12.0255 18.0374C11.6118 18.2844 11.1313 18.5646 10.9578 18.6581C10.9002 18.6913 10.8016 18.7472 10.6775 18.8176C10.4272 18.9595 10.0733 19.1603 9.74321 19.3521C9.24937 19.6324 8.30175 20.1596 7.64108 20.52C7.20375 20.7541 6.72548 21.0145 6.37661 21.2045C6.19845 21.3015 6.05403 21.3802 5.96605 21.4275C5.70578 21.5744 5.4255 21.6878 5.35209 21.6878C5.27868 21.6878 5.07181 21.6144 4.89162 21.5276C2.81619 20.4999 0.273611 22.1483 0.266937 24.524C0.260264 26.2791 1.78848 27.834 3.51022 27.8274C5.2987 27.8207 6.8069 26.3258 6.8069 24.5574C6.8069 24.4488 6.79873 24.3709 6.81561 24.2989C6.87349 24.0522 7.22564 23.8744 9.20933 22.7689C9.27138 22.7341 9.33764 22.697 9.40765 22.6577C10.3316 22.1399 11.9098 21.2552 13.1133 20.5667C13.9208 20.1062 14.6882 19.6858 14.815 19.6391C15.1887 19.5056 15.5424 19.539 16.1497 19.7592C16.3843 19.8441 16.7123 19.9551 16.9772 20.0447C17.0665 20.0749 17.1485 20.1027 17.2175 20.1262C17.5855 20.2425 17.7964 20.3059 17.9461 20.4384C18.1575 20.6254 18.2471 20.9499 18.4854 21.7545C18.6389 22.2884 18.7724 22.7355 18.7857 22.7489C18.7991 22.7622 18.9592 22.6621 19.1461 22.5287C19.6266 22.175 20.1271 22.0215 20.8011 22.0215C21.1014 22.0215 21.355 21.9948 21.355 21.9614C21.355 21.8146 20.6009 19.3054 20.5208 19.1786C20.4674 19.0985 20.047 18.8049 19.5732 18.5179C19.106 18.231 18.4053 17.7972 18.0183 17.557ZM72.7738 22.9224V21.888V20.8536L69.5839 20.8336C67.0146 20.8203 66.3873 20.8336 66.3606 20.907C66.3472 20.9537 66.3406 21.4275 66.3472 21.9547L66.3673 22.9224H69.5705H72.7738ZM85.0529 22.9224V21.888V20.8536L81.8296 20.8336L78.6063 20.8203L78.6264 21.868L78.6464 22.9224H81.8496H85.0529ZM17.2375 23.7632C17.0239 23.7232 16.4634 23.6031 15.9829 23.4896C15.5091 23.3829 15.0085 23.2894 14.8818 23.2894C14.6015 23.2894 14.3345 23.4229 12.2457 24.5974C10.9644 25.3182 10.6374 25.5317 10.2771 25.8921C10.1317 26.0361 10.0185 26.1321 9.93002 26.2471C9.59202 26.6866 9.61478 27.4035 9.58305 32.1317C9.56303 34.9613 9.52966 37.337 9.50296 37.4171C9.48294 37.4972 9.31611 37.6573 9.13593 37.7775C8.72217 38.0377 8.15493 38.6583 7.9614 39.0454C7.55432 39.8729 7.50094 40.9473 7.84128 41.7882C8.19497 42.6824 9.02915 43.4365 9.95676 43.7168C10.5841 43.9037 11.4516 43.8703 12.0322 43.6501C12.853 43.3297 13.5738 42.6157 13.9274 41.7748C14.0876 41.3878 14.1076 41.261 14.1076 40.5736C14.1076 39.9396 14.0809 39.7394 13.9608 39.4325C13.6805 38.7251 13.2201 38.1645 12.5928 37.7574L12.2724 37.5506L12.3125 33.0393C12.3525 29.3623 12.3725 28.468 12.4526 28.2211C12.5527 27.9008 12.6662 27.774 13.8474 26.7262C14.1343 26.466 14.4346 26.2257 14.508 26.179C14.6749 26.0789 15.122 26.0656 15.3889 26.1523C15.4957 26.1857 15.8694 26.2791 16.2164 26.3592C16.3299 26.3854 16.4426 26.4116 16.5452 26.4354C16.7567 26.4845 16.9256 26.5237 16.9705 26.5327C17.0706 26.5661 17.084 26.506 17.084 25.9388C17.084 25.2247 17.1908 24.7976 17.4844 24.3305C17.5978 24.1503 17.6779 23.9701 17.6579 23.9234C17.6446 23.8767 17.451 23.8033 17.2375 23.7632ZM23.0033 23.9434C22.7364 23.7365 22.663 23.7099 21.8822 23.523C20.4274 23.1626 20.2005 23.2227 19.2528 24.2371C18.2652 25.2915 18.2051 25.5384 18.6189 26.8931C19.026 28.2344 19.2128 28.408 20.6009 28.7283C21.5285 28.9352 21.8088 28.9418 22.2092 28.7349C22.5896 28.5347 23.6373 27.427 23.8241 27.0132C24.011 26.6061 23.991 26.2991 23.724 25.3582C23.4638 24.4506 23.3303 24.1837 23.0033 23.9434ZM41.0683 25.9188C40.6479 25.4983 40.1474 25.2114 39.5401 25.0512C39.0196 24.9111 38.2788 24.9444 37.7583 25.1246C36.5837 25.5384 35.7963 26.4326 35.5494 27.6605L35.4559 28.1277L34.495 28.6816C33.9678 28.9885 33.4005 29.3155 33.2337 29.409C32.9267 29.5825 30.5043 30.9705 28.7491 31.9849C28.2019 32.2986 27.668 32.5855 27.5546 32.6256C27.1942 32.7524 26.7538 32.7056 26.1598 32.4921C25.8462 32.3786 25.3524 32.2118 25.0587 32.1251C24.4181 31.9315 24.2179 31.7447 24.0577 31.1841C23.9576 30.8304 23.7708 30.1898 23.6106 29.6425C23.5772 29.5224 23.5238 29.4423 23.4971 29.4624C23.4705 29.4757 23.2836 29.5958 23.0967 29.7293C22.5829 30.0696 21.9155 30.2565 21.3817 30.2098C21.1481 30.1831 20.9546 30.1964 20.9546 30.2231C20.9546 30.2565 21.0013 30.43 21.0547 30.6035C21.0835 30.7007 21.1355 30.8794 21.1952 31.0841C21.2462 31.259 21.3027 31.4529 21.355 31.6312C21.3876 31.7425 21.4219 31.8605 21.4556 31.9765C21.5391 32.2638 21.6192 32.5392 21.662 32.6723C21.7888 33.1127 21.9422 33.2462 23.0233 33.9069C25.9596 35.682 26.3534 35.8755 27.0608 35.8555C27.5679 35.8422 27.8416 35.7287 29.0361 34.9946C29.5633 34.6743 30.1639 34.3139 30.3641 34.2005C31.3384 33.6332 34.5817 31.7647 34.5951 31.7647C34.6 31.7647 34.8385 31.6333 35.1784 31.4461C35.2981 31.3801 35.4303 31.3073 35.5694 31.2308C36.4636 30.737 36.537 30.7036 36.6705 30.797C37.5781 31.4577 38.5324 31.6913 39.4667 31.4711C42.0159 30.8704 42.9102 27.774 41.0683 25.9188ZM7.28739 28.795C7.29406 28.1544 7.24067 27.9742 6.99376 27.814C6.47323 27.4803 5.7525 27.7273 4.97171 28.5214C4.79718 28.6994 4.66875 28.8259 4.57377 28.9738C4.30557 29.3915 4.30406 29.9804 4.28434 32.3853C4.25765 35.4684 4.29102 35.9022 4.61134 36.5495C4.86493 37.0701 5.1986 37.3637 5.97272 37.7441C6.66008 38.0778 6.98708 38.1245 7.0338 37.8842C7.06049 37.7574 7.26737 30.41 7.28739 28.795ZM19.0393 29.6225C18.4987 29.3623 17.9849 28.8684 17.758 28.3746C17.6646 28.1811 17.5711 28.0276 17.5511 28.0276C17.5244 28.0276 17.0706 28.4947 16.5434 29.0619C15.7359 29.9295 15.5691 30.1497 15.5024 30.41C15.3956 30.8237 15.3756 35.0013 15.4757 35.4551C15.5825 35.8955 15.7693 36.2492 16.0563 36.5295C16.2498 36.723 17.0039 37.1702 18.9192 38.2379C19.9002 38.7851 24.0243 41.2543 24.625 41.6547L25.0587 41.9417L25.0721 42.4956C25.0988 43.6501 25.6326 44.6044 26.5936 45.2117C27.2076 45.5987 27.5146 45.6788 28.3621 45.6788C29.1159 45.6788 29.1293 45.6724 29.6672 45.4128L29.6968 45.3985C30.284 45.1049 30.7845 44.6844 31.0782 44.224C32.1259 42.569 31.5119 40.34 29.7635 39.4858C28.8559 39.0454 27.9683 39.0187 27.0074 39.4124C26.7871 39.4992 26.5803 39.5726 26.5603 39.5726C26.5336 39.5726 26.2266 39.4058 25.8862 39.1989C25.1922 38.7785 23.337 37.684 21.5552 36.6363C21.2026 36.427 20.7794 36.1772 20.3988 35.9527C20.0878 35.7692 19.8053 35.6025 19.6132 35.4885C18.4654 34.8211 18.3386 34.6343 18.1117 33.2662C18.0516 32.8992 17.9782 32.5321 17.9449 32.4454C17.8581 32.2252 17.8781 31.758 17.9715 31.5778C18.0183 31.4977 18.372 31.0973 18.7523 30.6836C19.1394 30.2765 19.4597 29.9228 19.4731 29.8895C19.4864 29.8628 19.2929 29.7426 19.0393 29.6225ZM38.766 33.3129C38.7259 32.9592 38.6659 32.6256 38.6258 32.5855C38.5124 32.4454 38.3589 32.4854 37.7716 32.8191C37.5457 32.9489 37.0326 33.2344 36.4814 33.541C36.2673 33.6602 36.0473 33.7825 35.8363 33.9002C35.0822 34.3139 33.6741 35.0947 32.6998 35.6353C31.7255 36.1758 30.7178 36.7297 30.4509 36.8632C29.8569 37.1768 29.7368 37.3437 29.7768 37.7841C29.8236 38.2112 30.0905 38.4982 30.7645 38.8252C31.2317 39.0521 31.3051 39.0721 31.899 39.0721C32.4529 39.0721 32.5797 39.0521 32.9 38.8919C33.7075 38.4915 37.1577 36.4895 37.6448 36.1291C38.6191 35.4217 38.9194 34.661 38.766 33.3129ZM51.0517 35.1014V34.0003V32.8992H50.7514H50.4511V35.7687V38.6383H50.7514H51.0517V38.3714C51.0517 38.0711 51.1051 38.0444 51.292 38.2446C51.5723 38.5516 51.9126 38.6717 52.5199 38.665C53.1539 38.6583 53.4408 38.5649 53.8145 38.2312C54.4752 37.6573 54.7088 36.5963 54.3618 35.7554C54.0214 34.9212 53.5276 34.5609 52.66 34.5141C52.0661 34.4808 51.7525 34.5609 51.352 34.8678L51.0517 35.1014ZM72.7004 36.3627C72.6937 35.6286 72.2332 34.9145 71.5859 34.6409C70.8251 34.3139 69.8241 34.4808 69.2836 35.0213C68.2692 36.0357 68.5762 37.9576 69.8508 38.5182C70.7317 38.9053 71.8328 38.6583 72.34 37.9576C72.6269 37.5639 72.6069 37.4371 72.2599 37.4371C72.0197 37.4371 71.9529 37.4705 71.7594 37.704C71.1521 38.4114 69.9109 38.2312 69.4704 37.3637C69.397 37.2236 69.3369 37.05 69.3369 36.9766C69.3369 36.8432 69.3837 36.8365 71.0253 36.8231L72.707 36.8031L72.7004 36.3627ZM59.9341 36.1825C59.7939 35.4151 59.4536 34.9479 58.8263 34.661C58.5594 34.5342 58.3792 34.5008 57.9587 34.5075C57.4315 34.5075 57.0378 34.6009 56.8042 34.7744C56.4839 35.0146 56.2971 35.2349 56.1369 35.5352C55.9767 35.8355 55.9567 35.9423 55.9567 36.5696C55.9567 37.1702 55.9767 37.3103 56.1102 37.5572C56.4906 38.278 57.0578 38.6383 57.892 38.6917C58.6661 38.7384 59.2801 38.4314 59.6671 37.8041C59.854 37.5038 59.8273 37.4371 59.5203 37.4371C59.2868 37.4371 59.2067 37.4771 58.9598 37.7307C58.7329 37.9643 58.6061 38.0377 58.3191 38.0978C57.505 38.2646 56.7509 37.7975 56.564 37.0167L56.524 36.8365H58.2257C59.4679 36.8365 59.8728 36.8552 59.9705 36.6911C60.0271 36.596 59.9806 36.4395 59.9341 36.1825ZM67.1347 35.5018C67.1347 35.1748 66.801 34.7811 66.3873 34.6009C66.0202 34.4541 64.9859 34.4674 64.6322 34.6276C64.105 34.8678 63.8514 35.3617 63.9915 35.8889C64.1183 36.336 64.4653 36.5629 65.3796 36.7698C66.0469 36.9232 66.4607 37.0901 66.5808 37.2369C66.6809 37.357 66.6943 37.6707 66.6008 37.8308C66.4407 38.1311 65.5264 38.2713 65.0459 38.0711C64.8057 37.971 64.5321 37.684 64.5321 37.5305C64.5321 37.3971 64.3586 37.3303 64.0983 37.357C63.8247 37.3904 63.8047 37.4771 63.9982 37.8776C64.2384 38.3647 64.9125 38.7051 65.6265 38.7051C66.6409 38.6984 67.2615 38.2646 67.2882 37.5439C67.3149 36.8699 66.9278 36.5495 65.7333 36.2693C65.3129 36.1625 64.8791 36.0223 64.779 35.9489C64.6188 35.8422 64.5921 35.7821 64.6122 35.5485C64.6455 35.1481 64.8657 35.0013 65.4864 35.008C66.0469 35.008 66.3472 35.1348 66.5007 35.4351C66.5875 35.6086 66.6409 35.6353 66.8678 35.6353C67.0947 35.6353 67.1347 35.6153 67.1347 35.5018ZM77.979 35.7687C78.1058 35.5619 77.3784 34.7677 76.8979 34.6076C76.4441 34.4541 75.59 34.4674 75.2296 34.6409C74.8559 34.8144 74.5222 35.1548 74.2953 35.5886C74.1285 35.9022 74.1084 36.0023 74.1151 36.6029C74.1151 37.1568 74.1418 37.317 74.2619 37.5506C74.4822 37.9777 74.7891 38.2913 75.1695 38.4915C75.4632 38.6383 75.5966 38.665 76.1105 38.6717C76.7778 38.6717 77.1115 38.5516 77.5319 38.1512C77.7722 37.9176 78.0458 37.4505 77.979 37.3837C77.959 37.357 77.8122 37.337 77.6654 37.337C77.4585 37.337 77.3718 37.377 77.3184 37.4705C77.0314 37.9843 76.4441 38.2312 75.8369 38.0978C74.1885 37.7307 74.362 35.1882 76.0437 35.048C76.5709 35.008 76.958 35.1748 77.2316 35.5685C77.3984 35.8021 77.4518 35.8355 77.6787 35.8355C77.8189 35.8355 77.959 35.8088 77.979 35.7687ZM80.2146 35.9489C80.2146 34.7611 80.2013 34.5742 80.1079 34.5408C79.9343 34.4741 79.6941 34.4941 79.6407 34.5809C79.574 34.6943 79.6074 37.2903 79.6874 37.5772C79.8076 38.0377 80.2213 38.4581 80.7085 38.605C81.3291 38.7918 81.8296 38.7117 82.2634 38.338C82.4102 38.2112 82.5503 38.1311 82.577 38.1512C82.5971 38.1712 82.6171 38.298 82.6171 38.4181C82.6171 38.5228 82.6171 38.5792 82.6453 38.6076C82.6782 38.6407 82.7495 38.6358 82.904 38.625L83.1843 38.605V36.5696V34.5342H82.9174H82.6504L82.6104 35.9022C82.5837 36.9967 82.5503 37.3103 82.4636 37.4771C82.2033 37.971 81.5693 38.2579 81.0622 38.1111C80.9087 38.0644 80.6951 37.9443 80.595 37.8509C80.2347 37.5105 80.2146 37.4238 80.2146 35.9489ZM85.6935 34.9613C85.7002 34.8745 85.7002 34.7344 85.7002 34.6476C85.6869 34.5275 85.6468 34.5008 85.4733 34.5008C85.3689 34.5008 85.2922 34.4963 85.2361 34.5281C85.0773 34.6184 85.0848 35.0013 85.0996 36.6096L85.1196 38.605L85.4066 38.625C85.6001 38.6383 85.6869 38.6183 85.6935 38.5582C85.6935 38.5115 85.6935 38.0778 85.6869 37.6039C85.6869 37.0233 85.7135 36.6096 85.7869 36.3493C85.9671 35.6486 86.3809 35.2149 86.9615 35.1147C87.2484 35.068 87.2551 35.0614 87.2751 34.7811L87.2951 34.5008H87.0482C86.7012 34.5008 86.2674 34.7277 85.9872 35.048C85.7469 35.335 85.6602 35.3083 85.6935 34.9613ZM92.4537 36.4027C92.447 35.682 92.0066 34.9679 91.386 34.6676C90.9989 34.4741 89.9578 34.4541 89.5775 34.6276C89.157 34.8211 88.8367 35.1481 88.6232 35.6086C88.4496 35.9623 88.423 36.1024 88.423 36.5629C88.423 37.0233 88.4563 37.1702 88.6165 37.5239C88.8367 38.011 89.1303 38.3113 89.5841 38.5115C90.4917 38.9119 91.6329 38.6383 92.12 37.9042C92.367 37.5239 92.3536 37.4371 92.0199 37.4371C91.7864 37.4371 91.7063 37.4771 91.466 37.7307C91.2391 37.9576 91.1057 38.0377 90.8321 38.0978C90.0646 38.2579 89.3639 37.8842 89.1303 37.1835C89.0503 36.9633 89.0503 36.8899 89.1103 36.8699C89.157 36.8498 89.9245 36.8298 90.8254 36.8231L92.4604 36.8031L92.4537 36.4027ZM16.7503 39.6994C16.4767 39.5259 16.163 39.3457 16.0629 39.3123C15.9519 39.2691 15.8921 39.2459 15.833 39.2473C15.7642 39.2489 15.6962 39.2837 15.5491 39.3591C15.4223 39.4191 15.2488 39.5793 15.162 39.7061C15.0085 39.9263 15.0019 39.9797 15.0352 40.6737C15.0753 41.5546 15.2488 42.0218 15.6959 42.4488C16.143 42.8693 20.1738 45.2584 21.0213 45.592C21.3083 45.7122 21.5285 45.7389 22.0223 45.7455C22.6096 45.7455 22.683 45.7322 23.05 45.532C23.5038 45.2784 24.2713 44.7178 24.318 44.591C24.3914 44.4175 24.2512 44.2974 23.4638 43.8169C21.4217 42.5823 17.2041 39.993 16.7503 39.6994Z" fill="white"/>
<path d="M12.6462 8.20378C11.8588 8.57082 11.3783 9.37163 11.425 10.2192C11.4851 11.367 12.426 12.2812 13.5471 12.2812C14.3747 12.2812 15.1087 11.8141 15.4891 11.0467C15.6826 10.6529 15.696 10.5795 15.6693 10.0657C15.6359 9.42502 15.4758 9.02462 15.082 8.61754C14.4748 7.99023 13.4537 7.81672 12.6462 8.20378Z" fill="black"/>
<path d="M31.0993 9.73652C30.4854 9.86998 29.9248 10.3305 29.6378 10.9377C29.4109 11.4316 29.3976 12.2124 29.6111 12.6928C29.9248 13.3869 30.6522 13.9208 31.393 13.9942C32.2271 14.0809 33.108 13.5804 33.4951 12.8063C34.0089 11.7719 33.5685 10.4172 32.5541 9.92337C32.1671 9.73652 31.4997 9.64976 31.0993 9.73652Z" fill="black"/>
<path d="M3.04956 22.4896C2.52236 22.6231 1.96179 23.0502 1.66148 23.5574C1.4813 23.8577 1.3812 24.3449 1.41457 24.7786C1.508 25.9331 2.5624 26.8407 3.71023 26.7473C4.19739 26.7072 4.8714 26.3602 5.15836 26.0065C5.5254 25.5594 5.6255 25.3058 5.65887 24.7519C5.69224 24.1313 5.57879 23.7309 5.21842 23.2571C4.76463 22.6498 3.78364 22.3095 3.04956 22.4896Z" fill="black"/>
<path d="M10.4769 38.4979C9.83624 38.6381 9.19559 39.1453 8.93533 39.7392C8.60833 40.4733 8.75515 41.4409 9.27568 42.0482C9.84292 42.7156 10.904 42.9691 11.6848 42.6221C12.8593 42.1016 13.3531 40.7936 12.7992 39.6458C12.4122 38.8383 11.3511 38.3178 10.4769 38.4979Z" fill="black"/>
<path d="M38.1325 26.2539C37.8255 26.354 37.3316 26.6743 37.1448 26.9012C36.8712 27.2282 36.6776 27.7221 36.651 28.1759C36.5976 29.0768 37.0247 29.8242 37.8321 30.2446C38.2125 30.4382 38.326 30.4648 38.7664 30.4648C39.9476 30.4582 40.8218 29.6173 40.8953 28.4294C40.9153 28.0224 40.8953 27.8555 40.7751 27.5352C40.5949 27.0547 40.1545 26.5943 39.674 26.3674C39.2669 26.1738 38.5329 26.1204 38.1325 26.2539Z" fill="black"/>
<path d="M27.8293 40.3913C27.122 40.5982 26.6215 41.0053 26.3478 41.6259C26.1276 42.1064 26.141 42.9539 26.3812 43.4144C26.6014 43.8415 26.9551 44.2018 27.3889 44.4287C27.8494 44.6623 28.7036 44.6823 29.1707 44.4688C29.8314 44.1618 30.2718 43.5946 30.4253 42.8271C30.6322 41.8528 29.9115 40.6916 28.9572 40.438C28.5234 40.3179 28.1363 40.3046 27.8293 40.3913Z" fill="black"/>
<path d="M111.62 18.0742C110.485 18.2477 109.644 19.0752 109.451 20.2097C109.358 20.777 109.358 22.8391 109.451 23.3996C109.651 24.5474 110.412 25.3082 111.566 25.5151C112.3 25.6419 114.87 25.6419 115.45 25.5084C116.491 25.2682 117.139 24.6943 117.426 23.7466C117.559 23.3062 117.559 20.3031 117.419 19.856C117.232 19.2221 116.772 18.6348 116.251 18.3679C115.691 18.0742 115.47 18.0475 113.715 18.0275C112.781 18.0208 111.84 18.0409 111.62 18.0742Z" fill="black"/>
<path d="M125.409 18.0982C124.287 18.3451 123.593 19.0525 123.386 20.1737C123.34 20.4139 123.32 21.1613 123.34 22.1023L123.366 23.6372L123.58 24.0843C123.967 24.8784 124.541 25.3189 125.455 25.5124C125.996 25.6259 128.518 25.6392 129.219 25.5324C130.16 25.3856 130.807 24.9185 131.208 24.0976L131.435 23.6372V21.802V19.9668L131.228 19.5263C130.841 18.7122 130.16 18.2183 129.219 18.0715C128.538 17.9648 125.936 17.9848 125.409 18.0982Z" fill="black"/>
<path d="M52.2275 18.3458C52.1742 18.546 52.1742 25.1593 52.2275 25.2995C52.2609 25.3929 52.5479 25.4062 54.7167 25.4062C57.2927 25.4062 57.5196 25.3862 58.1068 25.0793C58.7742 24.7389 59.1813 24.1717 59.3548 23.3241C59.4816 22.7235 59.5016 21.0685 59.3881 20.4079C59.2413 19.4936 58.7542 18.8329 57.94 18.4459L57.4929 18.2323L54.8836 18.2123L52.2743 18.1923L52.2275 18.3458Z" fill="black"/>
<path d="M51.9792 35.0133C51.6922 35.1067 51.472 35.2803 51.2785 35.5739C51.1317 35.8008 51.0916 35.9476 51.0649 36.3613C51.0249 37.002 51.125 37.2956 51.4787 37.656C51.8457 38.0164 52.2394 38.1298 52.7733 38.0164C53.0736 37.9563 53.2004 37.8829 53.454 37.6226C53.7209 37.3624 53.7877 37.2422 53.8544 36.9219C54.0012 36.2079 53.741 35.4738 53.2204 35.1535C52.9535 34.9866 52.2862 34.9132 51.9792 35.0133Z" fill="black"/>
<path d="M70.1034 35.0712C69.9566 35.1447 69.7697 35.2715 69.6896 35.3582C69.5428 35.5184 69.3359 35.9455 69.3359 36.0856C69.3359 36.1257 69.8098 36.1523 70.704 36.1523C71.9653 36.1523 72.072 36.1457 72.072 36.0322C72.072 35.8454 71.7918 35.4116 71.5315 35.2047C71.2045 34.9445 70.5105 34.8777 70.1034 35.0712Z" fill="black"/>
<path d="M57.4841 34.9912C57.1371 35.0712 56.5898 35.6986 56.5898 36.0189C56.5898 36.1523 56.6232 36.1523 57.9646 36.1523H59.3393L59.2926 35.9655C59.2258 35.6785 58.9589 35.3115 58.692 35.1513C58.4517 35.0045 57.8111 34.9178 57.4841 34.9912Z" fill="black"/>
<path d="M89.9845 34.9911C89.7643 35.0445 89.2838 35.485 89.1837 35.7319C88.9968 36.1656 88.9501 36.1523 90.4182 36.1523C91.2925 36.1523 91.7663 36.1256 91.793 36.0789C91.8731 35.9521 91.526 35.3915 91.2458 35.198C91.0322 35.0445 90.8854 34.9978 90.5517 34.9844C90.3181 34.9711 90.0579 34.9778 89.9845 34.9911Z" fill="black"/>
</g>
<defs>
<clipPath id="clip0_6338_11748">
<rect width="147" height="46" fill="white" transform="translate(0 1)"/>
</clipPath>
</defs>
</svg>
