<svg width="210" height="72" viewBox="0 0 210 72" fill="none" xmlns="http://www.w3.org/2000/svg">
<g clip-path="url(#clip0_2601_7719)">
<path d="M146.764 35.9855C146.764 35.1183 146.764 34.3026 146.736 33.5493C146.717 32.8387 146.647 32.1303 146.525 31.4298C146.412 30.7901 146.212 30.1689 145.931 29.5832C145.635 28.9793 145.238 28.4299 144.758 27.958C144.078 27.2611 143.269 26.7033 142.375 26.3158C141.409 25.9242 140.374 25.7301 139.331 25.7449C138.284 25.7314 137.245 25.9254 136.274 26.3158C135.375 26.698 134.561 27.2534 133.877 27.9502C133.398 28.4218 133.003 28.9714 132.709 29.5754C132.43 30.1612 132.233 30.7825 132.124 31.422C132.005 32.1227 131.938 32.8311 131.921 33.5415C131.902 34.2948 131.893 35.1105 131.898 35.9777C131.902 36.8448 131.898 37.6543 131.921 38.4123C131.938 39.1227 132.005 39.8311 132.124 40.5318C132.233 41.1712 132.43 41.7926 132.709 42.3784C133.004 42.9817 133.399 43.5311 133.877 44.0035C134.56 44.701 135.375 45.2555 136.274 45.6349C137.245 46.0278 138.284 46.2229 139.331 46.2089C140.374 46.2242 141.409 46.029 142.375 45.6349C143.269 45.2526 144.079 44.6983 144.758 44.0035C145.237 43.5308 145.633 42.9815 145.931 42.3784C146.212 41.7927 146.412 41.1715 146.525 40.5318C146.645 39.8333 146.715 39.127 146.733 38.4185C146.756 37.6605 146.767 36.8495 146.761 35.9839L146.764 35.9855ZM142.834 35.9855C142.834 36.9462 142.82 37.7463 142.787 38.3826C142.769 38.9053 142.717 39.4263 142.631 39.9423C142.573 40.286 142.468 40.6203 142.319 40.9357C142.199 41.19 142.041 41.425 141.851 41.6329C141.558 41.968 141.195 42.2343 140.788 42.4127C140.329 42.609 139.835 42.7088 139.336 42.706C138.834 42.7081 138.337 42.6084 137.876 42.4127C137.458 42.2377 137.085 41.9712 136.784 41.6329C136.593 41.4259 136.435 41.1908 136.316 40.9357C136.172 40.6199 136.072 40.2856 136.02 39.9423C135.937 39.426 135.884 38.9052 135.864 38.3826C135.836 37.7463 135.822 36.9472 135.822 35.9855C135.822 35.0247 135.836 34.2231 135.864 33.5868C135.885 33.0642 135.937 32.5434 136.02 32.0271C136.072 31.6838 136.172 31.3495 136.316 31.0336C136.436 30.7788 136.594 30.5437 136.784 30.3365C137.085 29.9987 137.458 29.7323 137.876 29.5567C138.337 29.3588 138.834 29.2589 139.336 29.2635C139.835 29.2583 140.329 29.3582 140.788 29.5567C141.195 29.7356 141.558 30.0018 141.851 30.3365C142.041 30.5447 142.198 30.7796 142.319 31.0336C142.468 31.3491 142.573 31.6834 142.631 32.0271C142.716 32.5431 142.769 33.0641 142.787 33.5868C142.821 34.2215 142.834 35.0232 142.834 35.9855Z" fill="white"/>
<path d="M178.082 26.2646C178.08 26.0749 177.927 25.9216 177.737 25.9199H174.495C174.305 25.9208 174.151 26.0746 174.15 26.2646V38.2426L166.243 26.0166C166.19 25.934 166.143 25.9199 166.026 25.9199H163.019C162.83 25.9224 162.677 26.0753 162.674 26.2646V45.7007C162.677 45.8898 162.83 46.0422 163.019 46.0439H166.26C166.449 46.043 166.602 45.8899 166.603 45.7007V33.6916L174.512 45.9456C174.567 46.0283 174.61 46.0423 174.729 46.0423H177.734C177.924 46.0415 178.077 45.8886 178.079 45.6992L178.082 26.2646Z" fill="white"/>
<path d="M156.348 26.2646C156.347 26.0746 156.193 25.9208 156.003 25.9199H152.764C152.574 25.9208 152.42 26.0746 152.419 26.2646V45.6992C152.42 45.8892 152.574 46.043 152.764 46.0439H156.003C156.193 46.043 156.347 45.8892 156.348 45.6992V26.2646Z" fill="white"/>
<path d="M117.569 35.9845C117.569 35.0175 117.58 34.2127 117.608 33.5717C117.627 33.0491 117.679 32.5282 117.764 32.0121C118.064 30.2809 119.389 29.2593 121.082 29.2593C122.186 29.2687 123.187 29.6773 123.827 30.6069C124.116 31.0408 124.327 31.5223 124.45 32.0293C124.46 32.0827 124.509 32.1199 124.563 32.115H128.376C128.431 32.115 128.451 32.0776 128.441 32.0246C128.025 29.6648 126.766 27.5453 124.542 26.4957C123.449 25.9896 122.256 25.7364 121.052 25.7548C118.905 25.7548 117.096 26.49 115.626 27.9602C114.787 28.7782 114.214 29.8306 113.982 30.9796C113.758 32.1109 113.644 33.7786 113.642 35.9829C113.64 38.1872 113.753 39.8545 113.982 40.9847C114.212 42.1352 114.783 43.1896 115.621 44.0104C117.09 45.4795 118.899 46.2141 121.047 46.2141C122.251 46.2323 123.444 45.9797 124.538 45.4748C126.762 44.4252 128.02 42.3057 128.437 39.946C128.446 39.8914 128.426 39.8555 128.371 39.8555H124.556C124.502 39.8498 124.453 39.8874 124.444 39.9413C124.321 40.4477 124.11 40.9285 123.82 41.3621C123.181 42.2979 122.18 42.7018 121.075 42.7096C119.383 42.7096 118.057 41.6896 117.758 39.9584C117.673 39.4423 117.621 38.9214 117.602 38.3988C117.58 37.7547 117.569 36.9483 117.569 35.9845Z" fill="white"/>
<path d="M77.2935 26.2646C77.2926 26.0746 77.1388 25.9208 76.9488 25.9199H73.7094C73.5194 25.9208 73.3656 26.0746 73.3647 26.2646V45.7008C73.3665 45.8901 73.52 46.043 73.7094 46.044H76.9488C77.1382 46.043 77.2918 45.8901 77.2935 45.7008V39.9956L79.8934 36.8873L85.2335 45.9409C85.2747 46.0077 85.3486 46.0471 85.4269 46.044H89.3635C89.5444 46.044 89.5771 45.9316 89.4867 45.7772L82.4948 33.924L88.9096 26.2287C89.0391 26.0728 88.9845 25.9246 88.7817 25.9246H84.4787C84.4263 25.9215 84.3759 25.945 84.3446 25.987L77.2935 34.4433V26.2646Z" fill="white"/>
<path d="M100.893 42.7094C99.0697 42.7094 97.4165 41.0219 97.4165 39.0068V26.2646C97.4157 26.0746 97.2618 25.9208 97.0718 25.9199H93.8325C93.6425 25.9208 93.4886 26.0746 93.4878 26.2646V38.9569C93.4878 43.3941 96.8067 46.2139 100.893 46.2139C104.979 46.2139 108.298 43.3941 108.298 38.9569V26.2646C108.296 26.0749 108.143 25.9216 107.953 25.9199H104.712C104.523 25.9216 104.37 26.0752 104.369 26.2646V39.0068C104.369 41.0203 102.715 42.7094 100.893 42.7094Z" fill="white"/>
<path fill-rule="evenodd" clip-rule="evenodd" d="M40.8022 35.9845L50.8587 46.0426L57.2064 39.6948C58.3415 38.6728 60.078 38.7183 61.158 39.7983C62.238 40.8783 62.2835 42.6148 61.2615 43.7499L52.8847 52.1282C51.7595 53.2348 49.9548 53.2348 48.8296 52.1282L36.744 40.0395V47.2248C36.744 48.8105 35.4585 50.096 33.8727 50.096C32.287 50.096 31.0015 48.8105 31.0015 47.2248V24.7348C31.0015 23.1491 32.287 21.8636 33.8727 21.8636C35.4585 21.8636 36.744 23.1491 36.744 24.7348V31.9201L48.8281 19.8345C49.9529 18.727 51.7583 18.727 52.8831 19.8345L61.2661 28.2113C62.2882 29.3463 62.2427 31.0828 61.1627 32.1629C60.0827 33.2429 58.3461 33.2883 57.2111 32.2663L50.8634 25.9186L40.8022 35.9845ZM50.8634 33.1101C49.7007 33.1094 48.6521 33.8094 48.2067 34.8834C47.7613 35.9575 48.0068 37.194 48.8288 38.0164C49.6507 38.8388 50.8872 39.085 51.9615 38.6402C53.0357 38.1954 53.7362 37.1472 53.7362 35.9845C53.7366 35.2221 53.4342 34.4909 52.8954 33.9515C52.3567 33.4122 51.6257 33.1089 50.8634 33.1085V33.1101Z" fill="white"/>
</g>
<defs>
<clipPath id="clip0_2601_7719">
<rect width="148.143" height="34" fill="white" transform="translate(31 19)"/>
</clipPath>
</defs>
</svg>
