<svg width="210" height="72" viewBox="0 0 210 72" fill="none" xmlns="http://www.w3.org/2000/svg">
<g clip-path="url(#clip0_2601_7742)">
<path d="M89.543 21.0161H95.5239V44.922H101.505V15.0352H95.5239C92.2389 15.0352 89.543 17.7132 89.543 21.0161Z" fill="white"/>
<path d="M107.466 44.9054H113.447V32.9614C113.447 29.6764 110.751 26.9805 107.466 26.9805V44.9054Z" fill="white"/>
<path d="M119.428 26.9805V44.9055H125.409V32.9614H131.39V38.9424C131.39 42.2274 134.086 44.9233 137.371 44.9233V32.9614C137.371 29.6764 134.675 26.9805 131.39 26.9805H119.428Z" fill="white"/>
<path d="M173.205 26.9853H167.224V21.0044C167.224 17.7193 164.528 15.0234 161.243 15.0234V38.9294H149.299V32.9663H155.28V26.9853H149.299C146.014 26.9853 143.318 29.6812 143.318 32.9663V38.9472C143.318 42.2323 146.014 44.9282 149.299 44.9282H167.224V32.9663H173.205V38.9472C173.205 42.2323 175.901 44.9282 179.186 44.9282V32.9663C179.186 29.6812 176.49 26.9853 173.205 26.9853Z" fill="white"/>
<path d="M107.466 21.0161H113.447C113.447 17.731 110.751 15.0352 107.466 15.0352V21.0161Z" fill="white"/>
<path d="M97.9856 55.0098H95.5039V50.957H97.9141V51.6176H96.2359V52.6174H97.7356V53.278H96.2359V54.3314H97.9856V55.0098Z" fill="white"/>
<path d="M108.859 50.957H109.716L108.306 52.9388L109.77 55.0098H108.913L107.824 53.4922L106.752 55.0098H105.896L107.36 52.9388L105.967 50.957H106.824L107.842 52.421L108.859 50.957Z" fill="white"/>
<path d="M120.536 54.0766L120.822 54.6123C120.697 54.7551 120.5 54.8622 120.25 54.9336C120.001 55.0229 119.751 55.0586 119.483 55.0586C118.84 55.0586 118.322 54.8622 117.93 54.4873C117.537 54.1124 117.34 53.5946 117.34 52.9697C117.34 52.3627 117.537 51.8628 117.912 51.47C118.287 51.0773 118.804 50.8809 119.483 50.8809C120.018 50.8809 120.447 51.0237 120.75 51.2915L120.429 51.8271C120.143 51.6486 119.84 51.5593 119.483 51.5593C119.09 51.5593 118.751 51.6843 118.501 51.9521C118.251 52.202 118.126 52.5591 118.126 52.9876C118.126 53.4161 118.251 53.7553 118.519 54.0231C118.786 54.2909 119.144 54.4159 119.554 54.4159C119.911 54.398 120.25 54.2909 120.536 54.0766Z" fill="white"/>
<path d="M132.39 55.0098H131.658V53.278H129.748V55.0098H129.016V50.957H129.748V52.6174H131.658V50.957H132.39V55.0098Z" fill="white"/>
<path d="M141.211 55.0101H140.479L142.246 50.9395H142.889L144.656 55.0101H143.871L143.442 53.9746H141.657L141.211 55.0101ZM143.139 53.314L142.532 51.8678L141.925 53.314H143.139Z" fill="white"/>
<path d="M156.296 50.957V55.0098H155.707L153.404 52.2068V55.0098H152.725V50.957H153.314L155.617 53.7779V50.957H156.296Z" fill="white"/>
<path d="M167.651 53.4875H166.633V52.8269H168.33V54.5051C168.151 54.6837 167.919 54.8265 167.615 54.9158C167.312 55.0229 167.026 55.0586 166.776 55.0586C166.098 55.0586 165.562 54.8622 165.169 54.4873C164.777 54.1124 164.598 53.6125 164.598 52.9697C164.598 52.3806 164.795 51.8807 165.169 51.4879C165.544 51.0951 166.062 50.8809 166.687 50.8809C167.223 50.8809 167.669 51.0237 168.026 51.2915L167.723 51.8628C167.615 51.7735 167.473 51.6843 167.312 51.6307C167.133 51.5772 166.973 51.5414 166.776 51.5414C166.366 51.5414 166.026 51.6664 165.759 51.9164C165.509 52.1663 165.366 52.5234 165.366 52.9519C165.366 53.3804 165.491 53.7196 165.759 53.9874C166.009 54.2373 166.348 54.3802 166.794 54.3802C166.937 54.3802 167.115 54.3445 167.276 54.2909C167.455 54.2373 167.58 54.1659 167.651 54.0945V53.4875Z" fill="white"/>
<path d="M179.185 55.0098H176.703V50.957H179.113V51.6176H177.435V52.6174H178.935V53.278H177.435V54.3314H179.185V55.0098Z" fill="white"/>
<path d="M43.6582 38.493L45.0508 27.9951L32.9282 19.5682L43.9974 23.3175L46.6041 19.3004L56.1557 13.373L77.2051 24.96L78.2941 42.6529L68.921 55.686L61.5118 56.8108L65.3503 49.7943V43.0457L62.5651 37.7789L59.7264 35.9043L55.3702 40.3855V45.1346L51.978 48.3125L47.6574 48.8302L45.7471 49.9193L42.6049 48.9195L41.3015 44.2062L43.6582 40.9033V38.493Z" fill="white"/>
<path d="M62.9933 19.4986C60.6902 19.0165 58.155 19.1415 58.155 19.1415C58.155 19.1415 57.3337 22.98 52.1919 23.9798C52.2276 23.9798 58.9941 26.283 62.9933 19.4986Z" fill="#405BE3"/>
<path d="M65.0816 54.2578C67.8667 52.0797 69.9556 49.0803 70.9197 45.6702C70.9554 45.5453 71.3482 45.3132 71.616 45.1525C72.0445 44.8847 72.4908 44.6705 72.5801 44.3312C72.7586 43.3314 72.8479 42.2781 72.8479 41.2426C72.8479 40.8498 72.4551 40.457 72.0623 40.0642C71.7588 39.7964 71.4553 39.4929 71.4553 39.2787C71.0268 35.3152 69.1879 31.6016 66.2778 28.9057L65.9743 29.2093C68.813 31.8694 70.634 35.4759 71.0268 39.3144C71.0625 39.6715 71.4196 40.0107 71.7588 40.3677C72.0623 40.6355 72.4194 41.0283 72.4194 41.189C72.4194 42.1888 72.3301 43.1886 72.1516 44.1884C72.1159 44.3669 71.7231 44.5455 71.4196 44.7062C70.9911 44.9204 70.5983 45.1346 70.5091 45.4917C69.4557 49.1874 67.0633 52.4189 63.8854 54.5078C64.4567 53.2937 66.2421 49.3302 67.1883 47.3128L67.0098 40.8676L61.4752 35.5116L58.3329 35.9401L54.8872 41.5104C54.8872 41.5104 56.494 43.5635 54.2266 45.9559C52.0128 48.3126 50.2631 48.8303 50.2631 48.8303L48.6563 47.9555C49.1383 47.3485 50.1024 46.438 50.8344 45.8131C52.102 44.7597 53.3696 44.6883 53.3696 43.5457C53.4053 41.189 50.888 41.8496 50.888 41.8496L49.9775 42.7244L49.5847 45.9559L47.6743 48.3483L47.4601 48.3126L44.3179 47.6163C44.3179 47.6163 46.2282 46.6165 46.5317 45.4739C46.8352 44.3848 45.9247 40.7605 45.8711 40.5463C45.9068 40.582 46.7817 41.3318 47.1744 42.5459C47.8707 40.6355 48.7813 38.7966 49.0491 38.6181C49.3169 38.4396 52.834 36.5649 52.834 36.5649L51.6557 39.6536L52.5305 39.1715L54.6194 34.0297C54.6194 34.0297 56.6725 33.0299 58.1901 33.0299C60.9395 32.9942 64.9923 29.6377 63.1534 23.6211C63.6711 23.8353 72.7408 28.3701 74.3119 37.2612C75.5081 44.1527 71.6338 50.5621 65.0816 54.2578Z" fill="#405BE3"/>
<path d="M54.7271 20.4436C55.7269 19.2653 55.3341 17.5156 55.3341 17.5156L52.4061 21.8362C52.3704 21.8362 53.4595 21.8897 54.7271 20.4436Z" fill="#0A2092"/>
<path d="M44.9072 44.027L45.2642 42.2773C45.2642 42.2773 43.8181 44.8125 43.6931 45.1518C43.5681 45.5445 43.7824 46.2408 44.3537 46.2051C44.925 46.1694 45.6213 45.3303 45.6213 44.7233C45.6034 43.9377 44.9072 44.027 44.9072 44.027Z" fill="#0A2092"/>
<path d="M70.7953 16.3025C70.7953 16.3025 72.9735 16.3918 75.2409 16.6596C70.1348 12.6426 65.3143 11.4821 61.3865 11.4821C55.9769 11.4821 52.3169 13.6959 52.1026 13.8387L53.7987 11.1429C53.7987 11.1429 46.9965 10.4823 44.6041 17.6773C43.9971 16.1597 43.4258 13.928 43.4258 13.928C43.4258 13.928 39.8908 17.0167 41.5512 22.1585C37.4984 20.6767 31.696 18.6235 31.4818 18.5878C31.1783 18.5521 31.089 18.6771 31.089 18.6771C31.089 18.6771 30.9997 18.802 31.2675 19.0341C31.7496 19.4269 40.8906 26.1756 42.9081 27.4967C42.4796 29.0678 42.4796 29.7998 42.9081 30.5497C43.5151 31.5495 43.5686 32.0672 43.4794 32.8171C43.3901 33.5491 42.6045 39.9585 42.426 40.7441C42.2475 41.5296 40.4264 44.3148 40.5157 45.1539C40.6049 45.9752 41.7297 49.5102 42.7295 49.903C43.4615 50.1708 45.3004 50.7242 46.5145 50.7242C46.943 50.7242 47.3357 50.635 47.5143 50.4564C48.2463 49.7958 48.4784 49.6709 48.9961 49.6709C49.0318 49.6709 49.0854 49.6709 49.1211 49.6709C49.3353 49.6709 49.6031 49.7066 49.9067 49.7066C50.6029 49.7066 51.5135 49.5816 52.1741 48.9746C53.1382 48.0105 54.7807 46.7072 55.3163 46.1002C55.9769 45.2789 56.3161 44.1363 56.1376 43.0115C56.0126 41.9581 56.566 41.0476 57.2266 40.1371C58.0479 39.048 59.5833 37.0841 59.5833 37.0841C62.5827 39.3515 64.4573 42.7972 64.4573 46.6358C64.4573 53.438 58.5299 58.919 51.21 58.919C50.0852 58.919 48.9961 58.794 47.9071 58.5262C51.2635 59.7046 54.1022 60.0974 56.4054 60.0974C61.3329 60.0974 63.9396 58.312 63.9396 58.312C63.9396 58.312 63.029 59.4903 61.5472 60.8472C61.5829 60.8472 61.5829 60.8472 61.5829 60.8472C69.7241 59.7224 73.7055 53.0095 73.7055 53.0095C73.7055 53.0095 73.402 55.1876 73.0092 56.6695C83.8642 48.5282 82.0252 38.316 81.9895 37.9768C82.0788 38.1018 83.1679 39.4229 83.7392 40.1192C85.4888 22.1049 70.7953 16.3025 70.7953 16.3025ZM54.1022 44.9754C53.9237 45.1896 53.1917 45.8502 52.6561 46.3322C52.1384 46.8143 51.567 47.2963 51.1386 47.7248C50.96 47.9034 50.6208 47.9926 50.0852 47.9926C49.9067 47.9926 49.7281 47.9926 49.6031 47.9926C49.5139 47.9926 49.4246 47.9926 49.3353 47.9926C49.2461 47.9926 49.2104 47.9926 49.1568 47.9926C49.0318 47.9926 48.889 47.9926 48.764 47.9926C49.4246 47.1178 51.3349 45.1182 51.9955 44.6897C52.7811 44.172 53.1739 43.6364 52.6918 42.7258C52.2098 41.8153 50.9422 42.0295 50.9422 42.0295C50.9422 42.0295 51.6742 41.726 52.3347 41.726C51.5135 41.5118 50.4601 41.726 49.9781 42.2081C49.4603 42.6901 49.5496 44.3862 49.3175 45.4753C49.1032 46.6001 48.3534 47.1714 47.2286 48.2247C46.6216 48.796 46.1753 48.9567 45.836 48.9567C45.104 48.8318 44.2292 48.5997 43.6222 48.3854C43.1937 47.8141 42.5331 45.9395 42.3546 45.1539C42.4796 44.7254 43.0152 43.797 43.2651 43.2793C43.7829 42.2795 44.0864 41.7082 44.1757 41.1904C44.3542 40.4584 44.9077 35.8701 45.1398 33.9597C45.7111 34.6917 46.4966 35.9236 46.3181 36.7092C47.5857 34.9238 46.6752 33.1742 46.2288 32.4779C45.836 31.7816 45.3183 30.389 45.7468 28.9072C46.1753 27.4253 47.7464 23.3368 47.7464 23.3368C47.7464 23.3368 48.2641 24.2474 49.014 24.0688C49.746 23.8903 55.7269 14.91 55.7269 14.91C55.7269 14.91 57.3337 18.445 55.6377 21.0159C53.888 23.5868 52.1919 24.0688 52.1919 24.0688C52.1919 24.0688 54.5843 24.4973 56.816 22.8905C57.7265 25.0329 58.6013 27.2468 58.6549 27.5503C58.5299 27.8538 56.7803 32.0315 56.6017 32.2993C56.5125 32.3886 55.9055 32.5671 55.477 32.6564C54.745 32.8707 54.2986 33.0135 54.1201 33.1385C53.8166 33.4063 52.424 37.2269 51.7634 39.1015C50.9779 39.3158 50.1923 39.7621 49.621 40.6191C49.9245 40.4049 50.8886 40.262 51.5849 40.1906C52.1919 40.1549 54.0665 41.1547 54.5486 43.0293C54.5486 43.065 54.5486 43.065 54.5486 43.1186C54.6736 43.8149 54.4593 44.4576 54.1022 44.9754ZM50.0138 45.511C50.4066 44.9397 50.3709 43.9934 50.4066 43.6721C50.4423 43.3686 50.5315 42.7972 50.8886 42.708C51.2457 42.6187 52.0669 42.7437 52.0669 43.3686C52.0669 43.9399 51.4599 44.0648 51.0136 44.4576C50.7101 44.7611 50.103 45.4217 50.0138 45.511ZM67.4032 37.1912C67.8316 34.9774 67.8852 33.0492 67.7602 31.4781C69.4563 33.7455 70.5097 36.4949 70.8132 39.3158C70.8489 39.6729 71.206 40.0121 71.5452 40.3692C71.8487 40.637 72.2058 40.9762 72.2058 41.1904C72.2058 42.1902 72.1165 43.19 71.938 44.1898C71.9023 44.3148 71.5095 44.5469 71.206 44.7076C70.7775 44.9218 70.3847 45.1361 70.2954 45.4931C69.3314 48.8496 67.296 51.8133 64.5466 53.9022C68.5815 49.6887 70.5454 42.7258 67.4032 37.1912ZM64.6537 54.3128C67.4924 52.1347 69.6706 49.0817 70.6168 45.636C70.6525 45.511 71.0453 45.2789 71.3131 45.1182C71.7416 44.904 72.1879 44.6362 72.2772 44.2969C72.4557 43.2971 72.545 42.2438 72.545 41.2083C72.545 40.8155 72.1522 40.4227 71.7594 40.0299C71.5452 39.7621 71.1881 39.4586 71.1881 39.2444C70.8311 36.0664 69.5813 33.0492 67.6174 30.5675C66.7426 25.3364 63.2611 23.7296 63.1719 23.6761C63.2611 23.801 65.5285 27.0682 63.9574 30.9068C62.3506 34.781 58.2086 34.174 57.8515 34.2097C57.4944 34.2097 56.1554 35.9593 54.4593 39.173C54.2451 39.0837 53.3345 38.8695 52.2812 39.048C53.0667 36.8699 54.2451 33.7812 54.4593 33.5134C54.5486 33.4241 55.1913 33.2456 55.6377 33.1206C56.4589 32.9064 56.8517 32.7635 56.9945 32.6028C57.0838 32.4779 57.5123 31.4781 57.9586 30.4247C58.3514 30.4247 59.3512 30.3354 59.4405 30.2997C59.5297 30.2105 60.351 28.0859 60.351 27.8181C60.351 27.6039 58.6549 23.3725 57.9943 21.7657C58.2978 21.4087 58.6013 20.9802 58.9049 20.4981C67.8316 21.4622 74.8124 29.0321 74.8124 38.2267C74.8124 45.2967 70.6704 51.4384 64.6537 54.3128Z" fill="#0A2092"/>
<path d="M53.0663 30.7809C53.8876 29.8168 53.4591 28.0315 51.9416 27.728C52.3343 26.8174 52.9057 24.9785 52.9057 24.9785C52.9057 24.9785 48.4601 31.9593 48.0673 32.0842C47.6746 32.2092 47.2818 30.6917 47.2818 30.6917C46.4605 33.8696 48.6744 34.3159 48.9422 33.2983C50.1384 32.9948 52.2272 31.6915 53.0663 30.7809Z" fill="#0A2092"/>
<path d="M49.2822 32.4758L51.5496 28.6016C51.5496 28.6016 52.8529 29.2621 52.2102 30.2977C51.3711 31.5117 49.2822 32.4758 49.2822 32.4758Z" fill="white"/>
<path d="M77.2933 50.4405C76.6327 51.3153 75.9007 52.2259 75.0259 53.1007C80.6498 42.2993 75.2937 32.4084 75.0616 32.0156C75.4544 32.4084 75.8471 32.8369 76.1864 33.2297C80.5248 38.0144 81.0425 45.2094 77.2933 50.4405Z" fill="white" fill-opacity="0.28"/>
<path d="M82.5251 36.5303C80.5612 31.2635 77.776 26.7644 71.6344 22.7116C65.707 18.7838 59.3511 19.0874 58.9941 19.1409C58.9583 19.1409 58.9048 19.1409 58.9048 19.1409C59.119 19.0517 59.3333 19.0159 59.5654 18.9624C60.9222 18.5339 62.654 18.1768 64.4037 17.9626C69.0278 17.302 73.6875 18.8731 76.8655 22.2296C76.9012 22.2653 76.9012 22.2653 76.9547 22.3189C80.5612 26.1574 82.4358 30.96 82.5251 36.5303Z" fill="white" fill-opacity="0.28"/>
<path d="M70.2245 14.9641C63.7258 13.7501 59.5481 14.3571 56.5487 15.4819C56.4594 15.1248 56.1559 14.4285 55.8881 13.875C54.9776 14.9641 54.0135 16.2674 53.4065 17.1065C51.7461 18.2313 51.0498 19.3204 51.0498 19.3204C52.0139 16.0532 54.7991 13.6072 58.1912 13.0002C59.1553 12.8217 60.1908 12.7324 61.3335 12.7324C64.3507 12.786 67.3501 13.518 70.2245 14.9641Z" fill="white" fill-opacity="0.28"/>
<path d="M46.2296 23.3221C41.1235 23.1436 42.8374 17.2162 42.9267 16.877C42.9088 16.9305 43.2659 21.5367 46.2296 23.3221Z" fill="white" fill-opacity="0.28"/>
<path d="M51.228 12.6406C47.3002 14.9973 48.0857 20.6212 48.0857 20.6212C44.3543 14.908 50.9245 12.7835 51.228 12.6406Z" fill="white" fill-opacity="0.28"/>
<path d="M44.7825 24.8912C45.0503 25.1054 45.3002 25.4982 44.9967 26.0695C44.8182 26.373 44.5682 26.3373 44.1755 26.1588C43.6577 25.891 40.5155 24.0699 37.6768 22.1953C40.9083 23.3201 44.1755 24.552 44.6932 24.8019C44.6932 24.8019 44.7468 24.8555 44.7825 24.8912Z" fill="white"/>
</g>
<defs>
<clipPath id="clip0_2601_7742">
<rect width="148.185" height="49.99" fill="white" transform="translate(31 11)"/>
</clipPath>
</defs>
</svg>
