<svg width="210" height="72" viewBox="0 0 210 72" fill="none" xmlns="http://www.w3.org/2000/svg">
<path fill-rule="evenodd" clip-rule="evenodd" d="M93.6951 27.9969C93.213 27.9969 92.3292 26.6311 92.3292 25.1849V17.8736C92.3292 17.8736 93.213 17.8736 94.1771 17.8736C95.1413 17.8736 96.5071 17.713 97.7926 18.5164C97.7926 18.5164 96.9088 15.9454 94.1771 15.9454H92.3292C92.3292 15.9454 92.3292 15.7044 92.3292 14.9009V14.0975C92.3292 14.0975 92.3292 12.4906 91.9275 11.9282C91.9275 11.9282 94.2575 11.9282 94.4985 11.9282C96.5874 11.9282 98.355 11.9282 100.203 13.1334C100.203 13.1334 99.8012 10 95.4626 10C92.972 10 87.5087 10 87.1069 10C87.1069 10 88.6335 11.3658 88.4728 14.0172L88.6335 25.0242C88.6335 27.6755 89.5976 27.8362 89.5976 27.8362C89.9189 27.9969 93.6951 27.9969 93.6951 27.9969ZM121.172 13.6154C121.092 13.6154 118.762 13.6154 118.762 13.6154C118.762 13.6154 119.807 14.2582 119.164 17.1506L117.316 25.6669C117.316 25.6669 117.155 26.8721 116.754 26.8721C115.468 26.8721 114.906 24.7832 114.745 24.1404C114.584 23.6584 113.219 15.7044 113.138 15.4633C112.736 13.6155 111.612 13.6154 111.049 13.6154H110.969H108.559C108.559 13.6154 109.201 14.0172 109.523 15.383C109.603 15.5437 111.21 24.2208 111.21 24.2208C111.21 24.2208 111.531 26.0687 112.656 26.9524C113.942 27.9969 115.066 28.0772 115.789 28.0772C116.352 28.0772 116.834 27.7559 116.834 27.7559L116.513 28.961C115.95 31.3713 114.183 32.4961 114.183 32.4961H117.959C118.2 32.4961 119.164 32.1747 119.887 29.0414L122.619 17.2309C123.342 13.7761 121.976 13.6154 121.172 13.6154ZM106.309 24.3815C106.309 26.7917 107.755 27.9969 107.755 27.9969C107.755 27.9969 105.907 27.9969 103.979 27.9969C103.979 27.9969 102.774 28.1576 102.774 24.3815V13.6958C102.774 10.8034 101.569 10.0803 101.569 10.0803H103.818C104.622 10.0803 106.229 10.0803 106.229 14.0172V24.3815H106.309Z" fill="white"/>
<path fill-rule="evenodd" clip-rule="evenodd" d="M156.041 61.6586C158.853 61.1765 159.818 59.9714 159.818 59.9714V56.5166C157.568 60.6141 153.953 59.1679 153.149 58.7662C150.498 57.7218 150.337 54.267 150.337 54.267C152.346 51.8567 154.836 52.4191 158.05 48.9643C162.148 44.7062 159.094 40.0462 153.39 40.0462C147.525 40.0462 144.231 45.5096 144.231 51.455C144.231 56.6773 147.204 60.7748 151.864 61.6586C152.828 61.8193 154.836 61.8193 156.041 61.6586ZM119.967 59.1679C118.762 59.1679 117.718 57.9628 117.718 56.5166C117.718 51.214 122.217 50.4105 123.422 48.9643V57.8824C122.779 58.6055 122.378 59.1679 119.967 59.1679ZM50.6311 58.7662C49.9883 58.7662 44.9267 58.7662 44.3643 58.7662C42.3557 58.7662 42.5164 57.1594 42.3557 55.7132V46.554C42.3557 46.554 43.8019 46.554 45.4087 46.554C47.0156 46.554 49.2652 46.313 51.2738 47.5985C51.2738 47.5985 49.8276 43.742 45.4087 43.742H42.3557C42.3557 43.742 42.3557 43.3403 42.3557 42.1352V40.93C42.3557 40.93 42.3557 38.5197 41.713 37.7163C41.713 37.7163 45.5694 37.7163 45.9711 37.7163C49.4259 37.7163 52.2379 37.7163 55.291 39.5642C55.291 39.5642 54.6482 34.9043 47.578 34.9043C43.4805 34.9043 34.5624 34.9043 34 34.9043C34 34.9043 36.4103 36.9128 36.2496 41.0104L36.4906 57.6414C36.4906 60.4534 37.2941 61.4176 37.7761 61.7389H52.8807C54.9696 61.1765 55.8534 59.4893 55.8534 58.4449V56.838C55.773 56.7576 54.7286 58.7662 50.6311 58.7662ZM170.503 55.9542C170.503 57.4004 169.057 59.409 166.245 59.409C163.192 59.409 162.148 56.3559 162.148 56.3559V60.2124C162.148 60.2124 163.513 61.2569 165.683 61.6586H168.977C172.11 61.0158 175.002 58.5252 175.163 55.3115V54.7491C175.163 53.3029 174.761 52.0977 173.958 50.8926C172.512 49.2857 170.102 48.0806 168.254 46.7951C167.209 46.1523 166.647 44.9472 166.647 44.5455C166.647 43.742 167.048 42.2958 169.86 42.2958C172.673 42.2958 173.958 45.3489 173.958 45.3489V41.7334C173.958 41.7334 171.708 40.1266 168.495 40.1266C165.04 40.1266 161.987 42.3762 161.987 45.1882C162.228 47.8395 163.192 49.4464 165.201 50.8926C166.004 51.5353 167.048 52.0977 168.254 52.7405C169.941 53.7046 170.503 54.7491 170.503 55.9542ZM123.422 46.9558C121.976 49.2054 111.853 49.6071 113.46 57.7218C113.942 60.1321 115.307 61.2569 117.075 61.6586H120.128C121.896 61.2569 122.86 60.1321 123.342 59.1679C123.743 61.5782 124.949 61.5782 124.949 61.5782C128.002 61.5782 130.653 61.5782 130.653 61.5782C130.653 61.5782 128.403 60.1321 128.403 57.32V45.3489C128.403 42.5369 125.19 40.0462 121.896 40.0462C118.682 40.0462 116.432 41.6531 116.432 41.6531C116.432 42.6976 116.432 45.5096 116.432 45.5096C116.432 45.5096 117.637 42.4565 120.69 42.4565C123.502 42.4565 123.743 43.9027 123.743 44.7061C123.824 44.7865 123.984 45.5899 123.422 46.9558ZM93.9361 38.4394C95.3823 38.4394 96.5874 37.2342 96.5874 35.788C96.5874 34.3419 95.3823 33.1367 93.9361 33.1367C92.4899 33.1367 91.2848 34.3419 91.2848 35.788C91.2848 37.2342 92.4899 38.4394 93.9361 38.4394ZM154.515 47.8395C155.318 45.9916 156.122 41.5728 152.908 41.7334C149.212 42.1352 149.855 52.0977 149.855 52.0977C151.06 50.6516 153.069 50.4105 154.515 47.8395ZM140.696 42.5369C142.544 42.5369 143.91 43.5813 143.91 43.5813V40.3676H139.25V35.306C139.25 35.306 138.045 37.5556 135.393 39.5642C133.786 41.0104 130.332 42.6172 130.332 42.6172H134.027V57.6414C134.027 61.7389 135.875 61.7389 135.875 61.7389C138.928 61.7389 141.58 61.7389 141.58 61.7389C141.58 61.7389 139.33 60.2928 139.33 57.6414V42.5369C140.696 42.5369 139.651 42.5369 140.696 42.5369ZM114.022 41.8941C114.022 41.8941 113.62 40.2873 111.21 40.2873C107.514 40.2873 106.711 44.5455 106.711 44.5455C106.47 41.0907 105.506 40.0462 103.015 40.0462H99.5601C99.5601 40.0462 101.569 40.8497 101.569 44.5455V57.32C101.569 61.5782 103.176 61.5782 103.176 61.5782H108.88C108.639 61.5782 106.63 60.1321 106.63 57.32V46.7951C106.871 45.7506 107.434 45.1882 108.077 44.5455C109.924 43.3403 112.576 43.742 113.942 45.3489C114.022 45.3489 114.022 43.0993 114.022 41.8941ZM96.5874 57.32C96.5874 60.1321 98.837 61.5782 98.837 61.5782C98.837 61.5782 96.025 61.5782 93.1327 61.5782C93.1327 61.5782 91.2848 61.8193 91.2848 57.32V44.5455C91.2848 41.0907 89.4369 40.2873 89.4369 40.2873H92.8916C94.0968 40.2873 96.5874 40.2873 96.5874 44.9472V57.32ZM86.6248 57.32V45.7506C86.6248 41.2514 82.9291 40.0462 80.117 40.0462C76.6623 40.0462 75.4571 43.0993 75.0554 44.1437C74.252 41.3317 71.3596 40.0462 69.1904 40.0462C64.6911 40.0462 63.727 44.1437 63.727 44.1437C63.727 44.1437 63.486 40.2873 60.0312 40.2873H56.5765C56.5765 40.2873 58.585 41.0907 58.585 44.5455V57.32C58.585 60.2928 59.3885 61.3372 59.8705 61.6586H65.7356C65.1732 61.1765 63.6467 59.8107 63.6467 57.32V45.9113C63.8877 45.2686 64.6911 43.6617 67.1014 43.6617C68.5476 43.6617 69.9134 45.1079 69.9134 46.7147V57.2397C69.9134 61.4979 71.5203 61.4979 71.5203 61.4979H77.2247C77.2247 61.4979 75.2161 60.0517 75.2161 57.2397V45.831C75.4571 45.1882 76.0195 43.5813 78.2691 43.5813C79.876 43.5813 81.3222 45.0275 81.3222 46.6344C81.3222 46.6344 81.3222 56.3559 81.3222 57.1594C81.3222 61.6586 83.1701 61.4176 83.1701 61.4176C85.9821 61.4176 88.8745 61.4176 88.8745 61.4176C88.8745 61.4176 86.6248 60.2124 86.6248 57.32Z" fill="white"/>
</svg>
