<svg width="210" height="72" viewBox="0 0 210 72" fill="none" xmlns="http://www.w3.org/2000/svg">
<g clip-path="url(#clip0_2601_7694)">
<path d="M89.5253 26.8456V36.7055H79.7043V28.1097C79.7043 27.4096 79.1403 26.8262 78.4207 26.8262H75.0952V50.416C75.0952 51.1161 75.6592 51.6995 76.3787 51.6995H79.7043V40.6923H89.5253V50.416C89.5058 51.1161 90.0698 51.6995 90.7894 51.719H90.8088H94.1343V28.1097C94.1343 27.4096 93.5703 26.8262 92.8508 26.8262L89.5253 26.8456ZM109.012 33.0105V44.8346C109.031 45.9042 108.467 46.9155 107.534 47.46C104.928 48.9574 102.244 47.071 102.244 44.6206V34.294C102.244 33.5939 101.68 33.0105 100.96 33.0105H97.6349V45.029C97.6543 48.8991 100.785 52.0496 104.675 52.069H106.561C110.451 52.0496 113.601 48.9185 113.621 45.029V34.2746C113.621 33.5745 113.057 32.991 112.337 32.991H109.012V33.0105Z" fill="white"/>
<path d="M159.283 51.7173H162.609V34.973C162.609 34.2729 162.045 33.6895 161.325 33.6895H158V50.4338C158 51.1339 158.563 51.7173 159.283 51.7173Z" fill="white"/>
<path d="M162.68 30.3353C163.223 29.0254 162.601 27.5237 161.291 26.9812C159.981 26.4386 158.48 27.0606 157.937 28.3705C157.394 29.6803 158.016 31.182 159.326 31.7246C160.636 32.2672 162.138 31.6452 162.68 30.3353Z" fill="white"/>
<path d="M125.502 32.9922C120.679 32.9922 116.731 36.4344 116.731 41.2379V43.8439C116.731 48.6474 120.679 52.0702 125.502 52.0702C130.325 52.0702 134.273 48.6474 134.273 43.8439V41.2379C134.273 36.4344 130.325 32.9922 125.502 32.9922ZM129.644 44.1551C129.644 46.4304 127.777 47.9473 125.502 47.9473C123.226 47.9473 121.359 46.4304 121.359 44.1551V40.9073C121.359 38.632 123.226 37.1151 125.502 37.1151C127.777 37.1151 129.644 38.632 129.644 40.9073V44.1551Z" fill="white"/>
<path d="M146.136 32.9931C144.697 32.9736 143.277 33.3042 141.974 33.9265V28.1312C141.974 27.4311 141.41 26.8477 140.691 26.8477H137.365V43.8253C137.365 48.6289 141.313 52.0516 146.136 52.0516C150.959 52.0516 154.907 48.6289 154.907 43.8253V41.2194C154.907 36.4353 150.979 32.9931 146.136 32.9931ZM150.298 44.1559C150.298 46.4313 148.431 47.9482 146.156 47.9482C143.88 47.9482 142.013 46.4313 142.013 44.1559V40.9082C142.013 38.6328 143.88 37.1159 146.156 37.1159C148.431 37.1159 150.298 38.6328 150.298 40.9082V44.1559Z" fill="white"/>
<path d="M61.189 28.8676C61.189 23.8501 58.7386 19.5328 56.8717 18.1326C56.8717 18.1326 56.7355 18.0548 56.7355 18.2492C56.58 27.9341 51.6208 30.5595 48.8982 34.0795C42.6166 42.228 48.4509 51.1739 54.4213 52.8269C57.7468 53.7604 53.6434 51.1933 53.1183 45.7869C52.4765 39.2914 61.189 34.2934 61.189 28.8676Z" fill="white"/>
<path d="M64.0482 32.1777C64.0093 32.1582 63.9509 32.1388 63.912 32.1971C63.8148 33.4223 62.5701 36.0283 60.9755 38.4203C55.6079 46.5299 58.6612 50.4583 60.392 52.5586C61.3839 53.7838 60.392 52.5586 62.8813 51.314C65.954 49.447 67.9571 46.2188 68.2488 42.6404C68.7545 36.8645 65.2734 33.2278 64.0482 32.1777Z" fill="white"/>
</g>
<defs>
<clipPath id="clip0_2601_7694">
<rect width="117.661" height="35.2" fill="white" transform="translate(46 18)"/>
</clipPath>
</defs>
</svg>
