<svg width="121" height="48" viewBox="0 0 121 48" fill="none" xmlns="http://www.w3.org/2000/svg">
<path d="M43.2116 40.2767V42.8726H33.6756V40.2767H43.2116ZM34.5888 23.8789V42.8726H31.3145V23.8789H34.5888Z" fill="white"/>
<path d="M50.3071 23.8789V42.8726H47.0328V23.8789H50.3071Z" fill="white"/>
<path d="M70.513 23.8789V42.8726H67.2387L58.7202 29.2666V42.8726H55.4459V23.8789H58.7202L67.2648 37.5111V23.8789H70.513Z" fill="white"/>
<path d="M78.7565 23.8789V42.8726H75.4822V23.8789H78.7565ZM90.171 23.8789L82.4744 33.0236L78.0912 37.6676L77.5172 34.4194L80.6481 30.558L86.1792 23.8789H90.171ZM86.6488 42.8726L80.4002 33.8715L82.657 31.6408L90.5363 42.8726H86.6488Z" fill="white"/>
<path d="M9.15216 10.8335L13.6967 6.28907L18.2437 10.8359L20.8881 8.19152L13.6967 1L6.50781 8.18912L9.15216 10.8335Z" fill="white"/>
<path d="M7.28884 12.7029L4.64453 10.0586L2.00009 12.703L4.6444 15.3473L7.28884 12.7029Z" fill="white"/>
<path d="M9.15409 14.5647L13.6987 19.1091L18.2455 14.5625L20.8913 17.2054L20.89 17.2069L13.6987 24.3982L6.50956 17.2093L6.50586 17.2056L9.15409 14.5647Z" fill="white"/>
<path d="M22.752 15.3476L25.3965 12.7031L22.7522 10.0588L20.1077 12.7033L22.752 15.3476Z" fill="white"/>
<path d="M16.3806 12.7068H16.3817L13.6983 10.0234L11.7153 12.0065H11.7151L11.4874 12.2344L11.0174 12.7044L11.0137 12.7081L11.0174 12.712L13.6983 15.3929L16.3817 12.7096L16.383 12.7081L16.3806 12.7068Z" fill="white"/>
<path d="M29.5156 6.67188H35.267C36.6944 6.67188 37.7738 7.03821 38.5054 7.77087C39.0715 8.3383 39.3545 9.04157 39.3545 9.88051V9.916C39.3545 10.2705 39.3107 10.5838 39.2225 10.8555C39.1345 11.1276 39.017 11.3725 38.87 11.5911C38.7235 11.8099 38.553 12.002 38.3593 12.1672C38.1655 12.3328 37.9572 12.4748 37.7341 12.5927C38.4516 12.8648 39.0164 13.2339 39.4282 13.7007C39.8398 14.1678 40.0459 14.8149 40.0459 15.642V15.6773C40.0459 16.2447 39.9369 16.741 39.7186 17.1667C39.5003 17.592 39.1876 17.9466 38.7804 18.2304C38.3732 18.5141 37.8836 18.7266 37.3114 18.8686C36.7391 19.0103 36.105 19.0811 35.4091 19.0811H29.5156V6.67188ZM34.692 11.6887C35.2949 11.6887 35.7736 11.5856 36.1279 11.3786C36.4824 11.1717 36.6596 10.8377 36.6596 10.377V10.3415C36.6596 9.92801 36.5059 9.61195 36.1987 9.39312C35.8913 9.17446 35.4481 9.06504 34.8692 9.06504H32.1746V11.6887H34.692ZM35.4189 16.6881C36.0216 16.6881 36.494 16.5791 36.8371 16.3603C37.1798 16.1416 37.3513 15.8017 37.3513 15.3407V15.3054C37.3513 14.8918 37.1916 14.5639 36.8726 14.3214C36.5534 14.0795 36.0394 13.9582 35.3302 13.9582H32.1746V16.6883L35.4189 16.6881Z" fill="white"/>
<path d="M43.4707 6.67188H46.201V19.0815H43.4707V6.67188Z" fill="white"/>
<path d="M50.3379 6.67188H52.8549L58.6698 14.3127V6.67188H61.3644V19.0815H59.0422L53.0323 11.1926V19.0815H50.3379V6.67188Z" fill="white"/>
<path d="M69.6352 6.57422H72.1524L77.4711 19.0724H74.6168L73.4821 16.2892H68.2346L67.1001 19.0724H64.3164L69.6352 6.57422ZM72.5071 13.8779L70.8583 9.85383L69.2099 13.8779H72.5071Z" fill="white"/>
<path d="M80.4121 6.67188H82.9297L88.7442 14.3127V6.67188H91.4388V19.0815H89.1166L83.1067 11.1926V19.0815H80.4121V6.67188Z" fill="white"/>
<path d="M101.267 19.2841C100.356 19.2841 99.5116 19.1185 98.7315 18.7879C97.9513 18.4572 97.2778 18.0049 96.7105 17.4316C96.1431 16.8584 95.6997 16.1818 95.3811 15.4018C95.0619 14.6216 94.9023 13.7884 94.9023 12.902V12.8667C94.9023 11.9802 95.0619 11.1502 95.3811 10.3759C95.6999 9.60185 96.1431 8.92223 96.7105 8.33725C97.2776 7.75226 97.9574 7.29112 98.749 6.95436C99.5406 6.6176 100.416 6.44922 101.373 6.44922C101.952 6.44922 102.481 6.49672 102.959 6.59098C103.438 6.6858 103.872 6.81555 104.262 6.98097C104.653 7.14658 105.013 7.34749 105.344 7.5837C105.674 7.82028 105.982 8.08015 106.266 8.36386L104.529 10.367C104.043 9.92992 103.55 9.58688 103.048 9.33884C102.546 9.0908 101.981 8.96659 101.355 8.96659C100.835 8.96659 100.353 9.06714 99.9105 9.26805C99.4673 9.46896 99.086 9.74657 98.7668 10.1011C98.4479 10.4556 98.1997 10.8665 98.0221 11.3331C97.8452 11.8002 97.7567 12.2994 97.7567 12.8312V12.8665C97.7567 13.3982 97.8452 13.9008 98.0221 14.3732C98.1997 14.8462 98.4444 15.2597 98.7581 15.6142C99.071 15.9687 99.4493 16.2496 99.8924 16.4564C100.336 16.6634 100.823 16.7666 101.355 16.7666C102.064 16.7666 102.664 16.6366 103.154 16.3766C103.645 16.1169 104.133 15.7622 104.617 15.3129L106.354 17.068C106.035 17.4109 105.704 17.7183 105.362 17.9898C105.019 18.2618 104.644 18.4951 104.236 18.6903C103.828 18.8851 103.382 19.0331 102.898 19.1333C102.413 19.2337 101.869 19.2841 101.267 19.2841Z" fill="white"/>
<path d="M109.568 6.67188H118.911V9.10072H112.263V11.6181H118.113V14.0467H112.263V16.6528H119V19.0815H109.568V6.67188Z" fill="white"/>
</svg>
