<svg width="56" height="56" viewBox="0 0 56 56" fill="none" xmlns="http://www.w3.org/2000/svg">
<path d="M11.3576 53.3944C12.4848 54.5344 14.0213 55.176 15.6244 55.176H49.1001C52.4138 55.176 55.1001 52.4897 55.1001 49.176V6.07596C55.1001 2.76225 52.4138 0.0759621 49.1001 0.0759621H6C2.68629 0.0759621 0 2.76226 0 6.07596V39.441C0 41.0204 0.622768 42.5361 1.73319 43.6593L11.3576 53.3944Z" fill="#F3F4FB"/>
<path d="M33.0105 23.7172L38.725 29.1062V25.6768L27.55 14.8988L16.375 25.6768V29.0246L22.0895 23.6764C23.6557 22.2067 24.6293 20.8186 24.9679 20.0021H26.1531V40.3531H28.9469V20.0429H30.1321C30.4708 20.9002 31.402 22.2067 33.0105 23.7172Z" fill="#060606"/>
</svg>
