<svg width="344" height="425" viewBox="0 0 344 425" fill="none" xmlns="http://www.w3.org/2000/svg">
<g clip-path="url(#clip0_1507_13101)">
<mask id="mask0_1507_13101" style="mask-type:luminance" maskUnits="userSpaceOnUse" x="0" y="4" width="48" height="48">
<path d="M48 4H0V52H48V4Z" fill="white"/>
</mask>
<g mask="url(#mask0_1507_13101)">
<path fill-rule="evenodd" clip-rule="evenodd" d="M35.3779 147.143C35.3779 144.168 34.2624 141.938 32.4034 140.822L31.2879 140.264H34.8201V135.431H13.2551V140.636H26.0826C29.0571 140.636 30.9161 142.309 30.9161 145.284C30.9161 148.072 29.243 149.56 26.2685 149.56H13.2551V154.765H27.198C32.2175 154.579 35.3779 151.791 35.3779 147.143ZM35.3779 122.046C35.3779 115.911 31.4738 112.193 25.339 112.193H22.3645C16.4155 112.193 12.8833 116.097 12.8833 122.231C12.8833 126.321 14.3705 129.296 17.5309 130.969L19.39 127.809C17.5309 126.507 16.4155 124.276 16.4155 122.231C16.4155 119.071 18.2745 117.212 21.6208 117.212H22.5504V131.713H26.0826C31.6597 131.527 35.3779 127.809 35.3779 122.046ZM25.7108 126.879V117.212H26.2685C29.8007 117.212 31.8457 118.885 31.8457 122.046C31.8457 125.02 29.9866 126.879 26.6403 126.879H25.7108ZM38.3523 206.075H42.4423V188.228H38.3523V194.549H17.345V188.228H13.2551V206.075H17.345V199.754H38.3523V206.075ZM43 70.1779C43 62.1839 37.9805 57.1645 29.9866 57.1645H25.7108C17.7168 57.1645 12.6974 62.1839 12.6974 70.1779C12.6974 78.1718 17.7168 83.1913 25.7108 83.1913H29.9866C37.9805 83.1913 43 78.1718 43 70.1779ZM25.339 77.8C19.9477 77.8 16.9732 75.0114 16.9732 70.1779C16.9732 65.3443 19.9477 62.5557 25.339 62.5557H30.3584C35.7497 62.5557 38.7242 65.3443 38.7242 70.1779C38.7242 75.0114 35.7497 77.8 30.3584 77.8H25.339ZM35.192 99.551C35.192 96.7624 34.0765 94.5315 32.2175 93.2302L31.4738 92.6725H34.8201V87.8389H5.81885V93.0443H16.2296L15.486 93.602C13.8128 94.7174 12.6974 97.1342 12.6974 99.7369C12.6974 104.199 15.6719 108.66 22.1786 108.66H25.8967C30.5443 108.474 35.3779 105.686 35.192 99.551ZM22.3645 103.269C18.8323 103.269 16.7873 101.224 16.7873 98.0637C16.7873 95.0893 19.0182 92.8584 22.3645 92.8584H25.5249C28.8712 92.8584 31.102 94.9033 31.102 98.0637C31.102 101.224 28.8712 103.269 25.5249 103.269H22.3645ZM42.4423 168.894L13.2551 158.483V163.688L19.5759 165.733V177.817L13.441 179.862V185.068L42.6282 174.657L42.4423 168.894ZM23.6658 167.035L38.3523 171.682L23.6658 176.33V167.035ZM27.7557 43.7793C30.3584 44.7088 33.147 44.337 35.3779 43.0356C38.9101 40.9907 40.7691 36.9007 39.8396 32.9967C42.2564 30.7659 43.3718 27.4195 42.8141 24.0732C42.0705 20.7269 39.6537 18.1243 36.4933 17.0088C35.9356 14.4061 34.2624 12.1753 32.0316 10.8739C28.4994 8.82897 24.0376 9.20078 21.0631 11.9894C18.4604 11.0598 15.6719 11.4317 13.441 12.733C9.90878 14.778 8.04973 18.8679 8.97925 22.7719C6.93429 24.631 5.81886 27.0477 5.81886 29.8363C5.81886 33.9263 8.42154 37.4585 12.3256 38.7598C12.8833 41.3625 14.5564 43.5933 16.7873 44.8947C20.3195 46.9397 24.7812 46.5678 27.7557 43.7793ZM8.23563 29.8363C8.23563 28.1632 8.79335 26.6759 9.90878 25.3746L10.0947 25.5605L14.3705 32.9967C14.5564 33.3685 14.9282 33.5544 15.486 33.5544H25.8967L24.0376 36.7148H15.3C11.396 36.7148 8.23563 33.7403 8.23563 29.8363ZM14.7423 14.778C16.2296 14.0343 17.7168 13.6625 19.39 14.0343L19.2041 14.2202L14.9282 21.6565C14.7423 22.0283 14.7423 22.4001 14.9282 22.9578L20.1336 32.0672H16.6014C16.6014 32.0672 16.6014 32.0672 16.4155 32.0672L12.1397 24.631C10.2806 21.0988 11.396 16.8229 14.7423 14.778ZM30.7302 12.9189C32.2175 13.6625 33.147 14.9639 33.7047 16.637H24.9671C24.5953 16.637 24.2235 16.8229 23.8517 17.1947L18.6464 26.1182L16.7873 22.9578C16.7873 22.9578 16.7873 22.9578 16.7873 22.7719L21.0631 15.3357C23.294 12.1753 27.5698 11.0598 30.7302 12.9189ZM24.7812 38.5739L29.9866 29.6504L31.8457 32.8108C31.8457 32.8108 31.8457 32.8108 31.8457 32.9967L27.5698 40.433C26.2685 42.8497 23.6658 44.1511 20.8772 43.9652C18.2745 43.7793 15.8578 41.9202 14.9282 39.5034H23.6658C24.2235 39.3175 24.5953 38.9457 24.7812 38.5739ZM29.4289 41.7343L29.6148 41.5484L33.8906 34.1122C34.0765 33.7403 34.0765 33.1826 33.8906 32.8108L28.6853 23.8873H32.2175C32.2175 23.8873 32.2175 23.8873 32.4034 23.8873L36.6792 31.3236C37.9805 33.7403 37.9805 36.5289 36.3074 38.7598C34.8201 40.9907 32.2175 42.1061 29.4289 41.7343ZM23.1081 22.2142L24.9671 19.0538H33.7047C36.4933 19.0538 38.9101 20.541 40.0255 23.1437C41.1409 25.5605 40.7691 28.535 39.096 30.5799L38.9101 30.394L34.6342 22.9578C34.4483 22.586 34.0765 22.4001 33.5188 22.4001L23.1081 22.2142ZM26.8262 23.8873L29.0571 27.9773L26.8262 32.0672H22.1786L19.9477 27.9773L22.1786 23.8873H26.8262Z" fill="white"/>
</g>
</g>
<g filter="url(#filter0_b_1507_13101)">
<path d="M278 4C281.314 4 284 6.68629 284 10L284 46C284 49.3137 281.314 52 278 52L68 51.9999C64.6863 51.9999 62 49.3136 62 45.9999L62 9.99996C62 6.68625 64.6863 3.99997 68 3.99997L278 4Z" fill="url(#paint0_linear_1507_13101)"/>
</g>
<g filter="url(#filter1_b_1507_13101)">
<path d="M277.909 4C281.222 4 283.909 6.68629 283.909 10L283.909 46C283.909 49.3137 281.222 51.9999 277.909 51.9999L68.0006 51.9999C64.6869 51.9999 62.0006 49.3136 62.0006 45.9999L62.0006 9.99996C62.0006 6.68625 64.6869 3.99997 68.0006 3.99997L277.909 4Z" fill="white" fill-opacity="0.1"/>
</g>
<line opacity="0.7" x1="343" y1="68.5" y2="68.5" stroke="white" stroke-opacity="0.2"/>
<path d="M24.1523 205.305C33.6253 205.305 41.3046 197.625 41.3046 188.152C41.3046 178.679 33.6253 171 24.1523 171C14.6793 171 7 178.679 7 188.152C7 197.625 14.6793 205.305 24.1523 205.305Z" stroke="white" stroke-width="2.2"/>
<path d="M27.5987 194.931C27.2535 194.968 26.9094 194.824 26.7008 194.547C25.1382 192.487 22.212 192.066 20.1294 193.601C19.7405 193.981 19.1118 193.977 18.7309 193.579C18.351 193.19 18.3548 192.561 18.7536 192.18C18.8164 192.114 18.8912 192.066 18.9758 192.017C21.9334 189.792 26.1236 190.379 28.3488 193.337C28.3488 193.337 28.3488 193.337 28.3498 193.347C28.6747 193.781 28.5899 194.398 28.1563 194.733C27.999 194.849 27.797 194.92 27.5987 194.931Z" fill="white"/>
<path d="M30.0168 191.319C29.5828 191.365 29.1546 191.18 28.8884 190.829C26.55 187.744 22.1485 187.139 19.0633 189.477C18.5175 189.884 17.7384 189.776 17.3222 189.231C16.9159 188.686 17.0235 187.906 17.5682 187.49C21.7657 184.347 27.7188 185.198 30.8708 189.384C31.2594 189.952 31.1211 190.724 30.5536 191.113C30.3864 191.23 30.2042 191.299 30.0069 191.32L30.0168 191.319Z" fill="white"/>
<path d="M33.8144 188.213C33.2916 188.268 32.7891 188.042 32.4762 187.626C28.6864 182.589 21.5295 181.575 16.4925 185.365C15.8268 185.864 14.8945 185.722 14.3958 185.056C13.8971 184.391 14.0386 183.459 14.7042 182.96C21.0549 178.194 30.0754 179.481 34.8408 185.832C35.3385 186.488 35.2069 187.419 34.5511 187.917C34.3387 188.079 34.0807 188.185 33.8144 188.213Z" fill="white"/>
<g filter="url(#filter2_b_1507_13101)">
<path d="M147 164C150.314 164 153 166.686 153 170L153 206C153 209.314 150.314 212 147 212L68 212C64.6863 212 62 209.314 62 206L62 170C62 166.686 64.6863 164 68 164L147 164Z" fill="url(#paint1_linear_1507_13101)"/>
</g>
<g filter="url(#filter3_b_1507_13101)">
<path d="M146.963 164C150.276 164 152.963 166.686 152.963 170L152.963 206C152.963 209.314 150.276 212 146.963 212L68.0003 212C64.6866 212 62.0003 209.314 62.0003 206L62.0003 170C62.0003 166.686 64.6866 164 68.0003 164L146.963 164Z" fill="white" fill-opacity="0.1"/>
</g>
<line opacity="0.7" x1="343" y1="228.5" y2="228.5" stroke="white" stroke-opacity="0.2"/>
<path fill-rule="evenodd" clip-rule="evenodd" d="M38.7577 122.757C39.6306 121.885 40.3116 120.839 40.7569 119.687C41.1854 118.585 41.4784 117.325 41.5626 115.48C41.647 113.631 41.6669 113.041 41.6669 108.333C41.6669 103.626 41.647 103.035 41.5626 101.187C41.4784 99.3419 41.1854 98.0819 40.7569 96.9794C40.3217 95.8228 39.6394 94.7751 38.7577 93.9093C37.8919 93.0274 36.8441 92.345 35.6874 91.9097C34.5848 91.4815 33.3248 91.1885 31.4798 91.1047C29.6313 91.02 29.041 91 24.3335 91C19.626 91 19.0355 91.02 17.187 91.1043C15.342 91.1885 14.0821 91.4815 12.9795 91.91C11.823 92.3452 10.7753 93.0275 9.90948 93.9093C9.02753 94.775 8.34506 95.8227 7.90967 96.9793C7.4815 98.0819 7.18853 99.3419 7.10465 101.187C7.01995 103.035 7 103.626 7 108.333C7 113.041 7.01995 113.631 7.10465 115.48C7.18887 117.325 7.48184 118.585 7.91036 119.687C8.34559 120.844 9.02787 121.892 9.90962 122.757C10.7754 123.639 11.8231 124.321 12.9797 124.757C14.0823 125.185 15.3422 125.478 17.1872 125.562C19.0359 125.647 19.6262 125.667 24.3336 125.667C29.0411 125.667 29.6316 125.647 31.4801 125.562C33.3251 125.478 34.5851 125.185 35.6876 124.757C36.839 124.311 37.8847 123.63 38.7577 122.757ZM9.6649 106.293C9.66558 106.854 9.66639 107.521 9.66639 108.333C9.66639 109.146 9.66558 109.813 9.6649 110.374C9.66225 112.563 9.66156 113.13 9.71861 114.375C9.78958 115.936 9.87486 117.083 10.1353 117.948C10.3856 118.779 10.6664 119.625 11.5831 120.646C12.4997 121.666 13.3839 122.129 14.5101 122.468C15.6364 122.808 17.0519 122.881 18.281 122.937C19.6751 123.001 20.2276 123.001 23.1519 123L24.3331 123C25.1108 123 25.7555 123 26.3012 123.001H26.3023H26.3086C28.5514 123.003 29.1176 123.004 30.3749 122.946C31.9361 122.875 33.0833 122.79 33.9478 122.53C34.7789 122.28 35.6249 121.999 36.6458 121.082C37.6666 120.165 38.129 119.281 38.4687 118.155C38.8083 117.029 38.8813 115.613 38.9374 114.384C39.0009 112.992 39.0008 112.441 39 109.527L38.9998 108.334L39 107.153C39.0008 104.229 39.0009 103.676 38.9373 102.282C38.8812 101.053 38.8082 99.6377 38.4686 98.5115C38.1289 97.3853 37.6665 96.5011 36.6457 95.5844C35.6248 94.6678 34.7788 94.387 33.9477 94.1366C33.0832 93.8762 31.936 93.791 30.3748 93.72C29.1175 93.6624 28.5514 93.663 26.3087 93.6655C25.7615 93.6661 25.1144 93.6668 24.3331 93.6668L23.1517 93.6666C20.2276 93.6658 19.6751 93.6656 18.281 93.7292C17.0519 93.7853 15.6364 93.8583 14.5101 94.198C13.3839 94.5377 12.4997 95.0001 11.5831 96.0209C10.6664 97.0417 10.3856 97.8877 10.1353 98.7188C9.87486 99.5834 9.78958 100.731 9.71861 102.292C9.66156 103.537 9.66225 104.104 9.6649 106.293ZM24.3328 102.334C21.0194 102.334 18.3333 105.02 18.3333 108.333C18.3333 111.647 21.0194 114.333 24.3328 114.333C27.6463 114.333 30.3324 111.647 30.3324 108.333C30.3324 105.02 27.6463 102.334 24.3328 102.334ZM15.6666 108.333C15.6666 103.547 19.5466 99.6672 24.3328 99.6672C29.1191 99.6672 32.9991 103.547 32.9991 108.333C32.9991 113.12 29.1191 117 24.3328 117C19.5466 117 15.6666 113.12 15.6666 108.333ZM33.5859 101.081C34.6904 101.081 35.5859 100.185 35.5859 99.0806C35.5859 97.9761 34.6904 97.0806 33.5859 97.0806C32.4813 97.0806 31.5859 97.9761 31.5859 99.0806C31.5859 100.185 32.4813 101.081 33.5859 101.081Z" fill="white"/>
<g filter="url(#filter4_b_1507_13101)">
<path d="M190 84C193.314 84 196 86.6863 196 90L196 126C196 129.314 193.314 132 190 132L68 132C64.6863 132 62 129.314 62 126L62 90C62 86.6863 64.6863 84 68 84L190 84Z" fill="url(#paint2_linear_1507_13101)"/>
</g>
<g filter="url(#filter5_b_1507_13101)">
<path d="M189.945 84C193.259 84 195.945 86.6863 195.945 90L195.945 126C195.945 129.314 193.259 132 189.945 132L68.0005 132C64.6868 132 62.0005 129.314 62.0005 126L62.0005 90C62.0005 86.6863 64.6868 84 68.0005 84L189.945 84Z" fill="white" fill-opacity="0.1"/>
</g>
<line opacity="0.7" x1="343" y1="148.5" y2="148.5" stroke="white" stroke-opacity="0.2"/>
<path d="M30.3281 276.384L6.35727 260.241C6.18403 260.124 6.18006 259.87 6.34956 259.748L18.3261 251.125C18.4301 251.05 18.5702 251.05 18.6748 251.124L42.1544 267.755C42.3232 267.875 42.3232 268.125 42.1544 268.245L30.6691 276.38C30.5673 276.452 30.4316 276.454 30.3281 276.384Z" stroke="white" stroke-width="1.7"/>
<path d="M18.1719 276.384L42.1427 260.241C42.316 260.124 42.3199 259.87 42.1504 259.748L30.1739 251.125C30.0699 251.05 29.9298 251.05 29.8252 251.124L6.34559 267.755C6.1768 267.875 6.1768 268.125 6.34559 268.245L17.8309 276.38C17.9327 276.452 18.0684 276.454 18.1719 276.384Z" stroke="white" stroke-width="1.7"/>
<path d="M12.5 273V277.843C12.5 277.941 12.5481 278.033 12.6287 278.09L23.8356 285.886C23.9351 285.955 24.0665 285.957 24.1687 285.892L36.3617 278.089C36.4479 278.033 36.5 277.938 36.5 277.836V272.5" stroke="white" stroke-width="1.7"/>
<path d="M24 272.5V285.5" stroke="white" stroke-width="1.7"/>
<g filter="url(#filter6_b_1507_13101)">
<path d="M127 244C130.314 244 133 246.686 133 250L133 286C133 289.314 130.314 292 127 292L68 292C64.6863 292 62 289.314 62 286L62 250C62 246.686 64.6863 244 68 244L127 244Z" fill="url(#paint3_linear_1507_13101)"/>
</g>
<g filter="url(#filter7_b_1507_13101)">
<path d="M126.971 244C130.284 244 132.971 246.686 132.971 250L132.971 286C132.971 289.314 130.284 292 126.971 292L68.0001 292C64.6864 292 62.0001 289.314 62.0001 286L62.0001 250C62.0001 246.686 64.6864 244 68.0001 244L126.971 244Z" fill="white" fill-opacity="0.1"/>
</g>
<line opacity="0.7" x1="343" y1="308.5" y2="308.5" stroke="white" stroke-opacity="0.2"/>
<path d="M23.541 330C13.853 330 6 337.853 6 347.541C6 357.229 13.853 365.082 23.541 365.082C33.229 365.082 41.082 357.229 41.082 347.541C41.0685 337.853 33.229 330 23.541 330ZM24.8903 362.316V351.589H28.9382C29.6803 351.589 30.2875 350.982 30.2875 350.24C30.2875 349.497 29.6803 348.89 28.9382 348.89H24.8903V344.842C24.8903 343.358 26.1047 342.144 27.5889 342.144H30.2875C31.0296 342.144 31.6368 341.537 31.6368 340.794C31.6368 340.052 31.0296 339.445 30.2875 339.445H27.5889C24.6069 339.445 22.1917 341.86 22.1917 344.842V348.89H18.1438C17.4016 348.89 16.7944 349.497 16.7944 350.24C16.7944 350.982 17.4016 351.589 18.1438 351.589H22.1917V362.316C14.0284 361.574 8.01047 354.355 8.76608 346.192C9.5082 338.028 16.727 332.01 24.8903 332.753C33.0536 333.495 39.0715 340.714 38.3159 348.877C37.6682 356.001 32.0146 361.655 24.8903 362.302V362.316Z" fill="white"/>
<g filter="url(#filter8_b_1507_13101)">
<path d="M97 324C100.314 324 103 326.686 103 330L103 366C103 369.314 100.314 372 97 372L68 372C64.6863 372 62 369.314 62 366L62 330C62 326.686 64.6863 324 68 324L97 324Z" fill="url(#paint4_linear_1507_13101)"/>
</g>
<g filter="url(#filter9_b_1507_13101)">
<path d="M96.9832 324C100.297 324 102.983 326.686 102.983 330L102.983 366C102.983 369.314 100.297 372 96.9832 372L68.0001 372C64.6864 372 62.0001 369.314 62.0001 366L62.0001 330C62.0001 326.686 64.6864 324 68.0001 324L96.9832 324Z" fill="white" fill-opacity="0.1"/>
</g>
<line opacity="0.7" x1="343" y1="388.5" y2="388.5" stroke="white" stroke-opacity="0.2"/>
<g filter="url(#filter10_f_1507_13101)">
<circle cx="284" cy="29" r="8" fill="white"/>
</g>
<circle cx="284" cy="29" r="5" fill="white"/>
<path d="M285 30H299.426C300.919 30 302.358 30.5565 303.463 31.5608L317.037 43.9036C318.287 45.0408 319 46.6526 319 48.3428V395" stroke="url(#paint5_linear_1507_13101)" stroke-opacity="0.5" stroke-width="1.05"/>
<g filter="url(#filter11_f_1507_13101)">
<circle cx="319" cy="389.142" r="8" fill="white"/>
</g>
<circle cx="319" cy="389.142" r="5" fill="white"/>
<path fill-rule="evenodd" clip-rule="evenodd" d="M299 10.7077L302.555 5.55044L306.109 10.7077L303.17 10.7077L303.17 10.7078L301.939 10.7078L301.939 10.7077L299 10.7077Z" fill="#E6E9FF"/>
<path fill-rule="evenodd" clip-rule="evenodd" d="M299 17.9277L302.555 12.7704L306.109 17.9277L303.17 17.9277L303.17 17.9277L301.939 17.9277L301.939 17.9277L299 17.9277Z" fill="#E6E9FF"/>
<path d="M313.08 16V7.306L313.346 7.418C313.225 7.67933 313.015 7.936 312.716 8.188C312.418 8.44 312.072 8.65933 311.68 8.846C311.288 9.02333 310.873 9.14933 310.434 9.224V7.796C310.845 7.73067 311.246 7.60933 311.638 7.432C312.03 7.24533 312.38 7.02133 312.688 6.76C312.996 6.48933 313.225 6.20933 313.374 5.92H314.522V16H313.08ZM320.118 16.14C319.306 16.14 318.592 15.9207 317.976 15.482C317.36 15.034 316.879 14.418 316.534 13.634C316.188 12.8407 316.016 11.9353 316.016 10.918C316.016 9.90067 316.188 9.00933 316.534 8.244C316.879 7.46933 317.36 6.86733 317.976 6.438C318.592 5.99933 319.306 5.78 320.118 5.78C320.93 5.78 321.639 5.99933 322.246 6.438C322.862 6.86733 323.342 7.46933 323.688 8.244C324.033 9.00933 324.206 9.90067 324.206 10.918C324.206 11.9447 324.033 12.85 323.688 13.634C323.342 14.418 322.862 15.034 322.246 15.482C321.63 15.9207 320.92 16.14 320.118 16.14ZM320.118 14.866C320.65 14.866 321.102 14.7027 321.476 14.376C321.849 14.04 322.129 13.578 322.316 12.99C322.512 12.3927 322.61 11.6973 322.61 10.904C322.61 10.12 322.512 9.43867 322.316 8.86C322.129 8.28133 321.849 7.838 321.476 7.53C321.112 7.21267 320.659 7.054 320.118 7.054C319.567 7.054 319.105 7.21267 318.732 7.53C318.368 7.84733 318.088 8.29533 317.892 8.874C317.705 9.44333 317.612 10.12 317.612 10.904C317.612 11.6973 317.71 12.3927 317.906 12.99C318.102 13.5873 318.382 14.0493 318.746 14.376C319.119 14.7027 319.576 14.866 320.118 14.866ZM329.562 16.14C328.75 16.14 328.036 15.9207 327.42 15.482C326.804 15.034 326.323 14.418 325.978 13.634C325.632 12.8407 325.46 11.9353 325.46 10.918C325.46 9.90067 325.632 9.00933 325.978 8.244C326.323 7.46933 326.804 6.86733 327.42 6.438C328.036 5.99933 328.75 5.78 329.562 5.78C330.374 5.78 331.083 5.99933 331.69 6.438C332.306 6.86733 332.786 7.46933 333.132 8.244C333.477 9.00933 333.65 9.90067 333.65 10.918C333.65 11.9447 333.477 12.85 333.132 13.634C332.786 14.418 332.306 15.034 331.69 15.482C331.074 15.9207 330.364 16.14 329.562 16.14ZM329.562 14.866C330.094 14.866 330.546 14.7027 330.92 14.376C331.293 14.04 331.573 13.578 331.76 12.99C331.956 12.3927 332.054 11.6973 332.054 10.904C332.054 10.12 331.956 9.43867 331.76 8.86C331.573 8.28133 331.293 7.838 330.92 7.53C330.556 7.21267 330.103 7.054 329.562 7.054C329.011 7.054 328.549 7.21267 328.176 7.53C327.812 7.84733 327.532 8.29533 327.336 8.874C327.149 9.44333 327.056 10.12 327.056 10.904C327.056 11.6973 327.154 12.3927 327.35 12.99C327.546 13.5873 327.826 14.0493 328.19 14.376C328.563 14.7027 329.02 14.866 329.562 14.866ZM340.905 16L337.797 11.38L334.017 5.92H335.753L338.693 10.288L342.641 16H340.905ZM337.993 10.302L341.045 5.92H342.641L338.651 11.52L337.993 10.302ZM338.455 11.576L335.389 16H333.793L337.811 10.358L338.455 11.576Z" fill="white"/>
<defs>
<filter id="filter0_b_1507_13101" x="45" y="-13" width="256" height="82" filterUnits="userSpaceOnUse" color-interpolation-filters="sRGB">
<feFlood flood-opacity="0" result="BackgroundImageFix"/>
<feGaussianBlur in="BackgroundImageFix" stdDeviation="8.5"/>
<feComposite in2="SourceAlpha" operator="in" result="effect1_backgroundBlur_1507_13101"/>
<feBlend mode="normal" in="SourceGraphic" in2="effect1_backgroundBlur_1507_13101" result="shape"/>
</filter>
<filter id="filter1_b_1507_13101" x="45.0006" y="-13" width="255.908" height="82" filterUnits="userSpaceOnUse" color-interpolation-filters="sRGB">
<feFlood flood-opacity="0" result="BackgroundImageFix"/>
<feGaussianBlur in="BackgroundImageFix" stdDeviation="8.5"/>
<feComposite in2="SourceAlpha" operator="in" result="effect1_backgroundBlur_1507_13101"/>
<feBlend mode="normal" in="SourceGraphic" in2="effect1_backgroundBlur_1507_13101" result="shape"/>
</filter>
<filter id="filter2_b_1507_13101" x="45" y="147" width="125" height="82" filterUnits="userSpaceOnUse" color-interpolation-filters="sRGB">
<feFlood flood-opacity="0" result="BackgroundImageFix"/>
<feGaussianBlur in="BackgroundImageFix" stdDeviation="8.5"/>
<feComposite in2="SourceAlpha" operator="in" result="effect1_backgroundBlur_1507_13101"/>
<feBlend mode="normal" in="SourceGraphic" in2="effect1_backgroundBlur_1507_13101" result="shape"/>
</filter>
<filter id="filter3_b_1507_13101" x="45.0002" y="147" width="124.962" height="82" filterUnits="userSpaceOnUse" color-interpolation-filters="sRGB">
<feFlood flood-opacity="0" result="BackgroundImageFix"/>
<feGaussianBlur in="BackgroundImageFix" stdDeviation="8.5"/>
<feComposite in2="SourceAlpha" operator="in" result="effect1_backgroundBlur_1507_13101"/>
<feBlend mode="normal" in="SourceGraphic" in2="effect1_backgroundBlur_1507_13101" result="shape"/>
</filter>
<filter id="filter4_b_1507_13101" x="45" y="67" width="168" height="82" filterUnits="userSpaceOnUse" color-interpolation-filters="sRGB">
<feFlood flood-opacity="0" result="BackgroundImageFix"/>
<feGaussianBlur in="BackgroundImageFix" stdDeviation="8.5"/>
<feComposite in2="SourceAlpha" operator="in" result="effect1_backgroundBlur_1507_13101"/>
<feBlend mode="normal" in="SourceGraphic" in2="effect1_backgroundBlur_1507_13101" result="shape"/>
</filter>
<filter id="filter5_b_1507_13101" x="45.0005" y="67" width="167.945" height="82" filterUnits="userSpaceOnUse" color-interpolation-filters="sRGB">
<feFlood flood-opacity="0" result="BackgroundImageFix"/>
<feGaussianBlur in="BackgroundImageFix" stdDeviation="8.5"/>
<feComposite in2="SourceAlpha" operator="in" result="effect1_backgroundBlur_1507_13101"/>
<feBlend mode="normal" in="SourceGraphic" in2="effect1_backgroundBlur_1507_13101" result="shape"/>
</filter>
<filter id="filter6_b_1507_13101" x="45" y="227" width="105" height="82" filterUnits="userSpaceOnUse" color-interpolation-filters="sRGB">
<feFlood flood-opacity="0" result="BackgroundImageFix"/>
<feGaussianBlur in="BackgroundImageFix" stdDeviation="8.5"/>
<feComposite in2="SourceAlpha" operator="in" result="effect1_backgroundBlur_1507_13101"/>
<feBlend mode="normal" in="SourceGraphic" in2="effect1_backgroundBlur_1507_13101" result="shape"/>
</filter>
<filter id="filter7_b_1507_13101" x="45.0001" y="227" width="104.971" height="82" filterUnits="userSpaceOnUse" color-interpolation-filters="sRGB">
<feFlood flood-opacity="0" result="BackgroundImageFix"/>
<feGaussianBlur in="BackgroundImageFix" stdDeviation="8.5"/>
<feComposite in2="SourceAlpha" operator="in" result="effect1_backgroundBlur_1507_13101"/>
<feBlend mode="normal" in="SourceGraphic" in2="effect1_backgroundBlur_1507_13101" result="shape"/>
</filter>
<filter id="filter8_b_1507_13101" x="45" y="307" width="75" height="82" filterUnits="userSpaceOnUse" color-interpolation-filters="sRGB">
<feFlood flood-opacity="0" result="BackgroundImageFix"/>
<feGaussianBlur in="BackgroundImageFix" stdDeviation="8.5"/>
<feComposite in2="SourceAlpha" operator="in" result="effect1_backgroundBlur_1507_13101"/>
<feBlend mode="normal" in="SourceGraphic" in2="effect1_backgroundBlur_1507_13101" result="shape"/>
</filter>
<filter id="filter9_b_1507_13101" x="45.0001" y="307" width="74.983" height="82" filterUnits="userSpaceOnUse" color-interpolation-filters="sRGB">
<feFlood flood-opacity="0" result="BackgroundImageFix"/>
<feGaussianBlur in="BackgroundImageFix" stdDeviation="8.5"/>
<feComposite in2="SourceAlpha" operator="in" result="effect1_backgroundBlur_1507_13101"/>
<feBlend mode="normal" in="SourceGraphic" in2="effect1_backgroundBlur_1507_13101" result="shape"/>
</filter>
<filter id="filter10_f_1507_13101" x="261" y="6" width="46" height="46" filterUnits="userSpaceOnUse" color-interpolation-filters="sRGB">
<feFlood flood-opacity="0" result="BackgroundImageFix"/>
<feBlend mode="normal" in="SourceGraphic" in2="BackgroundImageFix" result="shape"/>
<feGaussianBlur stdDeviation="7.5" result="effect1_foregroundBlur_1507_13101"/>
</filter>
<filter id="filter11_f_1507_13101" x="296" y="366.142" width="46" height="46" filterUnits="userSpaceOnUse" color-interpolation-filters="sRGB">
<feFlood flood-opacity="0" result="BackgroundImageFix"/>
<feBlend mode="normal" in="SourceGraphic" in2="BackgroundImageFix" result="shape"/>
<feGaussianBlur stdDeviation="7.5" result="effect1_foregroundBlur_1507_13101"/>
</filter>
<linearGradient id="paint0_linear_1507_13101" x1="284" y1="28" x2="267.943" y2="84.5222" gradientUnits="userSpaceOnUse">
<stop stop-color="#6C509F"/>
<stop offset="1" stop-color="#5F5BFF"/>
<stop offset="1" stop-color="#6C509F" stop-opacity="0"/>
</linearGradient>
<linearGradient id="paint1_linear_1507_13101" x1="153" y1="188" x2="124.402" y2="229.265" gradientUnits="userSpaceOnUse">
<stop stop-color="#6C509F"/>
<stop offset="1" stop-color="#5F5BFF"/>
<stop offset="1" stop-color="#6C509F" stop-opacity="0"/>
</linearGradient>
<linearGradient id="paint2_linear_1507_13101" x1="196" y1="108" x2="172.465" y2="158.007" gradientUnits="userSpaceOnUse">
<stop stop-color="#6C509F"/>
<stop offset="1" stop-color="#5F5BFF"/>
<stop offset="1" stop-color="#6C509F" stop-opacity="0"/>
</linearGradient>
<linearGradient id="paint3_linear_1507_13101" x1="133" y1="268" x2="102.671" y2="302.144" gradientUnits="userSpaceOnUse">
<stop stop-color="#6C509F"/>
<stop offset="1" stop-color="#5F5BFF"/>
<stop offset="1" stop-color="#6C509F" stop-opacity="0"/>
</linearGradient>
<linearGradient id="paint4_linear_1507_13101" x1="103" y1="348" x2="75.0863" y2="366.147" gradientUnits="userSpaceOnUse">
<stop stop-color="#6C509F"/>
<stop offset="1" stop-color="#5F5BFF"/>
<stop offset="1" stop-color="#6C509F" stop-opacity="0"/>
</linearGradient>
<linearGradient id="paint5_linear_1507_13101" x1="302" y1="29.0771" x2="302" y2="395" gradientUnits="userSpaceOnUse">
<stop stop-color="white"/>
<stop offset="1" stop-color="white" stop-opacity="0"/>
</linearGradient>
<clipPath id="clip0_1507_13101">
<rect width="48" height="48" fill="white" transform="translate(0 4)"/>
</clipPath>
</defs>
</svg>
