<svg version="1.2" xmlns="http://www.w3.org/2000/svg" viewBox="0 0 155 56" width="155" height="56"><defs><clipPath clipPathUnits="userSpaceOnUse" id="cp1"><path d="m139 22h15.03v24h-15.03z"/></clipPath><clipPath clipPathUnits="userSpaceOnUse" id="cp2"><path d="m25 6.02h27v32.98h-27z"/></clipPath><clipPath clipPathUnits="userSpaceOnUse" id="cp3"><path d="m-1 16h27v33.8h-27z"/></clipPath></defs><style>.a{fill:#231f20}.b{fill:#0996c7}</style><path fill-rule="evenodd" class="a" d="m114.3 39.3c-5.3 0-8.6-3-8.6-8 0-5.1 3.1-8.3 7.9-8.3h0.4c0.7 0 1.5 0 2.7 0.2v-6.2h3.4v21.8c0 0-3.3 0.5-5.8 0.5zm0-13.6c-3.4 0-5 1.8-5 5.5 0 3.4 2 5.4 5.1 5.4 0.6 0 1.3 0 2.3-0.1v-10.6c-1-0.1-1.8-0.2-2.4-0.2zm-47.3 13.1l-9.3-16.2v16.2h-3.3v-20.6h4.6l9.3 16.2v-16.2h3.3v20.6zm29.7 0.3c-1.6 0-3.2-0.1-5.2-0.5h-0.2v-2.9h0.3c1.8 0.4 3.2 0.7 4.7 0.7 1.2 0 4-0.2 4-1.9 0-1.5-1.9-1.9-3.5-2.2h-0.1q-0.4-0.1-0.7-0.2c-2.3-0.6-4.7-1.4-4.7-4.5 0-3 2.3-4.7 6.4-4.7 2 0 3.4 0.2 4.6 0.4l0.5 0.1v2.8l-0.3-0.1c-1.3-0.2-2.8-0.4-4.3-0.4-1.6 0-3.5 0.3-3.5 1.7 0 1.2 1.5 1.6 3.4 2 2.5 0.5 5.7 1.2 5.7 4.7 0 3.2-2.6 5-7.1 5zm33.1 0c-3.6 0-6.9-0.6-6.9-5.1 0-5 5.1-5 8.2-5 0.3 0 1.7 0.1 2.2 0.1 0-2.8-0.1-3.5-4.1-3.5-1.6 0-3.4 0.3-5 0.6l-0.3 0.1v-2.8h0.2c1.9-0.4 3.6-0.6 5.4-0.6 3.9 0 7.2 0.4 7.2 5.3v10.6h-0.2c-2.7 0.3-4.9 0.3-6.7 0.3zm1.2-7.7c-3 0-4.8 0.5-4.8 2.6 0 2.5 2.3 2.7 4.5 2.7 0.9 0 2.3-0.1 2.8-0.1v-5.1c-0.7 0-2.3-0.1-2.5-0.1zm-49.7 7.7c-3.5 0-6.8-0.6-6.8-5.1 0-5 5.1-5 8.1-5 0.3 0 1.8 0.1 2.2 0.1 0-2.8 0-3.5-4.1-3.5-1.6 0-3.3 0.3-4.9 0.6l-0.3 0.1v-2.8h0.2q0.7-0.2 1.3-0.3 0.7-0.1 1.4-0.1 0.6-0.1 1.3-0.1 0.7-0.1 1.4-0.1c3.9 0 7.2 0.4 7.2 5.3v10.6h-0.2c-2.8 0.3-4.9 0.3-6.8 0.3zm1.3-7.7c-3 0-4.8 0.5-4.8 2.6 0 2.5 2.3 2.7 4.5 2.7 0.8 0 2.3-0.1 2.7-0.1v-5.1c-0.6 0-2.2-0.1-2.4-0.1z"/><g clip-path="url(#cp1)"><path fill-rule="evenodd" class="a" d="m150.5 45.8v-6.7c-1.4 0.2-2.1 0.2-2.6 0.2-1.4 0-2.9-0.3-4.1-0.8-2.6-1.1-4.2-3.9-4.2-7.5 0-1.8 0.4-5 3.3-6.8 1.5-0.8 3.2-1.2 5.8-1.2 0.9 0 2.2 0.1 3.4 0.1l1.9 0.1v21.1zm-2-20.2c-3.5 0-5.3 1.8-5.3 5.4 0 4.5 2.6 5.4 4.9 5.4 0.5 0 1.1 0 2.5-0.1v-10.6c-1.1 0-1.6-0.1-2.1-0.1z"/></g><g clip-path="url(#cp2)"><path class="b" d="m39 6l-11.4 31.4q-0.1 0.3-0.3 0.5-0.2 0.3-0.4 0.5-0.3 0.2-0.5 0.3-0.3 0.1-0.6 0.1h12c1 0 1.8-0.6 2.1-1.4l11.4-31.4z"/></g><path class="b" d="m24.8 38.4c0.7 0 1.3-0.4 1.7-0.9 0-0.1 0.1-0.3 0.2-0.5l4.2-11.5-2.4-6.8q-0.2-0.5-0.7-0.8-0.5-0.4-1-0.4-0.6-0.1-1.1 0.1-0.5 0.3-0.8 0.7c-0.1 0.1-0.2 0.3-0.3 0.5l-4.2 11.6 2.5 6.7q0.1 0.3 0.3 0.5 0.2 0.2 0.4 0.4 0.3 0.2 0.6 0.3 0.3 0.1 0.6 0.1z"/><g clip-path="url(#cp3)"><path class="b" d="m25.7 17h-12.2c-1 0-1.8 0.6-2.1 1.4l-11.4 31.4h12.3l11.4-31.4q0.1-0.3 0.3-0.5 0.2-0.3 0.5-0.5 0.2-0.2 0.5-0.3 0.3-0.1 0.7-0.1z"/></g></svg>