<svg version="1.2" xmlns="http://www.w3.org/2000/svg" viewBox="0 0 162 48" width="162" height="48"><style>.a{fill:#fff}</style><path fill-rule="evenodd" class="a" d="m18.1 6.5l-11.4 3.5q-0.2 0-0.3 0-0.2 0-0.3-0.1-0.1-0.1-0.2-0.2-0.1-0.1-0.2-0.2 0-0.2 0-0.3 0-0.2 0.1-0.3 0-0.1 0.2-0.2 0.1-0.1 0.2-0.2l11.7-3.5q0.2 0 0.4 0l11.9 3.6q0.3 0.1 0.5 0.4 0.1 0.2 0 0.5-0.1 0.3-0.4 0.5-0.2 0.1-0.5 0zm-0.4 36.2q0-0.1 0-0.1l-1-0.5c-4.9-2.6-8.4-5.9-10.8-9.3-2.1-2.9-3.6-6.2-4.5-9.7q-0.9-3.8-0.9-7.7 0-1.9 0.2-3.7l0.2-1.1q0-0.1 0.1-0.2 0-0.1 0.1-0.2 0.1-0.2 0.2-0.2 0.2-0.1 0.3-0.1 0.2 0 0.3 0 0.2 0.1 0.3 0.2 0.1 0.1 0.2 0.2l6.8 13.1h17.8q0.2 0 0.3 0.1v-0.2l6.4-13q0.2-0.3 0.5-0.4 0 0 0.1 0 0.2 0 0.3 0 0.1 0.1 0.3 0.1 0.1 0.1 0.2 0.3 0.1 0.1 0.1 0.2l0.2 1.2q0.2 1.8 0.2 3.7 0 3.9-0.9 7.7c-0.9 3.5-2.4 6.8-4.5 9.7-2.4 3.4-5.8 6.7-10.8 9.3l-1 0.5q-0.1 0.1-0.3 0.1-0.2 0-0.4 0zm11-18.7l-8.7 16.1c4-2.4 6.9-5.3 9-8.2 1.9-2.7 3.3-5.9 4.2-9.2q0.9-3.6 0.9-7.3 0-1.1-0.1-2.2l-5.3 10.8zm-2.2 0.9h-16.5l8.1 15.4zm-24.4-9.6q0 3.8 0.9 7.4c0.8 3.3 2.2 6.4 4.2 9.2 2 2.9 4.9 5.8 9 8.2l-14.1-27q-0.1 1.1 0 2.2zm45.1 3.3q-0.2 0.3-0.2 0.6v9.3q0 0.3 0.2 0.5 0.2 0.2 0.6 0.3h11.8v1.5h-11.8q-0.5 0-0.9-0.1-0.5-0.2-0.8-0.5-0.4-0.4-0.5-0.8-0.2-0.4-0.2-0.9v-9.3q0-0.5 0.2-0.9 0.1-0.4 0.5-0.8 0.3-0.3 0.8-0.5 0.4-0.1 0.9-0.1h11.8v1.5h-11.8q-0.4 0-0.6 0.2zm23.2-0.2v4.6h9.2v1.6h-9.2v4.7h11.4v1.5h-13v-13.9h13v1.5zm34.9 0.8v4.1q0 0.5-0.2 0.9-0.2 0.4-0.5 0.7-0.4 0.4-0.8 0.5-0.4 0.2-0.9 0.2h-2.2l4.5 5.2h-2.1l-4.5-5.2h-5.2q-0.4 0-0.8-0.1v5.3h-1.6v-13.9h11.9q0.5 0 0.9 0.1 0.4 0.2 0.8 0.5 0.3 0.4 0.5 0.8 0.2 0.4 0.2 0.9zm-11.9 4.8h9.5q0.1 0 0.3 0 0.1-0.1 0.2-0.2 0.1-0.1 0.2-0.2 0-0.2 0-0.3v-4.1q0-0.1 0-0.3-0.1-0.1-0.2-0.2-0.1-0.1-0.2-0.2-0.2-0.1-0.3-0.1h-9.5q-0.3 0-0.6 0.3-0.2 0.2-0.2 0.5v4.1q0 0.1 0.1 0.3 0 0.1 0.1 0.2 0.2 0.1 0.3 0.2 0.1 0 0.3 0zm34.6-5.6h-6.3v12.4h-1.6v-12.4h-6.3v-1.5h14.2zm8.6-1.6h1.7v13.9h-1.7zm19.1 7l6 7h-2.1l-5.3-6.2h-4.6v6.2h-1.6v-14h1.6v6.2h4.6l5.3-6.2h2.1z"/></svg>