<svg width="359" height="489" viewBox="0 0 359 489" fill="none" xmlns="http://www.w3.org/2000/svg">
<path opacity="0.7" d="M3.52207 15V6.068L3.81607 6.138C3.70407 6.39 3.4894 6.642 3.17207 6.894C2.85474 7.146 2.48607 7.36533 2.06607 7.552C1.6554 7.73867 1.23074 7.86467 0.79207 7.93V6.852C1.23074 6.77733 1.65074 6.64667 2.05207 6.46C2.4534 6.27333 2.80807 6.04933 3.11607 5.788C3.4334 5.51733 3.66674 5.228 3.81607 4.92H4.64207V15H3.52207ZM10.5028 15.14C9.70949 15.14 9.01415 14.9207 8.41682 14.482C7.82882 14.034 7.36682 13.418 7.03082 12.634C6.70415 11.8407 6.54082 10.9353 6.54082 9.918C6.54082 8.90067 6.70415 8.00933 7.03082 7.244C7.35749 6.46933 7.81949 5.86733 8.41682 5.438C9.01415 4.99933 9.70949 4.78 10.5028 4.78C11.2962 4.78 11.9868 4.99933 12.5748 5.438C13.1722 5.86733 13.6342 6.46933 13.9608 7.244C14.2968 8.00933 14.4648 8.90067 14.4648 9.918C14.4648 10.9447 14.2968 11.85 13.9608 12.634C13.6342 13.418 13.1722 14.034 12.5748 14.482C11.9868 14.9207 11.2962 15.14 10.5028 15.14ZM10.5028 14.132C11.0722 14.132 11.5575 13.964 11.9588 13.628C12.3602 13.2827 12.6682 12.7973 12.8828 12.172C13.0975 11.5373 13.2048 10.7813 13.2048 9.904C13.2048 9.036 13.0975 8.294 12.8828 7.678C12.6775 7.062 12.3742 6.59533 11.9728 6.278C11.5715 5.95133 11.0815 5.788 10.5028 5.788C9.92415 5.788 9.43415 5.95133 9.03282 6.278C8.63149 6.60467 8.32349 7.076 8.10882 7.692C7.90349 8.29867 7.80082 9.036 7.80082 9.904C7.80082 10.7813 7.90815 11.5373 8.12282 12.172C8.33749 12.8067 8.64549 13.292 9.04682 13.628C9.44815 13.964 9.93349 14.132 10.5028 14.132ZM20.0321 15.14C19.2388 15.14 18.5435 14.9207 17.9461 14.482C17.3581 14.034 16.8961 13.418 16.5601 12.634C16.2335 11.8407 16.0701 10.9353 16.0701 9.918C16.0701 8.90067 16.2335 8.00933 16.5601 7.244C16.8868 6.46933 17.3488 5.86733 17.9461 5.438C18.5435 4.99933 19.2388 4.78 20.0321 4.78C20.8255 4.78 21.5161 4.99933 22.1041 5.438C22.7015 5.86733 23.1635 6.46933 23.4901 7.244C23.8261 8.00933 23.9941 8.90067 23.9941 9.918C23.9941 10.9447 23.8261 11.85 23.4901 12.634C23.1635 13.418 22.7015 14.034 22.1041 14.482C21.5161 14.9207 20.8255 15.14 20.0321 15.14ZM20.0321 14.132C20.6015 14.132 21.0868 13.964 21.4881 13.628C21.8895 13.2827 22.1975 12.7973 22.4121 12.172C22.6268 11.5373 22.7341 10.7813 22.7341 9.904C22.7341 9.036 22.6268 8.294 22.4121 7.678C22.2068 7.062 21.9035 6.59533 21.5021 6.278C21.1008 5.95133 20.6108 5.788 20.0321 5.788C19.4535 5.788 18.9635 5.95133 18.5621 6.278C18.1608 6.60467 17.8528 7.076 17.6381 7.692C17.4328 8.29867 17.3301 9.036 17.3301 9.904C17.3301 10.7813 17.4375 11.5373 17.6521 12.172C17.8668 12.8067 18.1748 13.292 18.5761 13.628C18.9775 13.964 19.4628 14.132 20.0321 14.132ZM32.1591 15.14C31.3657 15.14 30.6704 14.9207 30.0731 14.482C29.4851 14.034 29.0231 13.418 28.6871 12.634C28.3604 11.8407 28.1971 10.9353 28.1971 9.918C28.1971 8.90067 28.3604 8.00933 28.6871 7.244C29.0137 6.46933 29.4757 5.86733 30.0731 5.438C30.6704 4.99933 31.3657 4.78 32.1591 4.78C32.9524 4.78 33.6431 4.99933 34.2311 5.438C34.8284 5.86733 35.2904 6.46933 35.6171 7.244C35.9531 8.00933 36.1211 8.90067 36.1211 9.918C36.1211 10.9447 35.9531 11.85 35.6171 12.634C35.2904 13.418 34.8284 14.034 34.2311 14.482C33.6431 14.9207 32.9524 15.14 32.1591 15.14ZM32.1591 14.132C32.7284 14.132 33.2137 13.964 33.6151 13.628C34.0164 13.2827 34.3244 12.7973 34.5391 12.172C34.7537 11.5373 34.8611 10.7813 34.8611 9.904C34.8611 9.036 34.7537 8.294 34.5391 7.678C34.3337 7.062 34.0304 6.59533 33.6291 6.278C33.2277 5.95133 32.7377 5.788 32.1591 5.788C31.5804 5.788 31.0904 5.95133 30.6891 6.278C30.2877 6.60467 29.9797 7.076 29.7651 7.692C29.5597 8.29867 29.4571 9.036 29.4571 9.904C29.4571 10.7813 29.5644 11.5373 29.7791 12.172C29.9937 12.8067 30.3017 13.292 30.7031 13.628C31.1044 13.964 31.5897 14.132 32.1591 14.132ZM41.6884 15.14C40.895 15.14 40.1997 14.9207 39.6024 14.482C39.0144 14.034 38.5524 13.418 38.2164 12.634C37.8897 11.8407 37.7264 10.9353 37.7264 9.918C37.7264 8.90067 37.8897 8.00933 38.2164 7.244C38.543 6.46933 39.005 5.86733 39.6024 5.438C40.1997 4.99933 40.895 4.78 41.6884 4.78C42.4817 4.78 43.1724 4.99933 43.7604 5.438C44.3577 5.86733 44.8197 6.46933 45.1464 7.244C45.4824 8.00933 45.6504 8.90067 45.6504 9.918C45.6504 10.9447 45.4824 11.85 45.1464 12.634C44.8197 13.418 44.3577 14.034 43.7604 14.482C43.1724 14.9207 42.4817 15.14 41.6884 15.14ZM41.6884 14.132C42.2577 14.132 42.743 13.964 43.1444 13.628C43.5457 13.2827 43.8537 12.7973 44.0684 12.172C44.283 11.5373 44.3904 10.7813 44.3904 9.904C44.3904 9.036 44.283 8.294 44.0684 7.678C43.863 7.062 43.5597 6.59533 43.1584 6.278C42.757 5.95133 42.267 5.788 41.6884 5.788C41.1097 5.788 40.6197 5.95133 40.2184 6.278C39.817 6.60467 39.509 7.076 39.2944 7.692C39.089 8.29867 38.9864 9.036 38.9864 9.904C38.9864 10.7813 39.0937 11.5373 39.3084 12.172C39.523 12.8067 39.831 13.292 40.2324 13.628C40.6337 13.964 41.119 14.132 41.6884 14.132ZM51.2177 15.14C50.4243 15.14 49.729 14.9207 49.1317 14.482C48.5437 14.034 48.0817 13.418 47.7457 12.634C47.419 11.8407 47.2557 10.9353 47.2557 9.918C47.2557 8.90067 47.419 8.00933 47.7457 7.244C48.0723 6.46933 48.5343 5.86733 49.1317 5.438C49.729 4.99933 50.4243 4.78 51.2177 4.78C52.011 4.78 52.7017 4.99933 53.2897 5.438C53.887 5.86733 54.349 6.46933 54.6757 7.244C55.0117 8.00933 55.1797 8.90067 55.1797 9.918C55.1797 10.9447 55.0117 11.85 54.6757 12.634C54.349 13.418 53.887 14.034 53.2897 14.482C52.7017 14.9207 52.011 15.14 51.2177 15.14ZM51.2177 14.132C51.787 14.132 52.2723 13.964 52.6737 13.628C53.075 13.2827 53.383 12.7973 53.5977 12.172C53.8123 11.5373 53.9197 10.7813 53.9197 9.904C53.9197 9.036 53.8123 8.294 53.5977 7.678C53.3923 7.062 53.089 6.59533 52.6877 6.278C52.2863 5.95133 51.7963 5.788 51.2177 5.788C50.639 5.788 50.149 5.95133 49.7477 6.278C49.3463 6.60467 49.0383 7.076 48.8237 7.692C48.6183 8.29867 48.5157 9.036 48.5157 9.904C48.5157 10.7813 48.623 11.5373 48.8377 12.172C49.0523 12.8067 49.3603 13.292 49.7617 13.628C50.163 13.964 50.6483 14.132 51.2177 14.132ZM63.3446 15.14C62.5513 15.14 61.856 14.9207 61.2586 14.482C60.6706 14.034 60.2086 13.418 59.8726 12.634C59.546 11.8407 59.3826 10.9353 59.3826 9.918C59.3826 8.90067 59.546 8.00933 59.8726 7.244C60.1993 6.46933 60.6613 5.86733 61.2586 5.438C61.856 4.99933 62.5513 4.78 63.3446 4.78C64.138 4.78 64.8286 4.99933 65.4166 5.438C66.014 5.86733 66.476 6.46933 66.8026 7.244C67.1386 8.00933 67.3066 8.90067 67.3066 9.918C67.3066 10.9447 67.1386 11.85 66.8026 12.634C66.476 13.418 66.014 14.034 65.4166 14.482C64.8286 14.9207 64.138 15.14 63.3446 15.14ZM63.3446 14.132C63.914 14.132 64.3993 13.964 64.8006 13.628C65.202 13.2827 65.51 12.7973 65.7246 12.172C65.9393 11.5373 66.0466 10.7813 66.0466 9.904C66.0466 9.036 65.9393 8.294 65.7246 7.678C65.5193 7.062 65.216 6.59533 64.8146 6.278C64.4133 5.95133 63.9233 5.788 63.3446 5.788C62.766 5.788 62.276 5.95133 61.8746 6.278C61.4733 6.60467 61.1653 7.076 60.9506 7.692C60.7453 8.29867 60.6426 9.036 60.6426 9.904C60.6426 10.7813 60.75 11.5373 60.9646 12.172C61.1793 12.8067 61.4873 13.292 61.8886 13.628C62.29 13.964 62.7753 14.132 63.3446 14.132ZM72.8739 15.14C72.0806 15.14 71.3852 14.9207 70.7879 14.482C70.1999 14.034 69.7379 13.418 69.4019 12.634C69.0752 11.8407 68.9119 10.9353 68.9119 9.918C68.9119 8.90067 69.0752 8.00933 69.4019 7.244C69.7286 6.46933 70.1906 5.86733 70.7879 5.438C71.3852 4.99933 72.0806 4.78 72.8739 4.78C73.6672 4.78 74.3579 4.99933 74.9459 5.438C75.5432 5.86733 76.0052 6.46933 76.3319 7.244C76.6679 8.00933 76.8359 8.90067 76.8359 9.918C76.8359 10.9447 76.6679 11.85 76.3319 12.634C76.0052 13.418 75.5432 14.034 74.9459 14.482C74.3579 14.9207 73.6672 15.14 72.8739 15.14ZM72.8739 14.132C73.4432 14.132 73.9286 13.964 74.3299 13.628C74.7312 13.2827 75.0392 12.7973 75.2539 12.172C75.4686 11.5373 75.5759 10.7813 75.5759 9.904C75.5759 9.036 75.4686 8.294 75.2539 7.678C75.0486 7.062 74.7452 6.59533 74.3439 6.278C73.9426 5.95133 73.4526 5.788 72.8739 5.788C72.2952 5.788 71.8052 5.95133 71.4039 6.278C71.0026 6.60467 70.6946 7.076 70.4799 7.692C70.2746 8.29867 70.1719 9.036 70.1719 9.904C70.1719 10.7813 70.2792 11.5373 70.4939 12.172C70.7086 12.8067 71.0166 13.292 71.4179 13.628C71.8192 13.964 72.3046 14.132 72.8739 14.132ZM82.4032 15.14C81.6099 15.14 80.9145 14.9207 80.3172 14.482C79.7292 14.034 79.2672 13.418 78.9312 12.634C78.6045 11.8407 78.4412 10.9353 78.4412 9.918C78.4412 8.90067 78.6045 8.00933 78.9312 7.244C79.2579 6.46933 79.7199 5.86733 80.3172 5.438C80.9145 4.99933 81.6099 4.78 82.4032 4.78C83.1965 4.78 83.8872 4.99933 84.4752 5.438C85.0725 5.86733 85.5345 6.46933 85.8612 7.244C86.1972 8.00933 86.3652 8.90067 86.3652 9.918C86.3652 10.9447 86.1972 11.85 85.8612 12.634C85.5345 13.418 85.0725 14.034 84.4752 14.482C83.8872 14.9207 83.1965 15.14 82.4032 15.14ZM82.4032 14.132C82.9725 14.132 83.4579 13.964 83.8592 13.628C84.2605 13.2827 84.5685 12.7973 84.7832 12.172C84.9979 11.5373 85.1052 10.7813 85.1052 9.904C85.1052 9.036 84.9979 8.294 84.7832 7.678C84.5779 7.062 84.2745 6.59533 83.8732 6.278C83.4719 5.95133 82.9819 5.788 82.4032 5.788C81.8245 5.788 81.3345 5.95133 80.9332 6.278C80.5319 6.60467 80.2239 7.076 80.0092 7.692C79.8039 8.29867 79.7012 9.036 79.7012 9.904C79.7012 10.7813 79.8085 11.5373 80.0232 12.172C80.2379 12.8067 80.5459 13.292 80.9472 13.628C81.3485 13.964 81.8339 14.132 82.4032 14.132ZM87.1864 17.016V16.442C87.4571 16.3393 87.6531 16.176 87.7744 15.952C87.8957 15.7373 87.9564 15.406 87.9564 14.958L88.3904 15H87.1864V13.572H88.6004V14.706C88.6004 15.3033 88.4884 15.798 88.2644 16.19C88.0404 16.582 87.6811 16.8573 87.1864 17.016ZM93.4364 15.14C92.6431 15.14 91.9477 14.9207 91.3504 14.482C90.7624 14.034 90.3004 13.418 89.9644 12.634C89.6377 11.8407 89.4744 10.9353 89.4744 9.918C89.4744 8.90067 89.6377 8.00933 89.9644 7.244C90.2911 6.46933 90.7531 5.86733 91.3504 5.438C91.9477 4.99933 92.6431 4.78 93.4364 4.78C94.2297 4.78 94.9204 4.99933 95.5084 5.438C96.1057 5.86733 96.5677 6.46933 96.8944 7.244C97.2304 8.00933 97.3984 8.90067 97.3984 9.918C97.3984 10.9447 97.2304 11.85 96.8944 12.634C96.5677 13.418 96.1057 14.034 95.5084 14.482C94.9204 14.9207 94.2297 15.14 93.4364 15.14ZM93.4364 14.132C94.0057 14.132 94.4911 13.964 94.8924 13.628C95.2937 13.2827 95.6017 12.7973 95.8164 12.172C96.0311 11.5373 96.1384 10.7813 96.1384 9.904C96.1384 9.036 96.0311 8.294 95.8164 7.678C95.6111 7.062 95.3077 6.59533 94.9064 6.278C94.5051 5.95133 94.0151 5.788 93.4364 5.788C92.8577 5.788 92.3677 5.95133 91.9664 6.278C91.5651 6.60467 91.2571 7.076 91.0424 7.692C90.8371 8.29867 90.7344 9.036 90.7344 9.904C90.7344 10.7813 90.8417 11.5373 91.0564 12.172C91.2711 12.8067 91.5791 13.292 91.9804 13.628C92.3817 13.964 92.8671 14.132 93.4364 14.132ZM102.966 15.14C102.172 15.14 101.477 14.9207 100.88 14.482C100.292 14.034 99.8297 13.418 99.4937 12.634C99.167 11.8407 99.0037 10.9353 99.0037 9.918C99.0037 8.90067 99.167 8.00933 99.4937 7.244C99.8204 6.46933 100.282 5.86733 100.88 5.438C101.477 4.99933 102.172 4.78 102.966 4.78C103.759 4.78 104.45 4.99933 105.038 5.438C105.635 5.86733 106.097 6.46933 106.424 7.244C106.76 8.00933 106.928 8.90067 106.928 9.918C106.928 10.9447 106.76 11.85 106.424 12.634C106.097 13.418 105.635 14.034 105.038 14.482C104.45 14.9207 103.759 15.14 102.966 15.14ZM102.966 14.132C103.535 14.132 104.02 13.964 104.422 13.628C104.823 13.2827 105.131 12.7973 105.346 12.172C105.56 11.5373 105.668 10.7813 105.668 9.904C105.668 9.036 105.56 8.294 105.346 7.678C105.14 7.062 104.837 6.59533 104.436 6.278C104.034 5.95133 103.544 5.788 102.966 5.788C102.387 5.788 101.897 5.95133 101.496 6.278C101.094 6.60467 100.786 7.076 100.572 7.692C100.366 8.29867 100.264 9.036 100.264 9.904C100.264 10.7813 100.371 11.5373 100.586 12.172C100.8 12.8067 101.108 13.292 101.51 13.628C101.911 13.964 102.396 14.132 102.966 14.132Z" fill="#E7E8F4"/>
<path opacity="0.7" d="M4.63814 302.14C3.96614 302.14 3.37347 302.019 2.86014 301.776C2.35614 301.524 1.94547 301.16 1.62814 300.684C1.32014 300.208 1.12881 299.634 1.05414 298.962H2.25814C2.36081 299.662 2.61747 300.199 3.02814 300.572C3.43881 300.945 3.98014 301.132 4.65214 301.132C5.28681 301.132 5.78614 300.964 6.15014 300.628C6.51414 300.292 6.69614 299.835 6.69614 299.256C6.69614 298.649 6.51881 298.159 6.16414 297.786C5.80947 297.403 5.33347 297.212 4.73614 297.212H3.47614V296.232H4.69414C5.23547 296.232 5.66481 296.078 5.98214 295.77C6.30881 295.453 6.47214 295.033 6.47214 294.51C6.47214 293.959 6.29947 293.535 5.95414 293.236C5.61814 292.937 5.16081 292.788 4.58214 292.788C4.01281 292.788 3.52747 292.956 3.12614 293.292C2.72481 293.619 2.48681 294.09 2.41214 294.706H1.19414C1.25014 294.109 1.42747 293.595 1.72614 293.166C2.02481 292.727 2.42147 292.387 2.91614 292.144C3.42014 291.901 3.98481 291.78 4.61014 291.78C5.21681 291.78 5.75347 291.887 6.22014 292.102C6.68681 292.317 7.05081 292.625 7.31214 293.026C7.57347 293.418 7.70414 293.88 7.70414 294.412C7.70414 294.888 7.59681 295.308 7.38214 295.672C7.16747 296.036 6.87347 296.321 6.50014 296.526C6.13614 296.731 5.71614 296.834 5.24014 296.834L5.15614 296.54C5.72547 296.54 6.21547 296.661 6.62614 296.904C7.04614 297.137 7.36814 297.459 7.59214 297.87C7.82547 298.281 7.94214 298.757 7.94214 299.298C7.94214 299.858 7.80214 300.353 7.52214 300.782C7.24214 301.211 6.85481 301.547 6.36014 301.79C5.86547 302.023 5.29147 302.14 4.63814 302.14ZM12.6772 302.14C12.0052 302.14 11.4125 302.019 10.8992 301.776C10.3952 301.524 9.98454 301.16 9.6672 300.684C9.3592 300.208 9.16787 299.634 9.0932 298.962H10.2972C10.3999 299.662 10.6565 300.199 11.0672 300.572C11.4779 300.945 12.0192 301.132 12.6912 301.132C13.3259 301.132 13.8252 300.964 14.1892 300.628C14.5532 300.292 14.7352 299.835 14.7352 299.256C14.7352 298.649 14.5579 298.159 14.2032 297.786C13.8485 297.403 13.3725 297.212 12.7752 297.212H11.5152V296.232H12.7332C13.2745 296.232 13.7039 296.078 14.0212 295.77C14.3479 295.453 14.5112 295.033 14.5112 294.51C14.5112 293.959 14.3385 293.535 13.9932 293.236C13.6572 292.937 13.1999 292.788 12.6212 292.788C12.0519 292.788 11.5665 292.956 11.1652 293.292C10.7639 293.619 10.5259 294.09 10.4512 294.706H9.2332C9.2892 294.109 9.46654 293.595 9.7652 293.166C10.0639 292.727 10.4605 292.387 10.9552 292.144C11.4592 291.901 12.0239 291.78 12.6492 291.78C13.2559 291.78 13.7925 291.887 14.2592 292.102C14.7259 292.317 15.0899 292.625 15.3512 293.026C15.6125 293.418 15.7432 293.88 15.7432 294.412C15.7432 294.888 15.6359 295.308 15.4212 295.672C15.2065 296.036 14.9125 296.321 14.5392 296.526C14.1752 296.731 13.7552 296.834 13.2792 296.834L13.1952 296.54C13.7645 296.54 14.2545 296.661 14.6652 296.904C15.0852 297.137 15.4072 297.459 15.6312 297.87C15.8645 298.281 15.9812 298.757 15.9812 299.298C15.9812 299.858 15.8412 300.353 15.5612 300.782C15.2812 301.211 14.8939 301.547 14.3992 301.79C13.9045 302.023 13.3305 302.14 12.6772 302.14ZM24.037 302.14C23.2437 302.14 22.5483 301.921 21.951 301.482C21.363 301.034 20.901 300.418 20.565 299.634C20.2383 298.841 20.075 297.935 20.075 296.918C20.075 295.901 20.2383 295.009 20.565 294.244C20.8917 293.469 21.3537 292.867 21.951 292.438C22.5483 291.999 23.2437 291.78 24.037 291.78C24.8303 291.78 25.521 291.999 26.109 292.438C26.7063 292.867 27.1683 293.469 27.495 294.244C27.831 295.009 27.999 295.901 27.999 296.918C27.999 297.945 27.831 298.85 27.495 299.634C27.1683 300.418 26.7063 301.034 26.109 301.482C25.521 301.921 24.8303 302.14 24.037 302.14ZM24.037 301.132C24.6063 301.132 25.0917 300.964 25.493 300.628C25.8943 300.283 26.2023 299.797 26.417 299.172C26.6317 298.537 26.739 297.781 26.739 296.904C26.739 296.036 26.6317 295.294 26.417 294.678C26.2117 294.062 25.9083 293.595 25.507 293.278C25.1057 292.951 24.6157 292.788 24.037 292.788C23.4583 292.788 22.9683 292.951 22.567 293.278C22.1657 293.605 21.8577 294.076 21.643 294.692C21.4377 295.299 21.335 296.036 21.335 296.904C21.335 297.781 21.4423 298.537 21.657 299.172C21.8717 299.807 22.1797 300.292 22.581 300.628C22.9823 300.964 23.4677 301.132 24.037 301.132ZM33.5663 302.14C32.773 302.14 32.0776 301.921 31.4803 301.482C30.8923 301.034 30.4303 300.418 30.0943 299.634C29.7676 298.841 29.6043 297.935 29.6043 296.918C29.6043 295.901 29.7676 295.009 30.0943 294.244C30.421 293.469 30.883 292.867 31.4803 292.438C32.0776 291.999 32.773 291.78 33.5663 291.78C34.3596 291.78 35.0503 291.999 35.6383 292.438C36.2356 292.867 36.6976 293.469 37.0243 294.244C37.3603 295.009 37.5283 295.901 37.5283 296.918C37.5283 297.945 37.3603 298.85 37.0243 299.634C36.6976 300.418 36.2356 301.034 35.6383 301.482C35.0503 301.921 34.3596 302.14 33.5663 302.14ZM33.5663 301.132C34.1356 301.132 34.621 300.964 35.0223 300.628C35.4236 300.283 35.7316 299.797 35.9463 299.172C36.161 298.537 36.2683 297.781 36.2683 296.904C36.2683 296.036 36.161 295.294 35.9463 294.678C35.741 294.062 35.4376 293.595 35.0363 293.278C34.635 292.951 34.145 292.788 33.5663 292.788C32.9876 292.788 32.4976 292.951 32.0963 293.278C31.695 293.605 31.387 294.076 31.1723 294.692C30.967 295.299 30.8643 296.036 30.8643 296.904C30.8643 297.781 30.9716 298.537 31.1863 299.172C31.401 299.807 31.709 300.292 32.1103 300.628C32.5116 300.964 32.997 301.132 33.5663 301.132ZM43.0956 302.14C42.3023 302.14 41.6069 301.921 41.0096 301.482C40.4216 301.034 39.9596 300.418 39.6236 299.634C39.2969 298.841 39.1336 297.935 39.1336 296.918C39.1336 295.901 39.2969 295.009 39.6236 294.244C39.9503 293.469 40.4123 292.867 41.0096 292.438C41.6069 291.999 42.3023 291.78 43.0956 291.78C43.8889 291.78 44.5796 291.999 45.1676 292.438C45.7649 292.867 46.2269 293.469 46.5536 294.244C46.8896 295.009 47.0576 295.901 47.0576 296.918C47.0576 297.945 46.8896 298.85 46.5536 299.634C46.2269 300.418 45.7649 301.034 45.1676 301.482C44.5796 301.921 43.8889 302.14 43.0956 302.14ZM43.0956 301.132C43.6649 301.132 44.1503 300.964 44.5516 300.628C44.9529 300.283 45.2609 299.797 45.4756 299.172C45.6903 298.537 45.7976 297.781 45.7976 296.904C45.7976 296.036 45.6903 295.294 45.4756 294.678C45.2703 294.062 44.9669 293.595 44.5656 293.278C44.1643 292.951 43.6743 292.788 43.0956 292.788C42.5169 292.788 42.0269 292.951 41.6256 293.278C41.2243 293.605 40.9163 294.076 40.7016 294.692C40.4963 295.299 40.3936 296.036 40.3936 296.904C40.3936 297.781 40.5009 298.537 40.7156 299.172C40.9303 299.807 41.2383 300.292 41.6396 300.628C42.0409 300.964 42.5263 301.132 43.0956 301.132ZM55.2225 302.14C54.4292 302.14 53.7339 301.921 53.1365 301.482C52.5485 301.034 52.0865 300.418 51.7505 299.634C51.4239 298.841 51.2605 297.935 51.2605 296.918C51.2605 295.901 51.4239 295.009 51.7505 294.244C52.0772 293.469 52.5392 292.867 53.1365 292.438C53.7339 291.999 54.4292 291.78 55.2225 291.78C56.0159 291.78 56.7065 291.999 57.2945 292.438C57.8919 292.867 58.3539 293.469 58.6805 294.244C59.0165 295.009 59.1845 295.901 59.1845 296.918C59.1845 297.945 59.0165 298.85 58.6805 299.634C58.3539 300.418 57.8919 301.034 57.2945 301.482C56.7065 301.921 56.0159 302.14 55.2225 302.14ZM55.2225 301.132C55.7919 301.132 56.2772 300.964 56.6785 300.628C57.0799 300.283 57.3879 299.797 57.6025 299.172C57.8172 298.537 57.9245 297.781 57.9245 296.904C57.9245 296.036 57.8172 295.294 57.6025 294.678C57.3972 294.062 57.0939 293.595 56.6925 293.278C56.2912 292.951 55.8012 292.788 55.2225 292.788C54.6439 292.788 54.1539 292.951 53.7525 293.278C53.3512 293.605 53.0432 294.076 52.8285 294.692C52.6232 295.299 52.5205 296.036 52.5205 296.904C52.5205 297.781 52.6279 298.537 52.8425 299.172C53.0572 299.807 53.3652 300.292 53.7665 300.628C54.1679 300.964 54.6532 301.132 55.2225 301.132ZM64.7518 302.14C63.9585 302.14 63.2632 301.921 62.6658 301.482C62.0778 301.034 61.6158 300.418 61.2798 299.634C60.9532 298.841 60.7898 297.935 60.7898 296.918C60.7898 295.901 60.9532 295.009 61.2798 294.244C61.6065 293.469 62.0685 292.867 62.6658 292.438C63.2632 291.999 63.9585 291.78 64.7518 291.78C65.5452 291.78 66.2358 291.999 66.8238 292.438C67.4212 292.867 67.8832 293.469 68.2098 294.244C68.5458 295.009 68.7138 295.901 68.7138 296.918C68.7138 297.945 68.5458 298.85 68.2098 299.634C67.8832 300.418 67.4212 301.034 66.8238 301.482C66.2358 301.921 65.5452 302.14 64.7518 302.14ZM64.7518 301.132C65.3212 301.132 65.8065 300.964 66.2078 300.628C66.6092 300.283 66.9172 299.797 67.1318 299.172C67.3465 298.537 67.4538 297.781 67.4538 296.904C67.4538 296.036 67.3465 295.294 67.1318 294.678C66.9265 294.062 66.6232 293.595 66.2218 293.278C65.8205 292.951 65.3305 292.788 64.7518 292.788C64.1732 292.788 63.6832 292.951 63.2818 293.278C62.8805 293.605 62.5725 294.076 62.3578 294.692C62.1525 295.299 62.0498 296.036 62.0498 296.904C62.0498 297.781 62.1572 298.537 62.3718 299.172C62.5865 299.807 62.8945 300.292 63.2958 300.628C63.6972 300.964 64.1825 301.132 64.7518 301.132ZM74.2811 302.14C73.4878 302.14 72.7925 301.921 72.1951 301.482C71.6071 301.034 71.1451 300.418 70.8091 299.634C70.4825 298.841 70.3191 297.935 70.3191 296.918C70.3191 295.901 70.4825 295.009 70.8091 294.244C71.1358 293.469 71.5978 292.867 72.1951 292.438C72.7925 291.999 73.4878 291.78 74.2811 291.78C75.0745 291.78 75.7651 291.999 76.3531 292.438C76.9505 292.867 77.4125 293.469 77.7391 294.244C78.0751 295.009 78.2431 295.901 78.2431 296.918C78.2431 297.945 78.0751 298.85 77.7391 299.634C77.4125 300.418 76.9505 301.034 76.3531 301.482C75.7651 301.921 75.0745 302.14 74.2811 302.14ZM74.2811 301.132C74.8505 301.132 75.3358 300.964 75.7371 300.628C76.1385 300.283 76.4465 299.797 76.6611 299.172C76.8758 298.537 76.9831 297.781 76.9831 296.904C76.9831 296.036 76.8758 295.294 76.6611 294.678C76.4558 294.062 76.1525 293.595 75.7511 293.278C75.3498 292.951 74.8598 292.788 74.2811 292.788C73.7025 292.788 73.2125 292.951 72.8111 293.278C72.4098 293.605 72.1018 294.076 71.8871 294.692C71.6818 295.299 71.5791 296.036 71.5791 296.904C71.5791 297.781 71.6865 298.537 71.9011 299.172C72.1158 299.807 72.4238 300.292 72.8251 300.628C73.2265 300.964 73.7118 301.132 74.2811 301.132ZM79.0643 304.016V303.442C79.335 303.339 79.531 303.176 79.6523 302.952C79.7737 302.737 79.8343 302.406 79.8343 301.958L80.2683 302H79.0643V300.572H80.4783V301.706C80.4783 302.303 80.3663 302.798 80.1423 303.19C79.9183 303.582 79.559 303.857 79.0643 304.016ZM85.3143 302.14C84.521 302.14 83.8257 301.921 83.2283 301.482C82.6403 301.034 82.1783 300.418 81.8423 299.634C81.5157 298.841 81.3523 297.935 81.3523 296.918C81.3523 295.901 81.5157 295.009 81.8423 294.244C82.169 293.469 82.631 292.867 83.2283 292.438C83.8257 291.999 84.521 291.78 85.3143 291.78C86.1077 291.78 86.7983 291.999 87.3863 292.438C87.9837 292.867 88.4457 293.469 88.7723 294.244C89.1083 295.009 89.2763 295.901 89.2763 296.918C89.2763 297.945 89.1083 298.85 88.7723 299.634C88.4457 300.418 87.9837 301.034 87.3863 301.482C86.7983 301.921 86.1077 302.14 85.3143 302.14ZM85.3143 301.132C85.8837 301.132 86.369 300.964 86.7703 300.628C87.1717 300.283 87.4797 299.797 87.6943 299.172C87.909 298.537 88.0163 297.781 88.0163 296.904C88.0163 296.036 87.909 295.294 87.6943 294.678C87.489 294.062 87.1857 293.595 86.7843 293.278C86.383 292.951 85.893 292.788 85.3143 292.788C84.7357 292.788 84.2457 292.951 83.8443 293.278C83.443 293.605 83.135 294.076 82.9203 294.692C82.715 295.299 82.6123 296.036 82.6123 296.904C82.6123 297.781 82.7197 298.537 82.9343 299.172C83.149 299.807 83.457 300.292 83.8583 300.628C84.2597 300.964 84.745 301.132 85.3143 301.132ZM94.8436 302.14C94.0503 302.14 93.355 301.921 92.7576 301.482C92.1696 301.034 91.7076 300.418 91.3716 299.634C91.045 298.841 90.8816 297.935 90.8816 296.918C90.8816 295.901 91.045 295.009 91.3716 294.244C91.6983 293.469 92.1603 292.867 92.7576 292.438C93.355 291.999 94.0503 291.78 94.8436 291.78C95.637 291.78 96.3276 291.999 96.9156 292.438C97.513 292.867 97.975 293.469 98.3016 294.244C98.6376 295.009 98.8056 295.901 98.8056 296.918C98.8056 297.945 98.6376 298.85 98.3016 299.634C97.975 300.418 97.513 301.034 96.9156 301.482C96.3276 301.921 95.637 302.14 94.8436 302.14ZM94.8436 301.132C95.413 301.132 95.8983 300.964 96.2996 300.628C96.701 300.283 97.009 299.797 97.2236 299.172C97.4383 298.537 97.5456 297.781 97.5456 296.904C97.5456 296.036 97.4383 295.294 97.2236 294.678C97.0183 294.062 96.715 293.595 96.3136 293.278C95.9123 292.951 95.4223 292.788 94.8436 292.788C94.265 292.788 93.775 292.951 93.3736 293.278C92.9723 293.605 92.6643 294.076 92.4496 294.692C92.2443 295.299 92.1416 296.036 92.1416 296.904C92.1416 297.781 92.249 298.537 92.4636 299.172C92.6783 299.807 92.9863 300.292 93.3876 300.628C93.789 300.964 94.2743 301.132 94.8436 301.132Z" fill="#E7E8F4"/>
<path opacity="0.7" d="M4.662 450.14C3.86867 450.14 3.17333 449.921 2.576 449.482C1.988 449.034 1.526 448.418 1.19 447.634C0.863333 446.841 0.7 445.935 0.7 444.918C0.7 443.901 0.863333 443.009 1.19 442.244C1.51667 441.469 1.97867 440.867 2.576 440.438C3.17333 439.999 3.86867 439.78 4.662 439.78C5.45533 439.78 6.146 439.999 6.734 440.438C7.33133 440.867 7.79333 441.469 8.12 442.244C8.456 443.009 8.624 443.901 8.624 444.918C8.624 445.945 8.456 446.85 8.12 447.634C7.79333 448.418 7.33133 449.034 6.734 449.482C6.146 449.921 5.45533 450.14 4.662 450.14ZM4.662 449.132C5.23133 449.132 5.71667 448.964 6.118 448.628C6.51933 448.283 6.82733 447.797 7.042 447.172C7.25667 446.537 7.364 445.781 7.364 444.904C7.364 444.036 7.25667 443.294 7.042 442.678C6.83667 442.062 6.53333 441.595 6.132 441.278C5.73067 440.951 5.24067 440.788 4.662 440.788C4.08333 440.788 3.59333 440.951 3.192 441.278C2.79067 441.605 2.48267 442.076 2.268 442.692C2.06267 443.299 1.96 444.036 1.96 444.904C1.96 445.781 2.06733 446.537 2.282 447.172C2.49667 447.807 2.80467 448.292 3.206 448.628C3.60733 448.964 4.09267 449.132 4.662 449.132Z" fill="#E7E8F4"/>
<g filter="url(#filter0_b_2502_16801)">
<path d="M117 29H343V425C343 445.987 325.987 463 305 463H117V29Z" fill="white" fill-opacity="0.01"/>
</g>
<path opacity="0.5" d="M0 29H26.6978H117M117 29V462.601M117 29H233M117 462.601H26.6978H0M117 462.601H233M233 462.601H343V317.08M233 462.601V29M233 29H343V173.04M343 317.08H0M343 317.08V173.04M343 173.04H0" stroke="white" stroke-opacity="0.23" stroke-width="0.886837"/>
<path opacity="0.7" d="M4.41163 158.14C3.22629 158.14 2.31163 157.711 1.66763 156.852C1.03296 155.984 0.715625 154.733 0.715625 153.1C0.715625 151.971 0.864958 151.009 1.16363 150.216C1.47163 149.423 1.91029 148.821 2.47963 148.41C3.04896 147.99 3.72563 147.78 4.50963 147.78C5.36829 147.78 6.07763 148.027 6.63763 148.522C7.19763 149.017 7.53829 149.698 7.65963 150.566H6.42763C6.34363 149.987 6.12896 149.549 5.78363 149.25C5.44763 148.942 5.01829 148.788 4.49563 148.788C3.66496 148.788 3.03496 149.143 2.60563 149.852C2.18563 150.561 1.97563 151.625 1.97563 153.044V153.954L1.65363 153.828C1.73763 153.389 1.92429 153.007 2.21363 152.68C2.50296 152.353 2.86229 152.101 3.29163 151.924C3.72096 151.737 4.18296 151.644 4.67763 151.644C5.31229 151.644 5.86296 151.784 6.32963 152.064C6.80563 152.335 7.17429 152.717 7.43563 153.212C7.70629 153.697 7.84163 154.267 7.84163 154.92C7.84163 155.564 7.69696 156.129 7.40762 156.614C7.11829 157.099 6.71696 157.477 6.20363 157.748C5.69029 158.009 5.09296 158.14 4.41163 158.14ZM4.45363 157.132C5.08829 157.132 5.60163 156.931 5.99363 156.53C6.38563 156.129 6.58163 155.587 6.58163 154.906C6.58163 154.197 6.39029 153.641 6.00763 153.24C5.63429 152.829 5.10696 152.624 4.42563 152.624C3.77229 152.624 3.22629 152.815 2.78763 153.198C2.35829 153.581 2.14363 154.108 2.14363 154.78C2.14363 155.247 2.24163 155.657 2.43763 156.012C2.64296 156.367 2.91829 156.642 3.26363 156.838C3.61829 157.034 4.01496 157.132 4.45363 157.132ZM13.0659 158.14C11.8806 158.14 10.9659 157.711 10.3219 156.852C9.68726 155.984 9.36992 154.733 9.36992 153.1C9.36992 151.971 9.51926 151.009 9.81792 150.216C10.1259 149.423 10.5646 148.821 11.1339 148.41C11.7033 147.99 12.3799 147.78 13.1639 147.78C14.0226 147.78 14.7319 148.027 15.2919 148.522C15.8519 149.017 16.1926 149.698 16.3139 150.566H15.0819C14.9979 149.987 14.7833 149.549 14.4379 149.25C14.1019 148.942 13.6726 148.788 13.1499 148.788C12.3193 148.788 11.6893 149.143 11.2599 149.852C10.8399 150.561 10.6299 151.625 10.6299 153.044V153.954L10.3079 153.828C10.3919 153.389 10.5786 153.007 10.8679 152.68C11.1573 152.353 11.5166 152.101 11.9459 151.924C12.3753 151.737 12.8373 151.644 13.3319 151.644C13.9666 151.644 14.5173 151.784 14.9839 152.064C15.4599 152.335 15.8286 152.717 16.0899 153.212C16.3606 153.697 16.4959 154.267 16.4959 154.92C16.4959 155.564 16.3513 156.129 16.0619 156.614C15.7726 157.099 15.3713 157.477 14.8579 157.748C14.3446 158.009 13.7473 158.14 13.0659 158.14ZM13.1079 157.132C13.7426 157.132 14.2559 156.931 14.6479 156.53C15.0399 156.129 15.2359 155.587 15.2359 154.906C15.2359 154.197 15.0446 153.641 14.6619 153.24C14.2886 152.829 13.7613 152.624 13.0799 152.624C12.4266 152.624 11.8806 152.815 11.4419 153.198C11.0126 153.581 10.7979 154.108 10.7979 154.78C10.7979 155.247 10.8959 155.657 11.0919 156.012C11.2973 156.367 11.5726 156.642 11.9179 156.838C12.2726 157.034 12.6693 157.132 13.1079 157.132ZM24.5155 158.14C23.7222 158.14 23.0268 157.921 22.4295 157.482C21.8415 157.034 21.3795 156.418 21.0435 155.634C20.7168 154.841 20.5535 153.935 20.5535 152.918C20.5535 151.901 20.7168 151.009 21.0435 150.244C21.3702 149.469 21.8322 148.867 22.4295 148.438C23.0268 147.999 23.7222 147.78 24.5155 147.78C25.3088 147.78 25.9995 147.999 26.5875 148.438C27.1848 148.867 27.6468 149.469 27.9735 150.244C28.3095 151.009 28.4775 151.901 28.4775 152.918C28.4775 153.945 28.3095 154.85 27.9735 155.634C27.6468 156.418 27.1848 157.034 26.5875 157.482C25.9995 157.921 25.3088 158.14 24.5155 158.14ZM24.5155 157.132C25.0848 157.132 25.5702 156.964 25.9715 156.628C26.3728 156.283 26.6808 155.797 26.8955 155.172C27.1102 154.537 27.2175 153.781 27.2175 152.904C27.2175 152.036 27.1102 151.294 26.8955 150.678C26.6902 150.062 26.3868 149.595 25.9855 149.278C25.5842 148.951 25.0942 148.788 24.5155 148.788C23.9368 148.788 23.4468 148.951 23.0455 149.278C22.6442 149.605 22.3362 150.076 22.1215 150.692C21.9162 151.299 21.8135 152.036 21.8135 152.904C21.8135 153.781 21.9208 154.537 22.1355 155.172C22.3502 155.807 22.6582 156.292 23.0595 156.628C23.4608 156.964 23.9462 157.132 24.5155 157.132ZM34.0448 158.14C33.2515 158.14 32.5561 157.921 31.9588 157.482C31.3708 157.034 30.9088 156.418 30.5728 155.634C30.2461 154.841 30.0828 153.935 30.0828 152.918C30.0828 151.901 30.2461 151.009 30.5728 150.244C30.8995 149.469 31.3615 148.867 31.9588 148.438C32.5561 147.999 33.2515 147.78 34.0448 147.78C34.8381 147.78 35.5288 147.999 36.1168 148.438C36.7141 148.867 37.1761 149.469 37.5028 150.244C37.8388 151.009 38.0068 151.901 38.0068 152.918C38.0068 153.945 37.8388 154.85 37.5028 155.634C37.1761 156.418 36.7141 157.034 36.1168 157.482C35.5288 157.921 34.8381 158.14 34.0448 158.14ZM34.0448 157.132C34.6141 157.132 35.0995 156.964 35.5008 156.628C35.9021 156.283 36.2101 155.797 36.4248 155.172C36.6395 154.537 36.7468 153.781 36.7468 152.904C36.7468 152.036 36.6395 151.294 36.4248 150.678C36.2195 150.062 35.9161 149.595 35.5148 149.278C35.1135 148.951 34.6235 148.788 34.0448 148.788C33.4661 148.788 32.9761 148.951 32.5748 149.278C32.1735 149.605 31.8655 150.076 31.6508 150.692C31.4455 151.299 31.3428 152.036 31.3428 152.904C31.3428 153.781 31.4501 154.537 31.6648 155.172C31.8795 155.807 32.1875 156.292 32.5888 156.628C32.9901 156.964 33.4755 157.132 34.0448 157.132ZM43.5741 158.14C42.7808 158.14 42.0854 157.921 41.4881 157.482C40.9001 157.034 40.4381 156.418 40.1021 155.634C39.7754 154.841 39.6121 153.935 39.6121 152.918C39.6121 151.901 39.7754 151.009 40.1021 150.244C40.4288 149.469 40.8908 148.867 41.4881 148.438C42.0854 147.999 42.7808 147.78 43.5741 147.78C44.3674 147.78 45.0581 147.999 45.6461 148.438C46.2434 148.867 46.7054 149.469 47.0321 150.244C47.3681 151.009 47.5361 151.901 47.5361 152.918C47.5361 153.945 47.3681 154.85 47.0321 155.634C46.7054 156.418 46.2434 157.034 45.6461 157.482C45.0581 157.921 44.3674 158.14 43.5741 158.14ZM43.5741 157.132C44.1434 157.132 44.6288 156.964 45.0301 156.628C45.4314 156.283 45.7394 155.797 45.9541 155.172C46.1688 154.537 46.2761 153.781 46.2761 152.904C46.2761 152.036 46.1688 151.294 45.9541 150.678C45.7488 150.062 45.4454 149.595 45.0441 149.278C44.6428 148.951 44.1528 148.788 43.5741 148.788C42.9954 148.788 42.5054 148.951 42.1041 149.278C41.7028 149.605 41.3948 150.076 41.1801 150.692C40.9748 151.299 40.8721 152.036 40.8721 152.904C40.8721 153.781 40.9794 154.537 41.1941 155.172C41.4088 155.807 41.7168 156.292 42.1181 156.628C42.5194 156.964 43.0048 157.132 43.5741 157.132ZM55.7011 158.14C54.9077 158.14 54.2124 157.921 53.6151 157.482C53.0271 157.034 52.5651 156.418 52.2291 155.634C51.9024 154.841 51.7391 153.935 51.7391 152.918C51.7391 151.901 51.9024 151.009 52.2291 150.244C52.5557 149.469 53.0177 148.867 53.6151 148.438C54.2124 147.999 54.9077 147.78 55.7011 147.78C56.4944 147.78 57.1851 147.999 57.7731 148.438C58.3704 148.867 58.8324 149.469 59.1591 150.244C59.4951 151.009 59.6631 151.901 59.6631 152.918C59.6631 153.945 59.4951 154.85 59.1591 155.634C58.8324 156.418 58.3704 157.034 57.7731 157.482C57.1851 157.921 56.4944 158.14 55.7011 158.14ZM55.7011 157.132C56.2704 157.132 56.7557 156.964 57.1571 156.628C57.5584 156.283 57.8664 155.797 58.0811 155.172C58.2957 154.537 58.4031 153.781 58.4031 152.904C58.4031 152.036 58.2957 151.294 58.0811 150.678C57.8757 150.062 57.5724 149.595 57.1711 149.278C56.7697 148.951 56.2797 148.788 55.7011 148.788C55.1224 148.788 54.6324 148.951 54.2311 149.278C53.8297 149.605 53.5217 150.076 53.3071 150.692C53.1017 151.299 52.9991 152.036 52.9991 152.904C52.9991 153.781 53.1064 154.537 53.3211 155.172C53.5357 155.807 53.8437 156.292 54.2451 156.628C54.6464 156.964 55.1317 157.132 55.7011 157.132ZM65.2304 158.14C64.437 158.14 63.7417 157.921 63.1444 157.482C62.5564 157.034 62.0944 156.418 61.7584 155.634C61.4317 154.841 61.2684 153.935 61.2684 152.918C61.2684 151.901 61.4317 151.009 61.7584 150.244C62.085 149.469 62.547 148.867 63.1444 148.438C63.7417 147.999 64.437 147.78 65.2304 147.78C66.0237 147.78 66.7144 147.999 67.3024 148.438C67.8997 148.867 68.3617 149.469 68.6884 150.244C69.0244 151.009 69.1924 151.901 69.1924 152.918C69.1924 153.945 69.0244 154.85 68.6884 155.634C68.3617 156.418 67.8997 157.034 67.3024 157.482C66.7144 157.921 66.0237 158.14 65.2304 158.14ZM65.2304 157.132C65.7997 157.132 66.285 156.964 66.6864 156.628C67.0877 156.283 67.3957 155.797 67.6104 155.172C67.825 154.537 67.9324 153.781 67.9324 152.904C67.9324 152.036 67.825 151.294 67.6104 150.678C67.405 150.062 67.1017 149.595 66.7004 149.278C66.299 148.951 65.809 148.788 65.2304 148.788C64.6517 148.788 64.1617 148.951 63.7604 149.278C63.359 149.605 63.051 150.076 62.8364 150.692C62.631 151.299 62.5284 152.036 62.5284 152.904C62.5284 153.781 62.6357 154.537 62.8504 155.172C63.065 155.807 63.373 156.292 63.7744 156.628C64.1757 156.964 64.661 157.132 65.2304 157.132ZM74.7597 158.14C73.9663 158.14 73.271 157.921 72.6737 157.482C72.0857 157.034 71.6237 156.418 71.2877 155.634C70.961 154.841 70.7977 153.935 70.7977 152.918C70.7977 151.901 70.961 151.009 71.2877 150.244C71.6143 149.469 72.0763 148.867 72.6737 148.438C73.271 147.999 73.9663 147.78 74.7597 147.78C75.553 147.78 76.2437 147.999 76.8317 148.438C77.429 148.867 77.891 149.469 78.2177 150.244C78.5537 151.009 78.7217 151.901 78.7217 152.918C78.7217 153.945 78.5537 154.85 78.2177 155.634C77.891 156.418 77.429 157.034 76.8317 157.482C76.2437 157.921 75.553 158.14 74.7597 158.14ZM74.7597 157.132C75.329 157.132 75.8143 156.964 76.2157 156.628C76.617 156.283 76.925 155.797 77.1397 155.172C77.3543 154.537 77.4617 153.781 77.4617 152.904C77.4617 152.036 77.3543 151.294 77.1397 150.678C76.9343 150.062 76.631 149.595 76.2297 149.278C75.8283 148.951 75.3383 148.788 74.7597 148.788C74.181 148.788 73.691 148.951 73.2897 149.278C72.8883 149.605 72.5803 150.076 72.3657 150.692C72.1603 151.299 72.0577 152.036 72.0577 152.904C72.0577 153.781 72.165 154.537 72.3797 155.172C72.5943 155.807 72.9023 156.292 73.3037 156.628C73.705 156.964 74.1903 157.132 74.7597 157.132ZM79.5428 160.016V159.442C79.8135 159.339 80.0095 159.176 80.1308 158.952C80.2522 158.737 80.3128 158.406 80.3128 157.958L80.7468 158H79.5428V156.572H80.9568V157.706C80.9568 158.303 80.8448 158.798 80.6208 159.19C80.3968 159.582 80.0375 159.857 79.5428 160.016ZM85.7929 158.14C84.9995 158.14 84.3042 157.921 83.7069 157.482C83.1189 157.034 82.6569 156.418 82.3209 155.634C81.9942 154.841 81.8309 153.935 81.8309 152.918C81.8309 151.901 81.9942 151.009 82.3209 150.244C82.6475 149.469 83.1095 148.867 83.7069 148.438C84.3042 147.999 84.9995 147.78 85.7929 147.78C86.5862 147.78 87.2769 147.999 87.8649 148.438C88.4622 148.867 88.9242 149.469 89.2509 150.244C89.5869 151.009 89.7549 151.901 89.7549 152.918C89.7549 153.945 89.5869 154.85 89.2509 155.634C88.9242 156.418 88.4622 157.034 87.8649 157.482C87.2769 157.921 86.5862 158.14 85.7929 158.14ZM85.7929 157.132C86.3622 157.132 86.8475 156.964 87.2489 156.628C87.6502 156.283 87.9582 155.797 88.1729 155.172C88.3875 154.537 88.4949 153.781 88.4949 152.904C88.4949 152.036 88.3875 151.294 88.1729 150.678C87.9675 150.062 87.6642 149.595 87.2629 149.278C86.8615 148.951 86.3715 148.788 85.7929 148.788C85.2142 148.788 84.7242 148.951 84.3229 149.278C83.9215 149.605 83.6135 150.076 83.3989 150.692C83.1935 151.299 83.0909 152.036 83.0909 152.904C83.0909 153.781 83.1982 154.537 83.4129 155.172C83.6275 155.807 83.9355 156.292 84.3369 156.628C84.7382 156.964 85.2235 157.132 85.7929 157.132ZM95.3222 158.14C94.5288 158.14 93.8335 157.921 93.2362 157.482C92.6482 157.034 92.1862 156.418 91.8502 155.634C91.5235 154.841 91.3602 153.935 91.3602 152.918C91.3602 151.901 91.5235 151.009 91.8502 150.244C92.1768 149.469 92.6388 148.867 93.2362 148.438C93.8335 147.999 94.5288 147.78 95.3222 147.78C96.1155 147.78 96.8062 147.999 97.3942 148.438C97.9915 148.867 98.4535 149.469 98.7802 150.244C99.1162 151.009 99.2842 151.901 99.2842 152.918C99.2842 153.945 99.1162 154.85 98.7802 155.634C98.4535 156.418 97.9915 157.034 97.3942 157.482C96.8062 157.921 96.1155 158.14 95.3222 158.14ZM95.3222 157.132C95.8915 157.132 96.3768 156.964 96.7782 156.628C97.1795 156.283 97.4875 155.797 97.7022 155.172C97.9168 154.537 98.0242 153.781 98.0242 152.904C98.0242 152.036 97.9168 151.294 97.7022 150.678C97.4968 150.062 97.1935 149.595 96.7922 149.278C96.3908 148.951 95.9008 148.788 95.3222 148.788C94.7435 148.788 94.2535 148.951 93.8522 149.278C93.4508 149.605 93.1428 150.076 92.9282 150.692C92.7228 151.299 92.6202 152.036 92.6202 152.904C92.6202 153.781 92.7275 154.537 92.9422 155.172C93.1568 155.807 93.4648 156.292 93.8662 156.628C94.2675 156.964 94.7528 157.132 95.3222 157.132Z" fill="#E7E8F4"/>
<g filter="url(#filter1_d_2502_16801)">
<path d="M54 463L135.684 448.556C135.893 448.519 136.094 448.445 136.276 448.337L163.76 432.141C163.919 432.048 164.062 431.93 164.185 431.792L211.117 379.049L247.997 327.528C251.115 323.172 253.58 318.384 255.313 313.315L302.109 176.479L341 32" stroke="white" stroke-width="2"/>
</g>
<path d="M344.939 21.41C344.806 20.704 343.934 20.4403 343.433 20.9548L331.805 32.8927C331.566 33.1389 331.535 33.5207 331.731 33.8026C331.892 34.0334 332.174 34.1485 332.45 34.0969L340.305 32.6304C340.588 32.5776 340.879 32.6655 341.086 32.8663L346.817 38.4371C347.019 38.6333 347.317 38.6931 347.579 38.5901C347.898 38.4642 348.084 38.129 348.02 37.7912L344.939 21.41Z" fill="white"/>
<path d="M323.42 480V478.956C324.26 478.268 324.96 477.668 325.52 477.156C326.088 476.644 326.54 476.188 326.876 475.788C327.212 475.388 327.452 475.024 327.596 474.696C327.74 474.368 327.812 474.04 327.812 473.712C327.812 473.264 327.68 472.916 327.416 472.668C327.16 472.412 326.804 472.284 326.348 472.284C325.876 472.284 325.492 472.424 325.196 472.704C324.9 472.976 324.716 473.364 324.644 473.868H323.348C323.428 473.076 323.736 472.44 324.272 471.96C324.816 471.48 325.532 471.24 326.42 471.24C327.268 471.24 327.936 471.464 328.424 471.912C328.92 472.36 329.168 472.976 329.168 473.76C329.168 474.16 329.092 474.56 328.94 474.96C328.796 475.352 328.556 475.764 328.22 476.196C327.884 476.62 327.432 477.092 326.864 477.612C326.304 478.124 325.608 478.708 324.776 479.364L324.476 478.956H329.324V480H323.42ZM333.747 480.12C333.051 480.12 332.439 479.932 331.911 479.556C331.383 479.172 330.971 478.644 330.675 477.972C330.379 477.292 330.231 476.516 330.231 475.644C330.231 474.772 330.379 474.008 330.675 473.352C330.971 472.688 331.383 472.172 331.911 471.804C332.439 471.428 333.051 471.24 333.747 471.24C334.443 471.24 335.051 471.428 335.571 471.804C336.099 472.172 336.511 472.688 336.807 473.352C337.103 474.008 337.251 474.772 337.251 475.644C337.251 476.524 337.103 477.3 336.807 477.972C336.511 478.644 336.099 479.172 335.571 479.556C335.043 479.932 334.435 480.12 333.747 480.12ZM333.747 479.028C334.203 479.028 334.591 478.888 334.911 478.608C335.231 478.32 335.471 477.924 335.631 477.42C335.799 476.908 335.883 476.312 335.883 475.632C335.883 474.96 335.799 474.376 335.631 473.88C335.471 473.384 335.231 473.004 334.911 472.74C334.599 472.468 334.211 472.332 333.747 472.332C333.275 472.332 332.879 472.468 332.559 472.74C332.247 473.012 332.007 473.396 331.839 473.892C331.679 474.38 331.599 474.96 331.599 475.632C331.599 476.312 331.683 476.908 331.851 477.42C332.019 477.932 332.259 478.328 332.571 478.608C332.891 478.888 333.283 479.028 333.747 479.028ZM338.115 480V478.956C338.955 478.268 339.655 477.668 340.215 477.156C340.783 476.644 341.235 476.188 341.571 475.788C341.907 475.388 342.147 475.024 342.291 474.696C342.435 474.368 342.507 474.04 342.507 473.712C342.507 473.264 342.375 472.916 342.111 472.668C341.855 472.412 341.499 472.284 341.043 472.284C340.571 472.284 340.187 472.424 339.891 472.704C339.595 472.976 339.411 473.364 339.339 473.868H338.043C338.123 473.076 338.431 472.44 338.967 471.96C339.511 471.48 340.227 471.24 341.115 471.24C341.963 471.24 342.631 471.464 343.119 471.912C343.615 472.36 343.863 472.976 343.863 473.76C343.863 474.16 343.787 474.56 343.635 474.96C343.491 475.352 343.251 475.764 342.915 476.196C342.579 476.62 342.127 477.092 341.559 477.612C340.999 478.124 340.303 478.708 339.471 479.364L339.171 478.956H344.019V480H338.115ZM347.95 480.12C347.326 480.12 346.782 480.012 346.318 479.796C345.862 479.58 345.506 479.284 345.25 478.908C345.002 478.524 344.878 478.092 344.878 477.612C344.878 477.18 344.97 476.792 345.154 476.448C345.346 476.104 345.606 475.832 345.934 475.632C346.27 475.424 346.642 475.32 347.05 475.32L347.134 475.572C346.726 475.572 346.37 475.488 346.066 475.32C345.762 475.144 345.522 474.904 345.346 474.6C345.178 474.288 345.094 473.94 345.094 473.556C345.094 473.1 345.214 472.7 345.454 472.356C345.694 472.004 346.026 471.732 346.45 471.54C346.882 471.34 347.386 471.24 347.962 471.24C348.53 471.24 349.026 471.34 349.45 471.54C349.874 471.732 350.206 472.004 350.446 472.356C350.686 472.7 350.806 473.1 350.806 473.556C350.806 473.94 350.718 474.284 350.542 474.588C350.374 474.892 350.138 475.132 349.834 475.308C349.53 475.484 349.17 475.572 348.754 475.572L348.85 475.32C349.266 475.32 349.638 475.424 349.966 475.632C350.294 475.832 350.55 476.104 350.734 476.448C350.926 476.792 351.022 477.184 351.022 477.624C351.022 478.104 350.894 478.532 350.638 478.908C350.39 479.284 350.034 479.58 349.57 479.796C349.114 480.012 348.574 480.12 347.95 480.12ZM347.95 479.076C348.478 479.076 348.894 478.936 349.198 478.656C349.51 478.368 349.666 477.984 349.666 477.504C349.666 477.032 349.51 476.66 349.198 476.388C348.894 476.116 348.478 475.98 347.95 475.98C347.422 475.98 347.002 476.116 346.69 476.388C346.386 476.66 346.234 477.032 346.234 477.504C346.234 477.984 346.386 478.368 346.69 478.656C347.002 478.936 347.422 479.076 347.95 479.076ZM347.95 474.984C348.414 474.984 348.778 474.864 349.042 474.624C349.314 474.384 349.45 474.06 349.45 473.652C349.45 473.236 349.31 472.904 349.03 472.656C348.758 472.408 348.398 472.284 347.95 472.284C347.494 472.284 347.13 472.408 346.858 472.656C346.586 472.904 346.45 473.236 346.45 473.652C346.45 474.06 346.586 474.384 346.858 474.624C347.13 474.864 347.494 474.984 347.95 474.984Z" fill="white"/>
<path d="M101.42 480V478.956C102.26 478.268 102.96 477.668 103.52 477.156C104.088 476.644 104.54 476.188 104.876 475.788C105.212 475.388 105.452 475.024 105.596 474.696C105.74 474.368 105.812 474.04 105.812 473.712C105.812 473.264 105.68 472.916 105.416 472.668C105.16 472.412 104.804 472.284 104.348 472.284C103.876 472.284 103.492 472.424 103.196 472.704C102.9 472.976 102.716 473.364 102.644 473.868H101.348C101.428 473.076 101.736 472.44 102.272 471.96C102.816 471.48 103.532 471.24 104.42 471.24C105.268 471.24 105.936 471.464 106.424 471.912C106.92 472.36 107.168 472.976 107.168 473.76C107.168 474.16 107.092 474.56 106.94 474.96C106.796 475.352 106.556 475.764 106.22 476.196C105.884 476.62 105.432 477.092 104.864 477.612C104.304 478.124 103.608 478.708 102.776 479.364L102.476 478.956H107.324V480H101.42ZM111.747 480.12C111.051 480.12 110.439 479.932 109.911 479.556C109.383 479.172 108.971 478.644 108.675 477.972C108.379 477.292 108.231 476.516 108.231 475.644C108.231 474.772 108.379 474.008 108.675 473.352C108.971 472.688 109.383 472.172 109.911 471.804C110.439 471.428 111.051 471.24 111.747 471.24C112.443 471.24 113.051 471.428 113.571 471.804C114.099 472.172 114.511 472.688 114.807 473.352C115.103 474.008 115.251 474.772 115.251 475.644C115.251 476.524 115.103 477.3 114.807 477.972C114.511 478.644 114.099 479.172 113.571 479.556C113.043 479.932 112.435 480.12 111.747 480.12ZM111.747 479.028C112.203 479.028 112.591 478.888 112.911 478.608C113.231 478.32 113.471 477.924 113.631 477.42C113.799 476.908 113.883 476.312 113.883 475.632C113.883 474.96 113.799 474.376 113.631 473.88C113.471 473.384 113.231 473.004 112.911 472.74C112.599 472.468 112.211 472.332 111.747 472.332C111.275 472.332 110.879 472.468 110.559 472.74C110.247 473.012 110.007 473.396 109.839 473.892C109.679 474.38 109.599 474.96 109.599 475.632C109.599 476.312 109.683 476.908 109.851 477.42C110.019 477.932 110.259 478.328 110.571 478.608C110.891 478.888 111.283 479.028 111.747 479.028ZM116.115 480V478.956C116.955 478.268 117.655 477.668 118.215 477.156C118.783 476.644 119.235 476.188 119.571 475.788C119.907 475.388 120.147 475.024 120.291 474.696C120.435 474.368 120.507 474.04 120.507 473.712C120.507 473.264 120.375 472.916 120.111 472.668C119.855 472.412 119.499 472.284 119.043 472.284C118.571 472.284 118.187 472.424 117.891 472.704C117.595 472.976 117.411 473.364 117.339 473.868H116.043C116.123 473.076 116.431 472.44 116.967 471.96C117.511 471.48 118.227 471.24 119.115 471.24C119.963 471.24 120.631 471.464 121.119 471.912C121.615 472.36 121.863 472.976 121.863 473.76C121.863 474.16 121.787 474.56 121.635 474.96C121.491 475.352 121.251 475.764 120.915 476.196C120.579 476.62 120.127 477.092 119.559 477.612C118.999 478.124 118.303 478.708 117.471 479.364L117.171 478.956H122.019V480H116.115ZM126.655 480V477.72L126.703 477.48V472.548L127.159 472.68L123.559 477.552L123.067 477.084H128.995V478.128H122.395V477.156L126.703 471.36H127.963V480H126.655Z" fill="white"/>
<path d="M216.42 480V478.956C217.26 478.268 217.96 477.668 218.52 477.156C219.088 476.644 219.54 476.188 219.876 475.788C220.212 475.388 220.452 475.024 220.596 474.696C220.74 474.368 220.812 474.04 220.812 473.712C220.812 473.264 220.68 472.916 220.416 472.668C220.16 472.412 219.804 472.284 219.348 472.284C218.876 472.284 218.492 472.424 218.196 472.704C217.9 472.976 217.716 473.364 217.644 473.868H216.348C216.428 473.076 216.736 472.44 217.272 471.96C217.816 471.48 218.532 471.24 219.42 471.24C220.268 471.24 220.936 471.464 221.424 471.912C221.92 472.36 222.168 472.976 222.168 473.76C222.168 474.16 222.092 474.56 221.94 474.96C221.796 475.352 221.556 475.764 221.22 476.196C220.884 476.62 220.432 477.092 219.864 477.612C219.304 478.124 218.608 478.708 217.776 479.364L217.476 478.956H222.324V480H216.42ZM226.747 480.12C226.051 480.12 225.439 479.932 224.911 479.556C224.383 479.172 223.971 478.644 223.675 477.972C223.379 477.292 223.231 476.516 223.231 475.644C223.231 474.772 223.379 474.008 223.675 473.352C223.971 472.688 224.383 472.172 224.911 471.804C225.439 471.428 226.051 471.24 226.747 471.24C227.443 471.24 228.051 471.428 228.571 471.804C229.099 472.172 229.511 472.688 229.807 473.352C230.103 474.008 230.251 474.772 230.251 475.644C230.251 476.524 230.103 477.3 229.807 477.972C229.511 478.644 229.099 479.172 228.571 479.556C228.043 479.932 227.435 480.12 226.747 480.12ZM226.747 479.028C227.203 479.028 227.591 478.888 227.911 478.608C228.231 478.32 228.471 477.924 228.631 477.42C228.799 476.908 228.883 476.312 228.883 475.632C228.883 474.96 228.799 474.376 228.631 473.88C228.471 473.384 228.231 473.004 227.911 472.74C227.599 472.468 227.211 472.332 226.747 472.332C226.275 472.332 225.879 472.468 225.559 472.74C225.247 473.012 225.007 473.396 224.839 473.892C224.679 474.38 224.599 474.96 224.599 475.632C224.599 476.312 224.683 476.908 224.851 477.42C225.019 477.932 225.259 478.328 225.571 478.608C225.891 478.888 226.283 479.028 226.747 479.028ZM231.115 480V478.956C231.955 478.268 232.655 477.668 233.215 477.156C233.783 476.644 234.235 476.188 234.571 475.788C234.907 475.388 235.147 475.024 235.291 474.696C235.435 474.368 235.507 474.04 235.507 473.712C235.507 473.264 235.375 472.916 235.111 472.668C234.855 472.412 234.499 472.284 234.043 472.284C233.571 472.284 233.187 472.424 232.891 472.704C232.595 472.976 232.411 473.364 232.339 473.868H231.043C231.123 473.076 231.431 472.44 231.967 471.96C232.511 471.48 233.227 471.24 234.115 471.24C234.963 471.24 235.631 471.464 236.119 471.912C236.615 472.36 236.863 472.976 236.863 473.76C236.863 474.16 236.787 474.56 236.635 474.96C236.491 475.352 236.251 475.764 235.915 476.196C235.579 476.62 235.127 477.092 234.559 477.612C233.999 478.124 233.303 478.708 232.471 479.364L232.171 478.956H237.019V480H231.115ZM241.226 480.12C240.17 480.12 239.354 479.752 238.778 479.016C238.21 478.272 237.926 477.208 237.926 475.824C237.926 474.864 238.062 474.044 238.334 473.364C238.614 472.676 239.006 472.152 239.51 471.792C240.022 471.424 240.626 471.24 241.322 471.24C242.09 471.24 242.722 471.456 243.218 471.888C243.722 472.32 244.026 472.912 244.13 473.664H242.822C242.758 473.216 242.59 472.876 242.318 472.644C242.054 472.404 241.718 472.284 241.31 472.284C240.638 472.284 240.134 472.572 239.798 473.148C239.462 473.724 239.294 474.592 239.294 475.752V476.532L238.982 476.424C239.062 476.048 239.222 475.72 239.462 475.44C239.702 475.16 239.998 474.944 240.35 474.792C240.71 474.632 241.102 474.552 241.526 474.552C242.078 474.552 242.558 474.668 242.966 474.9C243.382 475.132 243.702 475.46 243.926 475.884C244.158 476.3 244.274 476.784 244.274 477.336C244.274 477.896 244.146 478.388 243.89 478.812C243.642 479.228 243.29 479.552 242.834 479.784C242.378 480.008 241.842 480.12 241.226 480.12ZM241.214 479.076C241.71 479.076 242.114 478.924 242.426 478.62C242.746 478.308 242.906 477.88 242.906 477.336C242.906 476.776 242.75 476.344 242.438 476.04C242.126 475.728 241.71 475.572 241.19 475.572C240.678 475.572 240.25 475.72 239.906 476.016C239.562 476.312 239.39 476.724 239.39 477.252C239.39 477.62 239.47 477.94 239.63 478.212C239.79 478.484 240.006 478.696 240.278 478.848C240.558 479 240.87 479.076 241.214 479.076Z" fill="white"/>
<g filter="url(#filter2_b_2502_16801)">
<rect x="172.5" y="208" width="144" height="58" rx="5.819" fill="white" fill-opacity="0.07"/>
<rect x="172.971" y="208.471" width="143.058" height="57.058" rx="5.34799" stroke="url(#paint0_linear_2502_16801)" stroke-opacity="0.5" stroke-width="0.94202"/>
<rect x="172.971" y="208.471" width="143.058" height="57.058" rx="5.34799" stroke="url(#paint1_linear_2502_16801)" stroke-opacity="0.5" stroke-width="0.94202"/>
<path d="M199.806 230L197.115 220.64H198.831L201.119 229.233H200.625L202.744 220.64H204.694L206.787 229.233H206.306L208.594 220.64H210.232L207.541 230H205.617L203.485 221.602H203.888L201.73 230H199.806ZM213.656 230.13C212.954 230.13 212.338 229.983 211.81 229.688C211.29 229.393 210.882 228.986 210.588 228.466C210.302 227.946 210.159 227.348 210.159 226.672C210.159 225.996 210.302 225.402 210.588 224.891C210.882 224.371 211.29 223.968 211.81 223.682C212.33 223.387 212.936 223.24 213.63 223.24C214.288 223.24 214.86 223.379 215.346 223.656C215.831 223.925 216.208 224.306 216.477 224.8C216.745 225.294 216.88 225.87 216.88 226.529C216.88 226.65 216.875 226.763 216.867 226.867C216.858 226.971 216.845 227.075 216.828 227.179H211.173V226.035H215.567L215.229 226.347C215.229 225.723 215.086 225.255 214.8 224.943C214.514 224.631 214.115 224.475 213.604 224.475C213.049 224.475 212.607 224.666 212.278 225.047C211.957 225.428 211.797 225.979 211.797 226.698C211.797 227.409 211.957 227.955 212.278 228.336C212.607 228.709 213.071 228.895 213.669 228.895C214.015 228.895 214.319 228.83 214.579 228.7C214.839 228.57 215.029 228.371 215.151 228.102H216.698C216.481 228.726 216.113 229.22 215.593 229.584C215.081 229.948 214.436 230.13 213.656 230.13ZM217.06 224.085V223.279C217.45 223.227 217.71 223.097 217.84 222.889C217.97 222.672 218.035 222.369 218.035 221.979L218.672 222.109H217.086V220.367H218.984V221.667C218.984 222.291 218.828 222.824 218.516 223.266C218.213 223.708 217.727 223.981 217.06 224.085ZM220.575 230V223.37H222.174V224.969H222.213V230H220.575ZM222.213 226.542L222.044 224.969C222.2 224.406 222.464 223.977 222.837 223.682C223.21 223.387 223.656 223.24 224.176 223.24C224.358 223.24 224.488 223.257 224.566 223.292V224.839C224.523 224.822 224.462 224.813 224.384 224.813C224.306 224.804 224.211 224.8 224.098 224.8C223.465 224.8 222.993 224.939 222.681 225.216C222.369 225.493 222.213 225.935 222.213 226.542ZM228.348 230.13C227.646 230.13 227.03 229.983 226.502 229.688C225.982 229.393 225.574 228.986 225.28 228.466C224.994 227.946 224.851 227.348 224.851 226.672C224.851 225.996 224.994 225.402 225.28 224.891C225.574 224.371 225.982 223.968 226.502 223.682C227.022 223.387 227.628 223.24 228.322 223.24C228.98 223.24 229.552 223.379 230.038 223.656C230.523 223.925 230.9 224.306 231.169 224.8C231.437 225.294 231.572 225.87 231.572 226.529C231.572 226.65 231.567 226.763 231.559 226.867C231.55 226.971 231.537 227.075 231.52 227.179H225.865V226.035H230.259L229.921 226.347C229.921 225.723 229.778 225.255 229.492 224.943C229.206 224.631 228.807 224.475 228.296 224.475C227.741 224.475 227.299 224.666 226.97 225.047C226.649 225.428 226.489 225.979 226.489 226.698C226.489 227.409 226.649 227.955 226.97 228.336C227.299 228.709 227.763 228.895 228.361 228.895C228.707 228.895 229.011 228.83 229.271 228.7C229.531 228.57 229.721 228.371 229.843 228.102H231.39C231.173 228.726 230.805 229.22 230.285 229.584C229.773 229.948 229.128 230.13 228.348 230.13ZM234.986 230V220.64H236.676V230H234.986ZM241.109 230V220.64H242.799V230H241.109ZM235.792 224.462H241.876V225.788H235.792V224.462ZM247.318 230.13C246.616 230.13 246.001 229.983 245.472 229.688C244.952 229.393 244.545 228.986 244.25 228.466C243.964 227.946 243.821 227.348 243.821 226.672C243.821 225.996 243.964 225.402 244.25 224.891C244.545 224.371 244.952 223.968 245.472 223.682C245.992 223.387 246.599 223.24 247.292 223.24C247.951 223.24 248.523 223.379 249.008 223.656C249.493 223.925 249.87 224.306 250.139 224.8C250.408 225.294 250.542 225.87 250.542 226.529C250.542 226.65 250.538 226.763 250.529 226.867C250.52 226.971 250.507 227.075 250.49 227.179H244.835V226.035H249.229L248.891 226.347C248.891 225.723 248.748 225.255 248.462 224.943C248.176 224.631 247.777 224.475 247.266 224.475C246.711 224.475 246.269 224.666 245.94 225.047C245.619 225.428 245.459 225.979 245.459 226.698C245.459 227.409 245.619 227.955 245.94 228.336C246.269 228.709 246.733 228.895 247.331 228.895C247.678 228.895 247.981 228.83 248.241 228.7C248.501 228.57 248.692 228.371 248.813 228.102H250.36C250.143 228.726 249.775 229.22 249.255 229.584C248.744 229.948 248.098 230.13 247.318 230.13ZM251.638 230V223.37H253.237V224.969H253.276V230H251.638ZM253.276 226.542L253.107 224.969C253.263 224.406 253.527 223.977 253.9 223.682C254.273 223.387 254.719 223.24 255.239 223.24C255.421 223.24 255.551 223.257 255.629 223.292V224.839C255.586 224.822 255.525 224.813 255.447 224.813C255.369 224.804 255.274 224.8 255.161 224.8C254.528 224.8 254.056 224.939 253.744 225.216C253.432 225.493 253.276 225.935 253.276 226.542ZM259.411 230.13C258.709 230.13 258.093 229.983 257.565 229.688C257.045 229.393 256.637 228.986 256.343 228.466C256.057 227.946 255.914 227.348 255.914 226.672C255.914 225.996 256.057 225.402 256.343 224.891C256.637 224.371 257.045 223.968 257.565 223.682C258.085 223.387 258.691 223.24 259.385 223.24C260.043 223.24 260.615 223.379 261.101 223.656C261.586 223.925 261.963 224.306 262.232 224.8C262.5 225.294 262.635 225.87 262.635 226.529C262.635 226.65 262.63 226.763 262.622 226.867C262.613 226.971 262.6 227.075 262.583 227.179H256.928V226.035H261.322L260.984 226.347C260.984 225.723 260.841 225.255 260.555 224.943C260.269 224.631 259.87 224.475 259.359 224.475C258.804 224.475 258.362 224.666 258.033 225.047C257.712 225.428 257.552 225.979 257.552 226.698C257.552 227.409 257.712 227.955 258.033 228.336C258.362 228.709 258.826 228.895 259.424 228.895C259.77 228.895 260.074 228.83 260.334 228.7C260.594 228.57 260.784 228.371 260.906 228.102H262.453C262.236 228.726 261.868 229.22 261.348 229.584C260.836 229.948 260.191 230.13 259.411 230.13ZM266.049 230V220.64H268.142L272.705 228.778L272.224 228.895V220.64H273.862V230H271.769L267.206 221.862L267.687 221.745V230H266.049ZM278.42 230.13C277.718 230.13 277.098 229.983 276.561 229.688C276.032 229.393 275.621 228.986 275.326 228.466C275.031 227.937 274.884 227.335 274.884 226.659C274.884 225.983 275.031 225.389 275.326 224.878C275.621 224.367 276.032 223.968 276.561 223.682C277.098 223.387 277.718 223.24 278.42 223.24C279.131 223.24 279.75 223.387 280.279 223.682C280.808 223.968 281.219 224.367 281.514 224.878C281.809 225.389 281.956 225.983 281.956 226.659C281.956 227.335 281.804 227.937 281.501 228.466C281.206 228.986 280.795 229.393 280.266 229.688C279.737 229.983 279.122 230.13 278.42 230.13ZM278.42 228.817C278.767 228.817 279.079 228.73 279.356 228.557C279.633 228.375 279.85 228.124 280.006 227.803C280.162 227.474 280.24 227.088 280.24 226.646C280.24 225.996 280.067 225.485 279.72 225.112C279.382 224.739 278.949 224.553 278.42 224.553C277.891 224.553 277.454 224.739 277.107 225.112C276.76 225.485 276.587 225.996 276.587 226.646C276.587 227.088 276.665 227.474 276.821 227.803C276.986 228.124 277.202 228.375 277.471 228.557C277.748 228.73 278.065 228.817 278.42 228.817ZM284.231 230L282.203 223.37H283.919L285.115 228.349H284.998L286.467 223.37H287.962L289.457 228.349H289.327L290.51 223.37H292.187L290.159 230H288.625L287.13 225.073H287.26L285.765 230H284.231Z" fill="white"/>
<path d="M185.398 253C185.501 251.753 185.798 250.529 186.289 249.326C186.781 248.123 187.477 246.935 188.379 245.762L188.412 246.037H183.913V245.08H189.424V245.927C188.867 246.734 188.398 247.526 188.016 248.303C187.635 249.073 187.334 249.843 187.114 250.613C186.902 251.383 186.762 252.179 186.696 253H185.398ZM192.972 253.11C192.334 253.11 191.773 252.938 191.289 252.593C190.805 252.241 190.427 251.757 190.156 251.141C189.884 250.518 189.749 249.806 189.749 249.007C189.749 248.208 189.884 247.507 190.156 246.906C190.427 246.297 190.805 245.824 191.289 245.487C191.773 245.142 192.334 244.97 192.972 244.97C193.61 244.97 194.167 245.142 194.644 245.487C195.128 245.824 195.505 246.297 195.777 246.906C196.048 247.507 196.184 248.208 196.184 249.007C196.184 249.814 196.048 250.525 195.777 251.141C195.505 251.757 195.128 252.241 194.644 252.593C194.16 252.938 193.602 253.11 192.972 253.11ZM192.972 252.109C193.39 252.109 193.745 251.981 194.039 251.724C194.332 251.46 194.552 251.097 194.699 250.635C194.853 250.166 194.93 249.619 194.93 248.996C194.93 248.38 194.853 247.845 194.699 247.39C194.552 246.935 194.332 246.587 194.039 246.345C193.753 246.096 193.397 245.971 192.972 245.971C192.539 245.971 192.176 246.096 191.883 246.345C191.597 246.594 191.377 246.946 191.223 247.401C191.076 247.848 191.003 248.38 191.003 248.996C191.003 249.619 191.08 250.166 191.234 250.635C191.388 251.104 191.608 251.467 191.894 251.724C192.187 251.981 192.546 252.109 192.972 252.109ZM202.301 253.11C201.663 253.11 201.102 252.938 200.618 252.593C200.134 252.241 199.757 251.757 199.485 251.141C199.214 250.518 199.078 249.806 199.078 249.007C199.078 248.208 199.214 247.507 199.485 246.906C199.757 246.297 200.134 245.824 200.618 245.487C201.102 245.142 201.663 244.97 202.301 244.97C202.939 244.97 203.497 245.142 203.973 245.487C204.457 245.824 204.835 246.297 205.106 246.906C205.378 247.507 205.513 248.208 205.513 249.007C205.513 249.814 205.378 250.525 205.106 251.141C204.835 251.757 204.457 252.241 203.973 252.593C203.489 252.938 202.932 253.11 202.301 253.11ZM202.301 252.109C202.719 252.109 203.075 251.981 203.368 251.724C203.662 251.46 203.882 251.097 204.028 250.635C204.182 250.166 204.259 249.619 204.259 248.996C204.259 248.38 204.182 247.845 204.028 247.39C203.882 246.935 203.662 246.587 203.368 246.345C203.082 246.096 202.727 245.971 202.301 245.971C201.869 245.971 201.506 246.096 201.212 246.345C200.926 246.594 200.706 246.946 200.552 247.401C200.406 247.848 200.332 248.38 200.332 248.996C200.332 249.619 200.409 250.166 200.563 250.635C200.717 251.104 200.937 251.467 201.223 251.724C201.517 251.981 201.876 252.109 202.301 252.109ZM209.722 253.11C209.084 253.11 208.523 252.938 208.039 252.593C207.555 252.241 207.177 251.757 206.906 251.141C206.634 250.518 206.499 249.806 206.499 249.007C206.499 248.208 206.634 247.507 206.906 246.906C207.177 246.297 207.555 245.824 208.039 245.487C208.523 245.142 209.084 244.97 209.722 244.97C210.36 244.97 210.917 245.142 211.394 245.487C211.878 245.824 212.255 246.297 212.527 246.906C212.798 247.507 212.934 248.208 212.934 249.007C212.934 249.814 212.798 250.525 212.527 251.141C212.255 251.757 211.878 252.241 211.394 252.593C210.91 252.938 210.352 253.11 209.722 253.11ZM209.722 252.109C210.14 252.109 210.495 251.981 210.789 251.724C211.082 251.46 211.302 251.097 211.449 250.635C211.603 250.166 211.68 249.619 211.68 248.996C211.68 248.38 211.603 247.845 211.449 247.39C211.302 246.935 211.082 246.587 210.789 246.345C210.503 246.096 210.147 245.971 209.722 245.971C209.289 245.971 208.926 246.096 208.633 246.345C208.347 246.594 208.127 246.946 207.973 247.401C207.826 247.848 207.753 248.38 207.753 248.996C207.753 249.619 207.83 250.166 207.984 250.635C208.138 251.104 208.358 251.467 208.644 251.724C208.937 251.981 209.296 252.109 209.722 252.109ZM217.142 253.11C216.504 253.11 215.943 252.938 215.459 252.593C214.975 252.241 214.597 251.757 214.326 251.141C214.055 250.518 213.919 249.806 213.919 249.007C213.919 248.208 214.055 247.507 214.326 246.906C214.597 246.297 214.975 245.824 215.459 245.487C215.943 245.142 216.504 244.97 217.142 244.97C217.78 244.97 218.337 245.142 218.814 245.487C219.298 245.824 219.676 246.297 219.947 246.906C220.218 247.507 220.354 248.208 220.354 249.007C220.354 249.814 220.218 250.525 219.947 251.141C219.676 251.757 219.298 252.241 218.814 252.593C218.33 252.938 217.773 253.11 217.142 253.11ZM217.142 252.109C217.56 252.109 217.916 251.981 218.209 251.724C218.502 251.46 218.722 251.097 218.869 250.635C219.023 250.166 219.1 249.619 219.1 248.996C219.1 248.38 219.023 247.845 218.869 247.39C218.722 246.935 218.502 246.587 218.209 246.345C217.923 246.096 217.567 245.971 217.142 245.971C216.709 245.971 216.346 246.096 216.053 246.345C215.767 246.594 215.547 246.946 215.393 247.401C215.246 247.848 215.173 248.38 215.173 248.996C215.173 249.619 215.25 250.166 215.404 250.635C215.558 251.104 215.778 251.467 216.064 251.724C216.357 251.981 216.717 252.109 217.142 252.109ZM227.055 253C227.018 252.861 226.992 252.707 226.978 252.538C226.97 252.369 226.967 252.164 226.967 251.922H226.912V249.249C226.912 248.89 226.82 248.622 226.637 248.446C226.461 248.263 226.178 248.171 225.79 248.171C225.416 248.171 225.115 248.244 224.888 248.391C224.668 248.538 224.539 248.747 224.503 249.018H223.414C223.465 248.49 223.703 248.068 224.129 247.753C224.554 247.438 225.122 247.28 225.834 247.28C226.567 247.28 227.117 247.452 227.484 247.797C227.85 248.134 228.034 248.633 228.034 249.293V251.922C228.034 252.091 228.045 252.263 228.067 252.439C228.089 252.615 228.122 252.802 228.166 253H227.055ZM225.119 253.11C224.547 253.11 224.092 252.971 223.755 252.692C223.417 252.406 223.249 252.021 223.249 251.537C223.249 251.038 223.425 250.646 223.777 250.36C224.136 250.067 224.649 249.869 225.317 249.766L227.165 249.469V250.272L225.493 250.536C225.119 250.595 224.836 250.694 224.646 250.833C224.462 250.972 224.371 251.174 224.371 251.438C224.371 251.695 224.455 251.889 224.624 252.021C224.8 252.146 225.053 252.208 225.383 252.208C225.823 252.208 226.186 252.102 226.472 251.889C226.765 251.676 226.912 251.409 226.912 251.086L227.055 251.9C226.923 252.289 226.688 252.589 226.351 252.802C226.013 253.007 225.603 253.11 225.119 253.11ZM231.763 253.11C231.227 253.11 230.751 252.985 230.333 252.736C229.915 252.479 229.585 252.131 229.343 251.691C229.108 251.251 228.991 250.749 228.991 250.184C228.991 249.619 229.108 249.121 229.343 248.688C229.585 248.248 229.915 247.903 230.333 247.654C230.751 247.405 231.224 247.28 231.752 247.28C232.199 247.28 232.599 247.364 232.951 247.533C233.303 247.702 233.592 247.936 233.82 248.237C234.047 248.538 234.194 248.893 234.26 249.304H233.182C233.108 248.974 232.947 248.71 232.698 248.512C232.456 248.314 232.148 248.215 231.774 248.215C231.451 248.215 231.169 248.296 230.927 248.457C230.685 248.618 230.498 248.846 230.366 249.139C230.234 249.432 230.168 249.781 230.168 250.184C230.168 250.58 230.234 250.928 230.366 251.229C230.498 251.53 230.685 251.764 230.927 251.933C231.169 252.094 231.455 252.175 231.785 252.175C232.144 252.175 232.448 252.08 232.698 251.889C232.954 251.691 233.119 251.427 233.193 251.097H234.271C234.197 251.5 234.043 251.852 233.809 252.153C233.581 252.454 233.292 252.688 232.94 252.857C232.588 253.026 232.195 253.11 231.763 253.11ZM239.265 255.255V251.713L239.419 251.746C239.302 252.164 239.06 252.498 238.693 252.747C238.326 252.989 237.886 253.11 237.373 253.11C236.867 253.11 236.423 252.993 236.042 252.758C235.668 252.516 235.375 252.179 235.162 251.746C234.957 251.306 234.854 250.796 234.854 250.217C234.854 249.63 234.96 249.117 235.173 248.677C235.386 248.237 235.683 247.896 236.064 247.654C236.445 247.412 236.893 247.291 237.406 247.291C237.941 247.291 238.381 247.419 238.726 247.676C239.078 247.925 239.309 248.277 239.419 248.732L239.309 248.754V247.39H240.398V255.255H239.265ZM237.659 252.153C238.172 252.153 238.572 251.981 238.858 251.636C239.151 251.284 239.298 250.8 239.298 250.184C239.298 249.583 239.151 249.11 238.858 248.765C238.565 248.413 238.161 248.237 237.648 248.237C237.142 248.237 236.746 248.413 236.46 248.765C236.174 249.11 236.031 249.594 236.031 250.217C236.031 250.826 236.174 251.302 236.46 251.647C236.753 251.984 237.153 252.153 237.659 252.153ZM243.723 253.11C243.349 253.11 243.019 253.033 242.733 252.879C242.447 252.718 242.224 252.498 242.062 252.219C241.908 251.94 241.831 251.621 241.831 251.262V247.39H242.975V250.998C242.975 251.387 243.071 251.676 243.261 251.867C243.452 252.058 243.723 252.153 244.075 252.153C244.391 252.153 244.669 252.08 244.911 251.933C245.161 251.786 245.355 251.585 245.494 251.328C245.641 251.064 245.714 250.76 245.714 250.415L245.857 251.757C245.674 252.168 245.392 252.498 245.01 252.747C244.636 252.989 244.207 253.11 243.723 253.11ZM245.758 253V251.68H245.714V247.39H246.847V253H245.758ZM248.233 253V247.39H249.377V253H248.233ZM248.178 246.29V245.003H249.443V246.29H248.178ZM250.873 253V247.39H251.962V248.787H252.017V253H250.873ZM252.017 250.074L251.874 248.743C252.006 248.266 252.233 247.903 252.556 247.654C252.878 247.405 253.263 247.28 253.711 247.28C253.879 247.28 253.997 247.295 254.063 247.324V248.402C254.026 248.387 253.975 248.38 253.909 248.38C253.843 248.373 253.762 248.369 253.667 248.369C253.117 248.369 252.702 248.512 252.424 248.798C252.152 249.084 252.017 249.509 252.017 250.074ZM257.232 253.11C256.668 253.11 256.169 252.985 255.736 252.736C255.311 252.487 254.977 252.142 254.735 251.702C254.493 251.262 254.372 250.756 254.372 250.184C254.372 249.605 254.49 249.099 254.724 248.666C254.966 248.226 255.304 247.885 255.736 247.643C256.169 247.401 256.664 247.28 257.221 247.28C257.764 247.28 258.233 247.397 258.629 247.632C259.033 247.859 259.341 248.178 259.553 248.589C259.773 249 259.883 249.487 259.883 250.052C259.883 250.14 259.88 250.224 259.872 250.305C259.872 250.378 259.865 250.455 259.85 250.536H255.142V249.678H259.047L258.761 250.019C258.761 249.418 258.626 248.959 258.354 248.644C258.083 248.329 257.705 248.171 257.221 248.171C256.701 248.171 256.286 248.351 255.978 248.71C255.678 249.062 255.527 249.553 255.527 250.184C255.527 250.822 255.678 251.321 255.978 251.68C256.286 252.039 256.712 252.219 257.254 252.219C257.584 252.219 257.87 252.153 258.112 252.021C258.354 251.882 258.534 251.68 258.651 251.416H259.729C259.546 251.944 259.234 252.358 258.794 252.659C258.362 252.96 257.841 253.11 257.232 253.11ZM265.024 253V251.713L265.134 251.746C265.016 252.164 264.774 252.498 264.408 252.747C264.041 252.989 263.601 253.11 263.088 253.11C262.582 253.11 262.138 252.989 261.757 252.747C261.383 252.505 261.089 252.168 260.877 251.735C260.671 251.302 260.569 250.796 260.569 250.217C260.569 249.63 260.675 249.117 260.888 248.677C261.1 248.237 261.397 247.896 261.779 247.654C262.16 247.412 262.607 247.291 263.121 247.291C263.656 247.291 264.096 247.419 264.441 247.676C264.793 247.925 265.024 248.277 265.134 248.732L264.98 248.754V245.08H266.113V253H265.024ZM263.374 252.153C263.88 252.153 264.279 251.981 264.573 251.636C264.866 251.284 265.013 250.8 265.013 250.184C265.013 249.583 264.862 249.11 264.562 248.765C264.268 248.413 263.869 248.237 263.363 248.237C262.864 248.237 262.468 248.413 262.175 248.765C261.889 249.11 261.746 249.594 261.746 250.217C261.746 250.826 261.889 251.302 262.175 251.647C262.468 251.984 262.868 252.153 263.374 252.153ZM271.498 253.11C271.124 253.11 270.794 253.033 270.508 252.879C270.222 252.718 269.998 252.498 269.837 252.219C269.683 251.94 269.606 251.621 269.606 251.262V247.39H270.75V250.998C270.75 251.387 270.845 251.676 271.036 251.867C271.226 252.058 271.498 252.153 271.85 252.153C272.165 252.153 272.444 252.08 272.686 251.933C272.935 251.786 273.129 251.585 273.269 251.328C273.415 251.064 273.489 250.76 273.489 250.415L273.632 251.757C273.448 252.168 273.166 252.498 272.785 252.747C272.411 252.989 271.982 253.11 271.498 253.11ZM273.533 253V251.68H273.489V247.39H274.622V253H273.533ZM278.096 253.11C277.362 253.11 276.779 252.949 276.347 252.626C275.914 252.303 275.668 251.849 275.61 251.262H276.666C276.717 251.585 276.864 251.834 277.106 252.01C277.355 252.179 277.692 252.263 278.118 252.263C278.492 252.263 278.778 252.197 278.976 252.065C279.174 251.933 279.273 251.746 279.273 251.504C279.273 251.328 279.214 251.181 279.097 251.064C278.987 250.939 278.767 250.837 278.437 250.756L277.535 250.547C276.97 250.408 276.548 250.202 276.27 249.931C275.998 249.652 275.863 249.311 275.863 248.908C275.863 248.402 276.05 248.006 276.424 247.72C276.805 247.427 277.326 247.28 277.986 247.28C278.638 247.28 279.163 247.427 279.559 247.72C279.962 248.013 280.189 248.424 280.241 248.952H279.185C279.141 248.688 279.012 248.486 278.8 248.347C278.594 248.2 278.312 248.127 277.953 248.127C277.615 248.127 277.355 248.189 277.172 248.314C276.996 248.431 276.908 248.596 276.908 248.809C276.908 248.985 276.974 249.132 277.106 249.249C277.245 249.366 277.472 249.465 277.788 249.546L278.712 249.777C279.247 249.909 279.65 250.125 279.922 250.426C280.193 250.719 280.329 251.075 280.329 251.493C280.329 251.999 280.131 252.395 279.735 252.681C279.346 252.967 278.8 253.11 278.096 253.11ZM283.892 253.11C283.328 253.11 282.829 252.985 282.396 252.736C281.971 252.487 281.637 252.142 281.395 251.702C281.153 251.262 281.032 250.756 281.032 250.184C281.032 249.605 281.15 249.099 281.384 248.666C281.626 248.226 281.964 247.885 282.396 247.643C282.829 247.401 283.324 247.28 283.881 247.28C284.424 247.28 284.893 247.397 285.289 247.632C285.693 247.859 286.001 248.178 286.213 248.589C286.433 249 286.543 249.487 286.543 250.052C286.543 250.14 286.54 250.224 286.532 250.305C286.532 250.378 286.525 250.455 286.51 250.536H281.802V249.678H285.707L285.421 250.019C285.421 249.418 285.286 248.959 285.014 248.644C284.743 248.329 284.365 248.171 283.881 248.171C283.361 248.171 282.946 248.351 282.638 248.71C282.338 249.062 282.187 249.553 282.187 250.184C282.187 250.822 282.338 251.321 282.638 251.68C282.946 252.039 283.372 252.219 283.914 252.219C284.244 252.219 284.53 252.153 284.772 252.021C285.014 251.882 285.194 251.68 285.311 251.416H286.389C286.206 251.944 285.894 252.358 285.454 252.659C285.022 252.96 284.501 253.11 283.892 253.11ZM287.603 253V247.39H288.692V248.787H288.747V253H287.603ZM288.747 250.074L288.604 248.743C288.736 248.266 288.964 247.903 289.286 247.654C289.609 247.405 289.994 247.28 290.441 247.28C290.61 247.28 290.727 247.295 290.793 247.324V248.402C290.757 248.387 290.705 248.38 290.639 248.38C290.573 248.373 290.493 248.369 290.397 248.369C289.847 248.369 289.433 248.512 289.154 248.798C288.883 249.084 288.747 249.509 288.747 250.074ZM293.6 253.11C292.866 253.11 292.283 252.949 291.851 252.626C291.418 252.303 291.172 251.849 291.114 251.262H292.17C292.221 251.585 292.368 251.834 292.61 252.01C292.859 252.179 293.196 252.263 293.622 252.263C293.996 252.263 294.282 252.197 294.48 252.065C294.678 251.933 294.777 251.746 294.777 251.504C294.777 251.328 294.718 251.181 294.601 251.064C294.491 250.939 294.271 250.837 293.941 250.756L293.039 250.547C292.474 250.408 292.052 250.202 291.774 249.931C291.502 249.652 291.367 249.311 291.367 248.908C291.367 248.402 291.554 248.006 291.928 247.72C292.309 247.427 292.83 247.28 293.49 247.28C294.142 247.28 294.667 247.427 295.063 247.72C295.466 248.013 295.693 248.424 295.745 248.952H294.689C294.645 248.688 294.516 248.486 294.304 248.347C294.098 248.2 293.816 248.127 293.457 248.127C293.119 248.127 292.859 248.189 292.676 248.314C292.5 248.431 292.412 248.596 292.412 248.809C292.412 248.985 292.478 249.132 292.61 249.249C292.749 249.366 292.976 249.465 293.292 249.546L294.216 249.777C294.751 249.909 295.154 250.125 295.426 250.426C295.697 250.719 295.833 251.075 295.833 251.493C295.833 251.999 295.635 252.395 295.239 252.681C294.85 252.967 294.304 253.11 293.6 253.11ZM298.843 253V247.39H299.987V253H298.843ZM298.788 246.29V245.003H300.053V246.29H298.788ZM301.483 253V247.39H302.572V248.71H302.627V253H301.483ZM305.465 253V249.392C305.465 249.003 305.366 248.714 305.168 248.523C304.977 248.332 304.691 248.237 304.31 248.237C303.98 248.237 303.686 248.31 303.43 248.457C303.18 248.604 302.982 248.805 302.836 249.062C302.696 249.319 302.627 249.623 302.627 249.975L302.484 248.633C302.667 248.215 302.949 247.885 303.331 247.643C303.712 247.401 304.156 247.28 304.662 247.28C305.263 247.28 305.736 247.449 306.081 247.786C306.425 248.123 306.598 248.571 306.598 249.128V253H305.465Z" fill="white"/>
</g>
<g filter="url(#filter3_f_2502_16801)">
<circle cx="8" cy="8" r="8" transform="matrix(-1 0 0 1 146 439)" fill="white"/>
</g>
<circle cx="5" cy="5" r="5" transform="matrix(-1 0 0 1 143 442)" fill="white"/>
<g filter="url(#filter4_f_2502_16801)">
<circle cx="8" cy="8" r="8" transform="matrix(-1 0 0 1 181 229)" fill="white"/>
</g>
<circle cx="5" cy="5" r="5" transform="matrix(-1 0 0 1 178 232)" fill="white"/>
<path d="M171 237H157.052C155.568 237 154.136 237.55 153.034 238.544L139.982 250.316C138.72 251.454 138 253.073 138 254.772V460" stroke="url(#paint2_linear_2502_16801)" stroke-opacity="0.5" stroke-width="1.05"/>
<defs>
<filter id="filter0_b_2502_16801" x="105" y="17" width="250" height="458" filterUnits="userSpaceOnUse" color-interpolation-filters="sRGB">
<feFlood flood-opacity="0" result="BackgroundImageFix"/>
<feGaussianBlur in="BackgroundImageFix" stdDeviation="6"/>
<feComposite in2="SourceAlpha" operator="in" result="effect1_backgroundBlur_2502_16801"/>
<feBlend mode="normal" in="SourceGraphic" in2="effect1_backgroundBlur_2502_16801" result="shape"/>
</filter>
<filter id="filter1_d_2502_16801" x="34.3155" y="17.5506" width="327.16" height="471.266" filterUnits="userSpaceOnUse" color-interpolation-filters="sRGB">
<feFlood flood-opacity="0" result="BackgroundImageFix"/>
<feColorMatrix in="SourceAlpha" type="matrix" values="0 0 0 0 0 0 0 0 0 0 0 0 0 0 0 0 0 0 127 0" result="hardAlpha"/>
<feOffset dy="5.32102"/>
<feGaussianBlur stdDeviation="9.7552"/>
<feComposite in2="hardAlpha" operator="out"/>
<feColorMatrix type="matrix" values="0 0 0 0 0.291667 0 0 0 0 0.840859 0 0 0 0 1 0 0 0 0.33 0"/>
<feBlend mode="normal" in2="BackgroundImageFix" result="effect1_dropShadow_2502_16801"/>
<feBlend mode="normal" in="SourceGraphic" in2="effect1_dropShadow_2502_16801" result="shape"/>
</filter>
<filter id="filter2_b_2502_16801" x="156.486" y="191.986" width="176.029" height="90.0287" filterUnits="userSpaceOnUse" color-interpolation-filters="sRGB">
<feFlood flood-opacity="0" result="BackgroundImageFix"/>
<feGaussianBlur in="BackgroundImageFix" stdDeviation="8.00717"/>
<feComposite in2="SourceAlpha" operator="in" result="effect1_backgroundBlur_2502_16801"/>
<feBlend mode="normal" in="SourceGraphic" in2="effect1_backgroundBlur_2502_16801" result="shape"/>
</filter>
<filter id="filter3_f_2502_16801" x="115" y="424" width="46" height="46" filterUnits="userSpaceOnUse" color-interpolation-filters="sRGB">
<feFlood flood-opacity="0" result="BackgroundImageFix"/>
<feBlend mode="normal" in="SourceGraphic" in2="BackgroundImageFix" result="shape"/>
<feGaussianBlur stdDeviation="7.5" result="effect1_foregroundBlur_2502_16801"/>
</filter>
<filter id="filter4_f_2502_16801" x="150" y="214" width="46" height="46" filterUnits="userSpaceOnUse" color-interpolation-filters="sRGB">
<feFlood flood-opacity="0" result="BackgroundImageFix"/>
<feBlend mode="normal" in="SourceGraphic" in2="BackgroundImageFix" result="shape"/>
<feGaussianBlur stdDeviation="7.5" result="effect1_foregroundBlur_2502_16801"/>
</filter>
<linearGradient id="paint0_linear_2502_16801" x1="316.5" y1="240.919" x2="244.338" y2="241.36" gradientUnits="userSpaceOnUse">
<stop stop-color="white"/>
<stop offset="1" stop-color="white" stop-opacity="0"/>
</linearGradient>
<linearGradient id="paint1_linear_2502_16801" x1="172.5" y1="237" x2="247.276" y2="237.18" gradientUnits="userSpaceOnUse">
<stop stop-color="white"/>
<stop offset="1" stop-color="white" stop-opacity="0"/>
</linearGradient>
<linearGradient id="paint2_linear_2502_16801" x1="154.5" y1="236.112" x2="154.7" y2="443.564" gradientUnits="userSpaceOnUse">
<stop stop-color="white"/>
<stop offset="1" stop-color="white" stop-opacity="0"/>
</linearGradient>
</defs>
</svg>
