<svg width="65" height="22" viewBox="0 0 65 22" fill="none" xmlns="http://www.w3.org/2000/svg">
<path d="M45.9067 16.9411V0.768555H49.1015V16.9411H45.9067Z" fill="#F7A600"/>
<path d="M8.68027 21.7433H1.83301V5.57324H8.40559C11.5978 5.57324 13.4612 7.34613 13.4612 10.1163C13.4612 11.9118 12.266 13.0677 11.437 13.4555C12.4244 13.9088 13.6889 14.9313 13.6889 17.0895C13.6889 20.1064 11.5978 21.7433 8.68027 21.7433ZM8.15317 8.39123H5.02526V12.1158H8.15317C9.50926 12.1158 10.269 11.3654 10.269 10.2523C10.269 9.13917 9.50926 8.39123 8.15317 8.39123ZM8.35857 14.9539H5.02526V18.9278H8.35609C9.80622 18.9278 10.4942 18.0187 10.4942 16.9283C10.4942 15.8379 9.80374 14.9539 8.35857 14.9539Z" fill="white"/>
<path d="M23.4313 15.1101V21.7433H20.2589V15.1101L15.3418 5.57324H18.8137L21.8674 12.0906L24.879 5.57324H28.3484L23.4313 15.1101Z" fill="white"/>
<path d="M37.4019 21.7433H30.5547V5.57324H37.1273C40.3195 5.57324 42.1829 7.34613 42.1829 10.1163C42.1829 11.9118 40.9877 13.0677 40.1587 13.4555C41.146 13.9088 42.4106 14.9313 42.4106 17.0895C42.4106 20.1064 40.322 21.7433 37.4019 21.7433ZM36.8749 8.39123H33.7494V12.1158H36.8749C38.2309 12.1158 38.9906 11.3654 38.9906 10.2523C38.9882 9.13917 38.2285 8.39123 36.8749 8.39123ZM37.0802 14.9539H33.7494V18.9278H37.0802C38.5304 18.9278 39.2183 18.0187 39.2183 16.9283C39.2183 15.8379 38.5279 14.9539 37.0802 14.9539Z" fill="white"/>
<path d="M59.3956 8.39123V21.7458H56.2009V8.39123H51.9272V5.57324H63.6693V8.39123H59.3956Z" fill="white"/>
</svg>
