<svg width="91" height="21" viewBox="0 0 91 21" fill="none" xmlns="http://www.w3.org/2000/svg">
<path d="M71.5159 10.4929C71.5159 9.95716 71.5159 9.45325 71.4986 8.98788C71.4868 8.54885 71.4433 8.11124 71.3685 7.67847C71.2985 7.2833 71.175 6.8995 71.0014 6.53768C70.8181 6.16464 70.5731 5.82521 70.2768 5.53371C69.8566 5.10315 69.3566 4.75854 68.8046 4.51914C68.2075 4.27727 67.568 4.15737 66.9239 4.1665C66.2772 4.15815 65.6354 4.278 65.0354 4.51914C64.4803 4.75527 63.9771 5.09838 63.5545 5.5289C63.2587 5.82022 63.0147 6.15972 62.8328 6.53287C62.6606 6.89476 62.5391 7.27862 62.4715 7.67366C62.3984 8.10655 62.3565 8.54415 62.3462 8.98306C62.3347 9.44843 62.3289 9.95234 62.3318 10.4881C62.3347 11.0238 62.3318 11.5238 62.3462 11.9921C62.3565 12.431 62.3984 12.8686 62.4715 13.3015C62.5391 13.6965 62.6606 14.0804 62.8328 14.4423C63.0154 14.815 63.2594 15.1544 63.5545 15.4462C63.9764 15.8771 64.4798 16.2197 65.0354 16.4541C65.635 16.6968 66.277 16.8173 66.9239 16.8086C67.5682 16.8181 68.2079 16.6975 68.8046 16.4541C69.3567 16.2179 69.8569 15.8754 70.2768 15.4462C70.5725 15.1542 70.8174 14.8149 71.0014 14.4423C71.175 14.0805 71.2985 13.6967 71.3685 13.3015C71.4425 12.8699 71.4853 12.4336 71.4966 11.9959C71.5111 11.5277 71.5178 11.0267 71.514 10.4919L71.5159 10.4929ZM69.0879 10.4929C69.0879 11.0864 69.0792 11.5807 69.059 11.9738C69.0476 12.2967 69.0154 12.6185 68.9626 12.9373C68.9265 13.1497 68.8617 13.3561 68.7699 13.551C68.6954 13.7081 68.598 13.8533 68.4809 13.9817C68.3 14.1888 68.0756 14.3533 67.8238 14.4635C67.5403 14.5847 67.235 14.6464 66.9267 14.6446C66.617 14.646 66.3101 14.5843 66.0249 14.4635C65.7669 14.3553 65.5364 14.1907 65.3505 13.9817C65.2326 13.8538 65.1351 13.7086 65.0614 13.551C64.9722 13.3559 64.9106 13.1494 64.8783 12.9373C64.8269 12.6183 64.7947 12.2966 64.782 11.9738C64.7646 11.5807 64.756 11.087 64.756 10.4929C64.756 9.89935 64.7646 9.40411 64.782 9.011C64.7948 8.68819 64.8269 8.36644 64.8783 8.0475C64.9106 7.83541 64.9722 7.62885 65.0614 7.43374C65.1353 7.27632 65.2328 7.13109 65.3505 7.00306C65.5367 6.79437 65.7671 6.62979 66.0249 6.52131C66.3097 6.39906 66.6168 6.33737 66.9267 6.34017C67.2351 6.33696 67.5408 6.39868 67.8238 6.52131C68.0754 6.63184 68.2998 6.79629 68.4809 7.00306C68.5978 7.13167 68.6952 7.27679 68.7699 7.43374C68.8617 7.62865 68.9265 7.83512 68.9626 8.0475C69.0154 8.36627 69.0475 8.6881 69.059 9.011C69.0802 9.40315 69.0879 9.89839 69.0879 10.4929Z" fill="white"/>
<path d="M90.8632 4.48832C90.8621 4.37116 90.7674 4.27644 90.6503 4.27539H88.6471C88.5297 4.27592 88.4347 4.37094 88.4342 4.48832V11.888L83.5492 4.33513C83.5165 4.28406 83.4876 4.27539 83.4153 4.27539H81.5577C81.4407 4.27695 81.3463 4.37138 81.3447 4.48832V16.4955C81.3463 16.6123 81.4409 16.7064 81.5577 16.7075H83.5598C83.6767 16.707 83.7713 16.6124 83.7718 16.4955V9.07653L88.6577 16.6468C88.6914 16.6979 88.7184 16.7065 88.7917 16.7065H90.6483C90.7653 16.706 90.8602 16.6116 90.8613 16.4946L90.8632 4.48832Z" fill="white"/>
<path d="M77.4359 4.48832C77.4353 4.37094 77.3403 4.27592 77.2229 4.27539H75.2217C75.1043 4.27592 75.0093 4.37094 75.0088 4.48832V16.4946C75.0093 16.6119 75.1043 16.707 75.2217 16.7075H77.2229C77.3403 16.707 77.4353 16.6119 77.4359 16.4946V4.48832Z" fill="white"/>
<path d="M53.4794 10.4921C53.4794 9.89471 53.4861 9.39754 53.5035 9.00154C53.5152 8.67866 53.5474 8.35685 53.5998 8.03804C53.7848 6.96855 54.6038 6.33745 55.6492 6.33745C56.3313 6.34323 56.9499 6.59567 57.3449 7.16992C57.5238 7.43801 57.6543 7.73543 57.7303 8.04864C57.7362 8.08163 57.7663 8.10465 57.7997 8.10163H60.1555C60.1892 8.10163 60.2017 8.0785 60.1959 8.04574C59.9387 6.58796 59.1611 5.27856 57.7872 4.63012C57.1119 4.31748 56.3749 4.16104 55.6309 4.17246C54.3044 4.17246 53.1871 4.62659 52.2788 5.53485C51.7603 6.04024 51.4063 6.69037 51.2633 7.4002C51.1246 8.09906 51.0545 9.12937 51.0532 10.4911C51.052 11.8529 51.122 12.8829 51.2633 13.5811C51.4051 14.2918 51.7581 14.9433 52.2759 15.4503C53.1836 16.3579 54.3009 16.8117 55.628 16.8117C56.3719 16.823 57.1088 16.6669 57.7843 16.355C59.1583 15.7066 59.9358 14.3972 60.1931 12.9394C60.1988 12.9057 60.1863 12.8835 60.1526 12.8835H57.7959C57.7624 12.88 57.7319 12.9032 57.7265 12.9365C57.6503 13.2493 57.5198 13.5464 57.3411 13.8142C56.9461 14.3923 56.3275 14.6419 55.6453 14.6467C54.5999 14.6467 53.7809 14.0166 53.5959 12.9471C53.5436 12.6283 53.5114 12.3065 53.4996 11.9836C53.4861 11.5857 53.4794 11.0875 53.4794 10.4921Z" fill="white"/>
<path d="M28.598 4.48832C28.5974 4.37094 28.5024 4.27592 28.385 4.27539H26.3838C26.2665 4.27592 26.1714 4.37094 26.1709 4.48832V16.4955C26.172 16.6125 26.2668 16.707 26.3838 16.7076H28.385C28.502 16.707 28.5969 16.6125 28.598 16.4955V12.971L30.2041 11.0508L33.5032 16.6439C33.5286 16.6851 33.5742 16.7095 33.6226 16.7076H36.0545C36.1663 16.7076 36.1865 16.6381 36.1306 16.5427L31.8113 9.22009L35.7741 4.46616C35.8541 4.36981 35.8204 4.27828 35.6951 4.27828H33.0368C33.0045 4.27638 32.9734 4.29086 32.954 4.31682L28.598 9.54094V4.48832Z" fill="white"/>
<path d="M43.1777 14.6475C42.0514 14.6475 41.0301 13.605 41.0301 12.3602V4.48832C41.0296 4.37094 40.9345 4.27592 40.8172 4.27539H38.816C38.6986 4.27592 38.6036 4.37094 38.603 4.48832V12.3293C38.603 15.0705 40.6534 16.8125 43.1777 16.8125C45.7021 16.8125 47.7525 15.0705 47.7525 12.3293V4.48832C47.7514 4.37116 47.6567 4.27644 47.5395 4.27539H45.5374C45.4204 4.27644 45.3259 4.37132 45.3254 4.48832V12.3602C45.3254 13.604 44.3031 14.6475 43.1777 14.6475Z" fill="white"/>
<path fill-rule="evenodd" clip-rule="evenodd" d="M6.05466 10.4921L12.2673 16.7058L16.1888 12.7843C16.89 12.1529 17.9628 12.181 18.63 12.8482C19.2972 13.5154 19.3253 14.5882 18.6939 15.2894L13.5189 20.4654C12.8238 21.149 11.7089 21.149 11.0138 20.4654L3.54762 12.9973V17.4361C3.54762 18.4158 2.75346 19.2099 1.77381 19.2099C0.794162 19.2099 0 18.4158 0 17.4361V3.54239C0 2.56274 0.794162 1.76858 1.77381 1.76858C2.75346 1.76858 3.54762 2.56274 3.54762 3.54239V7.98125L11.0129 0.51506C11.7078 -0.169082 12.8231 -0.169082 13.518 0.51506L18.6968 5.69004C19.3282 6.39125 19.3001 7.46403 18.6329 8.13124C17.9657 8.79844 16.8929 8.82653 16.1917 8.19515L12.2702 4.27369L6.05466 10.4921ZM12.2702 8.71641C11.5519 8.71602 10.9041 9.14842 10.629 9.81193C10.3538 10.4755 10.5055 11.2394 11.0133 11.7474C11.5211 12.2555 12.2849 12.4076 12.9486 12.1328C13.6123 11.858 14.045 11.2105 14.045 10.4921C14.0453 10.0212 13.8584 9.56942 13.5256 9.23623C13.1927 8.90303 12.7412 8.7157 12.2702 8.71544V8.71641Z" fill="white"/>
</svg>
