<svg width="66" height="32" viewBox="0 0 66 32" fill="none" xmlns="http://www.w3.org/2000/svg">
<mask id="mask0_3690_52690" style="mask-type:luminance" maskUnits="userSpaceOnUse" x="0" y="0" width="66" height="32">
<path d="M65.1927 0.0878906H0.130859V31.912H65.1927V0.0878906Z" fill="white"/>
</mask>
<g mask="url(#mask0_3690_52690)">
<path d="M12.2725 7.23789C12.3435 3.76548 10.3523 0.739677 9.31515 0.0124637C9.31043 0.007781 9.21807 -0.0413175 9.22514 0.0943059C9.22514 0.0966356 9.22278 0.0966356 9.22278 0.0989769C9.11626 6.65803 5.70192 8.4258 3.848 10.8296C-0.271884 16.1749 3.16606 22.2734 7.61977 23.4284C7.69563 23.4472 7.90159 23.508 8.29229 23.5874C8.49589 23.6296 8.55511 23.4588 8.40588 23.204C7.87316 22.2897 6.92603 20.7464 6.73906 18.7635C6.31285 14.1593 12.1896 11.2785 12.2725 7.23789Z" fill="white"/>
<path d="M14.517 9.46381C14.4815 9.43807 14.4318 9.4404 14.4271 9.48478C14.3324 10.3196 13.4586 12.05 12.3079 13.6681C8.43417 19.1234 10.3853 21.5973 11.9006 23.3137C12.18 23.6317 12.3197 23.5616 12.4665 23.3348C12.6038 23.1197 12.8122 22.846 13.7073 22.4275C13.8469 22.362 17.2281 20.5896 17.5951 16.5536C17.9479 12.6486 15.412 10.1793 14.517 9.46381Z" fill="white"/>
<path d="M34.6309 8.46875V22.8237H31.5125V17.0248H25.5197V22.8237H22.3232V8.46875H25.5197V14.2678H31.5125V8.46875H34.6309Z" fill="white"/>
<path d="M49.048 8.46875V11.3075H47.5634H44.5706V22.8214H41.3623V11.3075H38.4499H36.9653V8.46875H49.048Z" fill="white"/>
<path fill-rule="evenodd" clip-rule="evenodd" d="M60.404 22.8378L56.7386 17.8431L53.1018 22.8167L49.5454 22.8214L54.9368 15.4931L49.8485 8.46875H53.4025L63.9437 22.8378H60.404Z" fill="white"/>
<path d="M57.7354 11.6801L59.4947 14.0933L63.662 8.46484H60.1268L57.7354 11.6801Z" fill="white"/>
</g>
</svg>
