<svg width="62" height="24" viewBox="0 0 62 24" fill="none" xmlns="http://www.w3.org/2000/svg">
<path d="M41.4834 14.9568V0H44.4898V14.9568H41.4834Z" fill="white"/>
<path d="M6.44512 19.4001H0V4.44336H6.18595C9.19236 4.44336 10.9441 6.08185 10.9441 8.64483C10.9441 10.3039 9.81907 11.376 9.04036 11.733C9.96986 12.1529 11.1597 13.098 11.1597 15.0946C11.1597 17.8876 9.19236 19.4001 6.44512 19.4001ZM5.94798 7.04868H3.00638V10.4938H5.94798C7.22385 10.4938 7.93773 9.80044 7.93773 8.77066C7.93773 7.74202 7.22385 7.04868 5.94798 7.04868ZM6.14236 13.1197H3.00638V16.796H6.14236C7.50536 16.796 8.15328 15.9562 8.15328 14.947C8.15328 13.939 7.50415 13.1197 6.14236 13.1197Z" fill="white"/>
<path d="M20.3296 13.2662V19.4001H17.3444V13.2662L12.7158 4.44336H15.9814L18.8582 10.472L21.6914 4.44336H24.957L20.3296 13.2662Z" fill="white"/>
<path d="M33.4803 19.4001H27.0352V4.44336H33.2211C36.2275 4.44336 37.9793 6.08185 37.9793 8.64483C37.9793 10.3039 36.8542 11.376 36.0755 11.733C37.005 12.1529 38.1949 13.098 38.1949 15.0946C38.1949 17.8876 36.2275 19.4001 33.4803 19.4001ZM32.9832 7.04868H30.0415V10.4938H32.9832C34.259 10.4938 34.9729 9.80044 34.9729 8.77066C34.9729 7.74202 34.259 7.04868 32.9832 7.04868ZM33.1775 13.1197H30.0415V16.796H33.1775C34.5405 16.796 35.1884 15.9562 35.1884 14.947C35.1884 13.939 34.5405 13.1197 33.1775 13.1197Z" fill="white"/>
<path d="M54.1789 7.04868V19.4013H51.1725V7.04868H47.1494V4.44336H58.2019V7.04868H54.1789Z" fill="white"/>
</svg>
