<svg width="154" height="24" viewBox="0 0 154 24" fill="none" xmlns="http://www.w3.org/2000/svg">
<g clip-path="url(#clip0_3690_52653)">
<path d="M29.2407 18.4463C28.8837 18.4463 28.6309 18.372 28.4835 18.2247C28.3481 18.0773 28.2798 17.8436 28.2798 17.5225V6.83239C28.2798 6.51248 28.3541 6.27883 28.5014 6.13026C28.6488 5.9697 28.8956 5.89062 29.2395 5.89062H33.7626C35.4856 5.89062 36.7533 6.25367 37.5657 6.97977C38.378 7.70586 38.7842 8.78902 38.7842 10.2292C38.7842 11.6694 38.378 12.7346 37.5657 13.4607C36.7653 14.1748 35.4976 14.5319 33.7626 14.5319H32.0085V17.5225C32.0085 17.8425 31.9342 18.0761 31.7869 18.2247C31.6395 18.372 31.3867 18.4463 31.0296 18.4463H29.2383H29.2407ZM33.4691 11.8552C33.9735 11.8552 34.3617 11.7198 34.6325 11.449C34.9153 11.1782 35.0567 10.772 35.0567 10.2304C35.0567 9.68885 34.9153 9.26469 34.6325 8.99391C34.3617 8.72312 33.9735 8.58772 33.4691 8.58772H32.0109V11.8552H33.4691Z" fill="white"/>
<path d="M43.1464 18.7239C41.989 18.7239 41.0604 18.3548 40.3582 17.6168C39.6693 16.8655 39.3242 15.8135 39.3242 14.4596C39.3242 13.4255 39.5579 12.5209 40.0252 11.7457C40.5056 10.9705 41.1766 10.3738 42.0381 9.95441C42.9116 9.52307 43.9156 9.30859 45.0479 9.30859C45.9837 9.30859 46.808 9.41283 47.5222 9.62252C48.2482 9.81902 48.9132 10.109 49.5159 10.49V17.8756C49.5159 18.1092 49.4728 18.2638 49.3865 18.3369C49.3002 18.4112 49.1277 18.4471 48.8701 18.4471H46.9866C46.8512 18.4471 46.7469 18.4291 46.6726 18.392C46.5984 18.3429 46.5372 18.2686 46.4881 18.1703L46.2485 17.6168C45.8914 17.9978 45.4613 18.2758 44.9557 18.4471C44.4632 18.6316 43.8605 18.7239 43.1464 18.7239ZM44.5315 16.2125C45.012 16.2125 45.387 16.0951 45.6578 15.8614C45.9286 15.6278 46.064 15.2947 46.064 14.8645V11.9841C45.8303 11.8739 45.5344 11.8176 45.1773 11.8176C44.5243 11.8176 44.0019 12.0452 43.6077 12.5005C43.2267 12.9558 43.035 13.5957 43.035 14.4212C43.035 15.6158 43.5334 16.2125 44.5303 16.2125H44.5315Z" fill="white"/>
<path d="M52.0858 18.4463C51.7288 18.4463 51.476 18.3721 51.3286 18.2247C51.1812 18.0773 51.1069 17.8437 51.1069 17.5225V10.1561C51.1069 9.93449 51.1441 9.78711 51.2172 9.71282C51.3034 9.62655 51.476 9.58342 51.7348 9.58342H53.6363C53.7837 9.58342 53.8951 9.60858 53.9682 9.65771C54.0545 9.69485 54.1036 9.76794 54.1156 9.87937L54.2078 10.4329C54.5529 10.0879 55.0022 9.81706 55.5558 9.62056C56.1225 9.41088 56.7492 9.30664 57.4393 9.30664C58.4362 9.30664 59.2426 9.58941 59.8584 10.1561C60.4743 10.7097 60.781 11.5353 60.781 12.6304V17.5237C60.781 17.8437 60.7067 18.0773 60.5594 18.2259C60.424 18.3733 60.1783 18.4475 59.8213 18.4475H58.03C57.673 18.4475 57.4141 18.3733 57.2548 18.2259C57.1074 18.0785 57.0331 17.8449 57.0331 17.5237V12.8712C57.0331 12.5022 56.9528 12.2374 56.7935 12.0768C56.6329 11.9163 56.3813 11.8372 56.0362 11.8372C55.6672 11.8372 55.3712 11.9354 55.1496 12.1331C54.9399 12.3296 54.8357 12.6004 54.8357 12.9455V17.5249C54.8357 17.8449 54.7614 18.0785 54.614 18.2271C54.4786 18.3745 54.233 18.4487 53.8759 18.4487H52.0846L52.0858 18.4463Z" fill="white"/>
<path d="M67.3091 18.7231C65.5861 18.7231 64.2561 18.3229 63.3215 17.5225C62.3857 16.7222 61.9185 15.5587 61.9185 14.0335C61.9185 13.0977 62.1341 12.2733 62.5643 11.5592C62.9956 10.8451 63.6163 10.2915 64.4286 9.89734C65.253 9.50314 66.2259 9.30664 67.3462 9.30664C68.1957 9.30664 68.9098 9.38692 69.4885 9.54628C70.0792 9.70683 70.6028 9.95246 71.0582 10.2844C71.1936 10.3706 71.2618 10.4809 71.2618 10.6162C71.2618 10.7145 71.2127 10.8439 71.1145 11.0045L70.3572 12.3153C70.271 12.4878 70.1667 12.5741 70.0433 12.5741C69.969 12.5741 69.8528 12.5249 69.6922 12.4267C69.3603 12.217 69.0464 12.0636 68.7505 11.9654C68.4677 11.8671 68.1106 11.818 67.6793 11.818C67.0634 11.818 66.565 12.0145 66.184 12.4087C65.8149 12.8029 65.6304 13.3445 65.6304 14.0335C65.6304 14.7224 65.8209 15.2772 66.2031 15.6582C66.5842 16.0272 67.1078 16.2117 67.7728 16.2117C68.167 16.2117 68.524 16.1566 68.8439 16.0452C69.1638 15.935 69.4897 15.7804 69.8228 15.5839C69.9954 15.4856 70.1176 15.4365 70.1919 15.4365C70.3021 15.4365 70.4016 15.5228 70.4878 15.6953L71.3182 17.1176C71.3793 17.241 71.4104 17.3392 71.4104 17.4123C71.4104 17.5237 71.3361 17.628 71.1888 17.7262C70.6711 18.0581 70.1056 18.305 69.4897 18.4643C68.8871 18.6369 68.1598 18.7231 67.3115 18.7231H67.3091Z" fill="white"/>
<path d="M76.0878 18.7239C74.9304 18.7239 74.0018 18.3548 73.2997 17.6168C72.6107 16.8655 72.2656 15.8135 72.2656 14.4596C72.2656 13.4255 72.4993 12.5209 72.9678 11.7457C73.4482 10.9705 74.1192 10.3738 74.9807 9.95441C75.8542 9.52307 76.8582 9.30859 77.9905 9.30859C78.9263 9.30859 79.7506 9.41283 80.4648 9.62252C81.1909 9.81902 81.8558 10.109 82.4585 10.49V17.8756C82.4585 18.1092 82.4154 18.2638 82.3291 18.3369C82.2429 18.4112 82.0703 18.4471 81.8115 18.4471H79.928C79.7926 18.4471 79.6883 18.4291 79.6141 18.392C79.5398 18.3429 79.4787 18.2686 79.4295 18.1703L79.1899 17.6168C78.8328 17.9978 78.4015 18.2758 77.8971 18.4471C77.4046 18.6316 76.8019 18.7239 76.0878 18.7239ZM77.4729 16.2125C77.9534 16.2125 78.3284 16.0951 78.5992 15.8614C78.87 15.6278 79.0054 15.2947 79.0054 14.8645V11.9841C78.7717 11.8739 78.4758 11.8176 78.1187 11.8176C77.4669 11.8176 76.9433 12.0452 76.5491 12.5005C76.1681 12.9558 75.9764 13.5957 75.9764 14.4212C75.9764 15.6158 76.4748 16.2125 77.4717 16.2125H77.4729Z" fill="white"/>
<path d="M94.0562 17.7442C94.1425 17.8425 94.1856 17.9539 94.1856 18.0761C94.1856 18.1863 94.1485 18.2786 94.0754 18.3529C94.0011 18.414 93.9029 18.4451 93.7795 18.4451H90.9182C90.7457 18.4451 90.6163 18.4332 90.53 18.408C90.4557 18.3708 90.3766 18.3038 90.2904 18.2055L87.779 14.7895V17.5225C87.779 17.8425 87.7047 18.0761 87.5573 18.2247C87.4099 18.372 87.1571 18.4463 86.8001 18.4463H85.0088C84.6517 18.4463 84.4001 18.372 84.2515 18.2247C84.1161 18.0773 84.0479 17.8436 84.0479 17.5225V6.83239C84.0479 6.51248 84.1221 6.27883 84.2695 6.13026C84.4169 5.9697 84.6637 5.89062 85.0076 5.89062H86.7989C87.1559 5.89062 87.4087 5.9709 87.5561 6.13026C87.7035 6.27764 87.7778 6.51128 87.7778 6.83239V13.0174L90.2149 9.84222C90.2892 9.74397 90.3682 9.67567 90.4545 9.63853C90.5408 9.60138 90.6702 9.58341 90.8427 9.58341H93.7052C93.8286 9.58341 93.9208 9.62055 93.9819 9.69364C94.0562 9.75475 94.0922 9.84102 94.0922 9.95245C94.0922 10.0759 94.049 10.1861 93.9628 10.2843L90.8056 13.9028L94.055 17.743L94.0562 17.7442Z" fill="white"/>
<path d="M100.052 18.7227C99.0178 18.7227 98.0952 18.5501 97.2828 18.2063C96.4825 17.8612 95.8486 17.3448 95.3813 16.6558C94.914 15.9669 94.6792 15.1234 94.6792 14.1265C94.6792 12.5628 95.1225 11.3695 96.0092 10.5451C96.8958 9.72077 98.1695 9.30859 99.8314 9.30859C101.493 9.30859 102.687 9.71478 103.524 10.5271C104.374 11.3275 104.798 12.4406 104.798 13.8689C104.798 14.4847 104.527 14.7927 103.985 14.7927H98.1875C98.1875 15.3223 98.384 15.7284 98.7782 16.0112C99.1844 16.294 99.793 16.4354 100.605 16.4354C101.11 16.4354 101.529 16.3922 101.861 16.306C102.206 16.2077 102.55 16.0663 102.895 15.8818C103.042 15.8207 103.141 15.7895 103.19 15.7895C103.301 15.7895 103.394 15.8638 103.467 16.0112L104.094 17.1926C104.156 17.316 104.187 17.4083 104.187 17.4694C104.187 17.5796 104.112 17.6851 103.965 17.7833C103.461 18.1152 102.888 18.356 102.248 18.5034C101.608 18.6508 100.875 18.7251 100.051 18.7251L100.052 18.7227ZM101.474 12.9618C101.474 12.4946 101.339 12.1303 101.068 11.8727C100.797 11.6139 100.391 11.4845 99.8493 11.4845C99.3078 11.4845 98.8956 11.6199 98.6128 11.8907C98.3301 12.1495 98.1887 12.5065 98.1887 12.9618H101.475H101.474Z" fill="white"/>
<path d="M111.125 18.7225C110.091 18.7225 109.112 18.6183 108.189 18.4086C107.265 18.187 106.521 17.879 105.955 17.4848C105.745 17.3494 105.641 17.2081 105.641 17.0607C105.641 16.9624 105.678 16.857 105.751 16.7468L106.655 15.3065C106.754 15.1592 106.852 15.0849 106.951 15.0849C107.013 15.0849 107.118 15.128 107.265 15.2143C107.721 15.4731 108.237 15.6816 108.816 15.8421C109.395 16.0027 109.966 16.0818 110.533 16.0818C111.1 16.0818 111.536 15.9955 111.806 15.823C112.089 15.6504 112.231 15.3736 112.231 14.9926C112.231 14.6116 112.077 14.3336 111.769 14.1251C111.473 13.9155 110.914 13.6507 110.089 13.3307C108.846 12.8635 107.874 12.3399 107.172 11.7611C106.483 11.1704 106.138 10.37 106.138 9.36118C106.138 8.14264 106.575 7.21285 107.449 6.57302C108.322 5.93319 109.486 5.61328 110.938 5.61328C111.947 5.61328 112.809 5.70554 113.522 5.89006C114.248 6.0626 114.864 6.33339 115.369 6.70243C115.578 6.86298 115.683 7.01036 115.683 7.14575C115.683 7.23202 115.645 7.33027 115.571 7.4417L114.667 8.88191C114.556 9.02929 114.457 9.10357 114.371 9.10357C114.309 9.10357 114.204 9.06044 114.057 8.97417C113.343 8.50688 112.493 8.27204 111.508 8.27204C110.979 8.27204 110.572 8.35831 110.29 8.53085C110.007 8.70338 109.865 8.98615 109.865 9.38035C109.865 9.65114 109.94 9.8728 110.087 10.0453C110.234 10.2179 110.432 10.3712 110.678 10.5066C110.937 10.6301 111.331 10.7894 111.859 10.9871L112.21 11.1165C113.121 11.4736 113.835 11.8186 114.353 12.1505C114.882 12.4705 115.282 12.8706 115.553 13.3511C115.824 13.8184 115.959 14.4091 115.959 15.1232C115.959 16.2184 115.547 17.093 114.723 17.7448C113.91 18.3966 112.71 18.7237 111.122 18.7237L111.125 18.7225Z" fill="white"/>
<path d="M119.885 18.4469C119.7 18.4469 119.559 18.4158 119.461 18.3546C119.362 18.2935 119.288 18.1701 119.239 17.9856L116.857 10.0093C116.832 9.93505 116.82 9.87993 116.82 9.84279C116.82 9.67025 116.943 9.58398 117.189 9.58398H119.626C119.787 9.58398 119.903 9.61514 119.977 9.67624C120.051 9.72537 120.1 9.81164 120.124 9.93505L121.121 14.1263L122.377 10.7474C122.439 10.6 122.5 10.5018 122.561 10.4515C122.636 10.3904 122.759 10.3592 122.932 10.3592H124.094C124.266 10.3592 124.384 10.3904 124.445 10.4515C124.519 10.5006 124.586 10.5988 124.649 10.7474L125.885 14.1263L126.901 9.93505C126.937 9.81164 126.986 9.72537 127.049 9.67624C127.11 9.61514 127.221 9.58398 127.381 9.58398H129.837C130.082 9.58398 130.206 9.67025 130.206 9.84279C130.206 9.87993 130.194 9.93505 130.169 10.0093L127.769 17.9856C127.72 18.1701 127.645 18.2935 127.547 18.3546C127.461 18.4158 127.325 18.4469 127.141 18.4469H125.332C125.159 18.4469 125.03 18.4158 124.943 18.3546C124.857 18.2804 124.784 18.1581 124.722 17.9856L123.503 14.6439L122.285 17.9856C122.236 18.1581 122.161 18.2816 122.063 18.3546C121.977 18.4158 121.849 18.4469 121.676 18.4469H119.885Z" fill="white"/>
<path d="M134.886 18.7239C133.729 18.7239 132.8 18.3548 132.098 17.6168C131.409 16.8655 131.064 15.8135 131.064 14.4596C131.064 13.4255 131.298 12.5209 131.766 11.7457C132.245 10.9705 132.916 10.3738 133.778 9.95441C134.653 9.52307 135.655 9.30859 136.788 9.30859C137.723 9.30859 138.548 9.41283 139.262 9.62252C139.988 9.81902 140.653 10.109 141.256 10.49V17.8756C141.256 18.1092 141.213 18.2638 141.126 18.3369C141.04 18.4112 140.869 18.4471 140.61 18.4471H138.726C138.591 18.4471 138.487 18.4291 138.412 18.392C138.338 18.3429 138.277 18.2686 138.228 18.1703L137.988 17.6168C137.631 17.9978 137.2 18.2758 136.695 18.4471C136.203 18.6316 135.6 18.7239 134.886 18.7239ZM136.271 16.2125C136.751 16.2125 137.127 16.0951 137.398 15.8614C137.668 15.6278 137.804 15.2947 137.804 14.8645V11.9841C137.569 11.8739 137.274 11.8176 136.917 11.8176C136.264 11.8176 135.742 12.0452 135.347 12.5005C134.966 12.9558 134.775 13.5957 134.775 14.4212C134.775 15.6158 135.274 16.2125 136.271 16.2125Z" fill="white"/>
<path d="M143.806 22.1736C143.449 22.1736 143.198 22.0993 143.049 21.9519C142.914 21.8045 142.847 21.5709 142.847 21.2498V10.6699C143.4 10.2757 144.096 9.94975 144.933 9.69094C145.77 9.43214 146.644 9.30273 147.554 9.30273C151.272 9.30273 153.131 10.8783 153.131 14.0295C153.131 15.4578 152.736 16.596 151.949 17.4456C151.161 18.2951 150.048 18.7192 148.608 18.7192C148.201 18.7192 147.807 18.6701 147.425 18.5718C147.056 18.4736 146.748 18.3382 146.502 18.1657V21.2486C146.502 21.5685 146.428 21.8021 146.281 21.9507C146.133 22.0981 145.88 22.1724 145.523 22.1724H143.806V22.1736ZM147.813 16.2282C148.343 16.2282 148.737 16.0317 148.995 15.6375C149.265 15.2313 149.401 14.6897 149.401 14.0128C149.401 13.2124 149.241 12.6528 148.921 12.3329C148.614 12.001 148.133 11.8345 147.481 11.8345C147.062 11.8345 146.73 11.8896 146.484 12.001V14.9366C146.484 15.3547 146.601 15.6746 146.834 15.8963C147.069 16.118 147.395 16.2282 147.813 16.2282Z" fill="white"/>
<path fill-rule="evenodd" clip-rule="evenodd" d="M12.6863 21.8567C9.76992 21.8547 7.42005 21.1543 5.77854 19.8975C4.11704 18.6246 3.23584 16.8203 3.23584 14.7771C3.23584 12.734 4.11504 11.3892 5.11014 10.43C5.88944 9.67773 6.75065 9.19716 7.34911 8.91941C7.21324 8.50379 7.04439 7.95928 6.89353 7.39679C6.69071 6.64447 6.49289 5.76128 6.49289 5.11486C6.49289 4.34955 6.65974 3.58025 7.11033 2.98279C7.5859 2.35137 8.30125 2.01367 9.16247 2.01367C9.83586 2.01367 10.4073 2.26345 10.8539 2.69406C11.2815 3.10568 11.5663 3.65219 11.7631 4.22267C12.1088 5.22376 12.2427 6.48262 12.2806 7.73848H13.1059C13.1439 6.48262 13.2777 5.22476 13.6234 4.22267C13.8202 3.65319 14.104 3.10568 14.5326 2.69406C14.9802 2.26345 15.5517 2.01367 16.2241 2.01367C17.0853 2.01367 17.8016 2.35137 18.2772 2.98279C18.7268 3.58025 18.8946 4.34955 18.8946 5.11486C18.8946 5.76128 18.6958 6.64447 18.494 7.39679C18.3432 7.95928 18.1733 8.50379 18.0384 8.91941C18.6379 9.19616 19.4981 9.67773 20.2774 10.43C21.2725 11.3892 22.1517 12.8089 22.1517 14.7771C22.1517 16.7453 21.2705 18.6256 19.609 19.8975C17.9675 21.1543 15.6176 21.8547 12.7013 21.8567H12.6863ZM10.4588 13.3846C10.4588 14.3557 10.0042 14.8613 9.44474 14.8613C8.88524 14.8613 8.43066 14.3557 8.43066 13.3846C8.43066 12.4135 8.88524 11.9079 9.44474 11.9079C10.0042 11.9079 10.4588 12.4135 10.4588 13.3846ZM16.0385 14.8613C16.598 14.8613 17.0526 14.3557 17.0526 13.3846C17.0526 12.4135 16.598 11.9079 16.0385 11.9079C15.479 11.9079 15.0244 12.4135 15.0244 13.3846C15.0244 14.3557 15.479 14.8613 16.0385 14.8613Z" fill="white"/>
</g>
<defs>
<clipPath id="clip0_3690_52653">
<rect width="153.131" height="23.797" fill="white" transform="translate(0 0.101562)"/>
</clipPath>
</defs>
</svg>
