<svg width="94" height="22" viewBox="0 0 94 22" fill="none" xmlns="http://www.w3.org/2000/svg">
<g clip-path="url(#clip0_3690_52632)">
<path fill-rule="evenodd" clip-rule="evenodd" d="M77.4938 6.269H80.1522V3.65039H77.4938V6.269ZM63.3639 10.6297C63.8721 9.30331 65.1723 8.35854 66.6981 8.35854C68.2239 8.35854 69.5241 9.30331 70.0324 10.6297H63.3648H63.3639ZM66.6981 5.92428C63.3657 5.92428 60.6633 8.58529 60.6633 11.8675C60.6633 15.1498 63.3657 17.8108 66.6981 17.8108C68.985 17.8108 70.9741 16.5582 71.9982 14.7129L69.7684 13.6474C69.1488 14.6816 68.0058 15.3765 66.6981 15.3765C65.046 15.3765 63.6569 14.2686 63.2534 12.7662H70.1419C70.1419 12.7662 70.1419 12.769 70.1419 12.7699H72.6646C72.7105 12.4759 72.7339 12.1745 72.7339 11.8675C72.7339 8.58529 70.0315 5.92428 66.6981 5.92428ZM73.4341 17.4937H76.0925V14.8751H73.4341V17.4937ZM77.4938 17.4937H80.1522V7.42023H77.4938V17.4937ZM87.5725 15.3765C85.6048 15.3765 84.0098 13.8059 84.0098 11.8675C84.0098 9.92916 85.6048 8.35854 87.5725 8.35854C89.5401 8.35854 91.1351 9.92916 91.1351 11.8675C91.1351 13.8059 89.5401 15.3765 87.5725 15.3765ZM87.5715 5.92428C84.2391 5.92428 81.5367 8.58529 81.5367 11.8675C81.5367 15.1498 84.2391 17.8108 87.5715 17.8108C90.9039 17.8108 93.6073 15.1507 93.6073 11.8675C93.6073 8.58437 90.9049 5.92428 87.5715 5.92428ZM31.9906 9.67661V12.3837H35.7077C35.514 13.157 35.1302 13.8502 34.5798 14.4041C33.7495 15.2392 32.599 15.7001 31.3391 15.7001C28.7247 15.7001 26.5979 13.605 26.5979 11.0306C26.5979 8.45625 28.7247 6.36117 31.3391 6.36117C32.7394 6.36117 34.0265 6.95108 34.9186 7.96958L37.0472 6.25702C35.6366 4.62834 33.5426 3.65408 31.3391 3.65408C27.2092 3.65408 23.8496 6.96398 23.8496 11.0315C23.8496 15.0991 27.2101 18.409 31.3391 18.409C33.3441 18.409 35.1929 17.6974 36.5446 16.337C37.6781 15.195 38.4298 13.6031 38.5749 12.0076C38.6451 11.2297 38.6517 10.4564 38.6105 9.67845H31.9915L31.9906 9.67661ZM45.5308 15.3765C43.5632 15.3765 41.9681 13.805 41.9681 11.8675C41.9681 9.93008 43.5632 8.35854 45.5308 8.35854C47.4984 8.35854 49.0944 9.92916 49.0944 11.8675C49.0944 13.8059 47.4994 15.3765 45.5308 15.3765ZM49.0944 7.08196C48.0956 6.36117 46.8638 5.93349 45.5308 5.93349C42.1984 5.93349 39.4969 8.5945 39.4969 11.8758C39.4969 15.1572 42.1984 17.8182 45.5308 17.8182C46.8638 17.8182 48.0956 17.3914 49.0944 16.6706V17.4928H51.5647V6.25886H49.0944V7.08104V7.08196ZM56.8675 3.65131H54.3973V6.269H52.9164V8.56501H54.3973V14.5737C54.3973 15.194 54.4768 15.7166 54.6332 16.1259C54.7876 16.5314 55.0244 16.8485 55.3053 17.0965C55.5898 17.3481 55.9249 17.5444 56.3209 17.655C56.7234 17.7666 57.168 17.8099 57.6379 17.8099C58.1078 17.8099 58.5581 17.7601 58.9278 17.6615C59.2714 17.5702 59.6009 17.4421 59.907 17.279V15.4291C59.4193 15.6365 58.9643 15.712 58.4448 15.736C57.8963 15.7618 57.5715 15.607 57.3019 15.3535C57.0192 15.088 56.8685 14.7415 56.8685 14.1608V8.56501H59.9079V6.269H56.8685V3.65131H56.8675Z" fill="white"/>
<path fill-rule="evenodd" clip-rule="evenodd" d="M10.7161 16.3529C7.4614 16.3529 4.82262 13.7545 4.82262 10.5488C4.82262 7.34303 7.4614 4.74377 10.7161 4.74377V-0.00585938C4.79735 -0.00585938 0 4.71888 0 10.5479C0 16.3768 4.79735 21.1016 10.7161 21.1016C16.6349 21.1016 21.4322 16.3768 21.4322 10.5479H16.6096C16.6096 13.7536 13.9708 16.3519 10.7161 16.3519" fill="white"/>
<path fill-rule="evenodd" clip-rule="evenodd" d="M10.7153 10.5502H16.6088V4.74609H10.7153V10.5502Z" fill="white"/>
</g>
<defs>
<clipPath id="clip0_3690_52632">
<rect width="93.6068" height="21.1074" fill="white"/>
</clipPath>
</defs>
</svg>
