<svg width="105" height="18" viewBox="0 0 105 18" fill="none" xmlns="http://www.w3.org/2000/svg">
<path d="M28.8277 12.7088L22.4884 1.71585C21.0984 -0.574069 17.7139 -0.60093 16.3708 1.80986L9.72268 13.2393C8.48034 15.3345 10.0181 17.9669 12.5028 17.9669H25.8326C28.3375 17.9669 30.2178 15.2673 28.8277 12.7088Z" fill="white"/>
<path d="M19.6884 13.5648L19.2989 12.8799C18.9363 12.2486 18.1305 10.8787 18.1305 10.8787L12.7649 1.5713C11.3816 -0.497011 8.09107 -0.671609 6.701 1.94065L0.462488 12.7321C-0.826849 15.0019 0.704241 17.9499 3.51124 17.9701H16.7672H22.4215H25.7859C22.3477 17.9969 21.2464 16.2174 19.6884 13.5648Z" fill="white"/>
<path d="M19.6882 13.5673L19.2987 12.8823C18.9361 12.2511 18.1302 10.8812 18.1302 10.8812L14.6316 4.81055L9.69582 13.2718C8.45349 15.367 9.99129 17.9994 12.476 17.9994H16.7402H22.3945H25.779C22.3206 17.9725 21.2462 16.2199 19.6882 13.5673Z" fill="white"/>
<path d="M60.8237 16.3085V1.70703H72.9587V2.63034C72.9587 3.36239 72.3719 3.94936 71.6394 3.94936H63.8508V7.87343H71.6394V10.1158H63.8508V14.0398H71.6394C72.3649 14.0398 72.9587 14.6268 72.9587 15.3588V16.2821L60.8237 16.3085Z" fill="white"/>
<path d="M90.3893 1.70703H87.5336C86.9994 1.70703 86.5248 1.93126 86.1883 2.35335L82.7388 6.6995L79.2898 2.38632C78.9534 1.96424 78.4788 1.74 77.9446 1.74H75.0889L80.8924 9.02758L75.0889 16.3151H77.9446C78.4788 16.3151 78.9534 16.0909 79.2898 15.6688L82.7388 11.3556L86.2149 15.7018C86.5508 16.0909 87.0259 16.3481 87.5601 16.3481H90.4159L84.6123 9.06052L90.3893 1.70703Z" fill="white"/>
<path d="M51.3207 14.769L55.2975 7.81775V16.2792H58.3247V1.68433H56.4451C55.8581 1.68433 55.2975 1.9943 55.014 2.5285L50.2523 11.2142L45.4907 2.5219C45.2071 1.9877 44.6465 1.67773 44.0595 1.67773H42.1865V16.2792H45.2137V7.81775L49.1905 14.769H51.3207Z" fill="white"/>
<path d="M98.2955 16.4818C94.0945 16.5345 90.6715 13.2304 90.6455 9.02935C90.6455 6.7277 91.3444 4.82171 92.6636 3.50929C93.9823 2.21665 95.8883 1.51758 98.1573 1.51758C100.822 1.51758 102.919 2.44089 104.435 4.23475L103.486 5.04596C102.899 5.54716 102.028 5.58015 101.382 5.10528C100.538 4.45898 99.476 4.14902 98.2695 4.14902C95.3016 4.14902 93.5337 5.94287 93.5337 8.97002C93.5337 12.0235 95.3541 13.9031 98.2695 13.9031C99.5025 13.9031 100.538 13.5668 101.382 12.9534C102.002 12.4786 102.866 12.505 103.486 13.0128L104.435 13.824C102.919 15.5848 100.901 16.4818 98.2955 16.4818Z" fill="white"/>
</svg>
