<svg width="87" height="24" viewBox="0 0 87 24" fill="none" xmlns="http://www.w3.org/2000/svg">
<g clip-path="url(#clip0_3690_52644)">
<path d="M86.2483 6.79286C86.3445 6.79286 86.4412 6.79286 86.5375 6.88868C86.6342 6.9845 86.6342 7.08027 86.6342 7.17608V9.28395C86.6342 9.37977 86.6342 9.47559 86.5375 9.5714C86.4412 9.66722 86.3445 9.66722 86.2483 9.66722H84.4163V18.0987C84.4163 18.1945 84.4163 18.2903 84.3201 18.3861C84.2239 18.4819 84.1271 18.482 84.0309 18.482H81.2346C81.1384 18.482 81.0422 18.4819 80.9454 18.3861C80.8492 18.2903 80.8492 18.1945 80.8492 18.0987V9.5714H79.0173C78.921 9.5714 78.8248 9.57141 78.7281 9.47559C78.6318 9.37977 78.6318 9.28395 78.6318 9.18813V7.08026C78.6318 6.9845 78.6318 6.88868 78.7281 6.79286C78.8248 6.79286 78.921 6.79286 79.0173 6.79286H80.8492V3.82268C80.8492 3.72686 80.8492 3.63104 80.9454 3.53522C81.0422 3.43945 81.1384 3.43945 81.2346 3.43945H84.0309C84.1271 3.43945 84.2239 3.43945 84.3201 3.53522C84.4163 3.63104 84.4163 3.72686 84.4163 3.82268V6.79286H86.2483Z" fill="white"/>
<path d="M78.246 12.4459C78.246 12.9249 78.1498 13.3082 78.0536 13.5956C77.9568 13.7872 77.7644 13.8831 77.3784 13.8831H70.4366C70.6296 14.5537 70.9188 15.0328 71.401 15.3202C71.8832 15.6076 72.5578 15.7993 73.3292 15.7993C73.7151 15.7993 74.1005 15.7993 74.3897 15.7035C74.7751 15.6076 75.1611 15.4161 75.5465 15.1286C75.6433 15.0328 75.7395 15.0328 75.8357 15.0328C75.9325 15.0328 76.0287 15.0328 76.1254 15.1286L77.3784 16.2784C77.4752 16.3741 77.4752 16.3741 77.4752 16.47C77.4752 16.5658 77.4752 16.6616 77.3784 16.7574C76.8 17.3323 76.2217 17.7156 75.4503 18.0988C74.7751 18.3862 74.0043 18.5778 73.1362 18.5778C71.9794 18.5778 70.9188 18.2904 69.955 17.8113C69.0869 17.2365 68.3155 16.5658 67.8339 15.6077C67.3517 14.7454 67.0625 13.6914 67.0625 12.6375C67.0625 11.5836 67.3517 10.5297 67.8339 9.66733C68.3155 8.80501 69.0869 8.03851 69.955 7.55947C70.8226 6.98461 71.7864 6.79297 72.9437 6.79297C74.0043 6.79297 74.9681 7.08037 75.7395 7.55947C76.6071 8.03851 77.1855 8.80501 77.6676 9.66733C78.0536 10.4338 78.246 11.3919 78.246 12.4459ZM72.847 9.66733C72.2686 9.66733 71.6902 9.85897 71.3048 10.1464C70.8226 10.4338 70.6296 10.9129 70.4366 11.5836H75.1611C75.0649 10.9129 74.7751 10.4338 74.3897 10.1464C73.9075 9.85897 73.4254 9.66733 72.847 9.66733Z" fill="white"/>
<path d="M65.5188 6.98472C65.615 6.98472 65.7118 6.98472 65.808 7.08049C65.9048 7.17631 65.9048 7.27213 65.9048 7.36795V18.3864C65.9048 19.5361 65.615 20.4942 64.9404 21.1649C64.362 21.9314 63.5906 22.4105 62.6263 22.6979C61.6625 22.8895 60.7949 23.0811 59.7343 23.0811C58.77 23.0811 57.8056 22.9853 56.938 22.6979C56.0705 22.4105 55.2991 22.0272 54.7207 21.644C54.6245 21.5481 54.6245 21.4523 54.6245 21.3565C54.6245 21.2607 54.6245 21.1649 54.6245 21.1649L55.4921 19.5361C55.5883 19.4403 55.685 19.3444 55.7813 19.3444C55.8775 19.3444 55.8775 19.3444 55.9742 19.3444C56.4559 19.6319 57.0348 19.9193 57.6132 20.0151C58.1916 20.111 58.77 20.2068 59.5414 20.2068C60.3127 20.2068 61.0841 20.0151 61.6625 19.7277C62.3371 19.4403 62.6263 18.8654 62.6263 18.0989V17.045C61.7587 18.0989 60.6019 18.5779 59.2522 18.5779C58.1916 18.5779 57.2272 18.2905 56.4559 17.8114C55.5883 17.2366 54.9137 16.5659 54.4315 15.6078C53.9493 14.7455 53.7563 13.6915 53.7563 12.6376C53.7563 11.5837 53.9493 10.6255 54.4315 9.66745C55.0099 8.70931 55.5883 8.03863 56.4559 7.46377C57.324 6.8889 58.1916 6.69727 59.2522 6.69727C60.5052 6.69727 61.5657 7.17631 62.5301 8.23027L62.6263 7.27213C62.6263 7.08049 62.8193 6.8889 63.0122 6.8889H65.5188V6.98472ZM59.7343 15.3204C60.4089 15.3204 61.0841 15.0329 61.5657 14.458C62.0479 13.8832 62.3371 13.3083 62.3371 12.5418C62.3371 11.7753 62.0479 11.2005 61.5657 10.6255C61.0841 10.0507 60.5052 9.76327 59.7343 9.76327C58.963 9.76327 58.3846 10.0507 57.9024 10.5298C57.4202 11.0088 57.131 11.6795 57.131 12.446C57.131 13.2125 57.324 13.8832 57.8056 14.3622C58.3846 15.0329 58.963 15.3204 59.7343 15.3204Z" fill="white"/>
<path d="M52.5998 6.79286C52.696 6.79286 52.7928 6.79286 52.889 6.88868C52.9858 6.9845 52.9858 7.08027 52.9858 7.17608V9.28395C52.9858 9.37977 52.9858 9.47559 52.889 9.5714C52.7928 9.66722 52.696 9.66722 52.5998 9.66722H50.7679V18.0987C50.7679 18.1945 50.7679 18.2903 50.6717 18.3861C50.5754 18.4819 50.4787 18.482 50.3825 18.482H47.5862C47.49 18.482 47.3937 18.4819 47.297 18.3861C47.297 18.2903 47.297 18.1945 47.297 18.0987V9.5714H45.3688C45.2726 9.5714 45.1758 9.57141 45.0796 9.47559C44.9834 9.37977 44.9834 9.28395 44.9834 9.18813V7.08026C44.9834 6.9845 44.9834 6.88868 45.0796 6.79286C45.1758 6.79286 45.2726 6.79286 45.3688 6.79286H47.297V3.82268C47.297 3.72686 47.297 3.63104 47.3937 3.53522C47.49 3.43945 47.5862 3.43945 47.6829 3.43945H50.4787C50.5754 3.43945 50.6717 3.43945 50.7679 3.53522C50.8646 3.63104 50.8646 3.72686 50.8646 3.82268V6.79286H52.5998Z" fill="white"/>
<path d="M41.9949 5.8344C41.5129 5.8344 41.0308 5.64277 40.6452 5.25954C40.3559 4.87626 40.1631 4.49304 40.1631 3.91818C40.1631 3.34332 40.3559 2.96004 40.7415 2.57682C41.0308 2.19354 41.5129 2.00195 41.9949 2.00195C42.477 2.00195 42.9591 2.19354 43.3448 2.57682C43.7303 2.96004 43.9232 3.43914 43.9232 3.91818C43.9232 4.39722 43.7303 4.87626 43.3448 5.25954C42.9591 5.64277 42.5734 5.8344 41.9949 5.8344ZM40.2595 7.07995C40.2595 6.98418 40.2595 6.88836 40.3559 6.79254C40.4523 6.79254 40.5487 6.79254 40.6452 6.79254H43.4411C43.5373 6.79254 43.634 6.79254 43.7303 6.88836C43.8265 6.98418 43.8265 7.07995 43.8265 7.17577V18.0984C43.8265 18.1942 43.8265 18.29 43.7303 18.3858C43.634 18.4816 43.5373 18.4816 43.4411 18.4816H40.6452C40.5487 18.4816 40.4523 18.4816 40.3559 18.3858C40.2595 18.29 40.2595 18.1942 40.2595 18.0984V7.07995Z" fill="white"/>
<path d="M35.8242 9.66691C36.692 9.85854 37.4633 10.3376 38.0418 11.1041C38.7166 11.8706 39.0059 12.7329 39.0059 13.691C39.0059 15.224 38.5238 16.4695 37.4633 17.236C36.4991 18.0025 34.9565 18.3858 32.9319 18.3858H27.2436C27.1472 18.3858 27.0507 18.3858 26.9543 18.29C26.8579 18.1942 26.8579 18.0984 26.8579 18.0025V2.38518C26.8579 2.28936 26.8579 2.19354 26.9543 2.09772C26.9543 2.09772 27.0507 2.00195 27.1472 2.00195H32.8355C33.896 2.00195 34.7637 2.19354 35.4386 2.57682C36.2099 2.96004 36.7884 3.43908 37.0776 4.10982C37.4633 4.7805 37.6561 5.45118 37.6561 6.31345C37.6561 7.07995 37.4633 7.84645 37.0776 8.42136C36.7884 8.99622 36.3063 9.47527 35.8242 9.66691ZM34.3781 6.79254C34.3781 5.8344 33.7996 5.25954 32.5463 5.25954H30.4252V8.42136H32.5463C33.1247 8.42136 33.6068 8.32554 33.896 8.03809C34.1852 7.75063 34.3781 7.27159 34.3781 6.79254ZM33.0283 15.224C33.7032 15.224 34.2817 15.0324 34.7637 14.745C35.1494 14.4575 35.4386 13.8826 35.4386 13.3078C35.4386 12.6371 35.2458 12.158 34.7637 11.8706C34.3781 11.5831 33.7996 11.3915 33.0283 11.3915H30.4252V15.224H33.0283Z" fill="white"/>
<path d="M6.90057 0.565034C7.18977 0.277576 7.57545 0.0859375 7.96109 0.0859375H10.7571C11.1427 0.0859375 11.3355 0.469215 11.0463 0.75662L5.55076 6.69699H8.63597L11.7212 9.95457H5.55076L11.7212 16.5656H7.96109C7.57545 16.5656 7.09339 16.374 6.80414 16.0866L0.53733 9.37971C0.0552642 8.80485 0.0552638 7.84671 0.633764 7.27185L6.90057 0.565034Z" fill="white"/>
<path d="M15.4813 22.6022C15.1921 22.8896 14.8064 23.0813 14.3243 23.0813H11.5283C11.1427 23.0813 10.9499 22.698 11.2391 22.4106L16.8311 16.4702H13.7459L10.6606 13.2126H16.8311L10.6606 6.60156H14.4207C14.8064 6.60156 15.2884 6.7932 15.5777 7.08061L21.8445 13.7875C22.4229 14.3623 22.4229 15.3205 21.8445 15.8953L15.4813 22.6022Z" fill="white"/>
</g>
<defs>
<clipPath id="clip0_3690_52644">
<rect width="86.7593" height="23.1396" fill="white"/>
</clipPath>
</defs>
</svg>
