<svg width="15" height="11" viewBox="0 0 15 11" fill="none" xmlns="http://www.w3.org/2000/svg">
<path fill-rule="evenodd" clip-rule="evenodd" d="M6.83833 0.001337L7.83997 0L8.92852 0.0140385L9.62398 0.0294141L10.3656 0.0525888L10.8654 0.0730896L11.3552 0.098047L11.8229 0.12813C12.4266 0.171805 12.9389 0.230188 13.2303 0.308179C13.8699 0.477979 14.3728 0.979801 14.5444 1.62179C14.6086 1.86089 14.6594 2.15347 14.6997 2.46722L14.7434 2.85183C14.7563 2.98197 14.7679 3.11366 14.7779 3.24446L14.8151 3.82116L14.8316 4.17948L14.8519 4.89366L14.8543 5.31459L14.843 5.88772L14.8243 6.38754L14.7922 6.95309C14.7788 7.14785 14.7628 7.34662 14.7434 7.54226L14.6997 7.92755C14.6594 8.24174 14.6086 8.53454 14.5444 8.77365C14.3728 9.41563 13.8699 9.91768 13.2303 10.0873C12.9389 10.1652 12.4266 10.2236 11.8229 10.2673L11.3552 10.2974L10.8654 10.3223L10.1158 10.3515L9.62398 10.366L8.31996 10.3908L7.24344 10.3968L6.2574 10.387L5.36183 10.3694L4.77199 10.3526L3.96845 10.3215L3.34697 10.2882L2.95456 10.2615L2.58844 10.2308C2.53006 10.2252 2.47301 10.2196 2.41753 10.2138L2.10489 10.1764C1.91058 10.1499 1.74657 10.1202 1.62223 10.087C0.983367 9.91723 0.479762 9.41541 0.309071 8.77342C0.219492 8.43873 0.155984 7.99863 0.110749 7.54204L0.0762093 7.14874L0.049692 6.75967L0.0300826 6.38732L0.0113645 5.8875L0 5.31437V5.07393L0.0113645 4.50236L0.0300826 4.00388L0.049692 3.63242L0.0762093 3.24424L0.110749 2.85161C0.155984 2.39591 0.219714 1.95648 0.309071 1.62179C0.479985 0.979801 0.983589 0.477756 1.62223 0.308179C1.74635 0.274977 1.91058 0.24534 2.10489 0.218823L2.41753 0.181387C2.47301 0.175593 2.53006 0.1698 2.58844 0.164452L2.95456 0.1337L3.34697 0.10696L3.96845 0.0737581L4.39362 0.0559314L5.36183 0.0258488L6.41628 0.00601652L6.83833 0.001337ZM7.61134 1.48407H7.25035L6.48403 1.49076L5.66489 1.5048L4.82436 1.5273L4.23741 1.54892L3.45527 1.58881L2.95389 1.62379L2.66621 1.64897L2.41975 1.67527C2.38232 1.67972 2.34667 1.68418 2.31279 1.68864L2.13386 1.71605C2.08216 1.72518 2.03871 1.73454 2.00395 1.7439C1.87894 1.7771 1.77844 1.8776 1.74435 2.00551C1.66702 2.2943 1.60819 2.72793 1.56585 3.22686L1.53377 3.66852L1.50992 4.13112C1.50658 4.20934 1.50368 4.288 1.50101 4.36666L1.48898 4.83951L1.48563 5.07393V5.30033L1.48853 5.52339L1.49945 5.97218L1.51728 6.41695L1.54201 6.84903L1.5741 7.25904C1.61577 7.7212 1.67215 8.1203 1.74479 8.39171C1.77844 8.51783 1.87894 8.61855 2.0064 8.6522L2.06456 8.66602L2.21876 8.69343L2.42042 8.72039L2.66643 8.74646L2.95344 8.77142L3.27811 8.79504L3.82874 8.82735L4.44576 8.85476L4.8199 8.8679L5.66333 8.89041L6.48291 8.90445L7.43062 8.91158L8.0276 8.90824L8.92228 8.89598C9.228 8.89019 9.53886 8.88284 9.84837 8.8737L10.5198 8.8503L11.1085 8.82289L11.6331 8.79125L12.0836 8.75604L12.4504 8.71816L12.6436 8.69187C12.6721 8.68741 12.6989 8.68295 12.7236 8.6785L12.8491 8.65153C12.9743 8.61833 13.0748 8.51783 13.1091 8.38926C13.192 8.07996 13.2539 7.60354 13.2967 7.05738L13.325 6.636C13.3293 6.56402 13.3331 6.49138 13.3366 6.41829L13.3544 5.97463L13.3654 5.5274L13.3689 5.19671L13.3654 4.86647L13.3544 4.41925L13.3366 3.97581L13.3117 3.54507C13.2691 2.91311 13.2023 2.35446 13.1089 2.00595C13.0748 1.87827 12.9741 1.77777 12.8459 1.74368C12.8125 1.73476 12.7708 1.72585 12.7214 1.71694L12.5507 1.69042L12.337 1.66457L12.083 1.63961L11.7915 1.61577L11.2908 1.58279L10.9186 1.56296L10.3105 1.53711C10.0039 1.52597 9.69261 1.51661 9.38377 1.50926L8.47015 1.4921L7.61134 1.48407Z" fill="#EBEDF7"/>
<path fill-rule="evenodd" clip-rule="evenodd" d="M5.69213 7.23699V2.84582L9.57546 5.03761L5.69213 7.23699Z" fill="#EBEDF7"/>
</svg>
