<svg version="1.2" xmlns="http://www.w3.org/2000/svg" viewBox="0 0 30 30" width="30" height="30">
	<title>slide-item-svg</title>
	<defs>
		<linearGradient id="g1" x2="1" gradientUnits="userSpaceOnUse" gradientTransform="matrix(150.5,239.5,-224.847,141.292,-300,-23.5)">
			<stop offset="0" stop-color="#ffffff" stop-opacity="1"/>
			<stop offset="1" stop-color="#ffffff" stop-opacity="0"/>
		</linearGradient>
		<linearGradient id="g2" x2="1" gradientUnits="userSpaceOnUse" gradientTransform="matrix(-231,-297.5,283.813,-220.373,37,401.5)">
			<stop offset="0" stop-color="#ffffff" stop-opacity="1"/>
			<stop offset="1" stop-color="#ffffff" stop-opacity="0"/>
		</linearGradient>
	</defs>
	<style>
		.s0 { fill: none;stroke: url(#g1) } 
		.s1 { fill: none;stroke: url(#g2) } 
	</style>
	<path id="Layer" fill-rule="evenodd" class="s0" d="m-299.5 10c0-5.2 4.3-9.5 9.5-9.5h122 98.8 38.7 30.5c2.4 0 4.8 1 6.6 2.7l10.5 10.2h0.1l9 9c1.8 1.8 2.8 4.2 2.8 6.7v93.4 7.2 112.8 142c0 5.2-4.3 9.5-9.5 9.5h-309.5c-5.2 0-9.5-4.3-9.5-9.5z"/>
	<path id="Layer" fill-rule="evenodd" class="s1" d="m-299.5 10c0-5.2 4.3-9.5 9.5-9.5h122 98.8 38.7 30.5c2.4 0 4.8 1 6.6 2.7l10.5 10.2h0.1l9 9c1.8 1.8 2.8 4.2 2.8 6.7v93.4 7.2 112.8 142c0 5.2-4.3 9.5-9.5 9.5h-309.5c-5.2 0-9.5-4.3-9.5-9.5z"/>
</svg>