<svg width="56" height="56" viewBox="0 0 56 56" fill="none" xmlns="http://www.w3.org/2000/svg">
<path d="M44.0725 2.13319C43.0393 1.08812 41.6309 0.499999 40.1613 0.499999L6 0.499996C2.96244 0.499995 0.499996 2.96243 0.499996 6L0.499992 50C0.499992 53.0376 2.96243 55.5 5.99999 55.5L50 55.5C53.0376 55.5 55.5 53.0376 55.5 50L55.5 15.9518C55.5 14.504 54.9291 13.1145 53.9112 12.085L44.0725 2.13319Z" fill="#E7E8F4" stroke="#212121"/>
<path fill-rule="evenodd" clip-rule="evenodd" d="M17 28.0001C17 27.4338 17.4633 26.9747 18.0347 26.9748L35.4673 26.9747L29.1857 20.7502C28.7816 20.3499 28.7816 19.7007 29.1857 19.3003C29.5898 18.8999 30.2449 18.8999 30.649 19.3003L38.6969 27.275C38.8909 27.4673 39 27.7281 39 28.0001C38.9999 28.2719 38.8909 28.5327 38.6969 28.725L30.649 36.6997C30.2449 37.1001 29.5897 37.1001 29.1857 36.6997C28.7817 36.2994 28.7816 35.6502 29.1857 35.2498L35.4673 29.0253L18.0347 29.0253C17.4633 29.0252 17.0001 28.5662 17 28.0001Z" fill="black"/>
</svg>
