<svg width="56" height="56" viewBox="0 0 56 56" fill="none" xmlns="http://www.w3.org/2000/svg">
<path d="M11.9275 53.8668C12.9607 54.9119 14.3691 55.5 15.8387 55.5H50C53.0376 55.5 55.5 53.0376 55.5 50V6C55.5 2.96243 53.0376 0.499996 50 0.499996H6C2.96243 0.499996 0.5 2.96243 0.5 6V40.0482C0.5 41.496 1.07087 42.8855 2.08876 43.915L11.9275 53.8668Z" fill="#E7E8F4" stroke="#212121"/>
<path fill-rule="evenodd" clip-rule="evenodd" d="M39 27.9999C39 28.5662 38.5367 29.0253 37.9653 29.0252L20.5327 29.0253L26.8143 35.2498C27.2184 35.6501 27.2184 36.2993 26.8143 36.6997C26.4102 37.1001 25.7551 37.1001 25.351 36.6997L17.3031 28.725C17.1091 28.5327 17 28.2719 17 27.9999C17.0001 27.7281 17.1091 27.4673 17.3031 27.275L25.351 19.3003C25.7551 18.8999 26.4103 18.8999 26.8143 19.3003C27.2183 19.7006 27.2184 20.3498 26.8143 20.7502L20.5327 26.9747L37.9653 26.9747C38.5367 26.9747 38.9999 27.4338 39 27.9999Z" fill="black"/>
</svg>
