<svg width="8" height="12" viewBox="0 0 8 12" fill="none" xmlns="http://www.w3.org/2000/svg">
<g clip-path="url(#clip0_3879_72243)">
<path d="M6.52402 5.12291C7.11604 4.82166 7.48657 4.29097 7.40013 3.4066C7.28351 2.19842 6.2393 1.79325 4.92116 1.6779V0.00195312H3.89952V1.63373C3.63036 1.63373 3.35644 1.63913 3.08379 1.64454V0.00195312H2.06309V1.67758C1.84192 1.68203 1.62456 1.68648 1.41261 1.68648V1.6814L0.00390625 1.68076V2.7701C0.00390625 2.7701 0.758305 2.7558 0.745912 2.76978C1.15934 2.76978 1.29439 3.01002 1.33316 3.21721V5.1264V7.80843C1.31505 7.9384 1.23846 8.14591 0.949289 8.14654C0.962317 8.15798 0.206329 8.14654 0.206329 8.14654L0.00422403 9.36458H1.33316C1.58071 9.36458 1.82412 9.36871 2.06277 9.37061L2.06373 11.0656H3.08379V9.38873C3.36438 9.39445 3.63545 9.39699 3.89983 9.39667V11.0659H4.92085L4.92148 9.37379C6.63811 9.27528 7.83993 8.84311 7.98929 7.2323C8.10972 5.93546 7.49896 5.35647 6.52402 5.12291ZM3.10826 2.84382C3.68438 2.84382 5.4957 2.66046 5.49602 3.86261C5.49602 5.01518 3.6847 4.88044 3.10826 4.88044V2.8435V2.84382ZM3.10794 8.1548V5.90908C3.80037 5.90908 5.9711 5.71016 5.97141 7.03147C5.97141 8.29876 3.80037 8.15449 3.10794 8.1548Z" fill="#EBEDF7"/>
</g>
<defs>
<clipPath id="clip0_3879_72243">
<rect width="8" height="11.064" fill="white" transform="translate(0.00390625 0.00195312)"/>
</clipPath>
</defs>
</svg>
