<svg width="210" height="72" viewBox="0 0 210 72" fill="none" xmlns="http://www.w3.org/2000/svg">
<g clip-path="url(#clip0_3988_31868)">
<path d="M205.717 18.992H209.697C209.898 18.992 209.999 19.0848 209.999 19.2703V19.8346C209.999 20.0201 209.898 20.1128 209.697 20.1128H205.717V24.1478C205.722 24.1893 205.717 24.2315 205.704 24.271C205.69 24.3105 205.667 24.3463 205.637 24.3755C205.607 24.4047 205.571 24.4266 205.531 24.4394C205.491 24.4522 205.449 24.4555 205.407 24.4492H204.82C204.779 24.4559 204.737 24.4527 204.697 24.4399C204.658 24.4271 204.622 24.4051 204.592 24.3756C204.563 24.3462 204.541 24.3102 204.528 24.2706C204.515 24.2309 204.512 24.1889 204.519 24.1478V20.1128H200.538C200.329 20.1128 200.229 20.0201 200.229 19.8346V19.2394C200.229 19.0538 200.329 18.9611 200.538 18.9611H204.519V14.9648C204.512 14.9234 204.516 14.8811 204.528 14.8413C204.541 14.8014 204.563 14.7651 204.592 14.7351C204.622 14.7052 204.657 14.6824 204.697 14.6686C204.736 14.6548 204.778 14.6503 204.82 14.6556H205.407C205.45 14.649 205.493 14.6524 205.533 14.6656C205.574 14.6789 205.611 14.7014 205.641 14.7316C205.671 14.7617 205.693 14.7986 205.707 14.8391C205.72 14.8796 205.723 14.9227 205.717 14.9648V18.992Z" fill="white"/>
<path d="M205.717 18.992H209.697C209.898 18.992 209.999 19.0848 209.999 19.2703V19.8346C209.999 20.0201 209.898 20.1128 209.697 20.1128H205.717V24.1478C205.722 24.1893 205.717 24.2315 205.704 24.271C205.69 24.3105 205.667 24.3463 205.637 24.3755C205.607 24.4047 205.571 24.4266 205.531 24.4394C205.491 24.4522 205.449 24.4555 205.407 24.4492H204.82C204.779 24.4559 204.737 24.4527 204.697 24.4399C204.658 24.4271 204.622 24.4051 204.592 24.3756C204.563 24.3462 204.541 24.3102 204.528 24.2706C204.515 24.2309 204.512 24.1889 204.519 24.1478V20.1128H200.538C200.329 20.1128 200.229 20.0201 200.229 19.8346V19.2394C200.229 19.0538 200.329 18.9611 200.538 18.9611H204.519V14.9648C204.512 14.9234 204.516 14.8811 204.528 14.8413C204.541 14.8014 204.563 14.7651 204.592 14.7351C204.622 14.7052 204.657 14.6824 204.697 14.6686C204.736 14.6548 204.778 14.6503 204.82 14.6556H205.407C205.45 14.649 205.493 14.6524 205.533 14.6656C205.574 14.6789 205.611 14.7014 205.641 14.7316C205.671 14.7617 205.693 14.7986 205.707 14.8391C205.72 14.8796 205.723 14.9227 205.717 14.9648V18.992Z" stroke="white" stroke-width="0.772976"/>
<path d="M11.8861 28.3784H15.9752C16.0547 28.3683 16.1355 28.3766 16.2114 28.4025C16.2872 28.4285 16.3561 28.4715 16.4128 28.5282C16.4695 28.5849 16.5125 28.6538 16.5385 28.7296C16.5644 28.8055 16.5727 28.8863 16.5626 28.9658V45.693C16.5771 45.774 16.572 45.8573 16.5478 45.936C16.5237 46.0146 16.4811 46.0864 16.4237 46.1453C16.3663 46.2043 16.2956 46.2487 16.2176 46.2749C16.1396 46.3011 16.0565 46.3083 15.9752 46.296H13.7258C13.6467 46.3074 13.566 46.3003 13.49 46.2753C13.4141 46.2504 13.345 46.2082 13.2881 46.152C13.2312 46.0958 13.1881 46.0273 13.1621 45.9517C13.1361 45.8761 13.128 45.7955 13.1383 45.7162V32.4983H13.0301L10.1933 41.8204C10.1622 41.9806 10.0751 42.1246 9.94771 42.2265C9.82028 42.3285 9.66074 42.3818 9.49762 42.377H7.17869C7.01556 42.3818 6.85603 42.3285 6.72859 42.2265C6.60115 42.1246 6.51411 41.9806 6.48301 41.8204L3.60753 32.4751H3.45294V45.693C3.47071 45.853 3.43246 46.0142 3.34472 46.1491C3.20994 46.2508 3.04053 46.2952 2.87321 46.2728H0.592926C0.513805 46.2842 0.433116 46.2771 0.357177 46.2522C0.281239 46.2272 0.212114 46.185 0.155214 46.1288C0.0983149 46.0727 0.0551865 46.0041 0.0292065 45.9285C0.00322651 45.8529 -0.00489983 45.7723 0.00546417 45.693V28.9658C-0.00622846 28.886 0.000903612 28.8045 0.0262914 28.7279C0.0516791 28.6513 0.09462 28.5817 0.151688 28.5246C0.208756 28.4675 0.278371 28.4246 0.35498 28.3992C0.431589 28.3738 0.513072 28.3667 0.592926 28.3784H4.73608C4.85577 28.3731 4.97357 28.4096 5.06941 28.4815C5.16525 28.5533 5.23321 28.6562 5.2617 28.7726L8.24539 38.5662H8.41545L11.3373 28.7726C11.3467 28.7103 11.3684 28.6505 11.4012 28.5968C11.4341 28.543 11.4773 28.4964 11.5285 28.4597C11.5797 28.4229 11.6377 28.3968 11.6991 28.3828C11.7605 28.3689 11.8241 28.3673 11.8861 28.3784Z" fill="white"/>
<path d="M22.0747 46.2934H19.4002C19.0678 46.2934 18.9596 46.1002 19.0678 45.7137L23.466 28.9865C23.51 28.8039 23.619 28.6435 23.7727 28.5354C23.9263 28.4272 24.1141 28.3788 24.3009 28.399H28.0034C28.1902 28.3788 28.3779 28.4272 28.5316 28.5354C28.6852 28.6435 28.7942 28.8039 28.8382 28.9865L33.2287 45.7137C33.3447 46.1002 33.2287 46.2934 32.8964 46.2934H30.2296C30.1552 46.3038 30.0795 46.2982 30.0075 46.2769C29.9355 46.2555 29.8689 46.219 29.8122 46.1698C29.7169 46.0351 29.6583 45.8779 29.6421 45.7137L28.8691 42.6218H23.4583L22.6853 45.7137C22.6744 45.8804 22.6123 46.0397 22.5076 46.1698C22.4485 46.2202 22.3793 46.2574 22.3046 46.2788C22.2299 46.3001 22.1515 46.3051 22.0747 46.2934ZM26.1096 31.7692L24.1076 39.8082H28.2198L26.2178 31.7692H26.1096Z" fill="white"/>
<path d="M42.9672 46.2943H40.0222C39.4074 46.3349 38.7907 46.2526 38.2081 46.0522C37.6254 45.8518 37.0886 45.5373 36.6288 45.1271C36.2082 44.678 35.8846 44.1468 35.6785 43.5669C35.4723 42.9871 35.388 42.3709 35.4307 41.757V32.9141C35.3881 32.3014 35.4726 31.6864 35.6787 31.1078C35.8849 30.5292 36.2084 29.9994 36.6288 29.5517C37.088 29.1401 37.6245 28.8242 38.2072 28.6225C38.7899 28.4207 39.4069 28.3372 40.0222 28.3767H42.9672C43.5796 28.3379 44.1935 28.4225 44.7725 28.6257C45.3515 28.8289 45.8837 29.1464 46.3374 29.5594C46.7535 30.0086 47.0742 30.5374 47.2801 31.114C47.486 31.6906 47.5729 32.303 47.5355 32.9141V33.7489C47.5355 34.1586 47.3423 34.3596 46.9481 34.3596H44.575C44.1886 34.3596 43.9953 34.1586 43.9953 33.7489V33.0842C44.0388 32.6309 43.909 32.1779 43.632 31.8165C43.4584 31.6742 43.2585 31.5675 43.0436 31.5025C42.8287 31.4375 42.6032 31.4155 42.3798 31.4377H40.5788C40.1327 31.3962 39.6883 31.5323 39.342 31.8165C39.1985 31.9924 39.0911 32.195 39.0261 32.4125C38.9611 32.6301 38.9398 32.8583 38.9632 33.0842V41.5869C38.9176 42.0429 39.0537 42.4984 39.342 42.8546C39.6894 43.1361 40.1338 43.2694 40.5788 43.2256H42.3875C42.8376 43.2727 43.288 43.1392 43.6397 42.8546C43.9154 42.4925 44.045 42.0401 44.003 41.5869V39.8168C44.008 39.775 44.0034 39.7326 43.9897 39.6928C43.9759 39.6531 43.9532 39.6169 43.9235 39.5872C43.8937 39.5574 43.8576 39.5348 43.8178 39.521C43.778 39.5072 43.7357 39.5026 43.6938 39.5076H42.0242C41.9451 39.519 41.8644 39.512 41.7885 39.487C41.7125 39.462 41.6434 39.4198 41.5865 39.3636C41.5296 39.3075 41.4865 39.2389 41.4605 39.1633C41.4345 39.0877 41.4264 39.0071 41.4368 38.9279V37.0186C41.4267 36.9391 41.435 36.8583 41.4609 36.7824C41.4869 36.7066 41.5299 36.6376 41.5865 36.5809C41.6432 36.5243 41.7122 36.4813 41.788 36.4553C41.8639 36.4294 41.9447 36.4211 42.0242 36.4312H46.894C46.9809 36.4197 47.0693 36.4285 47.1524 36.4567C47.2354 36.4849 47.3109 36.5318 47.3729 36.5938C47.4349 36.6558 47.4818 36.7313 47.51 36.8143C47.5382 36.8974 47.547 36.9858 47.5355 37.0727V41.7106C47.5743 42.3218 47.488 42.9346 47.282 43.5114C47.076 44.0881 46.7546 44.6169 46.3374 45.0653C45.8874 45.4866 45.3569 45.8126 44.7778 46.0238C44.1987 46.235 43.5828 46.327 42.9672 46.2943Z" fill="white"/>
<path d="M53.7656 46.2947H51.4466C51.3678 46.3064 51.2873 46.2995 51.2116 46.2745C51.1359 46.2495 51.0671 46.2072 51.0107 46.1508C50.9544 46.0944 50.912 46.0256 50.887 45.9499C50.8621 45.8743 50.8552 45.7938 50.8669 45.7149V28.9645C50.8555 28.8854 50.8625 28.8047 50.8875 28.7288C50.9125 28.6528 50.9547 28.5837 51.0109 28.5268C51.067 28.4699 51.1356 28.4268 51.2112 28.4008C51.2868 28.3748 51.3674 28.3667 51.4466 28.3771H53.5337C53.6872 28.3579 53.8429 28.3852 53.9807 28.4555C54.1185 28.5258 54.232 28.6358 54.3066 28.7713L59.9416 39.3379H60.0344V28.9645C60.023 28.8854 60.03 28.8047 60.055 28.7288C60.08 28.6528 60.1222 28.5837 60.1784 28.5268C60.2345 28.4699 60.3031 28.4268 60.3787 28.4008C60.4543 28.3748 60.5349 28.3667 60.6141 28.3771H62.9331C63.0129 28.3654 63.0944 28.3725 63.171 28.3979C63.2476 28.4233 63.3172 28.4662 63.3743 28.5233C63.4314 28.5804 63.4743 28.65 63.4997 28.7266C63.5251 28.8032 63.5322 28.8847 63.5205 28.9645V45.6917C63.5309 45.771 63.5228 45.8516 63.4968 45.9272C63.4708 46.0028 63.4277 46.0713 63.3708 46.1275C63.3139 46.1836 63.2447 46.2259 63.1688 46.2508C63.0929 46.2758 63.0122 46.2829 62.9331 46.2715H60.9156C60.7301 46.2766 60.5472 46.2264 60.3903 46.1273C60.2334 46.0282 60.1095 45.8846 60.0344 45.7149L54.469 35.3648H54.3607V45.6917C54.3755 45.7735 54.3704 45.8576 54.3459 45.9369C54.3213 46.0163 54.278 46.0886 54.2197 46.1477C54.1613 46.2068 54.0896 46.251 54.0106 46.2766C53.9315 46.3022 53.8475 46.3084 53.7656 46.2947Z" fill="white"/>
<path d="M76.306 28.3752H78.6249C79.0269 28.3752 79.2356 28.5607 79.2356 28.9318V41.7323C79.2755 42.3449 79.1883 42.9592 78.9795 43.5365C78.7706 44.1138 78.4446 44.6417 78.022 45.087C77.57 45.4993 77.0409 45.8181 76.4651 46.0251C75.8894 46.232 75.2784 46.323 74.6673 46.2928H71.6295C71.0147 46.3334 70.398 46.2511 69.8153 46.0507C69.2327 45.8503 68.6959 45.5358 68.2361 45.1256C67.8042 44.6776 67.4704 44.1444 67.2561 43.5602C67.0418 42.9759 66.9517 42.3533 66.9916 41.7323V28.9627C66.9802 28.8836 66.9873 28.8029 67.0123 28.7269C67.0372 28.651 67.0794 28.5819 67.1356 28.525C67.1917 28.4681 67.2603 28.4249 67.3359 28.399C67.4115 28.373 67.4921 28.3649 67.5714 28.3752H69.9367C70.0165 28.3635 70.098 28.3707 70.1746 28.396C70.2512 28.4214 70.3208 28.4644 70.3779 28.5214C70.435 28.5785 70.4779 28.6481 70.5033 28.7247C70.5287 28.8013 70.5358 28.8828 70.5241 28.9627V41.5699C70.4804 42.0245 70.6133 42.4784 70.8952 42.8376C71.2465 43.1173 71.6925 43.2503 72.1397 43.2086H74.0566C74.2823 43.2575 74.5167 43.2491 74.7383 43.1842C74.9599 43.1193 75.1618 42.9999 75.3255 42.837C75.4892 42.6741 75.6095 42.4728 75.6754 42.2515C75.7414 42.0302 75.7509 41.7959 75.7031 41.5699V28.9627C75.6907 28.8813 75.698 28.7982 75.7242 28.7202C75.7504 28.6422 75.7948 28.5716 75.8537 28.5141C75.9126 28.4567 75.9844 28.4142 76.0631 28.39C76.1417 28.3659 76.225 28.3608 76.306 28.3752Z" fill="white"/>
<path d="M82.289 41.7094V41.1529C82.2773 41.073 82.2845 40.9915 82.3098 40.9149C82.3352 40.8383 82.3782 40.7687 82.4352 40.7116C82.4923 40.6546 82.5619 40.6116 82.6385 40.5862C82.7151 40.5608 82.7966 40.5537 82.8765 40.5654H85.2418C85.321 40.555 85.4016 40.5632 85.4772 40.5891C85.5528 40.6151 85.6214 40.6582 85.6775 40.7151C85.7337 40.772 85.7759 40.8412 85.8009 40.9171C85.8259 40.993 85.8329 41.0737 85.8215 41.1529V41.377C85.7922 41.6336 85.814 41.8934 85.8856 42.1415C85.9573 42.3896 86.0774 42.621 86.2389 42.8225C86.6924 43.1299 87.2401 43.2668 87.7849 43.209H89.0989C89.6487 43.2726 90.2019 43.1232 90.6449 42.7916C90.9828 42.3512 91.1378 41.7974 91.0778 41.2456V40.8823C91.0858 40.6367 91.0293 40.3934 90.9141 40.1764C90.7988 39.9594 90.6287 39.7764 90.4207 39.6456C89.9285 39.3413 89.3676 39.1659 88.7897 39.1354C88.0857 39.0688 87.3862 38.9604 86.695 38.8107C85.9778 38.6684 85.2743 38.4641 84.5925 38.2001C83.896 37.909 83.3203 37.3879 82.9615 36.7237C82.4954 35.8587 82.2711 34.8841 82.3122 33.9023V32.9438C82.273 32.3283 82.3612 31.7113 82.5714 31.1314C82.7815 30.5515 83.1091 30.0212 83.5335 29.5737C83.9908 29.158 84.5265 28.8378 85.1092 28.6321C85.692 28.4263 86.31 28.3391 86.9269 28.3756H89.7096C90.3313 28.3384 90.9541 28.4252 91.542 28.6309C92.1298 28.8366 92.671 29.157 93.1339 29.5737C93.5568 30.0223 93.8833 30.5527 94.0934 31.1323C94.3034 31.712 94.3925 32.3285 94.3552 32.9438V33.4695C94.3666 33.5486 94.3595 33.6293 94.3346 33.7052C94.3096 33.7812 94.2674 33.8503 94.2112 33.9072C94.1551 33.9641 94.0865 34.0072 94.0109 34.0332C93.9353 34.0592 93.8547 34.0673 93.7754 34.0569H91.4101C91.3303 34.0686 91.2488 34.0615 91.1722 34.0361C91.0956 34.0107 91.026 33.9678 90.9689 33.9107C90.9118 33.8536 90.8689 33.784 90.8435 33.7074C90.8181 33.6308 90.811 33.5493 90.8227 33.4695V33.3071C90.854 33.0457 90.8333 32.7806 90.7616 32.5272C90.69 32.2738 90.5689 32.0371 90.4053 31.8308C89.9554 31.5149 89.4055 31.3746 88.8593 31.4365H87.7771C87.2249 31.3715 86.6694 31.5271 86.2312 31.8694C85.9035 32.3665 85.7612 32.963 85.8292 33.5545V34.0879C85.8292 34.9536 86.6022 35.456 88.1482 35.5874C89.5897 35.6858 91.0077 36.0038 92.3532 36.5305C93.0383 36.8436 93.6066 37.3659 93.9764 38.0223C94.443 38.8566 94.6704 39.8034 94.6334 40.7586V41.7094C94.671 42.3243 94.5813 42.9403 94.3698 43.5189C94.1583 44.0974 93.8297 44.6261 93.4044 45.0718C92.9407 45.5004 92.3944 45.8298 91.799 46.0398C91.2035 46.2498 90.5714 46.336 89.9415 46.2931H86.9114C86.2945 46.3296 85.6765 46.2424 85.0938 46.0366C84.511 45.8309 83.9753 45.5108 83.518 45.095C83.0898 44.6466 82.7595 44.1141 82.5479 43.5313C82.3363 42.9485 82.2482 42.3281 82.289 41.7094Z" fill="white"/>
<path d="M112.288 46.2905H109.057C108.477 46.3268 107.896 46.2447 107.348 46.0494C106.801 45.8541 106.299 45.5495 105.872 45.1543C105.482 44.7267 105.181 44.2253 104.987 43.6797C104.794 43.1342 104.711 42.5554 104.744 41.9773V32.7016C104.683 32.1203 104.753 31.5327 104.948 30.9818C105.144 30.4309 105.459 29.9306 105.873 29.5173C106.286 29.104 106.786 28.7882 107.337 28.5929C107.888 28.3976 108.476 28.3277 109.057 28.3884H112.288C112.865 28.3546 113.443 28.4371 113.987 28.631C114.532 28.8248 115.032 29.1261 115.457 29.517C115.855 29.9415 116.162 30.4431 116.359 30.9908C116.556 31.5385 116.638 32.1208 116.601 32.7016V34.0389C116.61 34.107 116.603 34.1762 116.581 34.2412C116.559 34.3061 116.522 34.3652 116.474 34.4137C116.425 34.4623 116.366 34.499 116.301 34.5212C116.236 34.5433 116.167 34.5502 116.099 34.5413H114.344C114.027 34.5413 113.873 34.3713 113.873 34.0389V32.8021C113.873 31.4262 113.208 30.7383 111.871 30.7383H109.451C108.114 30.7383 107.442 31.4262 107.442 32.8021V41.8459C107.442 43.2218 108.114 43.902 109.451 43.902H111.871C113.208 43.902 113.873 43.2218 113.873 41.8459V40.6169C113.873 40.2845 114.027 40.1222 114.344 40.1222H116.099C116.167 40.112 116.236 40.1177 116.301 40.1388C116.366 40.1599 116.425 40.1959 116.474 40.2439C116.523 40.2919 116.56 40.3506 116.582 40.4153C116.604 40.4801 116.611 40.5491 116.601 40.6169V41.9541C116.66 42.5361 116.589 43.1238 116.393 43.6749C116.197 44.2261 115.882 44.727 115.47 45.1417C115.057 45.5564 114.558 45.8745 114.008 46.0731C113.458 46.2718 112.87 46.346 112.288 46.2905Z" fill="white"/>
<path d="M121.023 46.2943H119.021C118.759 46.2943 118.666 46.1397 118.743 45.8228L123.582 28.8792C123.618 28.7321 123.706 28.6029 123.829 28.515C123.953 28.4271 124.104 28.3863 124.254 28.3999H127.037C127.188 28.3794 127.341 28.4177 127.465 28.5069C127.589 28.5961 127.674 28.7293 127.702 28.8792L132.549 45.8228C132.618 46.1397 132.549 46.2943 132.239 46.2943H130.261C130.137 46.306 130.014 46.2731 129.913 46.2016C129.831 46.0907 129.78 45.9599 129.766 45.8228L128.707 42.2053H122.585L121.526 45.8228C121.449 46.1165 121.286 46.2943 121.023 46.2943ZM125.592 31.0744L123.141 39.9559H128.173L125.739 31.0512L125.592 31.0744Z" fill="white"/>
<path d="M137.527 46.2922H135.787C135.723 46.3012 135.658 46.2952 135.597 46.2747C135.535 46.2542 135.48 46.2197 135.434 46.174C135.388 46.1283 135.354 46.0725 135.333 46.0112C135.313 45.9499 135.307 45.8847 135.316 45.8207V28.8538C135.305 28.7892 135.31 28.7231 135.33 28.6607C135.35 28.5984 135.385 28.5416 135.43 28.495C135.476 28.4483 135.533 28.4131 135.595 28.3922C135.657 28.3713 135.723 28.3653 135.787 28.3746H142.412C142.989 28.3408 143.566 28.4233 144.111 28.6171C144.655 28.811 145.155 29.1123 145.581 29.5031C145.979 29.9276 146.286 30.4292 146.483 30.977C146.68 31.5247 146.762 32.107 146.725 32.6878V35.5864C146.778 36.1662 146.704 36.7507 146.506 37.2983C146.308 37.846 145.992 38.3433 145.58 38.755C145.169 39.1667 144.671 39.4827 144.124 39.6806C143.576 39.8784 142.992 39.9532 142.412 39.8996H138.346C138.129 39.8996 138.014 39.9924 138.014 40.1779V45.7975C138.027 45.8647 138.025 45.9343 138.005 46.0002C137.986 46.066 137.95 46.1261 137.902 46.175C137.854 46.2239 137.795 46.2602 137.729 46.2806C137.664 46.3011 137.594 46.305 137.527 46.2922ZM138.3 37.5266H142.002C143.316 37.5266 143.973 36.8387 143.973 35.4705V32.8037C143.973 31.4278 143.316 30.7399 142.002 30.7399H138.3C138.091 30.7399 137.99 30.8326 137.99 31.0182V37.202C137.998 37.4107 138.106 37.5034 138.307 37.5034L138.3 37.5266Z" fill="white"/>
<path d="M152.83 28.8546V45.7982C152.839 45.8623 152.833 45.9275 152.812 45.9888C152.792 46.0501 152.757 46.1058 152.712 46.1516C152.666 46.1973 152.61 46.2318 152.549 46.2523C152.488 46.2728 152.422 46.2788 152.358 46.2697H150.604C150.54 46.2788 150.474 46.2728 150.413 46.2523C150.352 46.2318 150.296 46.1973 150.25 46.1516C150.205 46.1058 150.17 46.0501 150.15 45.9888C150.129 45.9275 150.123 45.8623 150.132 45.7982V28.8546C150.122 28.79 150.127 28.7238 150.147 28.6615C150.167 28.5992 150.201 28.5424 150.247 28.4958C150.293 28.4491 150.349 28.4139 150.411 28.393C150.473 28.3721 150.539 28.366 150.604 28.3753H152.358C152.423 28.366 152.489 28.3721 152.551 28.393C152.613 28.4139 152.669 28.4491 152.715 28.4958C152.761 28.5424 152.795 28.5992 152.815 28.6615C152.835 28.7238 152.84 28.79 152.83 28.8546Z" fill="white"/>
<path d="M161.928 46.2936H160.173C159.841 46.2936 159.679 46.139 159.679 45.8221V31.0196C159.684 30.9818 159.68 30.9434 159.668 30.9073C159.656 30.8712 159.635 30.8384 159.608 30.8115C159.581 30.7846 159.549 30.7642 159.513 30.752C159.476 30.7399 159.438 30.7362 159.4 30.7413H155.883C155.551 30.7413 155.381 30.5867 155.381 30.2698V28.8552C155.381 28.5383 155.551 28.376 155.883 28.376H166.21C166.276 28.366 166.344 28.3714 166.407 28.3917C166.471 28.412 166.528 28.4467 166.576 28.4931C166.624 28.5394 166.661 28.5963 166.683 28.6591C166.705 28.7219 166.713 28.789 166.705 28.8552V30.2698C166.705 30.5867 166.543 30.7413 166.21 30.7413H162.701C162.5 30.7413 162.392 30.8341 162.392 31.0196V45.7989C162.405 45.8639 162.402 45.931 162.384 45.9947C162.365 46.0584 162.332 46.1169 162.287 46.1652C162.241 46.2135 162.185 46.2504 162.123 46.2727C162.06 46.295 161.994 46.3022 161.928 46.2936Z" fill="white"/>
<path d="M170.084 46.2935H168.082C167.819 46.2935 167.726 46.1389 167.804 45.8219L172.643 28.8783C172.677 28.7319 172.764 28.6028 172.886 28.5148C173.008 28.4268 173.157 28.3857 173.307 28.3991H176.098C176.249 28.3805 176.401 28.4195 176.524 28.5084C176.647 28.5972 176.732 28.7294 176.762 28.8783L181.601 45.8219C181.679 46.1389 181.601 46.2935 181.3 46.2935H179.321C179.198 46.3051 179.074 46.2722 178.973 46.2007C178.891 46.0891 178.838 45.959 178.819 45.8219L177.767 42.2044H171.638L170.571 45.7988C170.509 46.1157 170.347 46.2935 170.084 46.2935ZM174.645 31.0736L172.202 39.9551H177.234L174.76 31.0504L174.645 31.0736Z" fill="white"/>
<path d="M193.845 46.2929H184.832C184.768 46.3019 184.703 46.296 184.642 46.2755C184.58 46.2549 184.525 46.2205 184.479 46.1748C184.433 46.129 184.399 46.0733 184.378 46.012C184.358 45.9507 184.352 45.8854 184.361 45.8214V28.8546C184.35 28.79 184.355 28.7238 184.375 28.6615C184.395 28.5992 184.429 28.5424 184.475 28.4958C184.521 28.4491 184.577 28.4139 184.639 28.393C184.701 28.3721 184.767 28.366 184.832 28.3753H186.587C186.651 28.3677 186.717 28.3749 186.778 28.3964C186.839 28.4178 186.895 28.4531 186.94 28.4993C186.986 28.5456 187.02 28.6017 187.041 28.6632C187.061 28.7248 187.067 28.7903 187.058 28.8546V43.5411C187.058 43.7267 187.167 43.8194 187.391 43.8194H193.845C194.162 43.8194 194.317 43.9895 194.317 44.3218V45.7673C194.336 45.8351 194.338 45.9067 194.322 45.9754C194.306 46.0441 194.273 46.1077 194.226 46.1602C194.179 46.2127 194.119 46.2524 194.053 46.2756C193.986 46.2988 193.915 46.3048 193.845 46.2929Z" fill="white"/>
</g>
<defs>
<clipPath id="clip0_3988_31868">
<rect width="210" height="72" fill="white"/>
</clipPath>
</defs>
</svg>
